<svg width="23" height="23" viewBox="0 0 23 23" fill="none" xmlns="http://www.w3.org/2000/svg">
<rect width="23" height="23" rx="11.5" fill="#5865F2"/>
<path d="M16.356 6.63973C15.4853 6.22792 14.5516 5.9245 13.5754 5.75073C13.5576 5.74738 13.5399 5.75576 13.5307 5.77252C13.4106 5.99267 13.2776 6.27988 13.1845 6.50562C12.1345 6.34358 11.0899 6.34358 10.0614 6.50562C9.96829 6.27486 9.83045 5.99267 9.70983 5.77252C9.70067 5.75632 9.68292 5.74793 9.66514 5.75073C8.68946 5.92395 7.75579 6.22736 6.88457 6.63973C6.87703 6.64309 6.87056 6.64868 6.86627 6.65594C5.09529 9.3833 4.61014 12.0436 4.84814 14.671C4.84922 14.6838 4.85622 14.6961 4.86591 14.7039C6.03435 15.5885 7.16619 16.1254 8.27701 16.4814C8.29479 16.487 8.31362 16.4803 8.32494 16.4652C8.5877 16.0953 8.82193 15.7053 9.02276 15.2951C9.03461 15.2711 9.0233 15.2426 8.99908 15.2331C8.62755 15.0878 8.27378 14.9107 7.93347 14.7095C7.90656 14.6933 7.9044 14.6536 7.92916 14.6346C8.00078 14.5793 8.07241 14.5218 8.14079 14.4637C8.15316 14.453 8.1704 14.4508 8.18494 14.4575C10.4206 15.5097 12.8409 15.5097 15.0502 14.4575C15.0648 14.4502 15.082 14.4525 15.0949 14.4631C15.1633 14.5212 15.2349 14.5793 15.3071 14.6346C15.3318 14.6536 15.3302 14.6933 15.3033 14.7095C14.963 14.9146 14.6092 15.0878 14.2372 15.2325C14.2129 15.242 14.2022 15.2711 14.214 15.2951C14.4191 15.7047 14.6534 16.0947 14.9113 16.4646C14.9221 16.4803 14.9414 16.487 14.9592 16.4814C16.0754 16.1254 17.2073 15.5885 18.3757 14.7039C18.3859 14.6961 18.3924 14.6844 18.3935 14.6715C18.6783 11.634 17.9164 8.99552 16.3737 6.65649C16.37 6.64868 16.3635 6.64309 16.356 6.63973ZM9.35662 13.0712C8.68354 13.0712 8.12893 12.4342 8.12893 11.6519C8.12893 10.8696 8.67278 10.2326 9.35662 10.2326C10.0458 10.2326 10.5951 10.8752 10.5843 11.6519C10.5843 12.4342 10.0404 13.0712 9.35662 13.0712ZM13.8958 13.0712C13.2227 13.0712 12.6681 12.4342 12.6681 11.6519C12.6681 10.8696 13.2119 10.2326 13.8958 10.2326C14.585 10.2326 15.1342 10.8752 15.1235 11.6519C15.1235 12.4342 14.585 13.0712 13.8958 13.0712Z" fill="white"/>
</svg>
