<svg width="49" height="49" viewBox="0 0 49 49" fill="none" xmlns="http://www.w3.org/2000/svg">
<rect width="49" height="49" rx="24.5" fill="#5865F2"/>
<path d="M34.8453 14.1455C32.9904 13.2682 31.0012 12.6218 28.9215 12.2516C28.8836 12.2444 28.8458 12.2623 28.8263 12.298C28.5704 12.767 28.2871 13.3789 28.0886 13.8598C25.8517 13.5146 23.6263 13.5146 21.4352 13.8598C21.2368 13.3682 20.9431 12.767 20.6861 12.298C20.6666 12.2635 20.6288 12.2456 20.5909 12.2516C18.5123 12.6206 16.5232 13.267 14.6671 14.1455C14.651 14.1527 14.6373 14.1646 14.6281 14.18C10.8551 19.9905 9.82158 25.6582 10.3286 31.2555C10.3309 31.2829 10.3458 31.3091 10.3665 31.3258C12.8558 33.2102 15.2671 34.3542 17.6336 35.1125C17.6715 35.1244 17.7116 35.1101 17.7357 35.078C18.2955 34.2899 18.7945 33.459 19.2224 32.5852C19.2476 32.5341 19.2235 32.4733 19.1719 32.4531C18.3804 32.1436 17.6267 31.7662 16.9017 31.3377C16.8444 31.3032 16.8398 31.2186 16.8925 31.1781C17.0451 31.0603 17.1977 30.9377 17.3434 30.8139C17.3697 30.7913 17.4065 30.7865 17.4375 30.8008C22.2004 33.0424 27.3568 33.0424 32.0634 30.8008C32.0944 30.7853 32.1312 30.7901 32.1587 30.8127C32.3044 30.9365 32.457 31.0603 32.6107 31.1781C32.6634 31.2186 32.66 31.3032 32.6026 31.3377C31.8776 31.7745 31.124 32.1436 30.3313 32.4519C30.2797 32.4722 30.2567 32.5341 30.282 32.5852C30.719 33.4578 31.218 34.2887 31.7675 35.0768C31.7905 35.1101 31.8317 35.1244 31.8696 35.1125C34.2476 34.3542 36.6589 33.2102 39.1482 31.3258C39.17 31.3091 39.1838 31.2841 39.1861 31.2567C39.7929 24.7855 38.1697 19.1644 34.8831 14.1812C34.8751 14.1646 34.8614 14.1527 34.8453 14.1455ZM19.9336 27.8473C18.4997 27.8473 17.3181 26.4903 17.3181 24.8237C17.3181 23.157 18.4768 21.8 19.9336 21.8C21.4019 21.8 22.572 23.169 22.5491 24.8237C22.5491 26.4903 21.3905 27.8473 19.9336 27.8473ZM29.604 27.8473C28.1701 27.8473 26.9885 26.4903 26.9885 24.8237C26.9885 23.157 28.1471 21.8 29.604 21.8C31.0723 21.8 32.2424 23.169 32.2195 24.8237C32.2195 26.4903 31.0723 27.8473 29.604 27.8473Z" fill="white"/>
</svg>
