<svg width="22" height="22" viewBox="0 0 22 22" fill="none" xmlns="http://www.w3.org/2000/svg">
<rect x="0.190918" y="0.193298" width="21.6411" height="21.6411" rx="10.8206" fill="#FFFC00"/>
<path d="M16.6545 14.4706C14.5415 13.4477 14.2048 11.8685 14.1898 11.7514C14.1716 11.6095 14.1511 11.4979 14.3076 11.3536C14.4586 11.2142 15.1282 10.7997 15.3141 10.67C15.6212 10.4552 15.7564 10.2408 15.6567 9.97727C15.587 9.79495 15.4172 9.72627 15.2384 9.72627C15.182 9.72645 15.1258 9.73276 15.0707 9.7451C14.7333 9.81831 14.4056 9.98738 14.2159 10.0331C14.1931 10.0389 14.1697 10.0421 14.1462 10.0425C14.0451 10.0425 14.0068 9.99749 14.0165 9.87583C14.0402 9.507 14.0904 8.78711 14.0322 8.11463C13.9524 7.18941 13.654 6.73099 13.3001 6.32555C13.1289 6.12893 12.3341 5.28424 10.8002 5.28424C9.26631 5.28424 8.47251 6.12893 8.30239 6.32311C7.9475 6.72855 7.64944 7.18697 7.5703 8.11219C7.51208 8.78467 7.56437 9.50421 7.58599 9.87339C7.59296 9.98913 7.5574 10.04 7.4563 10.04C7.43278 10.0396 7.40938 10.0365 7.38658 10.0306C7.19728 9.98494 6.86959 9.81587 6.53213 9.74266C6.47708 9.73032 6.42086 9.72401 6.36445 9.72383C6.18491 9.72383 6.01583 9.79356 5.94611 9.97483C5.84641 10.2384 5.98097 10.4528 6.28915 10.6675C6.47496 10.7972 7.14464 11.2114 7.29559 11.3512C7.45177 11.4955 7.43155 11.607 7.41343 11.7489C7.39843 11.8678 7.06133 13.447 4.94873 14.4681C4.82497 14.5281 4.61441 14.655 4.98568 14.86C5.56856 15.1821 5.95657 15.1476 6.25812 15.3417C6.514 15.5066 6.3627 15.8622 6.54886 15.9905C6.77755 16.1484 7.45352 15.9794 8.32679 16.2677C9.05888 16.5089 9.50371 17.1904 10.8019 17.1904C12.1002 17.1904 12.5579 16.5058 13.2771 16.2677C14.1486 15.9794 14.826 16.1484 15.055 15.9905C15.2408 15.8622 15.0899 15.5066 15.3458 15.3417C15.6473 15.1476 16.035 15.1821 16.6182 14.86C16.9888 14.6574 16.7782 14.5305 16.6545 14.4706Z" fill="white"/>
<path d="M17.5738 14.3503C17.479 14.0923 17.2984 13.9543 17.0927 13.8399C17.054 13.8173 17.0184 13.7991 16.9881 13.7852C16.9267 13.7535 16.864 13.7228 16.8016 13.6904C16.1605 13.3505 15.6599 12.9217 15.3127 12.4134C15.2141 12.2703 15.1285 12.1186 15.0571 11.9602C15.0275 11.8755 15.0289 11.8274 15.0502 11.7834C15.0713 11.7496 15.0992 11.7205 15.1321 11.698C15.2422 11.6252 15.3559 11.5513 15.4329 11.5014C15.5703 11.4125 15.6791 11.3421 15.7491 11.2922C16.0123 11.1082 16.1964 10.9126 16.3114 10.694C16.3917 10.543 16.4385 10.3765 16.4487 10.2058C16.4589 10.035 16.4321 9.86414 16.3704 9.70466C16.1961 9.24589 15.7627 8.96107 15.2377 8.96107C15.127 8.96097 15.0165 8.97265 14.9083 8.99593C14.8793 9.00221 14.8504 9.00883 14.8222 9.01615C14.8271 8.7024 14.8201 8.37122 14.7922 8.04527C14.6932 6.89937 14.2919 6.29871 13.8736 5.81972C13.6057 5.51956 13.2902 5.26562 12.9397 5.06811C12.3048 4.70555 11.5849 4.52148 10.8002 4.52148C10.0155 4.52148 9.29909 4.70555 8.66357 5.06811C8.31221 5.26568 7.99603 5.52013 7.7279 5.82111C7.30956 6.30011 6.90831 6.90181 6.8093 8.04666C6.78141 8.37261 6.77444 8.70554 6.77897 9.01755C6.75073 9.01023 6.72215 9.0036 6.69321 8.99733C6.58495 8.97405 6.47451 8.96236 6.36377 8.96247C5.83841 8.96247 5.40439 9.24728 5.23078 9.70606C5.16872 9.8656 5.14174 10.0366 5.15167 10.2075C5.16159 10.3784 5.20819 10.5452 5.2883 10.6965C5.40369 10.915 5.58776 11.1106 5.85096 11.2947C5.92069 11.3435 6.0298 11.4139 6.16715 11.5039C6.24141 11.552 6.34983 11.6224 6.45615 11.6928C6.49336 11.7169 6.52497 11.7486 6.54889 11.7859C6.5712 11.8316 6.57189 11.8807 6.53878 11.9713C6.46833 12.1264 6.38422 12.275 6.28743 12.4151C5.94788 12.9119 5.46191 13.333 4.84138 13.6701C4.51264 13.8444 4.171 13.9609 4.02667 14.3531C3.9179 14.649 3.98902 14.9858 4.26547 15.2696C4.36693 15.3755 4.48461 15.4646 4.61408 15.5335C4.88349 15.6815 5.16996 15.7961 5.46714 15.8748C5.52847 15.8906 5.58669 15.9166 5.63935 15.9518C5.7401 16.04 5.72581 16.1728 5.86003 16.3674C5.9274 16.4679 6.01301 16.5549 6.11242 16.6239C6.3941 16.8185 6.71064 16.8307 7.04601 16.8436C7.34895 16.8551 7.69234 16.8683 8.08453 16.9977C8.24698 17.0513 8.41571 17.1552 8.61128 17.2765C9.08086 17.5652 9.7237 17.9602 10.7995 17.9602C11.8753 17.9602 12.5227 17.5631 12.9958 17.2734C13.19 17.1542 13.3576 17.0513 13.5156 16.999C13.9078 16.8694 14.2511 16.8565 14.5541 16.845C14.8895 16.8321 15.206 16.8199 15.4877 16.6253C15.6054 16.5432 15.7035 16.4361 15.7749 16.3116C15.8715 16.1474 15.8691 16.0327 15.9597 15.9525C16.0091 15.919 16.0638 15.894 16.1215 15.8786C16.4227 15.7997 16.7131 15.6841 16.986 15.5342C17.1236 15.4604 17.2474 15.3634 17.3521 15.2476L17.3555 15.2434C17.6149 14.9659 17.6801 14.6389 17.5738 14.3503ZM16.6175 14.8641C16.0343 15.1863 15.6466 15.1517 15.3451 15.3459C15.0889 15.5108 15.2405 15.8664 15.0543 15.9947C14.8257 16.1526 14.1497 15.9835 13.2764 16.2718C12.5562 16.5099 12.0967 17.1946 10.8013 17.1946C9.50582 17.1946 9.05716 16.5113 8.32507 16.2701C7.45354 15.9818 6.77618 16.1509 6.54714 15.9929C6.36133 15.8647 6.51228 15.5091 6.2564 15.3442C5.9545 15.15 5.56684 15.1845 4.98396 14.8641C4.61269 14.6592 4.82325 14.5323 4.94701 14.4723C7.0596 13.4495 7.39671 11.8702 7.4117 11.7531C7.42983 11.6112 7.45005 11.4997 7.29387 11.3553C7.14292 11.2159 6.47324 10.8014 6.28743 10.6717C5.97995 10.457 5.84469 10.2426 5.94439 9.97902C6.01411 9.7967 6.18424 9.72802 6.36273 9.72802C6.41914 9.72819 6.47536 9.73451 6.53041 9.74685C6.86787 9.82006 7.19556 9.98913 7.38486 10.0348C7.40765 10.0407 7.43105 10.0438 7.45458 10.0442C7.55568 10.0442 7.59124 9.99332 7.58427 9.87758C7.56265 9.5084 7.51036 8.78886 7.56858 8.11638C7.64841 7.19116 7.94648 6.73274 8.30067 6.3273C8.47079 6.13243 9.27016 5.28774 10.7988 5.28774C12.3275 5.28774 13.129 6.12894 13.2991 6.32312C13.6536 6.72855 13.952 7.18698 14.0312 8.1122C14.0894 8.78468 14.0392 9.50456 14.0155 9.87339C14.0075 9.99506 14.0441 10.04 14.1452 10.04C14.1687 10.0397 14.1921 10.0365 14.2149 10.0306C14.4045 9.98495 14.7322 9.81587 15.0697 9.74266C15.1247 9.73032 15.181 9.72401 15.2374 9.72384C15.4169 9.72384 15.586 9.79356 15.6557 9.97484C15.7554 10.2384 15.6208 10.4528 15.313 10.6675C15.1272 10.7972 14.4575 11.2114 14.3066 11.3512C14.15 11.4955 14.1706 11.607 14.1887 11.7489C14.2037 11.8678 14.5405 13.447 16.6534 14.4681C16.7782 14.5305 16.9888 14.6574 16.6175 14.8641Z" fill="white"/>
</svg>
