<svg width="32" height="32" viewBox="0 0 32 32" fill="none" xmlns="http://www.w3.org/2000/svg">
<rect width="32" height="32" rx="16" fill="#FFFC00"/>
<path d="M24.3442 21.1114C21.2199 19.5989 20.7219 17.2638 20.6998 17.0906C20.673 16.8808 20.6425 16.7158 20.874 16.5024C21.0972 16.2962 22.0874 15.6833 22.3622 15.4916C22.8163 15.174 23.0163 14.857 22.8689 14.4673C22.7658 14.1977 22.5148 14.0962 22.2503 14.0962C22.1669 14.0964 22.0838 14.1057 22.0024 14.124C21.5034 14.2322 21.0188 14.4823 20.7384 14.5498C20.7047 14.5585 20.6701 14.5631 20.6353 14.5637C20.4858 14.5637 20.4291 14.4972 20.4436 14.3173C20.4786 13.7719 20.5528 12.7074 20.4668 11.7131C20.3487 10.345 19.9075 9.66712 19.3842 9.06761C19.1311 8.77688 17.9558 7.52786 15.6877 7.52786C13.4196 7.52786 12.2458 8.77688 11.9943 9.064C11.4695 9.66351 11.0288 10.3414 10.9118 11.7095C10.8257 12.7038 10.903 13.7678 10.935 14.3137C10.9453 14.4848 10.8927 14.5601 10.7432 14.5601C10.7084 14.5595 10.6738 14.5548 10.6401 14.5462C10.3602 14.4786 9.87563 14.2286 9.37664 14.1204C9.29525 14.1021 9.21211 14.0928 9.1287 14.0925C8.86322 14.0925 8.61321 14.1956 8.51012 14.4637C8.36269 14.8534 8.56166 15.1704 9.01735 15.488C9.2921 15.6797 10.2823 16.2921 10.5056 16.4988C10.7365 16.7122 10.7066 16.8772 10.6798 17.087C10.6576 17.2628 10.1591 19.5979 7.03532 21.1078C6.85232 21.1964 6.54097 21.3841 7.08996 21.6872C7.95185 22.1635 8.52558 22.1124 8.97147 22.3996C9.34984 22.6434 9.12612 23.1692 9.40139 23.3589C9.73954 23.5924 10.7391 23.3424 12.0304 23.7687C13.1129 24.1254 13.7706 25.1332 15.6903 25.1332C17.6099 25.1332 18.2868 24.1208 19.3502 23.7687C20.6389 23.3424 21.6405 23.5924 21.9792 23.3589C22.2539 23.1692 22.0307 22.6434 22.4091 22.3996C22.855 22.1124 23.4282 22.1635 24.2906 21.6872C24.8386 21.3877 24.5272 21.2 24.3442 21.1114Z" fill="white"/>
<path d="M25.7036 20.9335C25.5634 20.5521 25.2963 20.3479 24.9922 20.1789C24.935 20.1453 24.8824 20.1185 24.8376 20.0979C24.7468 20.051 24.654 20.0057 24.5618 19.9577C23.6138 19.4551 22.8736 18.8211 22.3601 18.0695C22.2143 17.8579 22.0879 17.6336 21.9823 17.3994C21.9385 17.2741 21.9405 17.203 21.972 17.138C22.0032 17.088 22.0444 17.045 22.0931 17.0117C22.256 16.904 22.4241 16.7947 22.538 16.721C22.7411 16.5895 22.9019 16.4854 23.0055 16.4117C23.3947 16.1395 23.6669 15.8503 23.837 15.5271C23.9557 15.3038 24.0249 15.0576 24.0399 14.8052C24.055 14.5527 24.0155 14.3 23.9241 14.0642C23.6664 13.3858 23.0256 12.9647 22.2493 12.9647C22.0856 12.9645 21.9223 12.9818 21.7622 13.0162C21.7194 13.0255 21.6766 13.0353 21.6349 13.0461C21.6421 12.5822 21.6318 12.0925 21.5905 11.6105C21.4441 9.9161 20.8508 9.02793 20.2322 8.31965C19.8361 7.87582 19.3695 7.50032 18.8513 7.20827C17.9126 6.67217 16.8481 6.39999 15.6877 6.39999C14.5274 6.39999 13.4681 6.67217 12.5283 7.20827C12.0088 7.50041 11.5413 7.87666 11.1448 8.32171C10.5262 9.02999 9.93288 9.91971 9.78649 11.6126C9.74525 12.0945 9.73494 12.5868 9.74164 13.0482C9.69988 13.0374 9.65762 13.0276 9.61483 13.0183C9.45474 12.9839 9.29145 12.9666 9.1277 12.9667C8.35087 12.9667 7.70909 13.3879 7.45238 14.0663C7.36062 14.3022 7.32072 14.5551 7.3354 14.8078C7.35008 15.0605 7.41898 15.307 7.53743 15.5307C7.70806 15.854 7.98023 16.1431 8.36942 16.4153C8.47252 16.4875 8.63387 16.5916 8.83697 16.7246C8.94676 16.7957 9.10708 16.8999 9.2643 17.004C9.31931 17.0396 9.36606 17.0865 9.40142 17.1416C9.43441 17.2092 9.43544 17.2818 9.38647 17.4159C9.28231 17.6452 9.15793 17.8648 9.01481 18.0721C8.51273 18.8066 7.79415 19.4293 6.87659 19.9278C6.39049 20.1856 5.88531 20.3577 5.6719 20.9376C5.51107 21.3753 5.61623 21.8732 6.02501 22.2929C6.17503 22.4495 6.34904 22.5812 6.54049 22.6831C6.93885 22.902 7.36245 23.0715 7.80188 23.1877C7.89256 23.2111 7.97865 23.2496 8.05653 23.3017C8.2055 23.4321 8.18437 23.6285 8.38283 23.9161C8.48245 24.0648 8.60904 24.1934 8.75604 24.2955C9.17255 24.5831 9.6406 24.6012 10.1365 24.6203C10.5845 24.6373 11.0922 24.6569 11.6721 24.8481C11.9123 24.9275 12.1618 25.0811 12.451 25.2605C13.1454 25.6873 14.0959 26.2713 15.6867 26.2713C17.2775 26.2713 18.2347 25.6842 18.9342 25.2558C19.2214 25.0796 19.4693 24.9275 19.7028 24.8502C20.2827 24.6584 20.7905 24.6393 21.2385 24.6223C21.7343 24.6032 22.2024 24.5852 22.6189 24.2976C22.793 24.1762 22.9381 24.0177 23.0437 23.8336C23.1865 23.5908 23.1829 23.4212 23.3169 23.3027C23.3899 23.2531 23.4708 23.2162 23.5561 23.1934C24.0015 23.0768 24.4309 22.9057 24.8345 22.6841C25.0379 22.575 25.221 22.4316 25.3757 22.2604L25.3809 22.2542C25.7644 21.8439 25.8608 21.3603 25.7036 20.9335ZM24.2896 21.6933C23.4272 22.1697 22.854 22.1186 22.4081 22.4057C22.0292 22.6496 22.2534 23.1754 21.9782 23.3651C21.64 23.5986 20.6405 23.3486 19.3492 23.7749C18.2842 24.1269 17.6048 25.1393 15.6893 25.1393C13.7737 25.1393 13.1103 24.129 12.0278 23.7723C10.7391 23.346 9.73752 23.596 9.39884 23.3625C9.12409 23.1728 9.3473 22.647 8.96893 22.4032C8.52252 22.116 7.94931 22.1671 7.08742 21.6933C6.53843 21.3902 6.84978 21.2026 7.03278 21.1139C10.1566 19.6015 10.6551 17.2664 10.6772 17.0932C10.704 16.8834 10.7339 16.7184 10.503 16.505C10.2798 16.2988 9.28956 15.6859 9.01481 15.4941C8.56015 15.1766 8.36015 14.8596 8.50757 14.4699C8.61067 14.2003 8.86223 14.0987 9.12615 14.0987C9.20957 14.099 9.29271 14.1083 9.3741 14.1266C9.87309 14.2348 10.3576 14.4848 10.6375 14.5524C10.6713 14.561 10.7059 14.5657 10.7406 14.5663C10.8901 14.5663 10.9427 14.491 10.9324 14.3199C10.9004 13.774 10.8231 12.71 10.9092 11.7157C11.0273 10.3476 11.468 9.6697 11.9917 9.0702C12.2433 8.78204 13.4253 7.53303 15.6857 7.53303C17.9461 7.53303 19.1312 8.77689 19.3827 9.06401C19.907 9.66352 20.3482 10.3414 20.4652 11.7095C20.5513 12.7038 20.4771 13.7683 20.442 14.3137C20.4302 14.4936 20.4843 14.5601 20.6338 14.5601C20.6686 14.5595 20.7032 14.5549 20.7369 14.5462C21.0173 14.4786 21.5019 14.2286 22.0009 14.1204C22.0822 14.1021 22.1654 14.0928 22.2488 14.0925C22.5143 14.0925 22.7643 14.1956 22.8674 14.4637C23.0148 14.8534 22.8158 15.1704 22.3607 15.488C22.0859 15.6797 21.0957 16.2921 20.8725 16.4988C20.641 16.7122 20.6714 16.8772 20.6982 17.087C20.7204 17.2628 21.2183 19.5979 24.3427 21.1078C24.5272 21.2 24.8386 21.3877 24.2896 21.6933Z" fill="black"/>
</svg>
