<svg width="53" height="53" viewBox="0 0 53 53" fill="none" xmlns="http://www.w3.org/2000/svg">
<rect width="53" height="53" rx="26.5" fill="#FFFC00"/>
<path d="M40.3202 34.9657C35.1455 32.4608 34.3208 28.5932 34.2841 28.3063C34.2397 27.9588 34.1893 27.6856 34.5726 27.3322C34.9423 26.9907 36.5824 25.9755 37.0375 25.6579C37.7896 25.132 38.1209 24.6069 37.8767 23.9615C37.706 23.515 37.2902 23.3468 36.8522 23.3468C36.714 23.3472 36.5763 23.3627 36.4415 23.3929C35.6151 23.5722 34.8125 23.9862 34.3481 24.0981C34.2923 24.1125 34.235 24.1202 34.1773 24.1211C33.9297 24.1211 33.8358 24.011 33.8597 23.713C33.9178 22.8098 34.0407 21.0467 33.8982 19.3998C33.7026 17.1339 32.9718 16.0112 32.1052 15.0183C31.686 14.5367 29.7394 12.468 25.9829 12.468C22.2263 12.468 20.2822 14.5367 19.8656 15.0123C18.9965 16.0052 18.2665 17.1279 18.0727 19.3938C17.9301 21.0407 18.0582 22.8029 18.1111 23.7071C18.1282 23.9905 18.0411 24.1152 17.7935 24.1152C17.7359 24.1142 17.6786 24.1064 17.6227 24.0921C17.1592 23.9803 16.3566 23.5662 15.5302 23.3869C15.3953 23.3567 15.2577 23.3412 15.1195 23.3408C14.6798 23.3408 14.2657 23.5115 14.095 23.9555C13.8508 24.601 14.1803 25.126 14.9351 25.6519C15.3901 25.9696 17.0302 26.9838 17.3999 27.3262C17.7824 27.6797 17.7329 27.9529 17.6885 28.3003C17.6518 28.5915 16.8262 32.4591 11.6523 34.9597C11.3492 35.1066 10.8336 35.4174 11.7428 35.9194C13.1703 36.7083 14.1206 36.6237 14.8591 37.0993C15.4858 37.5031 15.1152 38.374 15.5711 38.6882C16.1312 39.0749 17.7867 38.6608 19.9254 39.3669C21.7183 39.9577 22.8077 41.6268 25.9871 41.6268C29.1666 41.6268 30.2876 39.95 32.0489 39.3669C34.1833 38.6608 35.8422 39.0749 36.4031 38.6882C36.8582 38.374 36.4885 37.5031 37.1152 37.0993C37.8537 36.6237 38.8031 36.7083 40.2314 35.9194C41.139 35.4233 40.6233 35.1126 40.3202 34.9657Z" fill="white"/>
<path d="M42.5716 34.6712C42.3393 34.0394 41.8971 33.7013 41.3934 33.4212C41.2986 33.3657 41.2115 33.3213 41.1372 33.2872C40.987 33.2095 40.8333 33.1344 40.6805 33.055C39.1104 32.2225 37.8844 31.1724 37.034 29.9276C36.7925 29.5772 36.5831 29.2057 36.4082 28.8177C36.3356 28.6103 36.3391 28.4924 36.3911 28.3849C36.4428 28.302 36.5111 28.2307 36.5918 28.1757C36.8616 27.9972 37.1399 27.8162 37.3286 27.6942C37.665 27.4764 37.9313 27.304 38.1029 27.1819C38.7475 26.7311 39.1983 26.2521 39.4801 25.7168C39.6766 25.347 39.7913 24.9391 39.8162 24.521C39.8411 24.103 39.7757 23.6844 39.6244 23.2938C39.1975 22.1703 38.1362 21.4727 36.8505 21.4727C36.5793 21.4725 36.3088 21.5011 36.0437 21.5581C35.9728 21.5735 35.9019 21.5897 35.8328 21.6076C35.8447 20.8392 35.8277 20.0282 35.7593 19.2299C35.5169 16.4236 34.5342 14.9525 33.5097 13.7794C32.8536 13.0443 32.0808 12.4224 31.2224 11.9387C29.6677 11.0508 27.9047 10.6 25.9828 10.6C24.061 10.6 22.3065 11.0508 20.7501 11.9387C19.8896 12.4226 19.1153 13.0457 18.4586 13.7828C17.4341 14.9559 16.4514 16.4295 16.2089 19.2333C16.1406 20.0316 16.1235 20.8469 16.1346 21.6111C16.0655 21.5931 15.9955 21.5769 15.9246 21.5615C15.6595 21.5045 15.389 21.4759 15.1178 21.4762C13.8312 21.4762 12.7682 22.1737 12.343 23.2972C12.1911 23.688 12.125 24.1068 12.1493 24.5254C12.1736 24.9439 12.2877 25.3523 12.4839 25.7228C12.7665 26.2581 13.2173 26.7371 13.8619 27.1879C14.0326 27.3074 14.2999 27.4799 14.6363 27.7001C14.8181 27.818 15.0836 27.9904 15.344 28.1629C15.4351 28.2218 15.5126 28.2995 15.5711 28.3908C15.6258 28.5027 15.6275 28.6231 15.5464 28.845C15.3739 29.2249 15.1679 29.5886 14.9308 29.9319C14.0992 31.1485 12.9091 32.1799 11.3894 33.0055C10.5843 33.4323 9.74758 33.7175 9.39412 34.678C9.12775 35.4028 9.30192 36.2276 9.97895 36.9225C10.2274 37.1819 10.5156 37.4001 10.8327 37.5688C11.4925 37.9314 12.1941 38.2121 12.9219 38.4047C13.0721 38.4434 13.2147 38.5072 13.3437 38.5934C13.5904 38.8094 13.5554 39.1347 13.8841 39.6111C14.0491 39.8573 14.2587 40.0704 14.5022 40.2394C15.1921 40.7158 15.9673 40.7457 16.7886 40.7773C17.5305 40.8055 18.3715 40.8379 19.332 41.1547C19.7298 41.2862 20.1431 41.5406 20.622 41.8377C21.7721 42.5446 23.3464 43.5119 25.9811 43.5119C28.6159 43.5119 30.2013 42.5395 31.3599 41.83C31.8354 41.538 32.2461 41.2862 32.6329 41.1581C33.5933 40.8405 34.4343 40.8089 35.1762 40.7807C35.9976 40.7491 36.7728 40.7193 37.4626 40.2428C37.751 40.0418 37.9912 39.7794 38.1661 39.4745C38.4026 39.0723 38.3966 38.7914 38.6186 38.5951C38.7396 38.513 38.8735 38.4518 39.0148 38.4141C39.7525 38.2209 40.4636 37.9376 41.1321 37.5706C41.469 37.3898 41.7723 37.1524 42.0286 36.8688L42.0371 36.8585C42.6723 36.1789 42.832 35.3781 42.5716 34.6712ZM40.2297 35.9296C38.8013 36.7185 37.8519 36.634 37.1134 37.1095C36.4859 37.5134 36.8573 38.3842 36.4014 38.6984C35.8413 39.0851 34.1859 38.6711 32.0472 39.3771C30.2833 39.9603 29.158 41.6371 25.9854 41.6371C22.8128 41.6371 21.714 39.9637 19.9211 39.3729C17.7867 38.6668 16.1278 39.0809 15.5669 38.6941C15.1118 38.3799 15.4815 37.5091 14.8548 37.1052C14.1155 36.6297 13.1661 36.7142 11.7386 35.9296C10.8293 35.4276 11.345 35.1168 11.6481 34.97C16.8219 32.465 17.6475 28.5974 17.6842 28.3106C17.7286 27.9631 17.7781 27.6899 17.3956 27.3364C17.026 26.9949 15.3859 25.9798 14.9308 25.6622C14.1778 25.1363 13.8465 24.6112 14.0907 23.9657C14.2615 23.5192 14.6781 23.351 15.1152 23.351C15.2534 23.3515 15.3911 23.3669 15.5259 23.3971C16.3523 23.5764 17.1549 23.9905 17.6185 24.1024C17.6743 24.1167 17.7316 24.1244 17.7892 24.1254C18.0368 24.1254 18.1239 24.0008 18.1068 23.7173C18.0539 22.8132 17.9258 21.051 18.0684 19.4041C18.2639 17.1382 18.9939 16.0155 19.8613 15.0225C20.278 14.5453 22.2357 12.4766 25.9794 12.4766C29.7232 12.4766 31.686 14.5367 32.1027 15.0123C32.9709 16.0052 33.7018 17.1279 33.8956 19.3938C34.0382 21.0407 33.9152 22.8038 33.8572 23.7071C33.8375 24.005 33.9272 24.1152 34.1748 24.1152C34.2324 24.1142 34.2897 24.1065 34.3455 24.0921C34.81 23.9803 35.6125 23.5662 36.4389 23.3869C36.5738 23.3567 36.7115 23.3412 36.8496 23.3408C37.2893 23.3408 37.7034 23.5115 37.8741 23.9555C38.1183 24.601 37.7888 25.126 37.0349 25.6519C36.5798 25.9695 34.9397 26.9838 34.57 27.3262C34.1867 27.6796 34.2371 27.9529 34.2815 28.3003C34.3182 28.5915 35.1429 32.459 40.3176 34.9597C40.6233 35.1126 41.1389 35.4233 40.2297 35.9296Z" fill="black"/>
</svg>
