<svg width="34" height="34" viewBox="0 0 34 34" fill="none" xmlns="http://www.w3.org/2000/svg">
<rect width="34" height="34" rx="17" fill="#FFFC00"/>
<path d="M25.8658 22.4308C22.5462 20.8239 22.0171 18.3428 21.9936 18.1588C21.9651 17.9358 21.9328 17.7606 22.1787 17.5338C22.4158 17.3147 23.468 16.6635 23.7599 16.4598C24.2424 16.1224 24.4549 15.7856 24.2983 15.3715C24.1887 15.0851 23.922 14.9772 23.641 14.9772C23.5524 14.9774 23.4641 14.9873 23.3776 15.0067C22.8474 15.1218 22.3326 15.3874 22.0346 15.4591C21.9988 15.4684 21.9621 15.4733 21.9251 15.4739C21.7663 15.4739 21.706 15.4033 21.7213 15.2121C21.7586 14.6327 21.8375 13.5017 21.746 12.4451C21.6206 10.9915 21.1517 10.2713 20.5958 9.63434C20.3269 9.32543 19.0781 7.99835 16.6683 7.99835C14.2584 7.99835 13.0113 9.32543 12.744 9.6305C12.1864 10.2675 11.7181 10.9877 11.5938 12.4413C11.5023 13.4978 11.5845 14.6283 11.6184 15.2083C11.6294 15.3901 11.5735 15.4701 11.4147 15.4701C11.3777 15.4695 11.341 15.4645 11.3052 15.4553C11.0078 15.3836 10.4929 15.1179 9.96275 15.0029C9.87626 14.9835 9.78793 14.9736 9.6993 14.9733C9.41724 14.9733 9.1516 15.0829 9.04206 15.3677C8.88542 15.7817 9.09683 16.1186 9.581 16.456C9.87292 16.6597 10.9251 17.3104 11.1622 17.53C11.4076 17.7567 11.3758 17.932 11.3473 18.1549C11.3238 18.3417 10.7942 20.8228 7.47509 22.427C7.28065 22.5212 6.94984 22.7206 7.53314 23.0426C8.4489 23.5487 9.05849 23.4945 9.53225 23.7995C9.93426 24.0586 9.69656 24.6172 9.98904 24.8188C10.3483 25.0669 11.4103 24.8013 12.7823 25.2542C13.9325 25.6332 14.6314 26.704 16.671 26.704C18.7106 26.704 19.4298 25.6283 20.5597 25.2542C21.9289 24.8013 22.9931 25.0669 23.3529 24.8188C23.6449 24.6172 23.4077 24.0586 23.8097 23.7995C24.2835 23.4945 24.8925 23.5487 25.8088 23.0426C26.391 22.7244 26.0602 22.525 25.8658 22.4308Z" fill="white"/>
<path d="M27.3101 22.2419C27.1611 21.8366 26.8774 21.6197 26.5543 21.44C26.4935 21.4044 26.4376 21.3759 26.3899 21.354C26.2935 21.3042 26.195 21.256 26.0969 21.2051C25.0897 20.6711 24.3032 19.9974 23.7577 19.1988C23.6028 18.974 23.4684 18.7357 23.3562 18.4868C23.3097 18.3537 23.3119 18.2782 23.3453 18.2091C23.3784 18.156 23.4222 18.1103 23.474 18.075C23.6471 17.9605 23.8256 17.8444 23.9466 17.7661C24.1624 17.6264 24.3333 17.5158 24.4434 17.4374C24.8569 17.1482 25.1461 16.841 25.3269 16.4976C25.453 16.2603 25.5265 15.9987 25.5425 15.7305C25.5584 15.4623 25.5165 15.1937 25.4194 14.9432C25.1456 14.2224 24.4648 13.775 23.6399 13.775C23.466 13.7748 23.2925 13.7932 23.1224 13.8297C23.0769 13.8396 23.0314 13.85 22.9871 13.8615C22.9947 13.3686 22.9838 12.8482 22.94 12.3361C22.7844 10.5359 22.154 9.59217 21.4968 8.83963C21.0759 8.36805 20.5802 7.96909 20.0295 7.65878C19.0321 7.08917 17.9011 6.79999 16.6683 6.79999C15.4354 6.79999 14.3099 7.08917 13.3114 7.65878C12.7594 7.96918 12.2626 8.36895 11.8414 8.84182C11.1841 9.59436 10.5537 10.5397 10.3982 12.3383C10.3544 12.8504 10.3434 13.3735 10.3505 13.8637C10.3062 13.8522 10.2613 13.8418 10.2158 13.8319C10.0457 13.7953 9.8722 13.777 9.69822 13.7771C8.87283 13.7771 8.19095 14.2246 7.91819 14.9454C7.8207 15.196 7.77831 15.4648 7.7939 15.7332C7.8095 16.0017 7.88271 16.2637 8.00856 16.5014C8.18985 16.8448 8.47904 17.1521 8.89255 17.4413C9.00209 17.5179 9.17352 17.6286 9.38932 17.7699C9.50598 17.8455 9.67631 17.9561 9.84336 18.0667C9.90181 18.1045 9.95148 18.1544 9.98905 18.213C10.0241 18.2847 10.0252 18.3619 9.97317 18.5044C9.8625 18.748 9.73034 18.9814 9.57827 19.2016C9.04481 19.982 8.28132 20.6437 7.30641 21.1733C6.78993 21.4471 6.25318 21.6301 6.02643 22.2462C5.85555 22.7112 5.96728 23.2403 6.40161 23.6861C6.56101 23.8525 6.74589 23.9925 6.94931 24.1008C7.37257 24.3334 7.82264 24.5134 8.28953 24.637C8.38588 24.6618 8.47735 24.7027 8.5601 24.758C8.71838 24.8966 8.69593 25.1052 8.90679 25.4109C9.01264 25.5688 9.14714 25.7055 9.30333 25.814C9.74587 26.1196 10.2432 26.1388 10.7701 26.159C11.246 26.1771 11.7855 26.1979 12.4017 26.4011C12.6569 26.4854 12.922 26.6487 13.2292 26.8393C13.967 27.2928 14.977 27.9133 16.6672 27.9133C18.3574 27.9133 19.3744 27.2895 20.1177 26.8343C20.4227 26.647 20.6862 26.4854 20.9343 26.4033C21.5505 26.1995 22.0899 26.1793 22.5659 26.1612C23.0928 26.1409 23.5901 26.1218 24.0326 25.8162C24.2176 25.6872 24.3717 25.5188 24.4839 25.3232C24.6357 25.0653 24.6318 24.8851 24.7742 24.7591C24.8519 24.7065 24.9378 24.6672 25.0284 24.643C25.5016 24.5191 25.9578 24.3373 26.3867 24.1019C26.6028 23.9859 26.7973 23.8336 26.9617 23.6516L26.9672 23.6451C27.3747 23.2091 27.4771 22.6954 27.3101 22.2419ZM25.8077 23.0492C24.8914 23.5552 24.2824 23.501 23.8086 23.8061C23.4061 24.0652 23.6443 24.6238 23.3518 24.8254C22.9926 25.0735 21.9306 24.8078 20.5586 25.2608C19.427 25.6349 18.7052 26.7106 16.6699 26.7106C14.6346 26.7106 13.9298 25.6371 12.7796 25.258C11.4103 24.8051 10.3461 25.0707 9.98631 24.8226C9.69439 24.6211 9.93154 24.0624 9.52953 23.8034C9.05522 23.4983 8.44618 23.5525 7.53042 23.0492C6.94712 22.7271 7.27793 22.5278 7.47236 22.4336C10.7914 20.8266 11.3211 18.3455 11.3446 18.1615C11.3731 17.9386 11.4049 17.7633 11.1595 17.5366C10.9223 17.3175 9.8702 16.6663 9.57827 16.4625C9.0952 16.1251 8.88269 15.7883 9.03934 15.3742C9.14888 15.0878 9.41615 14.9799 9.69658 14.9799C9.7852 14.9802 9.87354 14.9901 9.96002 15.0095C10.4902 15.1245 11.005 15.3901 11.3024 15.4619C11.3382 15.4711 11.375 15.476 11.412 15.4767C11.5708 15.4767 11.6267 15.3967 11.6157 15.2149C11.5818 14.6348 11.4996 13.5044 11.5911 12.4479C11.7165 10.9943 12.1848 10.2741 12.7412 9.63708C13.0085 9.33091 14.2644 8.00383 16.6661 8.00383C19.0677 8.00383 20.3269 9.32544 20.5942 9.63051C21.1512 10.2675 21.62 10.9877 21.7443 12.4413C21.8358 13.4978 21.7569 14.6288 21.7197 15.2083C21.7071 15.3994 21.7646 15.4701 21.9234 15.4701C21.9604 15.4695 21.9972 15.4645 22.033 15.4553C22.3309 15.3836 22.8458 15.1179 23.3759 15.0029C23.4624 14.9835 23.5508 14.9736 23.6394 14.9733C23.9215 14.9733 24.1871 15.0829 24.2966 15.3677C24.4533 15.7817 24.2419 16.1186 23.7582 16.456C23.4663 16.6597 22.4142 17.3104 22.177 17.53C21.9311 17.7567 21.9634 17.932 21.9919 18.1549C22.0155 18.3417 22.5445 20.8228 25.8641 22.427C26.0602 22.525 26.391 22.7244 25.8077 23.0492Z" fill="white"/>
</svg>
