<svg width="15" height="15" viewBox="0 0 15 15" fill="none" xmlns="http://www.w3.org/2000/svg">
<rect width="15" height="15" rx="7.5" fill="url(#paint0_linear_9_302)"/>
<path fill-rule="evenodd" clip-rule="evenodd" d="M3.39507 7.42084C5.58147 6.46826 7.03942 5.84026 7.7689 5.53685C9.85174 4.67053 10.2845 4.52004 10.5666 4.51507C10.6287 4.51397 10.7674 4.52935 10.8572 4.60227C10.9331 4.66383 10.954 4.747 10.964 4.80537C10.974 4.86375 10.9864 4.99672 10.9765 5.10062C10.8637 6.28655 10.3753 9.16448 10.1268 10.4927C10.0217 11.0548 9.81467 11.2432 9.61426 11.2617C9.17872 11.3017 8.84799 10.9738 8.42615 10.6973C7.76605 10.2646 7.39314 9.99525 6.7524 9.57301C6.01191 9.08504 6.49194 8.81684 6.91394 8.37854C7.02438 8.26383 8.94337 6.51836 8.98051 6.36002C8.98516 6.34021 8.98947 6.2664 8.94562 6.22742C8.90176 6.18844 8.83704 6.20177 8.79033 6.21237C8.72413 6.2274 7.66961 6.92439 5.62679 8.30335C5.32747 8.50889 5.05635 8.60903 4.81344 8.60379C4.54565 8.598 4.03054 8.45237 3.6476 8.3279C3.17791 8.17522 2.80461 8.0945 2.83712 7.83521C2.85405 7.70015 3.04003 7.56203 3.39507 7.42084Z" fill="white"/>
<defs>
<linearGradient id="paint0_linear_9_302" x1="7.5" y1="0" x2="7.5" y2="14.8888" gradientUnits="userSpaceOnUse">
<stop stop-color="#2AABEE"/>
<stop offset="1" stop-color="#229ED9"/>
</linearGradient>
</defs>
</svg>
