<svg width="27" height="27" viewBox="0 0 27 27" fill="none" xmlns="http://www.w3.org/2000/svg">
<rect width="27" height="27" rx="13.5" fill="url(#paint0_linear_4_233)"/>
<path fill-rule="evenodd" clip-rule="evenodd" d="M6.11108 13.3575C10.0466 11.6429 12.6709 10.5125 13.984 9.96631C17.7331 8.40693 18.5121 8.13605 19.0199 8.12711C19.1315 8.12514 19.3812 8.15282 19.543 8.28407C19.6796 8.39489 19.7171 8.54459 19.7351 8.64966C19.7531 8.75473 19.7755 8.99409 19.7577 9.18111C19.5545 11.3158 18.6754 16.4961 18.2282 18.8869C18.039 19.8986 17.6664 20.2378 17.3056 20.271C16.5216 20.3431 15.9263 19.7529 15.167 19.2551C13.9788 18.4763 13.3076 17.9914 12.1543 17.2314C10.8214 16.3531 11.6854 15.8703 12.445 15.0814C12.6438 14.8749 16.098 11.733 16.1649 11.448C16.1732 11.4124 16.181 11.2795 16.1021 11.2093C16.0231 11.1392 15.9066 11.1632 15.8226 11.1823C15.7034 11.2093 13.8053 12.4639 10.1282 14.946C9.58939 15.316 9.10139 15.4962 8.66415 15.4868C8.18213 15.4764 7.25492 15.2143 6.56563 14.9902C5.72019 14.7154 5.04825 14.5701 5.10676 14.1034C5.13724 13.8603 5.47201 13.6116 6.11108 13.3575Z" fill="white"/>
<defs>
<linearGradient id="paint0_linear_4_233" x1="13.5" y1="0" x2="13.5" y2="26.7998" gradientUnits="userSpaceOnUse">
<stop stop-color="#2AABEE"/>
<stop offset="1" stop-color="#229ED9"/>
</linearGradient>
</defs>
</svg>
