<svg width="35" height="35" viewBox="0 0 35 35" fill="none" xmlns="http://www.w3.org/2000/svg">
<rect width="35" height="35" rx="17.5" fill="url(#paint0_linear_2_137)"/>
<path fill-rule="evenodd" clip-rule="evenodd" d="M7.92176 17.3153C13.0234 15.0926 16.4252 13.6273 18.1274 12.9193C22.9873 10.8979 23.9972 10.5468 24.6554 10.5352C24.8001 10.5326 25.1238 10.5685 25.3335 10.7386C25.5105 10.8823 25.5593 11.0763 25.5826 11.2125C25.6059 11.3487 25.6349 11.659 25.6118 11.9015C25.3485 14.6686 24.2089 21.3838 23.6292 24.4831C23.3838 25.7945 22.9008 26.2342 22.4332 26.2772C21.4169 26.3707 20.6452 25.6056 19.6609 24.9604C18.1207 23.9507 17.2506 23.3222 15.7555 22.337C14.0277 21.1984 15.1478 20.5726 16.1325 19.5499C16.3901 19.2823 20.8678 15.2095 20.9545 14.84C20.9653 14.7938 20.9754 14.6216 20.873 14.5306C20.7707 14.4397 20.6197 14.4708 20.5107 14.4955C20.3562 14.5306 17.8957 16.1569 13.1291 19.3745C12.4307 19.8541 11.7981 20.0877 11.2313 20.0755C10.6065 20.062 9.40451 19.7222 8.51099 19.4318C7.41505 19.0755 6.54402 18.8872 6.61987 18.2821C6.65937 17.967 7.09334 17.6447 7.92176 17.3153Z" fill="white"/>
<defs>
<linearGradient id="paint0_linear_2_137" x1="17.5" y1="0" x2="17.5" y2="34.7404" gradientUnits="userSpaceOnUse">
<stop stop-color="#2AABEE"/>
<stop offset="1" stop-color="#229ED9"/>
</linearGradient>
</defs>
</svg>
