<svg width="18" height="18" viewBox="0 0 18 18" fill="none" xmlns="http://www.w3.org/2000/svg">
<rect x="0.34436" y="0.659485" width="17.1856" height="17.1856" rx="8.59279" fill="url(#paint0_linear_9_389)"/>
<path fill-rule="evenodd" clip-rule="evenodd" d="M4.23404 9.16156C6.73901 8.07018 8.40939 7.35068 9.24517 7.00305C11.6315 6.01051 12.1273 5.83809 12.4505 5.8324C12.5216 5.83114 12.6805 5.84876 12.7835 5.9323C12.8704 6.00284 12.8943 6.09813 12.9058 6.165C12.9172 6.23188 12.9315 6.38423 12.9202 6.50327C12.7908 7.86199 12.2313 11.1593 11.9466 12.681C11.8262 13.325 11.589 13.5409 11.3594 13.562C10.8604 13.6079 10.4815 13.2322 9.99817 12.9154C9.24189 12.4197 8.81465 12.1111 8.08055 11.6273C7.23217 11.0682 7.78214 10.761 8.26563 10.2588C8.39216 10.1274 10.5908 8.12758 10.6333 7.94617C10.6386 7.92348 10.6436 7.83891 10.5933 7.79425C10.5431 7.74959 10.4689 7.76486 10.4154 7.77701C10.3396 7.79422 9.13141 8.59277 6.79093 10.1727C6.448 10.4081 6.13738 10.5229 5.85908 10.5169C5.55227 10.5102 4.9621 10.3434 4.52336 10.2008C3.98524 10.0259 3.55755 9.93337 3.59479 9.6363C3.61419 9.48156 3.82727 9.32332 4.23404 9.16156Z" fill="white"/>
<defs>
<linearGradient id="paint0_linear_9_389" x1="8.93715" y1="0.659485" x2="8.93715" y2="17.7176" gradientUnits="userSpaceOnUse">
<stop stop-color="#2AABEE"/>
<stop offset="1" stop-color="#229ED9"/>
</linearGradient>
</defs>
</svg>
