<svg width="47" height="47" viewBox="0 0 47 47" fill="none" xmlns="http://www.w3.org/2000/svg">
<rect width="47" height="47" rx="23.5" fill="#1D9BF0"/>
<path d="M19.1995 35.8963C29.6217 35.8963 35.3205 27.26 35.3205 19.7753C35.3205 19.5285 35.3205 19.2818 35.3087 19.0468C36.4132 18.2478 37.3767 17.249 38.1405 16.1093C37.13 16.5558 36.0372 16.8613 34.8857 17.0023C36.0607 16.2973 36.9537 15.1928 37.3767 13.865C36.284 14.5113 35.0737 14.9813 33.7812 15.2398C32.7472 14.1353 31.2785 13.4538 29.6452 13.4538C26.5197 13.4538 23.9817 15.9918 23.9817 19.1173C23.9817 19.5638 24.0287 19.9985 24.1345 20.4098C19.4227 20.1748 15.2515 17.9188 12.455 14.4878C11.9732 15.322 11.6912 16.2973 11.6912 17.3313C11.6912 19.2935 12.69 21.0325 14.2175 22.043C13.2892 22.0195 12.4197 21.761 11.656 21.338C11.656 21.3615 11.656 21.385 11.656 21.4085C11.656 24.158 13.6065 26.4375 16.2032 26.9663C15.7332 27.0955 15.228 27.166 14.711 27.166C14.3467 27.166 13.9942 27.1308 13.6417 27.0603C14.3585 29.3163 16.45 30.9495 18.9292 30.9965C16.9905 32.5123 14.5465 33.417 11.891 33.417C11.4327 33.417 10.9862 33.3935 10.5397 33.3348C13.019 34.9563 16.0035 35.8963 19.1995 35.8963Z" fill="white"/>
</svg>
