<svg width="30" height="30" viewBox="0 0 30 30" fill="none" xmlns="http://www.w3.org/2000/svg">
<rect width="30" height="30" rx="15" fill="#1D9BF0"/>
<path d="M12.255 22.9125C18.9075 22.9125 22.545 17.4 22.545 12.6225C22.545 12.465 22.545 12.3075 22.5375 12.1575C23.2425 11.6475 23.8575 11.01 24.345 10.2825C23.7 10.5675 23.0025 10.7625 22.2675 10.8525C23.0175 10.4025 23.5875 9.69746 23.8575 8.84996C23.16 9.26246 22.3875 9.56246 21.5625 9.72746C20.9025 9.02246 19.965 8.58746 18.9225 8.58746C16.9275 8.58746 15.3075 10.2075 15.3075 12.2025C15.3075 12.4875 15.3375 12.765 15.405 13.0275C12.3975 12.8775 9.73501 11.4375 7.95001 9.24746C7.64251 9.77996 7.46251 10.4025 7.46251 11.0625C7.46251 12.315 8.10001 13.425 9.07501 14.07C8.48251 14.055 7.92751 13.89 7.44001 13.62C7.44001 13.635 7.44001 13.65 7.44001 13.665C7.44001 15.42 8.68501 16.875 10.3425 17.2125C10.0425 17.295 9.72001 17.34 9.39001 17.34C9.15751 17.34 8.93251 17.3175 8.70751 17.2725C9.16501 18.7125 10.5 19.755 12.0825 19.785C10.845 20.7525 9.28501 21.33 7.59001 21.33C7.29751 21.33 7.01251 21.315 6.72751 21.2775C8.31001 22.3125 10.215 22.9125 12.255 22.9125Z" fill="white"/>
</svg>
