<svg width="20" height="20" viewBox="0 0 20 20" fill="none" xmlns="http://www.w3.org/2000/svg">
<rect x="0.019165" y="0.0245361" width="19.0951" height="19.0951" rx="9.54755" fill="#1D9BF0"/>
<path d="M7.81954 14.6084C12.0539 14.6084 14.3692 11.0997 14.3692 8.05877C14.3692 7.95852 14.3692 7.85827 14.3644 7.76279C14.8131 7.43818 15.2046 7.03241 15.5149 6.56935C15.1043 6.75075 14.6604 6.87487 14.1925 6.93216C14.6699 6.64573 15.0327 6.197 15.2046 5.65756C14.7606 5.92012 14.2689 6.11107 13.7438 6.21609C13.3237 5.76736 12.727 5.49048 12.0634 5.49048C10.7936 5.49048 9.76247 6.52161 9.76247 7.79144C9.76247 7.97284 9.78156 8.14947 9.82452 8.31655C7.91024 8.22108 6.21555 7.30451 5.07939 5.91057C4.88367 6.24951 4.7691 6.64573 4.7691 7.06582C4.7691 7.86304 5.17487 8.56956 5.79546 8.98011C5.41833 8.97056 5.06507 8.86554 4.75478 8.69368C4.75478 8.70323 4.75478 8.71278 4.75478 8.72232C4.75478 9.83939 5.54722 10.7655 6.60223 10.9803C6.41128 11.0328 6.206 11.0615 5.99596 11.0615C5.84797 11.0615 5.70476 11.0472 5.56155 11.0185C5.85275 11.9351 6.70248 12.5986 7.70974 12.6177C6.92207 13.2335 5.92913 13.6011 4.85025 13.6011C4.66408 13.6011 4.48267 13.5916 4.30127 13.5677C5.30854 14.2265 6.52107 14.6084 7.81954 14.6084Z" fill="white"/>
</svg>
