<svg width="20" height="20" viewBox="0 0 20 20" fill="none" xmlns="http://www.w3.org/2000/svg">
<rect width="20" height="20" rx="10" fill="#1D9BF0"/>
<path d="M8.16999 15.275C12.605 15.275 15.03 11.6 15.03 8.41501C15.03 8.31001 15.03 8.20501 15.025 8.10501C15.495 7.76501 15.905 7.34001 16.23 6.85501C15.8 7.04501 15.335 7.17501 14.845 7.23501C15.345 6.93501 15.725 6.46501 15.905 5.90001C15.44 6.17501 14.925 6.37501 14.375 6.48501C13.935 6.01501 13.31 5.72501 12.615 5.72501C11.285 5.72501 10.205 6.80501 10.205 8.13501C10.205 8.32501 10.225 8.51001 10.27 8.68501C8.26499 8.58501 6.48999 7.62501 5.29999 6.16501C5.09499 6.52001 4.97499 6.93501 4.97499 7.37501C4.97499 8.21001 5.39999 8.95001 6.04999 9.38001C5.65499 9.37001 5.28499 9.26001 4.95999 9.08001C4.95999 9.09001 4.95999 9.10001 4.95999 9.11001C4.95999 10.28 5.78999 11.25 6.89499 11.475C6.69499 11.53 6.47999 11.56 6.25999 11.56C6.10499 11.56 5.95499 11.545 5.80499 11.515C6.10999 12.475 6.99999 13.17 8.05499 13.19C7.22999 13.835 6.18999 14.22 5.05999 14.22C4.86499 14.22 4.67499 14.21 4.48499 14.185C5.53999 14.875 6.80999 15.275 8.16999 15.275Z" fill="white"/>
</svg>
