<svg width="39" height="39" viewBox="0 0 39 39" fill="none" xmlns="http://www.w3.org/2000/svg">
<path d="M38.1967 10.1226C37.747 8.45214 36.4298 7.13501 34.7593 6.68526C31.7074 5.85001 19.4999 5.85001 19.4999 5.85001C19.4999 5.85001 7.29239 5.85001 4.24051 6.65313C2.60213 7.10288 1.25288 8.45214 0.803127 10.1226C0 13.1745 0 19.5032 0 19.5032C0 19.5032 0 25.8639 0.803127 28.8837C1.25288 30.5542 2.57001 31.8713 4.24051 32.3211C7.32452 33.1563 19.4999 33.1563 19.4999 33.1563C19.4999 33.1563 31.7074 33.1563 34.7593 32.3532C36.4298 31.9034 37.747 30.5863 38.1967 28.9158C38.9998 25.8639 38.9998 19.5353 38.9998 19.5353C38.9998 19.5353 39.032 13.1745 38.1967 10.1226Z" fill="#FF0000"/>
<path d="M15.6128 25.3499L25.7643 19.5031L15.6128 13.6564V25.3499Z" fill="white"/>
</svg>
