<svg width="23" height="22" viewBox="0 0 23 22" fill="none" xmlns="http://www.w3.org/2000/svg">
<path d="M13.7038 4.03405C13.6855 4.24424 13.6839 4.45323 13.6988 4.66103C13.8335 6.53119 15.4551 7.93417 17.317 7.80009C17.5248 7.78512 17.7225 7.74665 17.9279 7.69844L18.4109 14.4052C18.6139 17.2238 17.0718 19.0142 14.2458 19.2177L8.10421 19.66C5.27736 19.8635 3.49469 18.3126 3.29171 15.494L2.84883 9.34413C2.64532 6.51811 4.18677 4.71941 7.01362 4.51584L13.7038 4.03405ZM14.2348 9.0756C14.0077 9.06689 13.7913 9.18273 13.6707 9.37523L11.8474 12.1216L9.41372 10.4755C9.26464 10.3776 9.09535 10.3472 8.93037 10.3766C8.76676 10.4135 8.62367 10.5149 8.53268 10.6551L6.30372 14.0331L6.25841 14.1115C6.1362 14.3869 6.22724 14.7229 6.48982 14.8886C6.61157 14.955 6.73984 14.9959 6.88114 14.9857C7.07374 14.9802 7.24853 14.8665 7.35358 14.7011L9.24645 11.8653L11.7435 13.4742L11.8218 13.5179C12.098 13.64 12.4257 13.5504 12.5989 13.2865L14.7778 10.014L14.7457 10.033C14.8655 9.84061 14.8737 9.60608 14.7673 9.40487C14.6618 9.2036 14.4513 9.07672 14.2348 9.0756ZM17.0384 2.30649C18.1439 2.22688 19.1062 3.05991 19.1858 4.16538C19.2654 5.27085 18.4324 6.23317 17.3269 6.31278C16.2214 6.39239 15.2591 5.55936 15.1795 4.45389C15.0999 3.34842 15.9329 2.3861 17.0384 2.30649Z" fill="#060B27"/>
</svg>
