<svg width="966" height="448" viewBox="0 0 966 448" fill="none" xmlns="http://www.w3.org/2000/svg">
<mask id="mask0_254_11" style="mask-type:luminance" maskUnits="userSpaceOnUse" x="0" y="11" width="966" height="437">
<path d="M966 11H0V448H966V11Z" fill="white"/>
</mask>
<g mask="url(#mask0_254_11)">
<path d="M966 491.741C860.872 408.575 812.308 378.642 725.255 431.761C626.428 368.425 589.071 389.725 483 455.775C429.983 404.014 409.644 382.525 385.079 414.909C324.591 344.523 291.347 321.489 240.67 382.789C235.177 389.418 227.891 394.329 219.682 396.936C211.472 399.543 202.686 399.736 194.37 397.491C118.071 376.794 44.753 463.466 0 491.741H966Z" fill="#5865F2" fill-opacity="0.2"/>
<path d="M892.946 436.473C891.437 435.153 889.097 434.475 886.305 434.475C883.935 434.511 881.584 434.892 879.324 435.606L877.815 436.096C877.86 435.002 877.732 433.908 877.437 432.854C876.607 429.536 874.419 426.822 871.136 424.974C866.23 422.185 859.325 421.732 852.721 423.73C851.431 424.112 850.167 424.591 848.948 425.163C848.382 423.328 847.597 421.569 846.608 419.923C840.684 409.97 828.383 404.126 819.176 406.916C815.251 408.085 812.308 410.762 810.912 414.381C809.1 419.056 809.893 424.824 813.138 430.252C817.93 438.358 827.137 443.937 835.59 443.975C835.665 444.465 835.741 444.955 835.854 445.408C836.099 446.309 836.439 447.181 836.873 448.009H837.741C837.231 447.138 836.85 446.198 836.609 445.219C836.469 444.674 836.367 444.12 836.307 443.56C836.299 443.467 836.254 443.381 836.182 443.318C836.115 443.255 836.024 443.221 835.93 443.221H835.666C827.439 443.221 818.459 437.755 813.78 429.875C810.685 424.635 809.893 419.093 811.591 414.645C812.912 411.252 815.704 408.764 819.402 407.633C828.27 404.956 840.194 410.649 845.967 420.3C846.986 422.028 847.786 423.877 848.344 425.804C848.389 425.904 848.469 425.985 848.571 426.03C848.669 426.068 848.774 426.068 848.873 426.03C850.186 425.392 851.548 424.863 852.948 424.447C859.363 422.524 866.004 422.939 870.758 425.615C873.853 427.387 875.928 429.951 876.72 433.042C877.03 434.209 877.132 435.421 877.022 436.624C877.026 436.752 877.079 436.874 877.173 436.963C877.226 437.006 877.29 437.033 877.354 437.039C877.422 437.046 877.49 437.033 877.551 437.001L879.551 436.322C885.06 434.663 890.003 434.927 892.456 437.038C893.776 438.132 894.305 439.677 894.041 441.487C893.776 443.296 892.531 445.86 890.607 448.009H891.588C893.361 445.898 894.531 443.673 894.795 441.6C895.059 439.526 894.456 437.717 892.946 436.473Z" fill="#808AFF"/>
<path d="M39.9811 272.482C72.9233 255.894 96.2054 268.75 96.2054 268.75C112.507 263.698 126.846 267.242 134.279 273.01C138.883 276.629 128.544 275.988 105.337 275.988H40.849C40.3586 275.988 39.8883 275.794 39.5416 275.447C39.1948 275.101 39 274.631 39 274.141C39.003 273.803 39.0953 273.471 39.2676 273.18C39.4398 272.888 39.6859 272.648 39.9811 272.482Z" fill="#5865F2" fill-opacity="0.2"/>
<path d="M307.724 284.496C316.064 280.274 321.95 283.554 321.95 283.554C326.063 282.272 329.723 283.177 331.572 284.609C332.742 285.552 330.138 285.363 324.252 285.363H307.913C307.793 285.363 307.677 285.316 307.593 285.231C307.508 285.146 307.46 285.031 307.46 284.911C307.459 284.824 307.484 284.738 307.531 284.665C307.578 284.591 307.645 284.533 307.724 284.496Z" fill="#5865F2" fill-opacity="0.2"/>
<path d="M889.885 291.908C889.832 288.635 888.644 285.482 886.523 282.987C884.402 280.491 881.482 278.809 878.255 278.226C875.033 277.643 871.705 278.196 868.844 279.791C865.984 281.385 863.762 283.923 862.565 286.97C861.513 286.741 860.437 286.627 859.358 286.63C857.192 286.624 855.053 287.093 853.09 288.005C851.128 288.918 849.389 290.25 848 291.908H889.885Z" fill="#5865F2" fill-opacity="0.2"/>
<path d="M134.413 75C132.15 75.0011 129.92 75.5504 127.916 76.6007C125.912 77.6514 124.192 79.1718 122.904 81.0319C117.867 78.7394 112.278 77.9398 106.799 78.7285C101.321 79.5172 96.1844 81.8606 92 85.4805H147.96C147.177 82.4845 145.423 79.8316 142.973 77.936C140.522 76.0401 137.513 75.0079 134.413 75Z" fill="#5865F2" fill-opacity="0.2"/>
<path d="M839.8 109.904C840.747 109.914 841.686 109.715 842.547 109.32C843.407 108.925 844.169 108.345 844.781 107.62C845.388 106.896 845.83 106.045 846.071 105.13C846.313 104.215 846.35 103.257 846.177 102.327C844.369 92.5835 839.434 83.6931 832.125 76.9977C824.812 70.3022 815.518 66.1654 805.646 65.212C795.771 64.2582 785.858 66.5398 777.398 71.7118C768.938 76.8838 762.391 84.6654 758.746 93.8819C755.373 93.1546 751.931 92.7878 748.483 92.7886C741.853 92.7776 735.291 94.1503 729.223 96.8183C723.155 99.4863 717.71 103.391 713.239 108.283C713.118 108.424 713.039 108.596 713.012 108.779C712.982 108.963 713.008 109.151 713.084 109.321C713.159 109.49 713.28 109.635 713.435 109.739C713.59 109.842 713.771 109.899 713.956 109.904H839.8Z" fill="#5865F2" fill-opacity="0.2"/>
<path d="M649.258 447.774H648.503C648.805 439.253 647.22 433.712 643.635 430.884C640.05 428.057 634.051 427.868 625.636 430.469C625.534 430.495 625.425 430.482 625.334 430.432C625.24 430.37 625.172 430.276 625.145 430.168C624.911 428.652 624.289 427.223 623.334 426.02C622.383 424.817 621.134 423.882 619.712 423.306C616.089 421.836 611.599 422.666 607.75 425.493C598.392 432.317 599.411 444.531 599.411 444.644C599.411 444.722 599.392 444.799 599.35 444.865C599.312 444.932 599.252 444.986 599.184 445.021C599.116 445.058 599.041 445.07 598.965 445.056C598.89 445.042 598.818 445.004 598.769 444.946C593.901 440.611 590.505 438.914 587.751 439.404C584.996 439.894 582.506 442.835 579.675 447.774H578.808C581.864 442.42 584.355 439.216 587.6 438.65C590.845 438.085 593.901 439.743 598.618 443.815C598.58 440.799 599.109 430.884 607.297 424.89C611.372 421.912 616.127 421.044 619.976 422.628C621.459 423.206 622.772 424.147 623.795 425.367C624.817 426.586 625.515 428.042 625.825 429.602C634.277 427.076 640.239 427.303 644.088 430.319C647.937 433.335 649.56 438.989 649.258 447.774Z" fill="#808AFF"/>
<path d="M178.028 161.583C176.644 160.682 175.469 159.475 174.584 158.049C173.7 156.622 173.129 155.01 172.912 153.328L172.029 147.459C172.008 147.329 171.943 147.212 171.846 147.128C171.749 147.043 171.626 146.998 171.5 147C171.373 146.998 171.25 147.043 171.153 147.128C171.056 147.212 170.991 147.329 170.971 147.459L170.089 153.328C169.854 155.005 169.275 156.61 168.392 158.033C167.51 159.458 166.343 160.668 164.972 161.583L164.266 162.041C164.182 162.08 164.11 162.144 164.063 162.227C164.015 162.309 163.994 162.405 164.002 162.5C163.994 162.595 164.015 162.692 164.063 162.773C164.11 162.856 164.182 162.921 164.266 162.959L164.972 163.417C166.339 164.36 167.5 165.589 168.381 167.027C169.262 168.464 169.843 170.078 170.089 171.763L170.971 177.541C170.991 177.671 171.056 177.788 171.153 177.872C171.25 177.957 171.373 178.002 171.5 178C171.626 178.002 171.749 177.957 171.846 177.872C171.943 177.788 172.008 177.671 172.029 177.541L172.912 171.763C173.139 170.073 173.714 168.452 174.598 167.012C175.48 165.572 176.65 164.346 178.028 163.417L178.734 162.959C178.819 162.921 178.889 162.856 178.937 162.773C178.985 162.692 179.006 162.595 178.999 162.5C179.006 162.405 178.985 162.309 178.937 162.227C178.889 162.144 178.819 162.08 178.734 162.041L178.028 161.583Z" fill="#91FFAD"/>
<path d="M757.476 189.021C756.748 188.576 756.129 187.991 755.659 187.303C755.189 186.615 754.881 185.84 754.755 185.031L754.315 182.233C754.299 182.169 754.26 182.112 754.205 182.07C754.15 182.028 754.082 182.003 754.013 182C753.941 181.999 753.873 182.022 753.815 182.065C753.76 182.107 753.724 182.167 753.711 182.233L753.271 185.031C753.139 185.842 752.826 186.617 752.353 187.305C751.877 187.993 751.253 188.578 750.522 189.021L750.137 189.254C750.096 189.281 750.063 189.316 750.041 189.356C750.016 189.396 750.003 189.441 750 189.487C750 189.534 750.014 189.579 750.038 189.62C750.06 189.66 750.096 189.695 750.137 189.72L750.522 189.953C751.256 190.402 751.88 190.991 752.353 191.683C752.826 192.376 753.139 193.155 753.271 193.969L753.711 196.767C753.724 196.833 753.76 196.893 753.815 196.936C753.873 196.978 753.941 197.001 754.013 197C754.082 196.997 754.15 196.972 754.205 196.93C754.26 196.888 754.299 196.831 754.315 196.767L754.755 193.969C754.881 193.156 755.189 192.378 755.659 191.686C756.127 190.994 756.748 190.403 757.476 189.953L757.888 189.72C757.927 189.694 757.957 189.658 757.976 189.617C757.996 189.576 758.004 189.532 757.998 189.487C758.001 189.443 757.993 189.399 757.974 189.358C757.954 189.318 757.924 189.282 757.888 189.254L757.476 189.021Z" fill="#3F99F2"/>
<path d="M824.006 366.606C823.194 366.081 822.508 365.388 821.987 364.576C821.466 363.763 821.126 362.849 820.987 361.894L820.459 358.614C820.459 358.534 820.428 358.457 820.372 358.401C820.315 358.344 820.236 358.313 820.157 358.313C820.074 358.312 819.991 358.343 819.93 358.398C819.866 358.454 819.825 358.531 819.817 358.614L819.327 361.894C819.179 362.851 818.832 363.767 818.308 364.579C817.779 365.391 817.085 366.082 816.27 366.606L815.855 366.87C815.813 366.902 815.776 366.941 815.753 366.986C815.727 367.032 815.708 367.082 815.704 367.134C815.704 367.188 815.715 367.24 815.746 367.287C815.772 367.333 815.81 367.371 815.855 367.398L816.27 367.662C817.081 368.189 817.772 368.882 818.3 369.694C818.825 370.505 819.176 371.419 819.327 372.374L819.817 375.654C819.825 375.738 819.866 375.815 819.93 375.87C819.991 375.926 820.074 375.957 820.157 375.956C820.236 375.956 820.315 375.924 820.372 375.868C820.428 375.811 820.459 375.734 820.459 375.654L820.987 372.374C821.13 371.421 821.474 370.509 821.994 369.697C822.515 368.885 823.198 368.192 824.006 367.662L824.421 367.398C824.47 367.375 824.511 367.337 824.538 367.29C824.564 367.243 824.575 367.189 824.572 367.134C824.572 367.081 824.557 367.028 824.53 366.982C824.504 366.936 824.466 366.897 824.421 366.87L824.006 366.606Z" fill="#404EED"/>
<path d="M339.949 367.963C339.642 367.769 339.382 367.509 339.186 367.203C338.991 366.897 338.864 366.552 338.817 366.192L338.628 364.985C338.628 364.955 338.616 364.926 338.595 364.905C338.574 364.884 338.545 364.872 338.515 364.872C338.485 364.872 338.456 364.884 338.435 364.905C338.414 364.926 338.402 364.955 338.402 364.985L338.213 366.192C338.165 366.552 338.039 366.897 337.843 367.203C337.648 367.509 337.388 367.769 337.081 367.963L336.892 368.077C336.855 368.077 336.855 368.152 336.855 368.19C336.853 368.21 336.855 368.231 336.862 368.25C336.868 368.27 336.878 368.288 336.892 368.303L337.081 368.378C337.38 368.582 337.634 368.844 337.828 369.148C338.023 369.453 338.154 369.794 338.213 370.15L338.402 371.394C338.402 371.424 338.414 371.453 338.435 371.474C338.456 371.495 338.485 371.507 338.515 371.507C338.545 371.507 338.574 371.495 338.595 371.474C338.616 371.453 338.628 371.424 338.628 371.394L338.817 370.15C338.876 369.794 339.007 369.453 339.201 369.148C339.396 368.844 339.65 368.582 339.949 368.378L340.138 368.303C340.151 368.288 340.161 368.27 340.168 368.25C340.175 368.231 340.177 368.21 340.175 368.19C340.175 368.152 340.175 368.077 340.138 368.077L339.949 367.963Z" fill="#FF78B9"/>
<path d="M355.873 416.332C355.716 416.239 355.582 416.113 355.477 415.964C355.373 415.814 355.302 415.644 355.269 415.465L355.194 414.824H355.08L354.967 415.465C354.941 415.642 354.876 415.811 354.779 415.96C354.681 416.11 354.552 416.237 354.401 416.332L354.326 416.408C354.316 416.408 354.306 416.412 354.299 416.419C354.292 416.426 354.288 416.435 354.288 416.445C354.288 416.455 354.292 416.465 354.299 416.472C354.306 416.479 354.316 416.483 354.326 416.483L354.401 416.558C354.552 416.654 354.681 416.781 354.779 416.93C354.876 417.08 354.941 417.249 354.967 417.426L355.08 418.066H355.194L355.269 417.426C355.302 417.246 355.373 417.076 355.477 416.927C355.582 416.777 355.716 416.652 355.873 416.558L355.948 416.483L355.873 416.332Z" fill="#FFC619"/>
<path d="M515.376 412.788C515.037 412.559 514.75 412.264 514.531 411.921C514.308 411.577 514.161 411.193 514.093 410.79L513.904 409.433C513.904 409.358 513.829 409.32 513.754 409.32C513.738 409.32 513.723 409.323 513.708 409.328C513.697 409.334 513.686 409.342 513.674 409.353C513.663 409.364 513.655 409.376 513.648 409.39C513.644 409.404 513.64 409.418 513.64 409.433L513.414 410.79C513.361 411.193 513.225 411.58 513.01 411.925C512.795 412.269 512.508 412.564 512.169 412.788L511.98 412.901C511.942 412.901 511.905 412.939 511.905 413.014C511.905 413.052 511.942 413.09 511.98 413.127L512.169 413.241C512.501 413.463 512.784 413.751 512.999 414.089C513.214 414.427 513.354 414.805 513.414 415.201L513.64 416.558C513.64 416.588 513.652 416.617 513.674 416.638C513.693 416.66 513.723 416.671 513.754 416.671C513.829 416.671 513.904 416.634 513.904 416.558L514.093 415.201C514.165 414.805 514.316 414.428 514.535 414.091C514.757 413.755 515.04 413.465 515.376 413.241L515.565 413.127C515.58 413.112 515.587 413.094 515.595 413.075C515.603 413.055 515.603 413.035 515.603 413.014C515.603 412.939 515.603 412.901 515.565 412.901L515.376 412.788Z" fill="#91FFAD"/>
<path d="M124.561 403.891C124.198 403.646 123.89 403.329 123.657 402.959C123.423 402.589 123.268 402.175 123.203 401.742L122.976 400.234C122.939 400.159 122.901 400.083 122.825 400.083C122.785 400.083 122.747 400.099 122.719 400.128C122.69 400.156 122.674 400.194 122.674 400.234L122.448 401.742C122.376 402.177 122.214 402.592 121.974 402.962C121.734 403.332 121.42 403.648 121.052 403.891L120.825 404.004C120.788 404.042 120.788 404.08 120.788 404.155C120.788 404.193 120.788 404.268 120.825 404.268L121.052 404.419C121.423 404.658 121.739 404.974 121.98 405.344C122.22 405.715 122.38 406.132 122.448 406.568L122.674 408.076C122.674 408.151 122.75 408.189 122.825 408.189C122.901 408.189 122.939 408.151 122.976 408.076L123.203 406.568C123.263 406.134 123.416 405.718 123.651 405.347C123.885 404.977 124.195 404.661 124.561 404.419L124.788 404.268C124.825 404.268 124.863 404.193 124.863 404.155C124.863 404.126 124.856 404.097 124.843 404.071C124.83 404.045 124.811 404.022 124.788 404.004L124.561 403.891Z" fill="#FF78B9"/>
<path d="M192.773 305.808C192.41 305.563 192.103 305.245 191.869 304.875C191.635 304.506 191.48 304.091 191.415 303.659L191.189 302.151C191.151 302.075 191.113 302 191.038 302C190.998 302 190.959 302.016 190.931 302.044C190.903 302.072 190.887 302.111 190.887 302.151L190.66 303.659C190.588 304.094 190.427 304.509 190.186 304.879C189.946 305.249 189.632 305.565 189.264 305.808L189.038 305.921C189 305.958 189 305.996 189 306.072C189 306.109 189 306.185 189.038 306.185L189.264 306.335C189.635 306.575 189.952 306.89 190.192 307.261C190.433 307.631 190.592 308.048 190.66 308.484L190.887 309.992C190.887 310.068 190.962 310.105 191.038 310.105C191.113 310.105 191.151 310.068 191.189 309.992L191.415 308.484C191.476 308.05 191.629 307.635 191.863 307.264C192.097 306.893 192.407 306.577 192.773 306.335L193 306.185C193.038 306.185 193.075 306.109 193.075 306.072C193.075 306.043 193.069 306.014 193.055 305.987C193.042 305.961 193.023 305.938 193 305.921L192.773 305.808Z" fill="#B756FE"/>
</g>
</svg>
