<svg width="24" height="24" viewBox="0 0 24 24" fill="none" xmlns="http://www.w3.org/2000/svg">
<g clip-path="url(#clip0_253_341)">
<path d="M14.1742 3.06376C16.9529 2.50571 18.8381 3.7667 19.4043 6.54375L20.9368 14.1747C21.4947 16.9526 20.2345 18.8461 17.4559 19.4042L9.82572 20.9365C7.04703 21.4946 5.15432 20.2342 4.59644 17.4564L3.0639 9.82542C2.50585 7.04673 3.76536 5.15419 6.54405 4.59614L14.1742 3.06376ZM11.4457 7.12212C11.1882 7.02933 10.9104 7.08512 10.7186 7.26815C10.5249 7.45069 10.4542 7.72924 10.5287 7.97775L12.2007 16.3032C12.313 16.6461 12.6588 16.8487 13.0019 16.7798C13.3541 16.709 13.5949 16.3887 13.557 16.0308L11.885 7.70537C11.8668 7.44554 11.694 7.21589 11.4457 7.12212ZM8.16841 10.5682C7.91992 10.4736 7.64132 10.5296 7.44944 10.7126C7.25592 10.896 7.18488 11.1729 7.26043 11.422L8.39424 17.0676C8.49666 17.4126 8.8433 17.6149 9.19461 17.5444C9.54675 17.4737 9.78755 17.1533 9.74968 16.7954L8.61586 11.1498C8.59016 10.8906 8.41609 10.663 8.16841 10.5682ZM16.3288 12.0147C16.0811 11.92 15.8034 11.9758 15.6025 12.1606C15.409 12.344 15.3363 12.6127 15.4217 12.8684L15.9598 15.5482C16.0631 15.893 16.4089 16.0955 16.761 16.0248C17.1042 15.9559 17.345 15.6355 17.3161 15.2759L16.7779 12.596C16.7489 12.329 16.5781 12.1092 16.3288 12.0147Z" fill="#060B27"/>
</g>
<defs>
<clipPath id="clip0_253_341">
<rect width="20" height="20" fill="white" transform="translate(0.226746 4.16455) rotate(-11.3557)"/>
</clipPath>
</defs>
</svg>
