<svg width="1616" height="388" viewBox="0 0 1616 388" fill="none" xmlns="http://www.w3.org/2000/svg">
<path d="M226.695 159.65C226.695 184.96 221.388 207.258 210.774 226.542C200.161 245.827 184.723 260.893 164.46 271.74C144.439 282.347 120.559 287.65 92.8187 287.65H2V32.3729H92.8187C120.559 32.3729 144.439 37.6761 164.46 48.2825C184.723 58.6478 200.161 73.4727 210.774 92.7571C221.388 111.8 226.695 134.098 226.695 159.65ZM88.4767 242.09C115.976 242.09 137.203 234.859 152.158 220.395C167.355 205.932 174.953 185.684 174.953 159.65C174.953 133.375 167.355 113.006 152.158 98.5424C137.203 84.0791 115.976 76.8475 88.4767 76.8475H53.0177V242.09H88.4767Z" stroke="black" stroke-opacity="0.05" stroke-width="2.5"/>
<path d="M453.402 179.898C453.402 184.96 452.799 190.746 451.593 197.254H304.691C305.415 215.092 310.239 228.23 319.164 236.667C328.089 245.104 339.185 249.322 352.452 249.322C364.272 249.322 374.041 246.429 381.76 240.644C389.721 234.859 394.786 227.024 396.957 217.141H450.869C448.216 231.122 442.547 243.657 433.863 254.746C425.18 265.834 413.963 274.512 400.214 280.78C386.705 287.047 371.629 290.181 354.985 290.181C335.446 290.181 318.079 286.083 302.882 277.887C287.685 269.45 275.866 257.518 267.423 242.09C258.98 226.663 254.759 208.463 254.759 187.492C254.759 166.52 258.98 148.32 267.423 132.893C275.866 117.224 287.685 105.292 302.882 97.096C318.079 88.9002 335.446 84.8022 354.985 84.8022C374.765 84.8022 392.012 88.9002 406.726 97.096C421.682 105.292 433.14 116.621 441.1 131.085C449.301 145.307 453.402 161.578 453.402 179.898ZM402.023 174.836C402.746 158.444 398.404 146.03 388.997 137.593C379.831 129.156 368.493 124.938 354.985 124.938C341.236 124.938 329.657 129.156 320.25 137.593C310.842 146.03 305.656 158.444 304.691 174.836H402.023Z" stroke="black" stroke-opacity="0.05" stroke-width="2.5"/>
<path d="M558.728 84.8022C583.091 84.8022 602.63 90.9491 617.344 103.243C632.058 115.537 641.224 131.928 644.843 152.418H597.082C595.152 142.776 590.81 135.062 584.056 129.277C577.302 123.492 568.497 120.599 557.642 120.599C548.958 120.599 542.204 122.648 537.38 126.746C532.556 130.844 530.143 136.388 530.143 143.379C530.143 148.923 532.073 153.382 535.933 156.757C539.792 160.132 544.617 162.783 550.406 164.712C556.195 166.64 564.517 168.93 575.372 171.582C590.569 174.957 602.871 178.573 612.278 182.429C621.927 186.045 630.128 191.951 636.883 200.147C643.878 208.102 647.376 218.949 647.376 232.689C647.376 249.804 640.621 263.665 627.113 274.271C613.846 284.878 595.875 290.181 573.201 290.181C547.149 290.181 526.284 284.395 510.605 272.825C494.926 261.013 485.398 244.26 482.02 222.565H530.867C532.073 232.448 536.415 240.282 543.893 246.068C551.371 251.612 561.14 254.384 573.201 254.384C581.885 254.384 588.518 252.335 593.101 248.237C597.685 243.898 599.976 238.354 599.976 231.605C599.976 225.819 597.926 221.119 593.825 217.503C589.966 213.887 585.021 211.115 578.99 209.186C573.201 207.258 564.879 204.968 554.024 202.316C539.069 198.942 526.887 195.567 517.48 192.192C508.313 188.576 500.353 182.911 493.599 175.198C487.086 167.484 483.83 156.878 483.83 143.379C483.83 126.023 490.463 111.921 503.73 101.073C516.997 90.226 535.33 84.8022 558.728 84.8022Z" stroke="black" stroke-opacity="0.05" stroke-width="2.5"/>
<path d="M679.584 29.8418C679.584 21.6459 682.478 15.0169 688.268 9.95481C694.057 4.6516 701.655 2 711.063 2C720.47 2 728.069 4.6516 733.858 9.95481C739.647 15.0169 742.542 21.6459 742.542 29.8418C742.542 37.7966 739.647 44.4256 733.858 49.7288C728.069 54.791 720.47 57.322 711.063 57.322C701.655 57.322 694.057 54.791 688.268 49.7288C682.478 44.4256 679.584 37.7966 679.584 29.8418ZM736.391 87.3333V287.65H685.373V87.3333H736.391Z" stroke="black" stroke-opacity="0.05" stroke-width="2.5"/>
<path d="M861.06 84.8022C877.945 84.8022 892.418 88.7797 904.479 96.7345C916.54 104.689 925.103 115.416 930.169 128.915V87.3333H980.825V288.373C980.825 306.934 977.086 323.567 969.608 338.271C962.372 353.217 951.396 364.908 936.682 373.345C922.209 381.782 904.6 386 883.855 386C854.909 386 831.511 379.13 813.661 365.39C795.81 351.65 784.956 332.968 781.096 309.345H831.39C834.285 319.469 839.833 327.303 848.034 332.847C856.477 338.633 867.211 341.525 880.237 341.525C895.192 341.525 907.253 337.066 916.42 328.147C925.586 319.469 930.169 306.211 930.169 288.373V245.706C925.103 259.205 916.54 270.053 904.479 278.249C892.418 286.203 877.945 290.181 861.06 290.181C844.175 290.181 828.978 286.083 815.47 277.887C801.962 269.691 791.348 257.879 783.629 242.452C776.151 226.783 772.412 208.463 772.412 187.492C772.412 166.52 776.151 148.32 783.629 132.893C791.348 117.224 801.962 105.292 815.47 97.096C828.978 88.9002 844.175 84.8022 861.06 84.8022ZM876.98 129.277C861.06 129.277 848.275 134.46 838.627 144.825C828.978 155.19 824.154 169.412 824.154 187.492C824.154 205.571 828.978 219.793 838.627 230.158C848.275 240.282 861.06 245.345 876.98 245.345C892.418 245.345 905.082 240.162 914.972 229.797C925.103 219.19 930.169 205.089 930.169 187.492C930.169 169.653 925.103 155.552 914.972 145.186C905.082 134.58 892.418 129.277 876.98 129.277Z" stroke="black" stroke-opacity="0.05" stroke-width="2.5"/>
<path d="M1146.46 84.4407C1169.62 84.4407 1188.07 92.0339 1201.82 107.22C1215.57 122.407 1222.45 143.74 1222.45 171.22V287.65H1171.79V177.006C1171.79 161.096 1167.69 148.802 1159.49 140.124C1151.29 131.205 1140.07 126.746 1125.84 126.746C1111.37 126.746 1099.79 131.446 1091.1 140.847C1082.42 150.249 1078.08 163.748 1078.08 181.345V287.65H1027.06V87.3333H1078.08V127.469C1083.38 113.97 1092.07 103.484 1104.13 96.0113C1116.43 88.2975 1130.54 84.4407 1146.46 84.4407Z" stroke="black" stroke-opacity="0.05" stroke-width="2.5"/>
<path d="M1455.85 179.898C1455.85 184.96 1455.24 190.746 1454.04 197.254H1307.14C1307.86 215.092 1312.68 228.23 1321.61 236.667C1330.53 245.104 1341.63 249.322 1354.9 249.322C1366.72 249.322 1376.49 246.429 1384.21 240.644C1392.17 234.859 1397.23 227.024 1399.4 217.141H1453.31C1450.66 231.122 1444.99 243.657 1436.31 254.746C1427.62 265.834 1416.41 274.512 1402.66 280.78C1389.15 287.047 1374.07 290.181 1357.43 290.181C1337.89 290.181 1320.52 286.083 1305.33 277.887C1290.13 269.45 1278.31 257.518 1269.87 242.09C1261.43 226.663 1257.2 208.463 1257.2 187.492C1257.2 166.52 1261.43 148.32 1269.87 132.893C1278.31 117.224 1290.13 105.292 1305.33 97.096C1320.52 88.9002 1337.89 84.8022 1357.43 84.8022C1377.21 84.8022 1394.46 88.9002 1409.17 97.096C1424.13 105.292 1435.59 116.621 1443.55 131.085C1451.75 145.307 1455.85 161.578 1455.85 179.898ZM1404.47 174.836C1405.19 158.444 1400.85 146.03 1391.44 137.593C1382.28 129.156 1370.94 124.938 1357.43 124.938C1343.68 124.938 1332.1 129.156 1322.7 137.593C1313.29 146.03 1308.1 158.444 1307.14 174.836H1404.47Z" stroke="black" stroke-opacity="0.05" stroke-width="2.5"/>
<path d="M1543.08 125.661C1550.56 112.885 1560.45 102.881 1572.75 95.6497C1585.05 88.177 1598.8 84.4407 1614 84.4407V139.04H1599.17C1561.78 139.04 1543.08 156.395 1543.08 191.107V287.65H1492.06V87.3333H1543.08V125.661Z" stroke="black" stroke-opacity="0.05" stroke-width="2.5"/>
</svg>
