<svg width="50" height="63" viewBox="0 0 50 63" fill="none" xmlns="http://www.w3.org/2000/svg">
<g clip-path="url(#clip0_2_26)">
<path d="M38.3877 26.9797C38.2908 27.0766 38.2908 27.0766 38.1938 27.1736C38.0969 27.2705 37.903 27.4643 37.8061 27.5613C37.6122 27.6582 37.4183 27.8521 37.2244 27.9491C37.0305 28.046 36.9336 28.046 36.7397 28.143C35.6733 28.5307 34.51 28.7246 33.4437 28.8215C32.959 28.8215 32.5712 28.9185 32.0866 28.9185C31.8927 28.9185 31.6018 28.9185 31.4079 28.9185C31.311 28.9185 31.214 28.9185 31.1171 28.9185C31.0201 28.9185 31.0201 28.9185 30.9233 28.9185C30.6324 28.9185 30.4385 29.1124 30.4385 29.4032C30.4385 29.694 30.6324 29.8879 30.9233 29.8879H31.0201C31.7957 30.0818 32.4743 30.0818 33.2499 29.9848C34.1223 29.8879 34.8978 29.7909 35.7703 29.597C36.5459 29.4032 37.2244 29.2093 37.903 28.9185C38.0969 28.8215 38.3877 28.6276 38.5816 28.5307C38.7755 28.3369 38.9695 28.2399 39.1633 28.046C39.3572 27.8521 39.4541 27.6582 39.5511 27.4643C39.648 27.2705 39.745 27.1736 39.8419 26.9797C39.9389 26.7858 40.0358 26.6888 40.0358 26.4949C40.1328 26.2041 40.2296 25.8164 40.3266 25.5255C40.4235 25.2347 40.2296 24.9439 40.0358 24.8469H39.9389C39.745 24.8469 39.5511 24.9439 39.4541 25.2346C39.3572 25.6225 39.1633 26.1072 38.9694 26.4949C38.6786 26.4949 38.5816 26.7858 38.3877 26.9797ZM0.968099 10.9842C1.25893 10.9842 1.45281 10.7903 1.45281 10.4995C1.45281 9.72394 1.45281 8.85147 1.45281 8.07592C1.45281 7.68816 1.54976 7.30039 1.54976 7.00957C1.54976 6.62179 1.6467 6.33097 1.6467 5.9432C1.74364 5.26461 1.93752 4.68295 2.1314 4.1013V4.00436C2.1314 4.00436 2.1314 4.00436 2.1314 4.1013C2.32529 3.90742 2.32529 3.81048 2.42223 3.71353C2.51917 3.61659 2.51917 3.61659 2.61611 3.51964C2.71305 3.4227 2.81 3.4227 2.90694 3.32576C3.58554 3.03493 4.36107 2.84105 5.13661 2.64717C5.8152 2.45328 6.49379 2.2594 7.1724 2.06552C7.85099 1.87163 8.52959 1.67774 9.20818 1.48386C9.499 1.38692 9.88677 1.28998 10.1776 1.19304C10.4684 1.09609 10.6623 1.09609 10.9531 0.999152C11.244 0.902209 11.3409 0.708325 11.3409 0.417499C11.147 0.514441 10.9531 0.320557 10.7592 0.320557H10.6623C10.5653 0.320557 10.3714 0.417499 10.2745 0.417499C10.0807 0.514441 9.78983 0.514441 9.59594 0.611383C9.20818 0.708325 8.72347 0.805267 8.3357 0.902209C7.36628 1.19304 6.39685 1.38692 5.42744 1.67774C4.94273 1.77469 4.55495 1.87163 4.07025 1.96858C3.87636 2.06552 3.68248 2.06552 3.4886 2.16246C3.19777 2.2594 2.90694 2.2594 2.61611 2.45328C2.51917 2.45328 2.42223 2.55023 2.32529 2.55023C2.1314 2.55023 2.03446 2.64717 1.93752 2.74411C1.84058 2.84105 1.74364 2.93799 1.6467 2.93799C1.54976 3.03493 1.45281 3.22882 1.45281 3.32576C1.35587 3.4227 1.25893 3.61659 1.16198 3.81048C1.16198 3.90742 1.06504 4.1013 1.06504 4.29518C0.9681 4.68295 0.871157 5.16766 0.774215 5.65237C0.483389 7.20345 0.483388 8.85147 0.483388 10.4995C0.483388 10.7903 0.677273 10.9842 0.968099 10.9842ZM26.4638 62.2666C26.367 62.2666 26.367 62.2666 26.4638 62.2666V62.2666ZM31.214 59.5521C30.5355 59.9399 29.7599 60.2308 28.9843 60.5216C28.5966 60.6185 28.2088 60.8124 27.7241 60.9094C27.2394 61.0063 26.7547 61.1033 26.27 61.2002C25.7853 61.2002 25.3005 61.2972 24.7189 61.2972C24.2342 61.2972 23.7495 61.2002 23.2648 61.1033C22.7801 61.0063 22.2954 60.9094 21.8106 60.7155C21.4229 60.6185 21.0351 60.4247 20.6473 60.2308C20.2596 60.0369 19.8718 59.843 19.4841 59.6491C19.2902 59.5521 19.1932 59.4552 18.9993 59.3583C18.9024 59.2614 18.8054 59.2614 18.7085 59.1644C18.6115 59.1644 18.5146 59.0675 18.4176 59.0675H18.3208C18.2238 59.0675 18.1269 59.1644 18.0299 59.2614C17.933 59.4552 17.933 59.746 18.1269 59.9399C18.3208 60.0369 18.4176 60.1339 18.5146 60.2308C18.7085 60.3278 18.9024 60.5216 19.0963 60.6185C19.4841 60.9094 19.9687 61.1033 20.3565 61.2972C21.3259 61.7818 22.2954 61.9757 23.3617 62.1696C23.8465 62.2666 24.2342 62.2666 24.7189 62.2666C25.0098 62.2666 25.2037 62.2666 25.4944 62.2666C25.7853 62.2666 25.9792 62.2666 26.27 62.1696C26.27 62.1696 26.27 62.1696 26.367 62.1696C27.2394 62.0727 28.0149 61.8788 28.7904 61.588C29.7599 61.2972 30.7294 60.8124 31.6018 60.3277C31.8927 60.2308 31.8927 59.843 31.7957 59.6491C31.7957 59.5521 31.5049 59.4552 31.214 59.5521ZM21.3259 33.4747C21.4229 33.4747 21.5198 33.4747 21.6168 33.3778C22.1984 33.2808 22.7801 33.2808 23.3617 33.2808C24.0404 33.2808 24.622 33.2808 25.3005 33.3778C25.8822 33.4747 26.367 33.5717 26.9486 33.6686C27.5302 33.7656 28.0149 33.9595 28.5966 34.1534C29.3721 34.4442 30.0507 34.832 30.7294 35.2198C31.5049 35.6075 32.1834 36.0922 32.959 36.3831C33.3467 36.5769 33.8315 36.7708 34.2193 36.8677C34.7039 37.0616 35.1887 37.0616 35.6733 37.1586C36.5459 37.2555 37.4183 37.1586 38.2908 37.0616C39.1632 36.9647 40.1328 36.9647 41.0052 36.8677C41.8777 36.7708 42.7501 36.7708 43.6226 36.7708C44.3982 36.7708 45.2706 36.7708 46.0461 36.7708C46.8217 36.7708 47.6942 36.7708 48.4697 36.7708C48.9545 36.7708 49.2453 36.3831 49.2453 35.9953C49.2453 35.5105 48.8575 35.2198 48.4697 35.2198C47.9851 35.2198 47.4033 35.2198 46.9187 35.2198C46.4339 35.2198 45.9492 35.2198 45.4645 35.2198C44.3982 35.2198 43.2349 35.2198 42.1685 35.3166C41.5868 35.3166 41.0052 35.4136 40.5205 35.4136C39.9389 35.4136 39.3572 35.5105 38.7755 35.6075C38.2908 35.7044 37.7092 35.7044 37.2244 35.8014C36.6428 35.8014 36.1581 35.8014 35.5765 35.8014C35.2856 35.7044 34.9948 35.7044 34.7039 35.6075C34.4131 35.5105 34.1223 35.4136 33.9284 35.3166C33.5406 35.1228 33.056 34.9289 32.6682 34.6381C32.2804 34.4442 31.9896 34.2503 31.6018 34.0564C30.8263 33.6686 29.9537 33.1839 29.0813 32.8931C27.3364 32.2145 25.4944 31.9236 23.7495 31.9236C23.6526 31.9236 23.5556 31.9236 23.5556 31.9236C22.6832 31.9236 21.8106 32.0206 20.9381 32.2145C20.6473 32.3114 20.3565 32.4084 20.0657 32.5053C19.5809 32.4084 19.0963 32.4084 18.7085 32.4084C18.5146 32.4084 18.3208 32.4084 18.0299 32.4084C17.3513 32.4084 16.6727 32.5053 16.091 32.5053H16.188C16.091 32.5053 15.9942 32.5053 15.8972 32.5053H15.9942C15.8972 32.5053 15.8972 32.5053 15.8003 32.5053C14.2492 32.6992 12.795 33.1839 11.3409 33.5717C9.88677 33.9595 8.3357 34.3472 6.88157 34.6381C6.00909 34.735 5.13661 34.832 4.26413 34.832C3.39165 34.832 2.51917 34.832 1.6467 34.9289C1.16198 34.9289 0.871156 35.3166 0.871156 35.7044C0.871156 36.0922 1.25893 36.5769 1.6467 36.4799C2.81 36.3831 3.9733 36.3831 5.13661 36.3831C5.8152 36.3831 6.49379 36.2861 7.1724 36.1892C7.85099 36.0922 8.52959 35.9953 9.20818 35.8014C10.2745 35.5105 11.4379 35.2198 12.5042 34.9289C13.0859 34.735 13.6676 34.5411 14.2492 34.4442C14.8309 34.2503 15.5094 34.1534 16.091 34.0564C16.5758 33.9595 16.9636 33.9595 17.4482 33.9595C17.1575 34.1534 16.8666 34.4442 16.5758 34.6381C16.2849 34.9289 15.9942 35.3166 15.7033 35.6075C15.5094 35.8983 15.3155 36.2861 15.1216 36.5769C15.0247 36.8677 14.9277 37.1586 14.9277 37.4494C14.9277 37.6432 14.8309 37.9341 14.9277 38.128C14.9277 38.3219 14.9277 38.5158 15.0247 38.7097C15.0247 38.9035 15.1216 39.0004 15.2186 39.1943C15.3155 39.3882 15.4125 39.5821 15.5094 39.776C15.6064 39.873 15.7033 40.0668 15.8003 40.1637C15.9942 40.3576 16.2849 40.5515 16.4788 40.6485C16.6727 40.7454 16.7697 40.8424 16.9636 40.8424C17.1575 40.9393 17.2543 40.9393 17.4482 41.0363C17.7391 41.1331 18.1269 41.2301 18.4176 41.2301C19.0963 41.327 19.7748 41.2301 20.4535 41.1331C21.7138 40.9393 23.0709 40.5515 24.3311 40.3576C24.8159 40.2607 25.2037 40.2607 25.6883 40.2607C26.0761 40.2607 26.5608 40.2607 26.9486 40.3576C27.2394 40.4546 27.5302 40.4546 27.821 40.5515C28.1119 40.6485 28.4027 40.7454 28.6935 40.8424C28.9843 40.9393 29.2752 41.1331 29.566 41.2301C29.8568 41.424 30.1477 41.6179 30.5355 41.8118C31.8927 42.8782 33.1529 44.1384 34.3162 45.3017C34.9948 45.9803 35.6733 46.6589 36.255 47.4344C36.8366 48.016 37.4183 48.6947 38.0969 49.2763C38.3877 49.4702 38.6786 49.6641 38.9694 49.9549C38.8725 49.9549 38.7756 50.0519 38.6786 50.1488C38.5816 50.2458 38.5816 50.3426 38.4847 50.4396C38.1938 50.7304 37.903 50.9243 37.7092 51.2152C37.4183 51.506 37.2244 51.7968 36.9336 51.9907C36.352 52.5723 35.7703 53.0571 35.1887 53.5418C33.8315 54.6082 32.3773 55.4806 30.7294 56.2561C30.3416 56.45 29.9537 56.547 29.566 56.7409C29.2752 56.8378 28.9843 56.9348 28.6935 56.9348C28.6935 56.6439 28.7904 56.45 28.7904 56.1592C28.7904 55.9653 28.7904 55.7715 28.7904 55.5776C28.7904 55.3837 28.6935 55.1898 28.5966 54.9959C28.4997 54.8021 28.4027 54.7051 28.2088 54.6082C28.0149 54.5112 27.918 54.4143 27.7241 54.3173C27.5302 54.2204 27.3364 54.2204 27.0455 54.2204C26.7547 54.2204 26.4638 54.3173 26.1731 54.4143C25.4944 54.6082 24.9128 54.8989 24.2342 55.1898C24.3311 55.1898 24.3311 55.0928 24.4281 55.0928C24.3311 55.1898 24.1372 55.1898 24.0404 55.2867C24.2342 54.6082 24.4281 53.9295 24.2342 53.3479C24.1372 53.154 24.0404 52.8632 23.8465 52.7662C23.6526 52.5723 23.4587 52.4755 23.1678 52.3785C22.8771 52.2816 22.5862 52.2816 22.3923 52.3785C22.1984 52.3785 22.1015 52.4755 22.0045 52.4755C21.6168 52.5723 21.229 52.7662 20.9381 52.9601C21.0351 52.7662 21.0351 52.6693 21.132 52.4755C21.229 52.0877 21.3259 51.6029 21.3259 51.2152C21.3259 50.7304 21.229 50.2457 20.9381 49.858C20.8412 49.761 20.7442 49.6641 20.6473 49.5671C20.4535 49.4702 20.3565 49.3732 20.1626 49.2763C19.8718 49.1793 19.4841 49.1793 19.0963 49.1793C18.9024 49.1793 18.7085 49.2763 18.5146 49.3732C18.2238 49.4702 18.0299 49.5671 17.7391 49.6641C17.5452 49.761 17.3513 49.858 17.1575 49.9549C17.1575 49.761 17.1575 49.6641 17.1575 49.4702C17.1575 49.1793 17.1575 48.9855 17.0605 48.6947C17.0605 48.5008 16.9636 48.3069 16.9636 48.113C16.7697 47.5314 16.4788 47.0466 15.9942 46.6589C15.8972 46.562 15.7033 46.465 15.5094 46.3681C15.3155 46.2711 15.1216 46.2711 14.8309 46.2711C14.8309 46.2711 14.8309 46.2711 14.7339 46.2711C14.54 46.2711 14.4431 46.2711 14.2492 46.3681C14.1522 46.3681 14.0553 46.465 13.8614 46.465C13.7644 46.465 13.5706 46.562 13.4737 46.6589C13.3767 46.7558 13.1828 46.8527 13.0859 46.9497C12.9889 47.0466 12.795 47.1436 12.6981 47.2405C12.5042 47.3375 12.4073 47.5314 12.2134 47.7253C12.0195 47.9192 11.9225 48.113 11.8256 48.3069C11.7286 48.4038 11.7286 48.5008 11.6317 48.6947C11.147 48.4038 10.5653 48.113 10.0807 47.8222C8.72347 47.2405 7.1724 46.8527 5.62132 46.6589C5.23355 46.6589 4.84579 46.562 4.36107 46.562C4.07025 46.562 3.77942 46.562 3.4886 46.562C2.71305 46.562 1.84058 46.7558 1.06504 46.9497C0.677273 47.0466 0.386446 47.5314 0.483388 47.9191C0.58033 48.113 0.677272 48.3069 0.871156 48.4038C1.06504 48.5008 1.25893 48.5008 1.45281 48.5008C2.03446 48.4038 2.61611 48.2099 3.19777 48.2099C4.26413 48.113 5.23355 48.2099 6.29991 48.3069C6.88157 48.4038 7.46322 48.5008 8.04487 48.6947C8.62653 48.8886 9.20818 49.0824 9.78983 49.2763C11.0501 49.858 12.1164 50.5365 13.2798 51.3121C14.2492 51.9907 15.2186 52.6693 16.188 53.4449L16.091 53.3479C16.7697 53.9295 17.5452 54.5112 18.3208 54.9959C19.0963 55.5776 19.7748 56.0622 20.5504 56.547C21.326 57.0317 22.1984 57.4194 23.0709 57.8072C23.8465 58.0981 24.622 58.3888 25.4944 58.4858C25.8822 58.5827 26.27 58.5827 26.7547 58.5827C27.1425 58.5827 27.6271 58.5827 28.0149 58.5827C28.9843 58.4858 29.8568 58.195 30.6324 57.9042C32.3773 57.2255 33.9284 56.1592 35.4795 55.0928C36.255 54.5112 37.0305 53.8326 37.7092 53.0571C38.0969 52.6693 38.3877 52.2816 38.6786 51.7968C38.7756 51.6029 38.9694 51.409 38.9694 51.2152C39.0663 51.1182 39.0663 51.0213 39.1633 50.9243C39.2602 50.8274 39.2602 50.7304 39.3572 50.7304C39.4541 50.6335 39.4541 50.5365 39.3572 50.4396C39.648 50.6335 39.9389 50.8274 40.3266 50.9243C40.9083 51.2152 41.5868 51.3121 42.1685 51.3121C42.6532 51.3121 43.041 51.3121 43.5257 51.2152C44.0104 51.2152 44.3982 51.1182 44.8828 51.0213C45.2706 50.9243 45.7554 50.9243 46.1431 50.8274C46.5309 50.7304 47.0156 50.6335 47.4034 50.5365C47.7912 50.4396 48.1789 50.3426 48.4697 50.1488C48.5667 50.1488 48.5667 50.1488 48.6636 50.1488C48.9545 50.1488 49.1484 49.9549 49.1484 49.6641C49.1484 49.3732 48.9545 49.1793 48.6636 49.1793C48.5667 49.1793 48.4697 49.1793 48.2758 49.2763C47.7911 49.2763 47.3064 49.2763 46.7248 49.2763C46.1431 49.3732 45.5615 49.3732 45.0767 49.4702C44.0104 49.5671 42.8471 49.761 41.6838 49.6641C41.4899 49.6641 41.2961 49.5671 41.1022 49.5671C40.9083 49.4702 40.8113 49.4702 40.6174 49.3732C40.3266 49.2763 40.0358 49.0824 39.745 48.8886C39.5511 48.7916 39.3572 48.5977 39.1633 48.5008C38.4847 48.016 37.903 47.4344 37.3214 46.8527C36.6428 46.1742 35.9642 45.3987 35.1887 44.72C33.8315 43.3628 32.5712 41.9087 31.0201 40.7454C30.6324 40.4546 30.2446 40.1637 29.8568 39.9698C29.3721 39.6791 28.8874 39.4852 28.4027 39.2913C27.918 39.0974 27.5303 39.0974 27.0455 39.0004C26.4638 38.9035 25.9792 38.9035 25.3975 38.9035C24.4281 38.9035 23.3617 39.0974 22.3923 39.1943C21.5198 39.3882 20.6473 39.5821 19.7748 39.6791C19.1932 39.776 18.7085 39.776 18.1269 39.6791C17.933 39.6791 17.836 39.5821 17.6421 39.5821C17.4482 39.5821 17.2543 39.4852 17.1575 39.3882C16.9636 39.2913 16.8666 39.1943 16.6727 39.0974C16.5758 39.0004 16.4788 38.9035 16.3819 38.8065C16.2849 38.7097 16.188 38.5158 16.188 38.4188C16.091 38.3219 16.091 38.128 16.091 38.031C16.091 37.8371 16.091 37.7402 16.091 37.5464C16.091 37.3525 16.188 37.2555 16.188 37.0616C16.2849 36.7708 16.4788 36.4799 16.6727 36.1892C16.8666 35.9953 16.9636 35.8014 17.1575 35.7044C17.3513 35.5105 17.4482 35.4136 17.6421 35.2198C17.933 34.9289 18.3208 34.735 18.7085 34.4442C19.0963 34.2503 19.3871 34.0564 19.7748 33.8625C20.0657 33.7656 20.3565 33.6686 20.7442 33.5717C20.8412 33.5717 21.0351 33.4747 21.132 33.4747C21.229 33.4747 21.229 33.4747 21.3259 33.4747ZM22.2954 53.7356H22.1984C22.1984 53.6387 22.1984 53.6387 22.2954 53.7356ZM18.0299 50.7304C18.3208 50.6335 18.6115 50.5365 18.9024 50.5365H18.9993C18.9993 50.5365 18.9993 50.5365 18.9993 50.6335C18.9993 50.7304 19.0963 50.8274 19.0963 50.9243C19.0963 51.1182 19.0963 51.2152 19.0963 51.409C19.0963 51.6029 18.9993 51.7968 18.9024 52.0877C18.7085 52.4755 18.6115 52.7662 18.3208 53.0571C18.3208 53.154 18.2238 53.154 18.2238 53.251C18.0299 53.154 17.836 52.9601 17.6421 52.8632C17.1575 52.5723 16.7697 52.1846 16.2849 51.8938C16.9636 51.409 17.4482 51.0213 18.0299 50.7304ZM12.4073 48.9855C12.6981 48.7916 12.9889 48.5008 13.2798 48.3069C13.5706 48.113 13.8614 47.9192 14.1522 47.8222C14.2492 47.8222 14.3461 47.7253 14.4431 47.7253H14.54H14.637C14.637 47.7253 14.7339 47.7253 14.7339 47.8222C14.8309 47.9192 14.8309 47.9192 14.9277 48.016C15.0247 48.113 15.0247 48.2099 15.1216 48.3069C15.2186 48.5008 15.2186 48.6947 15.3155 48.8886C15.3155 49.1793 15.3155 49.3732 15.3155 49.6641C15.3155 49.9549 15.2186 50.1488 15.1216 50.4396C15.1216 50.5365 15.0247 50.6335 14.9277 50.7304C14.7339 50.5365 14.4431 50.3426 14.2492 50.1488C13.5706 49.6641 12.9889 49.2763 12.4073 48.9855ZM20.2596 54.6082C20.1626 54.6082 20.1626 54.5112 20.0657 54.4143C20.2596 54.3173 20.3565 54.2204 20.5504 54.2204C21.132 54.0265 21.6168 53.8326 22.1984 53.6388H22.2954C22.2954 53.7356 22.2954 53.7356 22.2954 53.8326C22.1984 54.1234 22.1015 54.4143 22.0045 54.7051C21.9076 54.8989 21.8106 55.1898 21.7138 55.3837C21.229 55.1898 20.7442 54.8989 20.2596 54.6082ZM25.6883 56.8378C25.5914 56.8378 25.4944 56.8378 25.4944 56.8378C25.4944 56.8378 25.4944 56.8378 25.6883 56.8378C25.2037 56.7409 24.8159 56.6439 24.3311 56.547C24.2342 56.547 24.1372 56.45 24.0404 56.45C24.3311 56.3531 24.525 56.2561 24.8159 56.1592C25.3975 55.9653 25.9792 55.7715 26.5608 55.6745C26.6577 55.6745 26.6577 55.6745 26.7547 55.6745C26.7547 55.9653 26.7547 56.2561 26.7547 56.547C26.7547 56.6439 26.7547 56.7409 26.7547 56.8378C26.7547 56.9348 26.7547 56.9348 26.7547 57.0317C26.27 56.9348 25.9792 56.9348 25.6883 56.8378ZM9.78983 5.9432C9.01429 5.9432 8.14181 5.9432 7.46322 6.42791C6.78463 6.91262 6.49379 7.7851 6.20297 8.46369C6.10603 8.94841 6.00909 9.43312 5.91215 9.82088C5.62132 11.6628 5.42744 13.4078 5.3305 15.2496C5.23355 16.6068 5.23355 17.9641 5.13661 19.3212C5.13661 19.9998 5.03967 20.6784 5.03967 21.357C5.03967 21.9386 5.03967 22.6173 5.03967 23.1989C5.03967 23.4897 5.03967 23.7806 5.13661 24.0713C5.13661 24.1683 5.23355 24.2652 5.23355 24.3622C5.23355 24.4591 5.3305 24.4591 5.3305 24.5561C5.42744 24.653 5.52438 24.653 5.62132 24.75C5.91215 24.9439 6.20297 24.9439 6.49379 24.9439C6.88157 24.9439 7.1724 24.8469 7.56016 24.8469C7.94793 24.75 8.23875 24.75 8.62653 24.653C9.30512 24.5561 9.88677 24.3622 10.5653 24.1683C11.147 23.9744 11.7286 23.8774 12.4073 23.7806H12.3103C12.4073 23.7806 12.5042 23.7806 12.6012 23.7806C12.6012 23.7806 12.6012 23.7806 12.5042 23.7806H12.6012H12.6981C12.5042 24.0713 12.3103 24.4591 12.2134 24.75C12.0195 25.1377 11.9225 25.5255 11.7286 25.8164C11.3409 26.5919 11.0501 27.3674 10.7592 28.143C10.6623 28.5307 10.4684 28.8215 10.3714 29.2093C10.2745 29.597 10.0807 29.8879 9.98371 30.2757C9.88677 30.5665 9.98371 30.9542 10.1776 31.2451C10.2745 31.439 10.3714 31.5359 10.5653 31.6329C10.6623 31.6329 10.6623 31.7298 10.7592 31.7298C10.8562 31.7298 11.0501 31.7298 11.147 31.7298C11.244 31.7298 11.244 31.7298 11.3409 31.7298C11.5347 31.7298 11.6317 31.6329 11.8256 31.6329C12.0195 31.5359 12.2134 31.439 12.4073 31.439C12.6012 31.342 12.892 31.2451 13.0859 31.1481C13.8614 30.7603 14.54 30.3726 15.2186 29.8879C15.9942 29.4032 16.6727 28.8215 17.4482 28.3369C18.1269 27.8521 18.8054 27.2705 19.4841 26.6888C19.7748 26.4949 20.0657 26.2041 20.3565 25.9133C20.4535 25.8164 20.6473 25.6225 20.7442 25.5255C20.8412 25.4286 21.0351 25.3316 21.132 25.3316C21.4229 25.2346 21.6168 25.1377 21.9076 25.1377C22.1984 25.0408 22.5862 25.0407 22.8771 24.9439C23.7495 24.8469 24.622 24.75 25.4944 24.75C26.4638 24.75 27.4333 24.75 28.3058 24.8469C29.2752 24.8469 30.1476 24.9439 31.1171 24.9439C31.9896 24.9439 32.959 24.9439 33.8315 24.8469C34.2193 24.8469 34.7039 24.75 35.0917 24.75C35.2856 24.75 35.4795 24.75 35.6733 24.75C35.7703 24.75 35.9642 24.75 36.0611 24.653C36.1581 24.653 36.255 24.653 36.352 24.5561C36.4489 24.5561 36.5459 24.4591 36.6428 24.3622C37.2244 23.9744 37.4183 23.1019 37.5153 22.4234C37.6122 21.9386 37.6122 21.454 37.7092 20.9692C37.903 19.1274 38.1938 17.1885 38.3877 15.3466C38.5816 13.5047 38.7756 11.6628 38.9694 9.82088C38.9694 9.43312 39.0663 9.04535 39.0663 8.65757C39.1632 8.17287 39.2602 7.59122 38.9694 7.10651C38.9694 7.00956 38.8725 7.00956 38.8725 6.91262C38.7756 6.81567 38.6786 6.71873 38.5816 6.62179C38.3877 6.52485 38.1938 6.42791 37.9999 6.42791C37.4183 6.33097 36.8366 6.33097 36.255 6.33097C35.6733 6.33097 35.0917 6.33097 34.607 6.23402C32.5712 6.13708 30.5355 6.13708 28.5966 6.04014C26.7547 5.9432 24.8159 5.9432 22.9739 5.84626C19.0963 5.74932 15.1216 5.65237 11.244 5.65237C10.9531 5.65237 10.6623 5.65237 10.3714 5.65237C10.2745 5.9432 9.98371 5.9432 9.78983 5.9432ZM11.8256 7.59122C12.795 7.59122 13.8614 7.59122 14.9277 7.59122C16.8666 7.59122 18.7085 7.59122 20.6473 7.59122C24.622 7.68816 28.5966 7.68816 32.5712 7.88204C33.2499 7.88204 33.9284 7.97898 34.51 7.97898C35.4795 8.07592 36.5459 8.07592 37.5153 8.17287C37.5153 8.17287 37.5153 8.17287 37.6122 8.17287C37.6122 8.46369 37.6122 8.75453 37.6122 9.04535C37.6122 9.53006 37.6122 9.91782 37.5153 10.4025C37.4183 11.3719 37.4183 12.4383 37.4183 13.4078C37.3214 15.3466 37.1275 17.2854 36.9336 19.2243C36.7397 20.3876 36.6428 21.6478 36.1581 22.8111C36.1581 22.8111 36.1581 22.8111 36.1581 22.908C36.1581 23.005 36.0611 23.1019 35.9642 23.1989C35.7703 23.2958 35.4795 23.2958 35.2856 23.3928C34.4132 23.4897 33.6376 23.5867 32.959 23.5867C33.056 23.4897 33.2499 23.3928 33.3467 23.2958C33.7345 23.005 34.1223 22.6173 34.4131 22.2295C34.607 22.0356 34.607 21.7447 34.4131 21.5508C34.3162 21.454 34.2193 21.357 34.0254 21.357C33.9284 21.357 33.7345 21.357 33.7345 21.454C33.3467 21.8417 32.959 22.2295 32.5712 22.5203C32.2804 22.8111 31.9896 23.1019 31.6988 23.2958C31.6988 23.2958 31.6018 23.3928 31.6018 23.4897C31.0201 23.4897 30.5355 23.4897 29.9538 23.4897C29.663 23.4897 29.3721 23.4897 29.0813 23.4897C29.4691 23.1989 29.8568 22.8111 30.2446 22.5203C30.4385 22.3264 30.4385 22.0356 30.2446 21.8417C30.1476 21.7447 30.0507 21.6478 29.8568 21.6478C29.7599 21.6478 29.566 21.6478 29.4691 21.7447C29.0813 22.0356 28.6935 22.4234 28.3058 22.7141C28.1119 22.8111 28.0149 23.005 27.821 23.1019C27.7241 23.1989 27.7241 23.1989 27.6271 23.2958L27.5303 23.3928C26.8516 23.3928 26.27 23.3928 25.5914 23.3928C25.7853 23.1989 25.9792 23.005 26.27 22.8111C26.4638 22.6173 26.4638 22.3264 26.27 22.1325C26.1731 22.0356 26.0761 21.9386 25.8822 21.9386C25.7853 21.9386 25.5914 21.9386 25.4944 22.0356C25.2037 22.2295 25.0098 22.5203 24.7189 22.7141C24.622 22.8111 24.525 22.908 24.4281 23.005L24.3311 23.1019C24.3311 23.1019 24.3311 23.1989 24.2342 23.2958C24.2342 23.2958 24.2342 23.2958 24.1372 23.2958C23.6526 23.2958 23.1678 23.3928 22.7801 23.3928C22.8771 23.2958 22.9739 23.1989 22.9739 23.1019C23.0709 22.908 23.2648 22.8111 23.3617 22.6173C23.4587 22.5203 23.5556 22.4234 23.5556 22.2295C23.5556 22.1325 23.5556 21.9386 23.4587 21.8417C23.3617 21.7447 23.2648 21.6478 23.0709 21.6478C22.9739 21.6478 22.7801 21.6478 22.6832 21.7447C22.3923 22.1325 22.1015 22.4234 21.8106 22.8111C21.7138 23.005 21.6168 23.1019 21.5198 23.2958C21.0351 23.3928 20.4535 23.3928 19.9687 23.5867C19.6779 23.6836 19.3871 23.9744 19.1932 24.1683C18.7085 24.5561 18.3208 25.0407 17.836 25.4286C17.836 25.3316 17.836 25.2347 17.7391 25.1377C17.6421 25.0408 17.5452 24.9439 17.3513 24.9439C17.2543 24.9439 17.1575 24.9439 17.0605 25.0408C16.3819 25.7194 15.8003 26.398 15.2186 27.1736C14.9277 27.4643 14.637 27.8521 14.3461 28.2399C14.2492 28.3369 14.2492 28.3369 14.2492 28.4337C14.1522 28.4337 14.1522 28.5307 14.0553 28.5307C13.5706 28.8215 13.0859 29.1124 12.5042 29.3063C12.4073 29.4032 12.2134 29.4032 12.1164 29.5002C12.0195 29.5002 11.9225 29.597 11.8256 29.597C11.8256 29.5002 11.8256 29.5002 11.9225 29.4032C12.0195 29.4032 12.1164 29.3063 12.2134 29.2093C12.2134 29.1124 12.3103 29.1124 12.3103 29.1124L12.2134 29.2093C12.795 28.6276 13.2798 28.046 13.8614 27.4643C14.0553 27.2705 14.0553 26.9797 13.8614 26.7858C13.7644 26.6888 13.6676 26.5919 13.4737 26.5919C13.3767 26.5919 13.1828 26.5919 13.1828 26.6888C12.9889 26.8827 12.795 27.1736 12.6012 27.3674C12.6981 27.1736 12.6981 26.9797 12.795 26.7858C12.9889 26.2041 13.1828 25.6225 13.3767 25.1377C13.4737 25.1377 13.6676 25.1377 13.7645 25.0408C13.8614 24.8469 14.0553 24.75 14.2492 24.653C14.4431 24.4591 14.637 24.2652 14.8309 24.0713C15.0247 23.8774 15.0247 23.5867 14.8309 23.3928C14.7339 23.2958 14.637 23.1989 14.4431 23.1989C14.3461 23.1989 14.1522 23.1989 14.1522 23.2958C14.0553 23.3928 13.9583 23.4897 13.8614 23.5867C13.8614 23.5867 13.8614 23.5867 13.8614 23.4897C13.8614 23.3928 13.9583 23.2958 13.9583 23.1989C13.9583 23.1019 13.9583 23.005 13.9583 23.005C14.0553 22.908 14.1522 22.8111 14.1522 22.7141C14.2492 22.5203 14.2492 22.3264 14.2492 22.1325C14.1522 21.9386 14.0553 21.7447 13.8614 21.6478C13.6676 21.5508 13.4737 21.5508 13.1828 21.5508C13.0859 21.5508 12.9889 21.5508 12.892 21.5508C12.9889 21.454 13.0859 21.357 13.1828 21.2601C13.3767 21.0662 13.3767 20.7753 13.1828 20.5814C13.0859 20.4845 12.9889 20.3876 12.795 20.3876C12.6981 20.3876 12.5042 20.3875 12.4073 20.4845C12.2134 20.6784 11.9225 20.8723 11.7286 21.1631C11.5347 21.357 11.4379 21.5508 11.244 21.6478V21.7447C10.9531 21.8417 10.6623 21.8417 10.3714 21.9386C9.98372 22.0356 9.69289 22.1325 9.30512 22.2295C9.499 22.0356 9.69289 21.7447 9.88677 21.5508C9.98371 21.454 10.0807 21.357 10.0807 21.2601C10.0807 21.1631 10.0807 20.9692 9.98371 20.8723C9.88677 20.7753 9.78983 20.6784 9.69289 20.6784C9.59594 20.6784 9.40206 20.6784 9.40206 20.7753C9.11124 21.0662 8.91735 21.357 8.62653 21.7447L8.52959 21.8417C8.43264 21.9386 8.43265 22.0356 8.3357 22.1325C8.3357 22.2295 8.43264 22.3264 8.43264 22.3264C8.23875 22.3264 7.94793 22.4234 7.75404 22.4234C7.56016 22.4234 7.46322 22.4234 7.26934 22.4234C7.36628 22.3264 7.46322 22.2295 7.56016 22.1325C7.85099 21.7447 8.23875 21.357 8.52959 20.9692C8.62653 20.8723 8.62653 20.6784 8.62653 20.5814C8.62653 20.4845 8.52959 20.2907 8.43264 20.2907C8.33569 20.1937 8.23875 20.1937 8.14181 20.1937H8.04487C7.94793 20.1937 7.85099 20.2907 7.75404 20.3876C7.46322 20.6784 7.26934 20.9692 6.97851 21.357C6.97851 20.8723 6.97851 20.2907 6.97851 19.8059V19.709C7.07545 19.5151 7.26934 19.3212 7.36628 19.1274C7.56016 18.8365 7.75405 18.4487 8.04487 18.1579C8.23875 17.9641 8.14181 17.5763 7.85099 17.4793C7.75405 17.3824 7.6571 17.3824 7.56016 17.3824C7.36628 17.3824 7.26934 17.4793 7.1724 17.5763C7.07545 17.6732 6.97851 17.7702 6.97851 17.9641C6.97851 17.5763 6.97851 17.1885 6.97851 16.8007C6.97851 16.316 6.97851 15.9282 6.97851 15.4435C6.97851 15.3466 7.07545 15.3466 7.07545 15.2496C7.26934 14.9588 7.46322 14.6679 7.6571 14.4741C7.85099 14.2802 7.75404 13.8924 7.46322 13.7955C7.36628 13.6985 7.26934 13.6985 7.1724 13.6985C7.07545 13.6985 6.97851 13.6985 6.97851 13.7955C7.07545 12.7291 7.1724 11.6628 7.26934 10.5964C7.36628 9.627 7.56016 8.75451 7.94793 7.7851C8.04487 7.59122 8.14181 7.39733 8.23875 7.20345C8.04487 8.07592 8.14181 7.97898 8.23875 7.88204C8.23875 7.88204 8.3357 7.88204 8.3357 7.7851C8.52959 7.68816 8.62653 7.68816 8.82041 7.68816C9.78983 7.59122 10.8562 7.68816 11.8256 7.59122Z" fill="black"/>
<path d="M12.3099 16.7039C12.4068 16.8978 12.5038 17.0917 12.6007 17.1886C12.6977 17.2856 12.7945 17.4795 12.8915 17.5763C12.9884 17.6733 13.1823 17.7702 13.2793 17.8672C13.3762 17.9641 13.5701 18.0611 13.764 18.0611C13.9578 18.158 14.1517 18.158 14.3456 18.255C14.5395 18.255 14.6365 18.255 14.8304 18.255C15.1211 18.255 15.5089 18.0611 15.7998 17.9641C15.9937 17.8672 16.0906 17.7702 16.1876 17.6733C16.3814 17.4795 16.5753 17.3825 16.7692 17.1886C16.9631 16.9947 17.06 16.8008 17.2539 16.6069C17.4477 16.413 17.5447 16.2192 17.6416 15.9284C17.7386 15.7345 17.8355 15.5406 17.8355 15.2497C17.8355 15.0559 17.8356 14.862 17.9325 14.7651C17.9325 14.5712 17.9325 14.4742 17.8355 14.2803C17.8355 14.1834 17.7386 14.0865 17.7386 13.9896C17.6416 13.7957 17.6416 13.6987 17.5447 13.6018C17.4477 13.5048 17.3509 13.3109 17.2539 13.214C17.157 13.0201 16.9631 12.9232 16.7692 12.8263C16.6722 12.7293 16.4783 12.6324 16.3814 12.5354C16.1876 12.4385 16.0906 12.4385 15.8967 12.3415C15.7028 12.2446 15.412 12.2446 15.2181 12.1476C15.1211 12.1476 15.0243 12.1476 14.8304 12.1476C14.7334 12.1476 14.7334 12.1476 14.6365 12.1476C14.4426 12.1476 14.3456 12.1476 14.1517 12.2446C14.0548 12.2446 13.9578 12.3415 13.861 12.3415C13.764 12.3415 13.6671 12.4385 13.5701 12.5354C13.4732 12.5354 13.2793 12.6324 13.2793 12.6324C13.1823 12.7293 13.0854 12.8263 13.0854 12.9232C13.0854 13.0201 13.0854 13.214 13.0854 13.3109C13.1823 13.5048 13.4732 13.6018 13.764 13.5048H13.861C13.9578 13.5048 13.9578 13.5048 14.0548 13.5048C13.9578 13.5048 13.9578 13.5048 13.9578 13.5048C14.1517 13.5048 14.3456 13.6018 14.5395 13.6018C14.8304 13.6018 15.1211 13.6987 15.412 13.7957C15.6059 13.8926 15.7028 13.9896 15.7998 14.0865C15.8967 14.1834 15.9937 14.2803 16.0906 14.3773C16.1876 14.4742 16.1876 14.5712 16.2844 14.6681C16.2844 14.7651 16.3814 14.862 16.3814 14.959C16.3814 15.0559 16.3814 15.1529 16.3814 15.2497C16.3814 15.3467 16.2844 15.4436 16.2844 15.5406C16.1876 15.7345 16.0906 15.9284 15.9937 16.0253C15.8967 16.2192 15.7028 16.3162 15.5089 16.413C15.412 16.51 15.2181 16.6069 15.1211 16.7039C15.0243 16.7039 14.9273 16.8008 14.8304 16.8008C14.7334 16.8008 14.7334 16.8008 14.6365 16.8008C14.5395 16.8008 14.4426 16.8008 14.3456 16.7039C14.2487 16.6069 14.1517 16.6069 14.0548 16.51C13.9578 16.413 13.9578 16.413 13.861 16.3162C13.764 16.2192 13.764 16.1223 13.6671 16.0253C13.6671 15.9284 13.5701 15.8314 13.5701 15.7345C13.5701 15.6375 13.5701 15.5406 13.5701 15.4436C13.5701 15.3467 13.5701 15.3467 13.5701 15.2497C13.5701 15.1529 13.6671 15.0559 13.6671 14.959C13.6671 14.862 13.764 14.7651 13.861 14.6681C14.0548 14.3773 13.9578 13.8926 13.5701 13.6987C13.2793 13.5048 12.7946 13.6018 12.6007 13.9896C12.5038 14.1834 12.3099 14.4742 12.2129 14.6681C12.2129 14.862 12.116 15.0559 12.116 15.2497C12.116 15.4436 12.116 15.6375 12.116 15.7345C12.116 15.9284 12.116 16.1223 12.2129 16.2192C12.2129 16.413 12.2129 16.6069 12.3099 16.7039ZM13.6671 13.4079C13.764 13.4079 13.764 13.4079 13.6671 13.4079V13.4079ZM16.3814 14.959V14.862C16.3814 14.959 16.3814 14.959 16.3814 14.959ZM13.861 16.413C13.9578 16.413 13.9578 16.413 13.861 16.413V16.413Z" fill="black"/>
<path d="M19.5816 16.9941C19.6785 17.091 19.6785 17.2848 19.7754 17.3818C19.8724 17.4787 19.9693 17.6726 20.0663 17.7696C20.1632 17.8665 20.2602 17.9635 20.3571 18.0604C20.4541 18.1574 20.648 18.2543 20.7449 18.3513C21.0357 18.4481 21.3265 18.5451 21.6174 18.5451C21.8113 18.5451 21.9082 18.5451 22.102 18.4481C22.2959 18.4481 22.4898 18.3513 22.6837 18.2543C23.0715 18.1574 23.3623 17.9635 23.6531 17.6726C23.7501 17.5757 23.944 17.4787 24.0409 17.3818C24.1379 17.2848 24.2347 17.091 24.3317 16.9941C24.4286 16.8971 24.5256 16.7032 24.5256 16.6063C24.6225 16.4124 24.6225 16.2185 24.7195 16.0247C24.7195 15.8308 24.7195 15.7338 24.7195 15.5399C24.7195 15.346 24.7195 15.2491 24.6225 15.0552C24.6225 14.8614 24.5256 14.7644 24.5256 14.5705C24.4286 14.3766 24.3317 14.1827 24.2347 14.0858C24.1379 13.9888 24.0409 13.7949 23.944 13.6981C23.847 13.6011 23.6531 13.5042 23.5562 13.4072C23.4592 13.3102 23.2653 13.2133 23.1684 13.2133C22.9746 13.1163 22.8776 13.1163 22.6837 13.1163C22.5868 13.1163 22.4898 13.1163 22.4898 13.1163C22.3929 13.1163 22.199 13.1163 22.102 13.2133C22.0051 13.2133 21.9082 13.2133 21.8113 13.2133C21.6174 13.3102 21.4235 13.5041 21.5204 13.6981C21.4235 13.6011 21.2296 13.5041 21.0357 13.5041C20.8418 13.5041 20.648 13.6011 20.551 13.6981C20.3571 13.8919 20.2602 14.0858 20.0663 14.2797C19.9693 14.4736 19.8724 14.7644 19.7754 14.9582C19.7754 15.0552 19.6785 15.1521 19.6785 15.346C19.6785 15.5399 19.5816 15.7338 19.5816 15.9277C19.5816 16.1215 19.5816 16.3154 19.5816 16.5093C19.4847 16.7032 19.5816 16.8971 19.5816 16.9941ZM21.1326 16.8002C21.2296 16.8002 21.2296 16.8002 21.1326 16.8002V16.8002ZM21.6174 14.5705C21.7143 14.3766 21.7143 14.1827 21.7143 13.9888C21.8113 14.0858 21.9082 14.0858 22.0051 14.0858C22.199 14.2797 22.4898 14.3766 22.6837 14.5705C22.6837 14.5705 22.7807 14.5705 22.7807 14.6675C22.8776 14.7644 22.9746 14.8614 23.0715 14.9582C23.0715 15.0552 23.1684 15.0552 23.1684 15.1521C23.1684 15.2491 23.2653 15.346 23.2653 15.443C23.2653 15.5399 23.2653 15.6369 23.2653 15.7338C23.2653 15.8308 23.1684 15.9277 23.1684 16.0247C23.1684 16.1215 23.0715 16.1215 23.0715 16.2185C22.9746 16.3154 22.8776 16.4124 22.7807 16.5093C22.6837 16.6063 22.5868 16.7032 22.3929 16.7032C22.2959 16.7032 22.2959 16.7032 22.199 16.8002C22.102 16.8002 21.9082 16.8971 21.8113 16.8971C21.7143 16.8971 21.6174 16.8971 21.5204 16.8971C21.4235 16.8971 21.4235 16.8971 21.3265 16.8002C21.3265 16.8002 21.2296 16.8002 21.2296 16.7032L21.1326 16.6063C21.1326 16.5093 21.0357 16.5093 21.0357 16.4124C21.0357 16.3154 20.9387 16.2185 20.9387 16.0247C20.9387 15.8308 20.9387 15.7338 20.9387 15.5399C20.9387 15.443 21.0357 15.2491 21.0357 15.1521C21.2296 15.1521 21.4235 14.8614 21.6174 14.5705ZM27.3369 17.4787C27.4339 17.5757 27.5308 17.7696 27.6278 17.8665C27.9186 18.1574 28.2094 18.3512 28.5003 18.5451C28.6942 18.642 28.7911 18.642 28.9849 18.739C29.1788 18.8359 29.2758 18.8359 29.4697 18.8359C29.6636 18.8359 29.8575 18.8359 30.0513 18.8359C30.1482 18.8359 30.1482 18.8359 30.2452 18.8359C30.4391 18.8359 30.633 18.739 30.8269 18.642C31.1176 18.5451 31.4085 18.3512 31.6993 18.0604C31.7963 17.9635 31.8932 17.7696 31.9902 17.6726C32.0871 17.4787 32.2809 17.2848 32.3779 17.091C32.4748 16.8971 32.4748 16.8002 32.5718 16.6063C32.6687 16.4124 32.6687 16.3154 32.6687 16.1215C32.6687 15.9277 32.7657 15.7338 32.6687 15.443C32.6687 15.346 32.6687 15.346 32.6687 15.2491C32.6687 15.0552 32.5718 14.8614 32.5718 14.6675C32.4748 14.4736 32.4748 14.3766 32.3779 14.1827C32.2809 14.0858 32.1841 13.8919 32.0871 13.7949C31.9902 13.6011 31.7963 13.5042 31.6993 13.4072C31.5054 13.2133 31.2146 13.1163 31.0208 13.0194C30.9238 12.9224 30.7299 12.9224 30.536 12.8255C30.3421 12.8255 30.2452 12.8255 30.0513 12.7285C29.8575 12.7285 29.7605 12.7285 29.5666 12.7285C29.4697 12.7285 29.3727 12.7285 29.2758 12.8255C29.1788 12.8255 29.0819 12.9224 28.9849 12.9224C28.9849 12.9224 29.0819 12.9224 29.0819 12.8255C28.888 12.8255 28.6942 12.9224 28.5972 13.0194C28.5003 13.1163 28.5003 13.1163 28.5003 13.2133C28.3064 13.2133 28.2094 13.3102 28.1125 13.4072C27.7246 13.7949 27.4339 14.1827 27.143 14.6675C26.7552 15.346 26.6583 16.1215 26.9491 16.8002C27.143 17.188 27.24 17.2848 27.3369 17.4787ZM28.4033 15.8308C28.4033 15.7338 28.4033 15.6369 28.5003 15.5399C28.5972 15.2491 28.7911 15.0552 28.888 14.8614C28.9849 14.7644 29.0819 14.6675 29.1788 14.5705C29.2758 14.4736 29.3727 14.2797 29.3727 14.0858C29.3727 13.9888 29.3727 13.9888 29.3727 13.8919C29.6636 13.9888 29.9544 14.0858 30.2452 14.1827C30.2452 14.1827 30.3421 14.1827 30.3421 14.2797C30.536 14.3766 30.633 14.4736 30.7299 14.5705C30.8269 14.6675 30.9238 14.7644 31.0208 14.8614C31.1176 14.9582 31.1177 15.0552 31.2146 15.1521C31.2146 15.2491 31.3115 15.443 31.3115 15.5399C31.3115 15.7338 31.3115 15.8308 31.3115 16.0247C31.3115 16.2185 31.2146 16.3154 31.2146 16.4124C31.1177 16.5093 31.0208 16.7032 30.9238 16.8002C30.8269 16.8971 30.7299 16.9941 30.633 17.091C30.536 17.091 30.536 17.188 30.4391 17.188C30.3421 17.188 30.2452 17.2848 30.0513 17.2848C29.9544 17.2848 29.7605 17.2848 29.6636 17.2848C29.5666 17.2848 29.3727 17.188 29.2758 17.188C29.0819 17.091 28.9849 16.9941 28.888 16.8971C28.7911 16.8002 28.6942 16.7032 28.5972 16.6063C28.5003 16.5093 28.5003 16.4124 28.4033 16.3154C28.4033 16.2185 28.4033 16.1215 28.3064 16.1215C28.4033 16.0247 28.4033 15.9277 28.4033 15.8308ZM28.4033 16.2185V16.3154C28.4033 16.3154 28.4033 16.3154 28.4033 16.2185Z" fill="black"/>
</g>
<defs>
<clipPath id="clip0_2_26">
<rect width="49.1635" height="61.946" fill="white" transform="translate(0.4646 0.320557)"/>
</clipPath>
</defs>
</svg>
