<svg width="41" height="51" viewBox="0 0 41 51" fill="none" xmlns="http://www.w3.org/2000/svg">
<g clip-path="url(#clip0_9_329)">
<path d="M31.3575 21.9557C31.2788 22.0345 31.2788 22.0345 31.2 22.1132C31.1213 22.192 30.9638 22.3494 30.8851 22.4281C30.7276 22.5068 30.5701 22.6643 30.4127 22.7431C30.2552 22.8218 30.1764 22.8218 30.0189 22.9006C29.1528 23.2155 28.208 23.373 27.3419 23.4517C26.9482 23.4517 26.6333 23.5304 26.2396 23.5304C26.0821 23.5304 25.8459 23.5304 25.6884 23.5304C25.6097 23.5304 25.5309 23.5304 25.4522 23.5304C25.3734 23.5304 25.3734 23.5304 25.2948 23.5304C25.0585 23.5304 24.901 23.6879 24.901 23.9242C24.901 24.1603 25.0585 24.3178 25.2948 24.3178H25.3734C26.0034 24.4753 26.5545 24.4753 27.1845 24.3965C27.8931 24.3178 28.523 24.2391 29.2316 24.0816C29.8615 23.9242 30.4127 23.7667 30.9638 23.5304C31.1213 23.4517 31.3575 23.2942 31.515 23.2155C31.6725 23.0581 31.83 22.9793 31.9874 22.8218C32.1449 22.6643 32.2236 22.5068 32.3024 22.3494C32.3811 22.192 32.4598 22.1132 32.5386 21.9557C32.6173 21.7982 32.6961 21.7195 32.6961 21.562C32.7748 21.3258 32.8535 21.0109 32.9322 20.7746C33.011 20.5384 32.8535 20.3023 32.6961 20.2235H32.6173C32.4598 20.2235 32.3024 20.3022 32.2236 20.5384C32.1449 20.8534 31.9874 21.2471 31.83 21.562C31.5937 21.562 31.515 21.7982 31.3575 21.9557ZM0.964856 8.96405C1.20107 8.96405 1.35854 8.80656 1.35854 8.57032C1.35854 7.94043 1.35854 7.2318 1.35854 6.60189C1.35854 6.28695 1.43728 5.972 1.43728 5.73579C1.43728 5.42084 1.51602 5.18463 1.51602 4.86967C1.59476 4.31851 1.75223 3.84609 1.9097 3.37366V3.29493C1.9097 3.29493 1.9097 3.29493 1.9097 3.37366C2.06718 3.21619 2.06718 3.13745 2.14592 3.05871C2.22465 2.97997 2.22465 2.97997 2.30339 2.90124C2.38213 2.8225 2.46087 2.8225 2.53961 2.74376C3.09077 2.50755 3.72067 2.35008 4.35056 2.1926C4.90173 2.03512 5.45289 1.87765 6.00406 1.72018C6.55522 1.5627 7.10638 1.40523 7.65754 1.24775C7.89375 1.16902 8.2087 1.09028 8.44491 1.01154C8.6811 0.932801 8.83858 0.932801 9.07482 0.854064C9.31105 0.775327 9.38979 0.617852 9.38979 0.38164C9.2323 0.460377 9.07482 0.302902 8.91733 0.302902H8.83858C8.75984 0.302902 8.60235 0.38164 8.52365 0.38164C8.36617 0.460377 8.12997 0.460377 7.97249 0.539115C7.65754 0.617852 7.26385 0.69659 6.9489 0.775327C6.16153 1.01154 5.37415 1.16902 4.58678 1.40523C4.19309 1.48396 3.87814 1.5627 3.48446 1.64144C3.32698 1.72018 3.1695 1.72018 3.01203 1.79891C2.77582 1.87765 2.53961 1.87765 2.30339 2.03512C2.22465 2.03512 2.14592 2.11387 2.06718 2.11387C1.9097 2.11387 1.83097 2.1926 1.75223 2.27134C1.67349 2.35008 1.59476 2.42881 1.51602 2.42881C1.43728 2.50755 1.35854 2.66503 1.35854 2.74376C1.27981 2.8225 1.20107 2.97997 1.12233 3.13745C1.12233 3.21619 1.04359 3.37366 1.04359 3.53113C0.964857 3.84609 0.886119 4.23978 0.807381 4.63346C0.571169 5.89326 0.571169 7.2318 0.571169 8.57032C0.571169 8.80656 0.728644 8.96405 0.964856 8.96405ZM21.6728 50.6161C21.5941 50.6161 21.5941 50.6161 21.6728 50.6161V50.6161ZM25.5309 48.4115C24.9798 48.7264 24.3499 48.9627 23.72 49.1988C23.4051 49.2776 23.0901 49.435 22.6964 49.5138C22.3027 49.5925 21.909 49.6713 21.5154 49.75C21.1216 49.75 20.7279 49.8288 20.2555 49.8288C19.8618 49.8288 19.4682 49.75 19.0745 49.6713C18.6808 49.5925 18.2871 49.5138 17.8934 49.3563C17.5785 49.2776 17.2635 49.1202 16.9485 48.9627C16.6336 48.8052 16.3186 48.6477 16.0037 48.4902C15.8463 48.4115 15.7675 48.3327 15.61 48.254C15.5313 48.1753 15.4525 48.1753 15.3738 48.0966C15.295 48.0966 15.2163 48.0178 15.1376 48.0178H15.0589C14.9802 48.0178 14.9014 48.0966 14.8227 48.1753C14.7439 48.3327 14.7439 48.5689 14.9014 48.7264C15.0589 48.8052 15.1376 48.8839 15.2163 48.9627C15.3738 49.0414 15.5313 49.1989 15.6888 49.2776C16.0037 49.5138 16.3974 49.6713 16.7124 49.8288C17.4997 50.2224 18.2871 50.3799 19.1532 50.5374C19.5469 50.6161 19.8618 50.6161 20.2555 50.6161C20.4918 50.6161 20.6493 50.6161 20.8854 50.6161C21.1216 50.6161 21.2791 50.6161 21.5154 50.5374C21.5154 50.5374 21.5154 50.5374 21.5941 50.5374C22.3027 50.4586 22.9326 50.3012 23.5625 50.065C24.3499 49.8288 25.1373 49.435 25.8459 49.0414C26.0821 48.9627 26.0821 48.6477 26.0034 48.4902C26.0034 48.4115 25.7671 48.3327 25.5309 48.4115ZM17.4997 27.2311C17.5785 27.2311 17.6572 27.2311 17.736 27.1524C18.2083 27.0736 18.6808 27.0736 19.1532 27.0736C19.7044 27.0736 20.1768 27.0736 20.7279 27.1524C21.2004 27.2311 21.5941 27.3098 22.0665 27.3886C22.5389 27.4673 22.9326 27.6248 23.4051 27.7823C24.0349 28.0185 24.5861 28.3334 25.1373 28.6484C25.7671 28.9633 26.3183 29.357 26.9482 29.5933C27.2631 29.7507 27.6568 29.9082 27.9718 29.9869C28.3655 30.1444 28.7592 30.1444 29.1528 30.2231C29.8615 30.3019 30.5701 30.2231 31.2788 30.1444C31.9874 30.0657 32.7748 30.0657 33.4834 29.9869C34.1921 29.9082 34.9007 29.9082 35.6093 29.9082C36.2392 29.9082 36.9479 29.9082 37.5777 29.9082C38.2077 29.9082 38.9163 29.9082 39.5462 29.9082C39.9399 29.9082 40.1761 29.5933 40.1761 29.2783C40.1761 28.8846 39.8612 28.6484 39.5462 28.6484C39.1525 28.6484 38.6801 28.6484 38.2864 28.6484C37.8927 28.6484 37.499 28.6484 37.1054 28.6484C36.2392 28.6484 35.2944 28.6484 34.4283 28.7271C33.9558 28.7271 33.4834 28.8058 33.0897 28.8058C32.6173 28.8058 32.1449 28.8846 31.6725 28.9633C31.2788 29.0421 30.8064 29.0421 30.4127 29.1208C29.9403 29.1208 29.5466 29.1208 29.0742 29.1208C28.8379 29.0421 28.6017 29.0421 28.3655 28.9633C28.1292 28.8846 27.8931 28.8058 27.7356 28.7271C27.4206 28.5697 27.027 28.4122 26.712 28.176C26.397 28.0185 26.1609 27.861 25.8459 27.7036C25.216 27.3886 24.5073 26.9949 23.7987 26.7587C22.3815 26.2075 20.8854 25.9713 19.4682 25.9713C19.3894 25.9713 19.3107 25.9713 19.3107 25.9713C18.6021 25.9713 17.8934 26.05 17.1847 26.2075C16.9485 26.2863 16.7124 26.365 16.4761 26.4437C16.0824 26.365 15.6888 26.365 15.3738 26.365C15.2163 26.365 15.0589 26.365 14.8227 26.365C14.2715 26.365 13.7203 26.4437 13.2479 26.4437H13.3266C13.2479 26.4437 13.1692 26.4437 13.0905 26.4437H13.1692C13.0905 26.4437 13.0905 26.4437 13.0117 26.4437C11.7519 26.6012 10.5708 26.9949 9.38979 27.3098C8.2087 27.6248 6.9489 27.9397 5.76784 28.176C5.05921 28.2547 4.35056 28.3334 3.64193 28.3334C2.93329 28.3334 2.22465 28.3334 1.51602 28.4122C1.12233 28.4122 0.886118 28.7271 0.886118 29.0421C0.886118 29.357 1.20107 29.7507 1.51602 29.6719C2.46087 29.5933 3.40571 29.5933 4.35056 29.5933C4.90173 29.5933 5.45289 29.5145 6.00406 29.4358C6.55522 29.357 7.10638 29.2783 7.65754 29.1208C8.52365 28.8846 9.46854 28.6484 10.3346 28.4122C10.807 28.2547 11.2795 28.0972 11.7519 28.0185C12.2243 27.861 12.7755 27.7823 13.2479 27.7036C13.6416 27.6248 13.9566 27.6248 14.3502 27.6248C14.114 27.7823 13.8778 28.0185 13.6416 28.176C13.4053 28.4122 13.1692 28.7271 12.933 28.9633C12.7755 29.1995 12.618 29.5145 12.4605 29.7507C12.3818 29.9869 12.303 30.2231 12.303 30.4594C12.303 30.6168 12.2243 30.853 12.303 31.0105C12.303 31.168 12.303 31.3255 12.3818 31.483C12.3818 31.6404 12.4605 31.7191 12.5392 31.8766C12.618 32.0341 12.6967 32.1916 12.7755 32.3491C12.8542 32.4278 12.933 32.5852 13.0117 32.664C13.1692 32.8215 13.4053 32.9789 13.5628 33.0577C13.7203 33.1364 13.7991 33.2152 13.9566 33.2152C14.114 33.2939 14.1927 33.2939 14.3502 33.3727C14.5864 33.4513 14.9014 33.5301 15.1376 33.5301C15.6888 33.6088 16.2399 33.5301 16.7911 33.4513C17.8147 33.2939 18.917 32.9789 19.9406 32.8215C20.3343 32.7427 20.6493 32.7427 21.0429 32.7427C21.3579 32.7427 21.7515 32.7427 22.0665 32.8215C22.3027 32.9002 22.5389 32.9002 22.7751 32.9789C23.0113 33.0577 23.2476 33.1364 23.4837 33.2152C23.72 33.2939 23.9562 33.4513 24.1924 33.5301C24.4286 33.6876 24.6648 33.8451 24.9798 34.0025C26.0821 34.8686 27.1057 35.8922 28.0506 36.8371C28.6017 37.3882 29.1528 37.9394 29.6253 38.5693C30.0977 39.0417 30.5701 39.5929 31.1213 40.0653C31.3575 40.2228 31.5937 40.3803 31.83 40.6165C31.7512 40.6165 31.6725 40.6952 31.5937 40.774C31.515 40.8527 31.515 40.9314 31.4363 41.0101C31.2 41.2464 30.9638 41.4039 30.8064 41.6401C30.5701 41.8762 30.4127 42.1125 30.1764 42.27C29.704 42.7424 29.2316 43.1361 28.7592 43.5298C27.6568 44.3959 26.4758 45.1045 25.1373 45.7344C24.8223 45.8919 24.5073 45.9706 24.1924 46.1281C23.9562 46.2069 23.72 46.2856 23.4837 46.2856C23.4837 46.0494 23.5625 45.8919 23.5625 45.6556C23.5625 45.4982 23.5625 45.3407 23.5625 45.1833C23.5625 45.0258 23.4837 44.8683 23.4051 44.7108C23.3263 44.5534 23.2476 44.4746 23.0901 44.3959C22.9326 44.3172 22.8539 44.2384 22.6964 44.1597C22.5389 44.0809 22.3815 44.0809 22.1452 44.0809C21.909 44.0809 21.6728 44.1597 21.4366 44.2384C20.8854 44.3959 20.413 44.632 19.8618 44.8683C19.9406 44.8683 19.9406 44.7895 20.0193 44.7895C19.9406 44.8683 19.7831 44.8683 19.7044 44.947C19.8618 44.3959 20.0193 43.8447 19.8618 43.3723C19.7831 43.2148 19.7044 42.9786 19.5469 42.8998C19.3894 42.7424 19.2319 42.6637 18.9957 42.5849C18.7596 42.5062 18.5233 42.5062 18.3658 42.5849C18.2083 42.5849 18.1296 42.6637 18.0509 42.6637C17.736 42.7424 17.421 42.8998 17.1847 43.0573C17.2635 42.8998 17.2635 42.8211 17.3422 42.6637C17.421 42.3487 17.4997 41.955 17.4997 41.6401C17.4997 41.2464 17.421 40.8526 17.1847 40.5378C17.106 40.459 17.0273 40.3803 16.9485 40.3015C16.7911 40.2228 16.7124 40.144 16.5549 40.0653C16.3186 39.9865 16.0037 39.9865 15.6888 39.9865C15.5313 39.9865 15.3738 40.0653 15.2163 40.144C14.9802 40.2228 14.8227 40.3015 14.5864 40.3803C14.4289 40.459 14.2715 40.5378 14.114 40.6165C14.114 40.459 14.114 40.3803 14.114 40.2228C14.114 39.9865 14.114 39.8291 14.0353 39.5929C14.0353 39.4354 13.9566 39.2779 13.9566 39.1204C13.7991 38.648 13.5628 38.2543 13.1692 37.9394C13.0905 37.8607 12.933 37.7819 12.7755 37.7032C12.618 37.6245 12.4605 37.6245 12.2243 37.6245C12.2243 37.6245 12.2243 37.6245 12.1456 37.6245C11.9881 37.6245 11.9094 37.6245 11.7519 37.7032C11.6731 37.7032 11.5944 37.7819 11.4369 37.7819C11.3582 37.7819 11.2007 37.8607 11.122 37.9394C11.0433 38.0181 10.8858 38.0968 10.807 38.1756C10.7283 38.2543 10.5708 38.3331 10.4921 38.4118C10.3346 38.4906 10.2559 38.6481 10.0984 38.8055C9.94092 38.963 9.86218 39.1204 9.78343 39.2779C9.70469 39.3567 9.70469 39.4354 9.62595 39.5929C9.2323 39.3567 8.75984 39.1204 8.36617 38.8843C7.26385 38.4118 6.00406 38.0968 4.74425 37.9394C4.4293 37.9394 4.11436 37.8607 3.72067 37.8607C3.48446 37.8607 3.24824 37.8607 3.01203 37.8607C2.38213 37.8607 1.67349 38.0181 1.04359 38.1756C0.728644 38.2543 0.492431 38.6481 0.571169 38.9629C0.649906 39.1204 0.728643 39.2779 0.886118 39.3567C1.04359 39.4354 1.20107 39.4354 1.35854 39.4354C1.83097 39.3567 2.30339 39.1992 2.77582 39.1992C3.64193 39.1204 4.4293 39.1992 5.29541 39.2779C5.76784 39.3567 6.24026 39.4354 6.71269 39.5929C7.18512 39.7504 7.65754 39.9078 8.12997 40.0653C9.15356 40.5378 10.0197 41.0889 10.9645 41.7188C11.7519 42.27 12.5392 42.8211 13.3266 43.451L13.2479 43.3723C13.7991 43.8447 14.4289 44.3172 15.0589 44.7108C15.6888 45.1833 16.2399 45.5769 16.8699 45.9706C17.4997 46.3643 18.2083 46.6792 18.917 46.9942C19.5469 47.2304 20.1768 47.4666 20.8854 47.5453C21.2004 47.6241 21.5154 47.6241 21.909 47.6241C22.224 47.6241 22.6176 47.6241 22.9326 47.6241C23.72 47.5453 24.4286 47.3092 25.0585 47.073C26.4758 46.5218 27.7356 45.6556 28.9954 44.7895C29.6253 44.3172 30.2552 43.7659 30.8064 43.1361C31.1213 42.8211 31.3575 42.5062 31.5937 42.1125C31.6725 41.955 31.83 41.7975 31.83 41.6401C31.9086 41.5613 31.9086 41.4826 31.9874 41.4039C32.0661 41.3251 32.0661 41.2464 32.1449 41.2464C32.2236 41.1676 32.2236 41.0889 32.1449 41.0101C32.3811 41.1676 32.6173 41.3251 32.9322 41.4039C33.4047 41.6401 33.9558 41.7188 34.4283 41.7188C34.8219 41.7188 35.1369 41.7188 35.5306 41.6401C35.9243 41.6401 36.2392 41.5613 36.6329 41.4826C36.9479 41.4039 37.3416 41.4039 37.6565 41.3251C37.9715 41.2464 38.3652 41.1676 38.6801 41.0889C38.9951 41.0101 39.31 40.9314 39.5462 40.774C39.6249 40.774 39.6249 40.774 39.7037 40.774C39.9399 40.774 40.0974 40.6165 40.0974 40.3803C40.0974 40.144 39.9399 39.9865 39.7037 39.9865C39.6249 39.9865 39.5462 39.9865 39.3887 40.0653C38.9951 40.0653 38.6013 40.0653 38.1289 40.0653C37.6565 40.144 37.1841 40.144 36.7904 40.2228C35.9243 40.3015 34.9794 40.459 34.0346 40.3803C33.8771 40.3803 33.7197 40.3015 33.5622 40.3015C33.4047 40.2228 33.326 40.2228 33.1685 40.144C32.9322 40.0653 32.6961 39.9078 32.4598 39.7504C32.3024 39.6716 32.1449 39.5142 31.9874 39.4354C31.4363 39.0417 30.9638 38.5693 30.4914 38.0968C29.9403 37.5457 29.3891 36.9158 28.7592 36.3646C27.6568 35.2623 26.6333 34.0813 25.3734 33.1364C25.0585 32.9002 24.7436 32.664 24.4286 32.5065C24.0349 32.2703 23.6412 32.1128 23.2476 31.9554C22.8539 31.7979 22.539 31.7979 22.1452 31.7191C21.6728 31.6404 21.2791 31.6404 20.8067 31.6404C20.0193 31.6404 19.1532 31.7979 18.3658 31.8766C17.6572 32.0341 16.9485 32.1916 16.2399 32.2703C15.7675 32.3491 15.3738 32.3491 14.9014 32.2703C14.7439 32.2703 14.6652 32.1916 14.5077 32.1916C14.3502 32.1916 14.1927 32.1128 14.114 32.0341C13.9566 31.9554 13.8778 31.8766 13.7203 31.7979C13.6416 31.7191 13.5628 31.6404 13.4841 31.5616C13.4053 31.483 13.3266 31.3255 13.3266 31.2467C13.2479 31.168 13.2479 31.0105 13.2479 30.9318C13.2479 30.7743 13.2479 30.6955 13.2479 30.5381C13.2479 30.3806 13.3266 30.3019 13.3266 30.1444C13.4053 29.9082 13.5628 29.6719 13.7203 29.4358C13.8778 29.2783 13.9566 29.1208 14.114 29.0421C14.2715 28.8846 14.3502 28.8058 14.5077 28.6484C14.7439 28.4122 15.0589 28.2547 15.3738 28.0185C15.6888 27.861 15.925 27.7036 16.2399 27.5461C16.4761 27.4673 16.7124 27.3886 17.0273 27.3098C17.106 27.3098 17.2635 27.2311 17.3422 27.2311C17.421 27.2311 17.421 27.2311 17.4997 27.2311ZM18.2871 43.6872H18.2083C18.2083 43.6085 18.2083 43.6085 18.2871 43.6872ZM14.8227 41.2464C15.0589 41.1676 15.295 41.0889 15.5313 41.0889H15.61C15.61 41.0889 15.61 41.0889 15.61 41.1676C15.61 41.2464 15.6888 41.3251 15.6888 41.4039C15.6888 41.5613 15.6888 41.6401 15.6888 41.7975C15.6888 41.955 15.61 42.1125 15.5313 42.3487C15.3738 42.6637 15.295 42.8998 15.0589 43.1361C15.0589 43.2148 14.9802 43.2148 14.9802 43.2936C14.8227 43.2148 14.6652 43.0573 14.5077 42.9786C14.114 42.7423 13.7991 42.4275 13.4053 42.1912C13.9566 41.7975 14.3502 41.4826 14.8227 41.2464ZM10.2559 39.8291C10.4921 39.6716 10.7283 39.4354 10.9645 39.2779C11.2008 39.1204 11.4369 38.963 11.6731 38.8843C11.7519 38.8843 11.8306 38.8055 11.9094 38.8055H11.9881H12.0669C12.0669 38.8055 12.1456 38.8055 12.1456 38.8843C12.2243 38.963 12.2243 38.963 12.303 39.0417C12.3818 39.1204 12.3818 39.1992 12.4605 39.2779C12.5392 39.4354 12.5392 39.5929 12.618 39.7504C12.618 39.9865 12.618 40.144 12.618 40.3803C12.618 40.6165 12.5392 40.774 12.4605 41.0101C12.4605 41.0889 12.3818 41.1676 12.303 41.2464C12.1456 41.0889 11.9094 40.9314 11.7519 40.774C11.2008 40.3803 10.7283 40.0653 10.2559 39.8291ZM16.6336 44.3959C16.5549 44.3959 16.5549 44.3172 16.4761 44.2384C16.6336 44.1597 16.7124 44.0809 16.8699 44.0809C17.3422 43.9234 17.736 43.7659 18.2083 43.6085H18.2871C18.2871 43.6872 18.2871 43.6872 18.2871 43.7659C18.2083 44.0022 18.1296 44.2384 18.0509 44.4746C17.9721 44.632 17.8934 44.8683 17.8147 45.0258C17.421 44.8683 17.0273 44.632 16.6336 44.3959ZM21.0429 46.2069C20.9642 46.2069 20.8854 46.2069 20.8854 46.2069C20.8854 46.2069 20.8854 46.2069 21.0429 46.2069C20.6493 46.1281 20.3343 46.0494 19.9406 45.9706C19.8618 45.9706 19.7831 45.8919 19.7044 45.8919C19.9406 45.8131 20.098 45.7344 20.3343 45.6556C20.8067 45.4982 21.2791 45.3407 21.7515 45.262C21.8303 45.262 21.8303 45.262 21.909 45.262C21.909 45.4982 21.909 45.7344 21.909 45.9706C21.909 46.0494 21.909 46.1281 21.909 46.2069C21.909 46.2856 21.909 46.2856 21.909 46.3643C21.5154 46.2856 21.2791 46.2856 21.0429 46.2069ZM8.12997 4.86967C7.50006 4.86967 6.79143 4.86967 6.24026 5.26336C5.6891 5.65705 5.45289 6.36569 5.21668 6.91685C5.13794 7.31054 5.05921 7.70423 4.98047 8.01917C4.74425 9.51517 4.58678 10.9325 4.50804 12.4285C4.4293 13.5308 4.4293 14.6331 4.35056 15.7354C4.35056 16.2866 4.27183 16.8377 4.27183 17.389C4.27183 17.8613 4.27183 18.4125 4.27183 18.8849C4.27183 19.1212 4.27183 19.3574 4.35056 19.5936C4.35056 19.6723 4.4293 19.751 4.4293 19.8298C4.4293 19.9085 4.50804 19.9085 4.50804 19.9873C4.58678 20.066 4.66552 20.066 4.74425 20.1448C4.98047 20.3023 5.21668 20.3022 5.45289 20.3022C5.76784 20.3022 6.00406 20.2235 6.319 20.2235C6.63395 20.1448 6.87016 20.1448 7.18512 20.066C7.73628 19.9873 8.2087 19.8298 8.75984 19.6723C9.2323 19.5148 9.70469 19.4361 10.2559 19.3574H10.1772C10.2559 19.3574 10.3346 19.3574 10.4134 19.3574C10.4134 19.3574 10.4134 19.3574 10.3346 19.3574H10.4134H10.4921C10.3346 19.5936 10.1772 19.9085 10.0984 20.1448C9.94092 20.4597 9.86218 20.7746 9.70469 21.0109C9.38979 21.6407 9.15356 22.2706 8.91733 22.9006C8.83858 23.2155 8.6811 23.4517 8.60235 23.7667C8.52365 24.0816 8.36617 24.3178 8.28744 24.6328C8.2087 24.869 8.28744 25.1839 8.44491 25.4201C8.52365 25.5776 8.60235 25.6564 8.75984 25.7351C8.83858 25.7351 8.83858 25.8139 8.91733 25.8139C8.99607 25.8139 9.15356 25.8139 9.2323 25.8139C9.31105 25.8139 9.31105 25.8139 9.38979 25.8139C9.5472 25.8139 9.62595 25.7351 9.78343 25.7351C9.94092 25.6564 10.0984 25.5776 10.2559 25.5776C10.4134 25.4989 10.6495 25.4201 10.807 25.3414C11.4369 25.0264 11.9881 24.7115 12.5392 24.3178C13.1692 23.9242 13.7203 23.4517 14.3502 23.0581C14.9014 22.6643 15.4525 22.192 16.0037 21.7195C16.2399 21.562 16.4761 21.3258 16.7124 21.0896C16.7911 21.0109 16.9485 20.8534 17.0273 20.7746C17.106 20.6959 17.2635 20.6171 17.3422 20.6171C17.5785 20.5384 17.736 20.4597 17.9721 20.4597C18.2083 20.3809 18.5233 20.3809 18.7596 20.3022C19.4682 20.2235 20.1768 20.1448 20.8854 20.1448C21.6728 20.1448 22.4602 20.1448 23.1688 20.2235C23.9562 20.2235 24.6648 20.3022 25.4522 20.3022C26.1609 20.3022 26.9482 20.3023 27.6568 20.2235C27.9718 20.2235 28.3655 20.1448 28.6804 20.1448C28.8379 20.1448 28.9954 20.1448 29.1528 20.1448C29.2316 20.1448 29.3891 20.1448 29.4678 20.066C29.5466 20.066 29.6253 20.066 29.704 19.9873C29.7828 19.9873 29.8615 19.9085 29.9403 19.8298C30.4127 19.5148 30.5701 18.8062 30.6489 18.2551C30.7276 17.8613 30.7276 17.4677 30.8064 17.074C30.9638 15.578 31.2 14.0032 31.3575 12.5072C31.515 11.0112 31.6725 9.51517 31.83 8.01917C31.83 7.70423 31.9086 7.38927 31.9086 7.07432C31.9874 6.68064 32.0661 6.20821 31.83 5.81452C31.83 5.73579 31.7512 5.73579 31.7512 5.65705C31.6725 5.57831 31.5937 5.49957 31.515 5.42084C31.3575 5.3421 31.2 5.26336 31.0425 5.26336C30.5701 5.18463 30.0977 5.18463 29.6253 5.18463C29.1528 5.18463 28.6804 5.18463 28.2867 5.10588C26.6333 5.02715 24.9798 5.02715 23.4051 4.94841C21.909 4.86967 20.3343 4.86967 18.8382 4.79094C15.6888 4.7122 12.4605 4.63346 9.31105 4.63346C9.07482 4.63346 8.83858 4.63346 8.60235 4.63346C8.52365 4.86967 8.28744 4.86967 8.12997 4.86967ZM9.78343 6.20821C10.5708 6.20821 11.4369 6.20821 12.303 6.20821C13.8778 6.20821 15.3738 6.20821 16.9485 6.20821C20.1768 6.28695 23.4051 6.28695 26.6333 6.44442C27.1845 6.44442 27.7356 6.52316 28.208 6.52316C28.9954 6.60189 29.8615 6.60189 30.6489 6.68064C30.6489 6.68064 30.6489 6.68064 30.7276 6.68064C30.7276 6.91685 30.7276 7.15306 30.7276 7.38927C30.7276 7.78296 30.7276 8.09791 30.6489 8.49158C30.5701 9.27894 30.5701 10.145 30.5701 10.9325C30.4914 12.5072 30.3339 14.0819 30.1764 15.6567C30.0189 16.6016 29.9403 17.6251 29.5466 18.57C29.5466 18.57 29.5466 18.57 29.5466 18.6487C29.5466 18.7274 29.4678 18.8062 29.3891 18.8849C29.2316 18.9637 28.9954 18.9637 28.8379 19.0424C28.1293 19.1212 27.4994 19.1999 26.9482 19.1999C27.027 19.1212 27.1845 19.0424 27.2631 18.9637C27.5781 18.7274 27.8931 18.4125 28.1292 18.0976C28.2867 17.9401 28.2867 17.7039 28.1292 17.5464C28.0506 17.4677 27.9718 17.389 27.8143 17.389C27.7356 17.389 27.5781 17.389 27.5781 17.4677C27.2631 17.7826 26.9482 18.0976 26.6333 18.3338C26.397 18.57 26.1609 18.8062 25.9246 18.9637C25.9246 18.9637 25.8459 19.0424 25.8459 19.1212C25.3734 19.1212 24.9798 19.1212 24.5073 19.1212C24.2712 19.1212 24.0349 19.1212 23.7987 19.1212C24.1137 18.8849 24.4286 18.57 24.7436 18.3338C24.901 18.1763 24.901 17.9401 24.7436 17.7826C24.6648 17.7039 24.5861 17.6251 24.4286 17.6251C24.3499 17.6251 24.1924 17.6251 24.1137 17.7039C23.7987 17.9401 23.4837 18.2551 23.1688 18.4912C23.0113 18.57 22.9326 18.7274 22.7751 18.8062C22.6964 18.8849 22.6964 18.8849 22.6176 18.9637L22.539 19.0424C21.9877 19.0424 21.5154 19.0424 20.9642 19.0424C21.1216 18.8849 21.2791 18.7274 21.5154 18.57C21.6728 18.4125 21.6728 18.1763 21.5154 18.0188C21.4366 17.9401 21.3579 17.8613 21.2004 17.8613C21.1216 17.8613 20.9642 17.8613 20.8854 17.9401C20.6493 18.0976 20.4918 18.3338 20.2555 18.4912C20.1768 18.57 20.098 18.6487 20.0193 18.7274L19.9406 18.8062C19.9406 18.8062 19.9406 18.8849 19.8618 18.9637C19.8618 18.9637 19.8618 18.9637 19.7831 18.9637C19.3894 18.9637 18.9957 19.0424 18.6808 19.0424C18.7596 18.9637 18.8382 18.8849 18.8382 18.8062C18.917 18.6487 19.0744 18.57 19.1532 18.4125C19.2319 18.3338 19.3107 18.2551 19.3107 18.0976C19.3107 18.0188 19.3107 17.8613 19.2319 17.7826C19.1532 17.7039 19.0745 17.6251 18.917 17.6251C18.8382 17.6251 18.6808 17.6251 18.6021 17.7039C18.3658 18.0188 18.1296 18.2551 17.8934 18.57C17.8147 18.7274 17.736 18.8062 17.6572 18.9637C17.2635 19.0424 16.7911 19.0424 16.3974 19.1999C16.1612 19.2787 15.925 19.5148 15.7675 19.6723C15.3738 19.9873 15.0589 20.3809 14.6652 20.6959C14.6652 20.6171 14.6652 20.5384 14.5864 20.4597C14.5077 20.3809 14.4289 20.3022 14.2715 20.3022C14.1927 20.3022 14.114 20.3023 14.0353 20.3809C13.4841 20.9321 13.0117 21.4833 12.5392 22.1132C12.303 22.3494 12.0669 22.6643 11.8306 22.9793C11.7519 23.0581 11.7519 23.0581 11.7519 23.1367C11.6731 23.1367 11.6731 23.2155 11.5944 23.2155C11.2008 23.4517 10.807 23.6879 10.3346 23.8454C10.2559 23.9242 10.0984 23.9242 10.0197 24.0029C9.94092 24.0029 9.86218 24.0816 9.78343 24.0816C9.78343 24.0029 9.78343 24.0029 9.86218 23.9242C9.94092 23.9242 10.0197 23.8454 10.0984 23.7667C10.0984 23.6879 10.1772 23.6879 10.1772 23.6879L10.0984 23.7667C10.5708 23.2942 10.9645 22.8218 11.4369 22.3494C11.5944 22.192 11.5944 21.9557 11.4369 21.7982C11.3582 21.7195 11.2795 21.6407 11.122 21.6407C11.0433 21.6407 10.8858 21.6407 10.8858 21.7195C10.7283 21.877 10.5708 22.1132 10.4134 22.2706C10.4921 22.1132 10.4921 21.9557 10.5708 21.7982C10.7283 21.3258 10.8858 20.8534 11.0433 20.4597C11.122 20.4597 11.2795 20.4597 11.3582 20.3809C11.4369 20.2235 11.5944 20.1448 11.7519 20.066C11.9094 19.9085 12.0669 19.751 12.2243 19.5936C12.3818 19.4361 12.3818 19.1999 12.2243 19.0424C12.1456 18.9637 12.0669 18.8849 11.9094 18.8849C11.8306 18.8849 11.6731 18.8849 11.6731 18.9637C11.5944 19.0424 11.5156 19.1212 11.4369 19.1999C11.4369 19.1999 11.4369 19.1999 11.4369 19.1212C11.4369 19.0424 11.5156 18.9637 11.5156 18.8849C11.5156 18.8062 11.5156 18.7274 11.5156 18.7274C11.5944 18.6487 11.6731 18.57 11.6731 18.4912C11.7519 18.3338 11.7519 18.1763 11.7519 18.0188C11.6731 17.8613 11.5944 17.7039 11.4369 17.6251C11.2795 17.5464 11.122 17.5464 10.8858 17.5464C10.807 17.5464 10.7283 17.5464 10.6495 17.5464C10.7283 17.4677 10.807 17.389 10.8858 17.3102C11.0433 17.1527 11.0433 16.9165 10.8858 16.759C10.807 16.6803 10.7283 16.6016 10.5708 16.6016C10.4921 16.6016 10.3346 16.6015 10.2559 16.6803C10.0984 16.8377 9.86218 16.9952 9.70469 17.2315C9.5472 17.389 9.46854 17.5464 9.31105 17.6251V17.7039C9.07482 17.7826 8.83858 17.7826 8.60235 17.8613C8.28744 17.9401 8.05123 18.0188 7.73628 18.0976C7.89375 17.9401 8.05123 17.7039 8.2087 17.5464C8.28744 17.4677 8.36617 17.389 8.36617 17.3102C8.36617 17.2315 8.36617 17.074 8.28744 16.9952C8.2087 16.9165 8.12997 16.8377 8.05123 16.8377C7.97249 16.8377 7.81501 16.8377 7.81501 16.9165C7.5788 17.1527 7.42132 17.389 7.18512 17.7039L7.10638 17.7826C7.02764 17.8613 7.02764 17.9401 6.9489 18.0188C6.9489 18.0976 7.02764 18.1763 7.02764 18.1763C6.87016 18.1763 6.63395 18.2551 6.47647 18.2551C6.319 18.2551 6.24026 18.2551 6.08279 18.2551C6.16153 18.1763 6.24026 18.0976 6.319 18.0188C6.55522 17.7039 6.87016 17.389 7.10638 17.074C7.18512 16.9952 7.18512 16.8377 7.18512 16.759C7.18512 16.6803 7.10638 16.5228 7.02764 16.5228C6.9489 16.4441 6.87016 16.4441 6.79143 16.4441H6.71269C6.63395 16.4441 6.55522 16.5229 6.47647 16.6016C6.24026 16.8377 6.08279 17.074 5.84658 17.389C5.84658 16.9952 5.84658 16.5228 5.84658 16.1291V16.0504C5.92531 15.8929 6.08279 15.7354 6.16153 15.578C6.319 15.3418 6.47648 15.0268 6.71269 14.7906C6.87016 14.6331 6.79143 14.3182 6.55522 14.2394C6.47648 14.1607 6.39774 14.1607 6.319 14.1607C6.16153 14.1607 6.08279 14.2394 6.00406 14.3182C5.92531 14.3969 5.84658 14.4757 5.84658 14.6331C5.84658 14.3182 5.84658 14.0032 5.84658 13.6883C5.84658 13.2946 5.84658 12.9796 5.84658 12.586C5.84658 12.5072 5.92531 12.5072 5.92531 12.4285C6.08279 12.1922 6.24026 11.956 6.39774 11.7986C6.55522 11.6411 6.47647 11.3261 6.24026 11.2474C6.16153 11.1686 6.08279 11.1686 6.00406 11.1686C5.92531 11.1686 5.84658 11.1686 5.84658 11.2474C5.92531 10.3813 6.00406 9.51517 6.08279 8.64907C6.16153 7.8617 6.319 7.15306 6.63395 6.36569C6.71269 6.20821 6.79143 6.05073 6.87016 5.89326C6.71269 6.60189 6.79143 6.52316 6.87016 6.44442C6.87016 6.44442 6.9489 6.44442 6.9489 6.36569C7.10638 6.28695 7.18512 6.28695 7.34259 6.28695C8.12997 6.20821 8.99607 6.28695 9.78343 6.20821Z" fill="black"/>
<path d="M10.1768 13.6096C10.2555 13.7671 10.3343 13.9246 10.413 14.0033C10.4918 14.0821 10.5704 14.2396 10.6492 14.3182C10.7279 14.397 10.8854 14.4757 10.9641 14.5545C11.0429 14.6332 11.2004 14.712 11.3579 14.712C11.5153 14.7907 11.6728 14.7907 11.8302 14.8695C11.9877 14.8695 12.0665 14.8695 12.224 14.8695C12.4601 14.8695 12.7751 14.712 13.0113 14.6332C13.1688 14.5545 13.2476 14.4757 13.3263 14.397C13.4837 14.2396 13.6412 14.1608 13.7987 14.0033C13.9562 13.8459 14.0349 13.6884 14.1924 13.5309C14.3498 13.3734 14.4286 13.216 14.5073 12.9797C14.5861 12.8223 14.6648 12.6648 14.6648 12.4285C14.6648 12.2711 14.6648 12.1136 14.7435 12.0349C14.7435 11.8774 14.7435 11.7987 14.6648 11.6412C14.6648 11.5624 14.5861 11.4838 14.5861 11.405C14.5073 11.2475 14.5073 11.1688 14.4286 11.09C14.3498 11.0113 14.2712 10.8538 14.1924 10.7751C14.1137 10.6176 13.9562 10.5389 13.7987 10.4602C13.7199 10.3814 13.5625 10.3027 13.4837 10.2239C13.3263 10.1452 13.2476 10.1452 13.0901 10.0665C12.9326 9.98771 12.6964 9.98771 12.5389 9.90897C12.4601 9.90897 12.3815 9.90897 12.224 9.90897C12.1452 9.90897 12.1452 9.90897 12.0665 9.90897C11.909 9.90897 11.8302 9.90897 11.6728 9.98771C11.594 9.98771 11.5153 10.0665 11.4366 10.0665C11.3579 10.0665 11.2791 10.1452 11.2004 10.2239C11.1216 10.2239 10.9641 10.3027 10.9641 10.3027C10.8854 10.3814 10.8066 10.4602 10.8066 10.5389C10.8066 10.6176 10.8066 10.7751 10.8066 10.8538C10.8854 11.0113 11.1216 11.09 11.3579 11.0113H11.4366C11.5153 11.0113 11.5153 11.0113 11.594 11.0113C11.5153 11.0113 11.5153 11.0113 11.5153 11.0113C11.6728 11.0113 11.8302 11.09 11.9877 11.09C12.224 11.09 12.4601 11.1688 12.6964 11.2475C12.8538 11.3263 12.9326 11.405 13.0113 11.4838C13.0901 11.5624 13.1688 11.6412 13.2476 11.7199C13.3263 11.7987 13.3263 11.8774 13.405 11.9562C13.405 12.0349 13.4837 12.1136 13.4837 12.1924C13.4837 12.2711 13.4837 12.3499 13.4837 12.4285C13.4837 12.5073 13.405 12.586 13.405 12.6648C13.3263 12.8223 13.2476 12.9797 13.1688 13.0585C13.0901 13.216 12.9326 13.2947 12.7751 13.3734C12.6963 13.4521 12.5389 13.5309 12.4601 13.6096C12.3815 13.6096 12.3027 13.6884 12.224 13.6884C12.1452 13.6884 12.1452 13.6884 12.0665 13.6884C11.9877 13.6884 11.909 13.6884 11.8302 13.6096C11.7515 13.5309 11.6728 13.5309 11.594 13.4521C11.5153 13.3734 11.5153 13.3734 11.4366 13.2947C11.3579 13.216 11.3579 13.1372 11.2791 13.0585C11.2791 12.9797 11.2004 12.901 11.2004 12.8223C11.2004 12.7435 11.2004 12.6648 11.2004 12.586C11.2004 12.5073 11.2004 12.5073 11.2004 12.4285C11.2004 12.3499 11.2791 12.2711 11.2791 12.1924C11.2791 12.1136 11.3579 12.0349 11.4366 11.9562C11.594 11.7199 11.5153 11.3263 11.2004 11.1688C10.9641 11.0113 10.5705 11.09 10.413 11.405C10.3343 11.5624 10.1768 11.7987 10.098 11.9562C10.098 12.1136 10.0193 12.2711 10.0193 12.4285C10.0193 12.586 10.0193 12.7435 10.0193 12.8223C10.0193 12.9797 10.0193 13.1372 10.098 13.216C10.098 13.3734 10.098 13.5309 10.1768 13.6096ZM11.2791 10.9326C11.3579 10.9326 11.3579 10.9326 11.2791 10.9326V10.9326ZM13.4837 12.1924V12.1136C13.4837 12.1924 13.4837 12.1924 13.4837 12.1924ZM11.4366 13.3734C11.5153 13.3734 11.5153 13.3734 11.4366 13.3734V13.3734Z" fill="black"/>
<path d="M16.0829 13.8453C16.1616 13.9241 16.1616 14.0815 16.2403 14.1602C16.3191 14.239 16.3978 14.3964 16.4766 14.4752C16.5553 14.5539 16.634 14.6327 16.7128 14.7114C16.7915 14.7902 16.949 14.8689 17.0278 14.9476C17.2639 15.0263 17.5001 15.1051 17.7364 15.1051C17.8939 15.1051 17.9726 15.1051 18.13 15.0263C18.2875 15.0263 18.445 14.9476 18.6025 14.8689C18.9175 14.7902 19.1536 14.6327 19.3898 14.3964C19.4686 14.3177 19.6261 14.239 19.7048 14.1602C19.7836 14.0815 19.8622 13.9241 19.941 13.8453C20.0197 13.7666 20.0985 13.6091 20.0985 13.5303C20.1772 13.3728 20.1772 13.2154 20.256 13.0579C20.256 12.9005 20.256 12.8217 20.256 12.6642C20.256 12.5067 20.256 12.428 20.1772 12.2705C20.1772 12.1131 20.0985 12.0344 20.0985 11.8769C20.0197 11.7194 19.941 11.5619 19.8622 11.4831C19.7836 11.4044 19.7048 11.2469 19.6261 11.1682C19.5473 11.0895 19.3898 11.0108 19.3111 10.932C19.2324 10.8533 19.0749 10.7745 18.9961 10.7745C18.8387 10.6958 18.76 10.6958 18.6025 10.6958C18.5237 10.6958 18.445 10.6958 18.445 10.6958C18.3663 10.6958 18.2088 10.6958 18.13 10.7745C18.0513 10.7745 17.9726 10.7745 17.8939 10.7745C17.7364 10.8533 17.5789 11.0108 17.6576 11.1682C17.5789 11.0895 17.4214 11.0108 17.2639 11.0108C17.1064 11.0108 16.949 11.0895 16.8703 11.1682C16.7128 11.3257 16.634 11.4831 16.4766 11.6406C16.3978 11.7981 16.3191 12.0344 16.2403 12.1918C16.2403 12.2705 16.1616 12.3493 16.1616 12.5067C16.1616 12.6642 16.0829 12.8217 16.0829 12.9792C16.0829 13.1366 16.0829 13.2941 16.0829 13.4516C16.0042 13.6091 16.0829 13.7666 16.0829 13.8453ZM17.3427 13.6878C17.4214 13.6878 17.4214 13.6878 17.3427 13.6878V13.6878ZM17.7364 11.8769C17.8151 11.7194 17.8151 11.5619 17.8151 11.4044C17.8939 11.4831 17.9726 11.4831 18.0513 11.4831C18.2088 11.6406 18.445 11.7194 18.6025 11.8769C18.6025 11.8769 18.6812 11.8769 18.6812 11.9556C18.76 12.0344 18.8387 12.1131 18.9175 12.1918C18.9175 12.2705 18.9961 12.2705 18.9961 12.3493C18.9961 12.428 19.0749 12.5067 19.0749 12.5855C19.0749 12.6642 19.0749 12.743 19.0749 12.8217C19.0749 12.9005 18.9961 12.9792 18.9961 13.0579C18.9961 13.1366 18.9175 13.1366 18.9175 13.2154C18.8387 13.2941 18.76 13.3728 18.6812 13.4516C18.6025 13.5303 18.5237 13.6091 18.3663 13.6091C18.2875 13.6091 18.2875 13.6091 18.2088 13.6878C18.13 13.6878 17.9726 13.7666 17.8939 13.7666C17.8151 13.7666 17.7364 13.7666 17.6576 13.7666C17.5789 13.7666 17.5789 13.7666 17.5001 13.6878C17.5001 13.6878 17.4214 13.6878 17.4214 13.6091L17.3427 13.5303C17.3427 13.4516 17.2639 13.4516 17.2639 13.3728C17.2639 13.2941 17.1852 13.2154 17.1852 13.0579C17.1852 12.9005 17.1852 12.8217 17.1852 12.6642C17.1852 12.5855 17.2639 12.428 17.2639 12.3493C17.4214 12.3493 17.5789 12.1131 17.7364 11.8769ZM22.3819 14.239C22.4606 14.3177 22.5394 14.4752 22.6181 14.5539C22.8543 14.7902 23.0905 14.9476 23.3267 15.1051C23.4842 15.1838 23.563 15.1838 23.7204 15.2625C23.8779 15.3413 23.9566 15.3413 24.1141 15.3413C24.2716 15.3413 24.4291 15.3413 24.5865 15.3413C24.6652 15.3413 24.6652 15.3413 24.744 15.3413C24.9015 15.3413 25.0589 15.2625 25.2164 15.1838C25.4526 15.1051 25.6888 14.9476 25.9251 14.7114C26.0038 14.6327 26.0825 14.4752 26.1613 14.3964C26.24 14.239 26.3974 14.0815 26.4762 13.9241C26.5549 13.7666 26.5549 13.6878 26.6337 13.5303C26.7124 13.3728 26.7124 13.2941 26.7124 13.1366C26.7124 12.9792 26.7912 12.8217 26.7124 12.5855C26.7124 12.5067 26.7124 12.5067 26.7124 12.428C26.7124 12.2705 26.6337 12.1131 26.6337 11.9556C26.5549 11.7981 26.5549 11.7194 26.4762 11.5619C26.3974 11.4831 26.3188 11.3257 26.24 11.2469C26.1613 11.0895 26.0038 11.0108 25.9251 10.932C25.7676 10.7745 25.5313 10.6958 25.3739 10.617C25.2952 10.5383 25.1377 10.5383 24.9802 10.4596C24.8227 10.4596 24.744 10.4596 24.5865 10.3808C24.4291 10.3808 24.3503 10.3808 24.1928 10.3808C24.1141 10.3808 24.0354 10.3808 23.9566 10.4596C23.8779 10.4596 23.7991 10.5383 23.7204 10.5383C23.7204 10.5383 23.7991 10.5383 23.7991 10.4596C23.6416 10.4596 23.4842 10.5383 23.4055 10.617C23.3267 10.6958 23.3267 10.6958 23.3267 10.7745C23.1692 10.7745 23.0905 10.8533 23.0118 10.932C22.6968 11.2469 22.4606 11.5619 22.2244 11.9556C21.9094 12.5067 21.8307 13.1366 22.0669 13.6878C22.2244 14.0028 22.3031 14.0815 22.3819 14.239ZM23.248 12.9005C23.248 12.8217 23.248 12.743 23.3267 12.6642C23.4055 12.428 23.563 12.2705 23.6416 12.1131C23.7204 12.0344 23.7991 11.9556 23.8779 11.8769C23.9566 11.7981 24.0354 11.6406 24.0354 11.4831C24.0354 11.4044 24.0354 11.4044 24.0354 11.3257C24.2716 11.4044 24.5078 11.4831 24.744 11.5619C24.744 11.5619 24.8227 11.5619 24.8227 11.6406C24.9802 11.7194 25.0589 11.7981 25.1377 11.8769C25.2164 11.9556 25.2952 12.0344 25.3739 12.1131C25.4526 12.1918 25.4527 12.2705 25.5313 12.3493C25.5313 12.428 25.6101 12.5855 25.6101 12.6642C25.6101 12.8217 25.6101 12.9005 25.6101 13.0579C25.6101 13.2154 25.5313 13.2941 25.5313 13.3728C25.4527 13.4516 25.3739 13.6091 25.2952 13.6878C25.2164 13.7666 25.1377 13.8453 25.0589 13.9241C24.9802 13.9241 24.9802 14.0028 24.9015 14.0028C24.8227 14.0028 24.744 14.0815 24.5865 14.0815C24.5078 14.0815 24.3503 14.0815 24.2716 14.0815C24.1928 14.0815 24.0354 14.0028 23.9566 14.0028C23.7991 13.9241 23.7204 13.8453 23.6416 13.7666C23.563 13.6878 23.4842 13.6091 23.4055 13.5303C23.3267 13.4516 23.3267 13.3728 23.248 13.2941C23.248 13.2154 23.248 13.1366 23.1692 13.1366C23.248 13.0579 23.248 12.9792 23.248 12.9005ZM23.248 13.2154V13.2941C23.248 13.2941 23.248 13.2941 23.248 13.2154Z" fill="black"/>
</g>
<defs>
<clipPath id="clip0_9_329">
<rect width="39.9311" height="50.3132" fill="white" transform="translate(0.555908 0.302902)"/>
</clipPath>
</defs>
</svg>
