<svg width="85" height="75" viewBox="0 0 85 75" fill="none" xmlns="http://www.w3.org/2000/svg">
<path d="M84.7967 42.4246C83.1808 48.8604 80.0828 54.8292 75.75 59.8548C71.4172 64.8803 65.9695 68.8234 59.8418 71.3691C53.7141 73.9149 47.0761 74.9929 40.4577 74.5171C33.8393 74.0412 27.4238 72.0248 21.7233 68.6286C16.0228 65.2325 11.1951 60.5507 7.62576 54.9571C4.05637 49.3634 1.84408 43.0128 1.16549 36.4121C0.486892 29.8114 1.36078 23.1435 3.7174 16.9406C6.07402 10.7377 9.84811 5.17163 14.7384 0.68668L19.3012 5.66187C15.1865 9.43557 12.0109 14.1189 10.028 19.3381C8.04511 24.5573 7.30981 30.1678 7.88079 35.7217C8.45177 41.2756 10.3132 46.6191 13.3165 51.3257C16.3199 56.0323 20.3819 59.9716 25.1784 62.8292C29.9749 65.6867 35.373 67.3834 40.9418 67.7838C46.5106 68.1841 52.0959 67.2771 57.2518 65.135C62.4077 62.993 66.9915 59.6753 70.6372 55.4467C74.2829 51.2182 76.8896 46.1959 78.2492 40.7808L84.7967 42.4246Z" fill="#32CAFD"/>
</svg>
