<svg width="20" height="18" viewBox="0 0 20 18" fill="none" xmlns="http://www.w3.org/2000/svg">
<g clip-path="url(#clip0_9_414)">
<path d="M14.5556 1.98641C14.2531 1.75825 12.8942 0.766576 10.8181 0.410373C9.89785 0.26283 8.96118 0.248986 8.03699 0.369273C8.03699 0.369273 7.93159 0.381919 7.83727 0.39562C6.58582 0.574774 4.57823 1.54063 3.56073 2.43272C1.51152 4.23112 -0.436005 9.17051 2.44733 12.8131C4.35323 15.2218 7.76455 16.2982 11.0742 15.5474C12.8878 15.7655 14.3822 14.9989 14.5993 14.884C16.7766 13.7248 17.3646 11.557 17.598 10.6955C18.1292 8.73369 17.6823 7.12025 17.4674 6.38256C17.234 5.58005 16.6059 3.53399 14.5556 1.98641Z" fill="#91FFCA"/>
<path d="M10.9643 15.573C11.4315 15.6243 11.9043 15.5844 12.3564 15.4555C12.5746 15.396 12.8022 15.3317 12.9945 15.2142C13.1976 15.0922 13.3565 14.9088 13.4482 14.6904C13.6158 14.3015 13.5319 13.8389 13.3686 13.4621C13.1874 13.0443 12.8944 12.6423 12.5066 12.3772C12.1283 12.1206 11.6635 12.1543 11.2583 12.3245C11.0995 12.3957 10.9455 12.477 10.7972 12.5679C10.725 12.6095 10.6528 12.6517 10.5786 12.6913C10.5417 12.7113 10.5048 12.7303 10.4668 12.7482L10.4189 12.7697C10.3593 12.7971 10.4642 12.7545 10.4046 12.7761C10.371 12.7882 10.3367 12.8003 10.2993 12.8098C10.2808 12.8146 10.2624 12.8193 10.244 12.823L10.2202 12.8277C10.1786 12.8372 10.2413 12.8208 10.2455 12.8277C10.2082 12.8268 10.1709 12.8284 10.1338 12.8325C10.0901 12.8325 10.1117 12.8235 10.1433 12.8356C10.1235 12.8297 10.1035 12.8247 10.0832 12.8208L10.0537 12.8124C10.0184 12.8035 10.0047 12.7761 10.0822 12.8256C10.0643 12.814 10.0427 12.8051 10.0237 12.7945C9.97466 12.7671 10.0764 12.8383 10.0474 12.8119C10.0369 12.8019 10.0253 12.7929 10.0148 12.7829C10.0042 12.7729 9.99579 12.7629 9.98631 12.7529C9.94098 12.7044 10.0169 12.7956 9.99259 12.7614C9.94119 12.6888 9.89454 12.6129 9.85298 12.5342C9.82397 12.4784 9.79607 12.422 9.76971 12.3656C9.75493 12.3351 9.74071 12.304 9.72704 12.2729C9.72278 12.2639 9.69649 12.2033 9.7133 12.2428C9.73018 12.2824 9.70277 12.2191 9.69859 12.2086C9.61797 12.0226 9.5405 11.835 9.46832 11.6464C9.34817 11.3418 9.23116 11.0361 9.12105 10.7285C8.84532 9.954 8.61282 9.16482 8.42447 8.36462C8.36387 8.10911 8.30593 7.85249 8.2553 7.59482C8.24581 7.5458 8.23689 7.49678 8.22789 7.44782C8.22427 7.42411 8.22001 7.39985 8.21632 7.37614L8.21158 7.34664C8.20579 7.31024 8.20739 7.34664 8.21158 7.36031C8.20105 7.32174 8.19665 7.28172 8.1984 7.24177C8.1984 7.20752 8.19365 7.17274 8.19365 7.13638C8.19365 7.10002 8.19365 7.08 8.19365 7.05155C8.19616 7.0378 8.19756 7.02388 8.19791 7.00992C8.19791 7.00571 8.18577 7.07579 8.19261 7.05155C8.19261 7.04312 8.19582 7.03311 8.19791 7.02468C8.20265 7.00219 8.20886 6.98002 8.21632 6.95828C8.22001 6.9488 8.22427 6.93932 8.2274 6.9293C8.2274 6.9293 8.19526 6.99095 8.22162 6.94563C8.23319 6.92614 8.24372 6.90665 8.25634 6.88768C8.26904 6.8687 8.30592 6.83077 8.28005 6.85342C8.25425 6.87608 8.30746 6.82708 8.31485 6.8197C8.32224 6.81232 8.3433 6.79704 8.35544 6.78439C8.37705 6.76174 8.33382 6.80179 8.33486 6.7981C8.34393 6.79028 8.35383 6.78356 8.36436 6.77808C8.39937 6.75576 8.43577 6.73587 8.4735 6.71853C8.48138 6.71484 8.48981 6.71168 8.49769 6.70746C8.5304 6.69113 8.44763 6.72433 8.48242 6.71379C8.50034 6.70905 8.51722 6.70167 8.53514 6.69587C8.57935 6.68165 8.62468 6.66953 8.67001 6.65951C8.75536 6.64002 8.84176 6.62579 8.92823 6.61315C9.10982 6.59249 9.29022 6.56277 9.46881 6.5241C9.86616 6.42714 10.2012 6.19424 10.3678 5.83013C10.6961 5.11246 10.4953 4.16557 9.90674 3.6202C9.26226 3.0232 8.16206 2.97208 7.40276 3.39626C6.81945 3.72243 6.4643 4.30468 6.23403 4.89326C5.96425 5.58301 5.85464 6.33071 5.80828 7.06261C5.76318 7.8011 5.78894 8.54216 5.88521 9.2757C5.93052 9.62555 5.99059 9.97339 6.06595 10.3185C6.15666 10.731 6.26816 11.1386 6.40001 11.5399C6.57941 12.0882 6.80012 12.6221 7.06026 13.137C7.34808 13.7095 7.69985 14.2477 8.10886 14.741C8.54044 15.2631 9.05382 15.7119 9.62899 16.0699C10.3587 16.5159 11.1804 16.7898 12.0318 16.8708C12.912 16.9478 13.7986 16.84 14.6349 16.5547C15.1694 16.3825 15.6762 16.134 16.1397 15.817C16.8059 15.35 17.3683 14.7502 17.7917 14.0555C18.1131 13.5197 18.3679 12.9468 18.5504 12.3493C18.7807 11.6147 18.9361 10.8607 18.9609 10.0919C18.9802 9.30624 18.8872 8.5218 18.6848 7.76239C18.5687 7.29866 18.4237 6.84267 18.2506 6.3971C17.9827 5.71265 17.6272 5.06581 17.1931 4.47277C16.6982 3.8035 16.103 3.21466 15.4284 2.72707C14.9596 2.39282 14.4574 2.10815 13.9298 1.87765C13.1647 1.53402 12.3557 1.29782 11.526 1.17579C10.6744 1.05587 9.81107 1.04648 8.95717 1.14787C8.45746 1.20523 7.96177 1.29322 7.47284 1.41133C6.65712 1.60347 5.86969 1.9003 5.13012 2.29446C4.4173 2.6788 3.78495 3.19648 3.26744 3.81938C2.78361 4.41198 2.39371 5.07539 2.11136 5.7864C1.82478 6.50754 1.63656 7.26393 1.55176 8.03533C1.46265 8.8264 1.47806 9.62576 1.59761 10.4128C1.71602 11.202 1.94669 11.9701 2.28261 12.6939C2.64613 13.4773 3.14164 14.1924 3.74747 14.8079C4.3515 15.4144 5.04446 15.9252 5.80248 16.3228C6.33327 16.6018 6.88764 16.8336 7.45914 17.0152C7.52828 17.0338 7.60194 17.0252 7.6649 16.9911C7.72786 16.9569 7.7753 16.8999 7.79742 16.8318C7.81415 16.7638 7.80354 16.6919 7.76788 16.6317C7.73221 16.5714 7.67434 16.5275 7.60667 16.5094C7.49233 16.4725 7.37799 16.434 7.26523 16.3935C7.20095 16.3702 7.13719 16.3465 7.07343 16.3223L6.977 16.2849C6.96172 16.2791 6.94697 16.2723 6.93116 16.267C6.98701 16.2859 6.9496 16.2744 6.92009 16.2622C6.60931 16.1348 6.30555 15.991 6.01009 15.8312C5.66621 15.6455 5.33541 15.4365 5.02 15.2057L5.00155 15.192L4.93674 15.1425C4.893 15.1093 4.85033 15.0756 4.80712 15.0413C4.72351 14.9739 4.64096 14.9048 4.55946 14.8343C4.39155 14.6878 4.23013 14.5343 4.07522 14.3737C3.99829 14.2936 3.92346 14.2114 3.85022 14.1281C3.81333 14.086 3.77645 14.0428 3.74009 13.9996C3.72059 13.9764 3.7011 13.9527 3.68213 13.929C3.70531 13.958 3.65789 13.8989 3.65052 13.889C3.52194 13.7261 3.40128 13.5575 3.28746 13.3847C3.07594 13.0615 2.8899 12.7224 2.73103 12.3704C2.72312 12.3524 2.69888 12.2966 2.71996 12.3456L2.69414 12.2865C2.67464 12.2407 2.65567 12.1949 2.63671 12.1485C2.60157 12.0596 2.56645 11.9701 2.53132 11.8798C2.46598 11.6996 2.40697 11.5167 2.3548 11.3329C2.30264 11.1489 2.25626 10.964 2.21727 10.7753C2.19725 10.6815 2.17933 10.5877 2.16458 10.4935C2.15668 10.4481 2.1493 10.4028 2.14192 10.3569C2.13876 10.3359 2.13507 10.3154 2.13191 10.2942C2.12875 10.2732 2.1277 10.2663 2.12611 10.2521C2.12453 10.2379 2.11821 10.1994 2.12611 10.2342C2.13402 10.269 2.1219 10.2052 2.12085 10.1957L2.11136 10.1219C2.10556 10.073 2.09977 10.0234 2.0945 9.97443C2.08449 9.87959 2.07606 9.7842 2.0692 9.6888C2.05551 9.49912 2.04813 9.3084 2.04655 9.11817C2.04381 8.73881 2.06563 8.35967 2.11189 7.98317C2.11716 7.93833 2.12348 7.89356 2.12928 7.84824C2.12295 7.89566 2.12928 7.85988 2.12928 7.83506C2.12928 7.8103 2.13718 7.78241 2.14192 7.75235C2.15562 7.6633 2.17143 7.57425 2.18776 7.4852C2.22289 7.30187 2.26364 7.1197 2.31001 6.93879C2.4007 6.58121 2.51549 6.23018 2.65357 5.88809C2.6699 5.84752 2.68729 5.80695 2.70626 5.76637C2.71522 5.74477 2.7247 5.72317 2.73419 5.70156C2.71311 5.75056 2.73419 5.70156 2.74367 5.68101C2.78161 5.59882 2.8206 5.51661 2.86117 5.43546C2.94127 5.27422 3.02751 5.11615 3.11989 4.96123C3.21106 4.80842 3.30854 4.65825 3.41129 4.51229C3.46223 4.43992 3.51492 4.36861 3.56937 4.29836L3.64788 4.19824C3.68002 4.15819 3.62206 4.22986 3.65473 4.19034L3.70478 4.13027C3.9301 3.86172 4.17872 3.61362 4.44775 3.38888C4.52416 3.32513 4.60267 3.26453 4.68171 3.20446C4.70595 3.18549 4.68171 3.20446 4.67591 3.20815L4.70595 3.18601L4.77708 3.13596C4.8245 3.10294 4.87245 3.07027 4.92093 3.03795C5.10536 2.91676 5.29575 2.80435 5.49212 2.70072C5.68287 2.59955 5.87783 2.50681 6.07648 2.42092L6.20663 2.36823L6.24984 2.35084L6.23772 2.35558L6.31307 2.32607C6.41213 2.28743 6.51172 2.25054 6.61184 2.21542C6.96042 2.09379 7.31497 1.99002 7.67412 1.90453C7.95094 1.83814 8.23019 1.78176 8.51192 1.73539C8.60676 1.7201 8.70215 1.70536 8.79804 1.69271L8.85076 1.68533H8.87286C8.92293 1.67848 8.80487 1.69376 8.83339 1.69007C8.90606 1.68112 8.97879 1.67216 9.05152 1.66425C9.54141 1.61123 10.0345 1.59362 10.5269 1.61156C10.711 1.61859 10.8947 1.63088 11.0781 1.64845C11.1513 1.65529 11.224 1.66372 11.2968 1.67216C11.3415 1.67743 11.3115 1.67216 11.2809 1.67216L11.3279 1.67848L11.4127 1.69007C11.7863 1.74609 12.1559 1.82618 12.5192 1.92982C12.7352 1.9913 12.9483 2.0605 13.1584 2.13744L13.3038 2.19013L13.3808 2.22016C13.3845 2.22016 13.4208 2.23597 13.3907 2.22437L13.4224 2.23702C13.5114 2.27391 13.6005 2.31185 13.6885 2.35137C14.2016 2.57701 14.6906 2.854 15.148 3.17811L15.1897 3.20867L15.1596 3.18654L15.1775 3.19972C15.245 3.25241 15.3114 3.30141 15.3768 3.35411C15.5633 3.5034 15.7422 3.66148 15.9136 3.82834C16.0756 3.98431 16.23 4.14678 16.3768 4.31575C16.412 4.35544 16.4457 4.39496 16.478 4.4343L16.5233 4.487L16.5392 4.50649L16.5544 4.52546C16.6187 4.60661 16.6819 4.68934 16.7425 4.77259C16.9671 5.07997 17.1696 5.4029 17.3485 5.73897C17.4275 5.88827 17.5022 6.03932 17.5724 6.19213L17.5946 6.24061C17.5977 6.24852 17.6014 6.25695 17.6051 6.26485C17.6198 6.29752 17.5845 6.21743 17.5988 6.25009L17.6462 6.35969C17.6746 6.42767 17.7026 6.49617 17.7295 6.56467C17.8965 6.99485 18.0373 7.43478 18.151 7.88199C18.1895 8.02955 18.2248 8.17703 18.2564 8.3262C18.2738 8.40995 18.2901 8.49425 18.3049 8.57856C18.3128 8.62124 18.3196 8.66392 18.327 8.70715L18.3381 8.77779C18.3381 8.78832 18.3407 8.7983 18.3423 8.80883C18.3439 8.81936 18.3502 8.86154 18.3423 8.8257C18.3344 8.78986 18.3476 8.86684 18.3491 8.87521L18.3571 8.93902C18.3633 8.99167 18.3691 9.04125 18.3739 9.09236C18.3845 9.19453 18.3928 9.2971 18.3992 9.40003C18.4129 9.62067 18.4165 9.8418 18.4103 10.0635C18.4036 10.3037 18.3848 10.5433 18.3538 10.7822C18.3538 10.7964 18.3502 10.8101 18.3481 10.8238C18.3481 10.8175 18.3528 10.7922 18.3481 10.8238C18.3433 10.8555 18.3381 10.8891 18.3328 10.9218C18.3223 10.9882 18.3112 11.0541 18.2985 11.12C18.2738 11.2506 18.2458 11.3834 18.2137 11.5098C18.1573 11.7396 18.0925 11.9683 18.0219 12.1949C17.9428 12.4483 17.8527 12.6986 17.7495 12.9442L17.7068 13.0438C17.6926 13.0759 17.7284 12.9952 17.7136 13.0274C17.71 13.0353 17.7068 13.0432 17.7031 13.0506C17.6952 13.069 17.6868 13.0875 17.6783 13.1033C17.6454 13.1736 17.6111 13.2447 17.5756 13.3167C17.5008 13.4653 17.4203 13.6109 17.3343 13.7535C17.2436 13.9035 17.1463 14.0502 17.0424 14.1935C17.0166 14.2288 16.9896 14.2636 16.9633 14.2989C16.9491 14.3179 16.9343 14.3369 16.9196 14.3553L16.9006 14.3795C16.8969 14.3843 16.8684 14.4201 16.8901 14.3932C16.9117 14.3664 16.8901 14.3932 16.8853 14.3985L16.859 14.4307C16.8458 14.4464 16.8321 14.4622 16.8189 14.4786L16.722 14.5892C16.5911 14.7343 16.4527 14.8723 16.3073 15.0029C16.2314 15.0703 16.1538 15.1357 16.0744 15.1989C16.0354 15.2299 15.9959 15.2606 15.9563 15.2905C15.9502 15.2958 15.9437 15.3005 15.9369 15.3048L15.8604 15.3575C15.6318 15.5173 15.3906 15.6583 15.1391 15.779C15.0427 15.8254 14.9452 15.8681 14.8466 15.9087L14.8066 15.925L14.8308 15.9155L14.8098 15.9234C14.7755 15.9371 14.7413 15.9503 14.7044 15.9629C14.6316 15.9903 14.5584 16.0156 14.4847 16.0409C14.1226 16.1619 13.7508 16.2512 13.3734 16.308L13.3022 16.3181C13.2495 16.326 13.3344 16.3149 13.2796 16.3212C13.2248 16.3276 13.1652 16.3344 13.1078 16.3397C12.9898 16.3506 12.8713 16.358 12.7527 16.3618C12.5153 16.3699 12.2777 16.3627 12.0413 16.3402L11.9443 16.3302L11.9059 16.3255C11.84 16.3165 11.7742 16.3065 11.7088 16.2949C11.5786 16.2728 11.4501 16.2449 11.3226 16.2127C11.1311 16.164 10.9426 16.1047 10.7577 16.0351L10.694 16.0103C10.6666 15.9998 10.6449 15.9903 10.6871 16.0103L10.5627 15.9577C10.4837 15.9225 10.4057 15.886 10.3288 15.8481C10.1774 15.7725 10.03 15.6905 9.88666 15.602C9.81644 15.5577 9.74705 15.5122 9.67857 15.4655C9.64538 15.4434 9.61323 15.4202 9.58108 15.3975C9.56365 15.3849 9.5458 15.3733 9.52837 15.3596C9.57 15.3933 9.54106 15.3691 9.51839 15.3517C9.38876 15.2537 9.26351 15.1502 9.14267 15.0413C8.9055 14.8281 8.68458 14.5973 8.48193 14.3511L8.44818 14.3105L8.46401 14.33C8.45592 14.3214 8.44853 14.3122 8.44184 14.3026C8.41659 14.271 8.39177 14.2388 8.36701 14.2067C8.3191 14.145 8.27273 14.0823 8.22685 14.0191C8.13626 13.8937 8.04965 13.766 7.96709 13.636C7.80691 13.3842 7.66007 13.1254 7.52658 12.8599C7.46124 12.7303 7.39854 12.6001 7.339 12.4683C7.33162 12.4515 7.32424 12.4347 7.31634 12.4157C7.29474 12.3677 7.3253 12.4362 7.31634 12.4209C7.30159 12.3872 7.28683 12.354 7.2726 12.3208C7.24573 12.257 7.21991 12.1933 7.19304 12.129C7.09503 11.8873 7.00545 11.6425 6.9243 11.3945C6.79421 10.9989 6.68412 10.5971 6.59445 10.1905C6.56494 10.0582 6.53807 9.92701 6.5133 9.79159C6.50487 9.74675 6.49697 9.70198 6.48906 9.6577C6.4801 9.60505 6.47115 9.55233 6.46272 9.49968C6.45639 9.46063 6.4506 9.42165 6.4448 9.38267C6.44217 9.36426 6.43848 9.34578 6.4369 9.32737C6.4427 9.38901 6.4369 9.33106 6.43374 9.3047C6.33778 8.58881 6.30885 7.86553 6.34732 7.14429C6.35681 6.95934 6.37209 6.77544 6.39211 6.59049C6.39738 6.54675 6.40212 6.50302 6.40792 6.45876C6.41055 6.43557 6.41372 6.41186 6.41688 6.38867C6.41688 6.37867 6.42003 6.36865 6.42109 6.35864C6.42109 6.37761 6.41477 6.40079 6.42109 6.36812C6.43427 6.27907 6.44796 6.19002 6.4643 6.1015C6.52304 5.76269 6.61119 5.42964 6.72776 5.10614C6.75569 5.03026 6.78625 4.95596 6.81787 4.88166C6.79732 4.92487 6.83737 4.8353 6.81787 4.88166C6.82682 4.86322 6.83525 4.84426 6.84368 4.82581C6.86108 4.78945 6.87899 4.75362 6.89638 4.71779C6.96452 4.58479 7.04255 4.45709 7.12981 4.33577C7.15036 4.30732 7.17143 4.27991 7.19251 4.25251C7.22202 4.21458 7.15826 4.29256 7.18988 4.2562C7.20357 4.24039 7.21675 4.22406 7.23045 4.20878C7.27654 4.15629 7.32525 4.10617 7.37641 4.0586C7.40065 4.03595 7.42541 4.01381 7.45124 3.99274C7.46336 3.9822 7.53343 3.94005 7.53449 3.92635C7.53449 3.94057 7.48179 3.96165 7.52764 3.93214L7.57137 3.90264C7.60088 3.88331 7.63091 3.86575 7.66148 3.84995C7.72276 3.81588 7.78572 3.78493 7.85011 3.75721C7.80638 3.7767 7.83958 3.76142 7.86329 3.75299L7.93442 3.72875C7.9834 3.71347 8.03299 3.69977 8.08354 3.68765C8.1341 3.67553 8.17894 3.6671 8.2274 3.6592C8.25007 3.65551 8.29435 3.64971 8.24477 3.65551C8.27531 3.65182 8.30593 3.64866 8.33703 3.64655C8.43814 3.63821 8.53974 3.63698 8.64107 3.64286C8.6684 3.64286 8.69581 3.64497 8.72321 3.64918L8.75857 3.65287C8.75487 3.65287 8.71164 3.64602 8.74379 3.65287C8.80229 3.66235 8.86024 3.67184 8.9177 3.68554C8.96352 3.69608 9.00884 3.70873 9.05361 3.72295C9.07997 3.73138 9.10578 3.74034 9.13109 3.74983L9.16428 3.76195C9.13953 3.75193 9.14002 3.75246 9.16428 3.76195C9.2101 3.78302 9.25598 3.80516 9.29971 3.82992C9.32342 3.84362 9.34713 3.85732 9.36979 3.87207L9.39929 3.89157C9.40347 3.89157 9.44301 3.92266 9.4193 3.90474C9.39559 3.88683 9.45145 3.93109 9.45989 3.93794C9.46832 3.94479 9.49099 3.96429 9.5057 3.97798C9.54043 4.00963 9.57348 4.04305 9.60479 4.0781C9.61372 4.08759 9.65744 4.13765 9.63589 4.11288C9.61428 4.08812 9.65165 4.13396 9.65744 4.14186C9.68541 4.17927 9.71016 4.21827 9.73596 4.25831C9.76184 4.29836 9.78024 4.33366 9.80026 4.37213C9.81135 4.3932 9.81978 4.41534 9.83136 4.43589C9.84294 4.45644 9.82501 4.42113 9.82453 4.41903C9.82927 4.43115 9.83506 4.44379 9.8398 4.45591C9.87397 4.53965 9.90193 4.62577 9.92355 4.71358C9.93338 4.75573 9.94238 4.79788 9.95047 4.84004C9.95047 4.85005 9.95305 4.86006 9.95521 4.86954C9.96309 4.90696 9.94991 4.82054 9.95521 4.85848C9.95521 4.88114 9.961 4.90433 9.96309 4.92698C9.97097 5.0137 9.97257 5.10086 9.96783 5.18781C9.97027 5.22888 9.9665 5.27008 9.95674 5.31005C9.95674 5.31005 9.96623 5.25736 9.95995 5.28634C9.9573 5.29846 9.9557 5.31058 9.9536 5.3227C9.94942 5.34378 9.94517 5.36433 9.94042 5.38541C9.9315 5.42334 9.92146 5.46129 9.90932 5.49817C9.90305 5.51819 9.89614 5.53769 9.88882 5.55666L9.87934 5.58142C9.87508 5.59301 9.85563 5.61831 9.87613 5.59038C9.8967 5.56246 9.86511 5.61093 9.85981 5.62094C9.85451 5.63096 9.84398 5.65098 9.83506 5.66573C9.81553 5.69999 9.79287 5.7316 9.7702 5.76374C9.74761 5.79588 9.80451 5.72791 9.7702 5.76374C9.7534 5.78061 9.73812 5.79852 9.72069 5.81644C9.70333 5.83435 9.68645 5.84699 9.66804 5.8628C9.6633 5.86702 9.63799 5.88968 9.66483 5.86597C9.69175 5.84225 9.6596 5.86966 9.6527 5.87387C9.6179 5.89687 9.58185 5.91798 9.54468 5.9371L9.49203 5.96134C9.44566 5.98294 9.50047 5.96134 9.50417 5.95659C9.49273 5.96287 9.48046 5.96749 9.46777 5.9703C9.29734 6.02374 9.12209 6.06045 8.94455 6.0799C8.57573 6.13259 8.18738 6.18528 7.91493 6.44874C7.69467 6.6632 7.61774 6.93984 7.64198 7.23334C7.67887 7.69071 7.80006 8.14705 7.90861 8.59279C8.09421 9.36754 8.32162 10.1317 8.58995 10.8817C8.69532 11.1822 8.81178 11.4803 8.92872 11.7775C9.05891 12.1074 9.1896 12.4409 9.35026 12.7577C9.42613 12.9062 9.51574 13.0675 9.64956 13.1766C9.73262 13.2438 9.82836 13.2938 9.93115 13.3232C10.0339 13.3526 10.1415 13.361 10.2476 13.3478C10.6128 13.3093 10.9148 13.1075 11.223 12.9331C11.2972 12.8915 11.3726 12.8504 11.4495 12.814L11.5097 12.7866C11.518 12.7829 11.527 12.7798 11.5355 12.7756C11.5639 12.7624 11.5128 12.7851 11.5133 12.7845C11.5516 12.7637 11.5931 12.7496 11.6361 12.7429C11.674 12.7318 11.713 12.7223 11.752 12.715L11.7789 12.7102C11.8315 12.7008 11.761 12.7144 11.7604 12.7102L11.8247 12.706C11.8363 12.706 11.9417 12.6986 11.9465 12.7097C11.9465 12.7097 11.889 12.6992 11.9206 12.706L11.9585 12.7128C11.9818 12.7171 12.0039 12.7223 12.0265 12.7287C12.0492 12.735 12.0792 12.7445 12.1019 12.7529L12.0945 12.7503L12.1277 12.7661C12.1525 12.7787 12.1762 12.7919 12.1999 12.8066C12.2094 12.813 12.2188 12.8198 12.2289 12.8256C12.1994 12.8003 12.2631 12.8457 12.2289 12.8256C12.3113 12.8955 12.3901 12.9694 12.4649 13.0475C12.4972 13.0808 12.5283 13.116 12.5582 13.1528L12.5793 13.1781C12.5472 13.1365 12.573 13.1702 12.5793 13.1781C12.5951 13.1987 12.6109 13.2192 12.6257 13.2403C12.6853 13.3231 12.7395 13.4097 12.7879 13.4996C12.8117 13.5433 12.8327 13.5881 12.8543 13.6329C12.8675 13.6602 12.8512 13.6255 12.8496 13.6223L12.867 13.6639C12.8771 13.6889 12.8866 13.7136 12.8954 13.7383C12.9296 13.8322 12.9561 13.9288 12.9745 14.027C12.9792 14.0496 12.984 14.0897 12.9782 14.0423C12.9813 14.0671 12.984 14.0913 12.9861 14.1161C12.9898 14.1646 12.9908 14.2134 12.9892 14.262C12.9892 14.2825 12.9866 14.3026 12.985 14.3231C12.985 14.3321 12.9797 14.3758 12.985 14.3384C12.9903 14.301 12.985 14.3384 12.985 14.3431C12.9767 14.3887 12.9653 14.4336 12.9508 14.4775C12.9444 14.496 12.937 14.5138 12.9302 14.5302C12.9523 14.4696 12.9276 14.5302 12.9197 14.5476C12.8985 14.5856 12.8743 14.6219 12.8475 14.6562C12.876 14.6198 12.8512 14.6498 12.8354 14.6661C12.8195 14.6825 12.8006 14.6989 12.7826 14.7152C12.7753 14.722 12.7663 14.7278 12.7589 14.7347C12.7589 14.7347 12.799 14.7094 12.7732 14.7241C12.7474 14.7389 12.7331 14.7515 12.7126 14.7636C12.6727 14.7873 12.6316 14.8085 12.5893 14.8274L12.5593 14.8406C12.5593 14.8406 12.603 14.8242 12.573 14.8348C12.5429 14.8453 12.5229 14.8537 12.4976 14.8622C12.3965 14.897 12.2932 14.9259 12.1894 14.9539C12.0708 14.986 11.9523 15.0155 11.8311 15.0366C11.7979 15.0424 11.7652 15.0471 11.732 15.0518C11.7736 15.0461 11.7072 15.0545 11.6951 15.0555C11.6387 15.0619 11.5818 15.0661 11.5249 15.0687C11.3392 15.0774 11.153 15.0705 10.9684 15.0481C10.8251 15.0313 10.6876 15.181 10.6934 15.3117C10.7008 15.4697 10.8151 15.5556 10.9684 15.5751L10.9643 15.573Z" fill="#12141D"/>
</g>
<defs>
<clipPath id="clip0_9_414">
<rect width="18.1309" height="16.7362" fill="white" transform="translate(0.990845 0.28833)"/>
</clipPath>
</defs>
</svg>
