<svg width="26" height="24" viewBox="0 0 26 24" fill="none" xmlns="http://www.w3.org/2000/svg">
<g clip-path="url(#clip0_7_85)">
<path d="M19.4521 2.43508C19.0183 2.10789 17.0696 0.685813 14.0924 0.175012C12.7728 -0.036568 11.4296 -0.0564197 10.1043 0.116073C10.1043 0.116073 9.95315 0.134208 9.81789 0.153855C8.02329 0.410766 5.14437 1.79582 3.68526 3.07509C0.746653 5.65403 -2.04613 12.7372 2.08863 17.9608C4.82172 21.4148 9.71361 22.9585 14.4597 21.8818C17.0605 22.1946 19.2035 21.0952 19.5148 20.9304C22.637 19.2681 23.4803 16.1594 23.815 14.924C24.5767 12.1108 23.9359 9.7971 23.6276 8.73923C23.2929 7.58842 22.3922 4.65434 19.4521 2.43508Z" fill="#91FFCA"/>
<path d="M14.3021 21.9186C14.9722 21.9921 15.6502 21.9349 16.2984 21.75C16.6113 21.6647 16.9377 21.5725 17.2135 21.404C17.5047 21.2291 17.7326 20.966 17.8641 20.6529C18.1044 20.0952 17.9842 19.4318 17.75 18.8915C17.4901 18.2923 17.0699 17.7158 16.5138 17.3357C15.9713 16.9677 15.3048 17.0161 14.7237 17.2601C14.4961 17.3622 14.2752 17.4788 14.0626 17.6092C13.959 17.6689 13.8555 17.7294 13.749 17.7861C13.6961 17.8148 13.6432 17.842 13.5888 17.8677L13.52 17.8986C13.4346 17.9379 13.585 17.8767 13.4996 17.9077C13.4513 17.9251 13.4021 17.9425 13.3485 17.9561C13.322 17.9629 13.2956 17.9697 13.2692 17.975L13.2351 17.9818C13.1755 17.9954 13.2654 17.9719 13.2714 17.9818C13.2179 17.9804 13.1644 17.9827 13.1112 17.9886C13.0485 17.9886 13.0795 17.9757 13.1248 17.9931C13.0965 17.9846 13.0677 17.9775 13.0387 17.9719L12.9964 17.9598C12.9457 17.947 12.9261 17.9077 13.0372 17.9787C13.0115 17.9621 12.9805 17.9493 12.9533 17.9342C12.883 17.8949 13.0289 17.9969 12.9873 17.9591C12.9722 17.9447 12.9556 17.9319 12.9405 17.9175C12.9253 17.9032 12.9133 17.8888 12.8997 17.8745C12.8347 17.8049 12.9435 17.9357 12.9087 17.8866C12.835 17.7825 12.7681 17.6737 12.7085 17.5609C12.6669 17.4808 12.6269 17.3999 12.5891 17.3191C12.5679 17.2753 12.5475 17.2307 12.5279 17.1861C12.5218 17.1732 12.4841 17.0863 12.5082 17.143C12.5324 17.1997 12.4931 17.109 12.4871 17.0939C12.3715 16.8272 12.2604 16.5582 12.1569 16.2877C11.9846 15.8509 11.8168 15.4126 11.6589 14.9714C11.2635 13.8608 10.9301 12.7291 10.66 11.5816C10.5731 11.2152 10.49 10.8472 10.4174 10.4777C10.4038 10.4074 10.391 10.3371 10.3781 10.2669C10.3729 10.2329 10.3668 10.1981 10.3615 10.1641L10.3547 10.1218C10.3464 10.0696 10.3487 10.1218 10.3547 10.1414C10.3396 10.0861 10.3333 10.0287 10.3358 9.97141C10.3358 9.9223 10.329 9.87243 10.329 9.82029C10.329 9.76815 10.329 9.73944 10.329 9.69863C10.3326 9.67892 10.3346 9.65896 10.3351 9.63894C10.3351 9.6329 10.3177 9.73339 10.3275 9.69863C10.3275 9.68654 10.3321 9.67219 10.3351 9.6601C10.3419 9.62785 10.3508 9.59606 10.3615 9.56489C10.3668 9.55129 10.3729 9.53769 10.3774 9.52333C10.3774 9.52333 10.3313 9.61174 10.3691 9.54675C10.3857 9.5188 10.4008 9.49084 10.4189 9.46364C10.4371 9.43643 10.49 9.38203 10.4529 9.41452C10.4159 9.44701 10.4922 9.37674 10.5028 9.36616C10.5134 9.35558 10.5436 9.33367 10.561 9.31553C10.592 9.28304 10.53 9.34047 10.5315 9.33518C10.5445 9.32397 10.5587 9.31434 10.5738 9.30647C10.624 9.27447 10.6762 9.24594 10.7303 9.22108C10.7416 9.21579 10.7537 9.21126 10.765 9.20521C10.8119 9.18179 10.6932 9.22939 10.7431 9.21428C10.7688 9.20748 10.793 9.1969 10.8187 9.18859C10.8821 9.16819 10.9471 9.15081 11.0121 9.13645C11.1345 9.10849 11.2584 9.08809 11.3824 9.06996C11.6428 9.04034 11.9015 8.99772 12.1576 8.94226C12.7274 8.80322 13.2079 8.46924 13.4467 7.9471C13.9175 6.91795 13.6296 5.56009 12.7856 4.77802C11.8614 3.92191 10.2837 3.84861 9.19484 4.45689C8.35837 4.92462 7.84908 5.75958 7.51887 6.60361C7.13199 7.59272 6.97482 8.66494 6.90833 9.7145C6.84366 10.7735 6.8806 11.8362 7.01865 12.8881C7.08363 13.3898 7.16977 13.8886 7.27783 14.3835C7.40792 14.975 7.56781 15.5596 7.75689 16.135C8.01414 16.9213 8.33065 17.6869 8.70369 18.4253C9.11643 19.2463 9.62088 20.018 10.2074 20.7254C10.8263 21.4742 11.5625 22.1178 12.3873 22.6311C13.4337 23.2707 14.6121 23.6635 15.833 23.7796C17.0952 23.89 18.3666 23.7355 19.5658 23.3263C20.3323 23.0794 21.0591 22.7231 21.7238 22.2684C22.6791 21.5987 23.4856 20.7387 24.0927 19.7424C24.5537 18.9741 24.9191 18.1525 25.1808 17.2957C25.511 16.2423 25.7339 15.161 25.7694 14.0586C25.7971 12.9319 25.6637 11.807 25.3735 10.718C25.207 10.053 24.9991 9.3991 24.7508 8.76015C24.3667 7.77863 23.8569 6.85105 23.2343 6.00062C22.5247 5.04088 21.6711 4.19647 20.7037 3.49725C20.0315 3.01793 19.3113 2.60972 18.5547 2.27918C17.4576 1.7864 16.2975 1.44769 15.1076 1.2727C13.8865 1.10072 12.6484 1.08726 11.4239 1.23265C10.7073 1.31491 9.99647 1.44109 9.29534 1.61046C8.12559 1.88599 6.99639 2.31166 5.93584 2.87688C4.91365 3.42803 4.00684 4.1704 3.26472 5.06365C2.57091 5.91345 2.01178 6.86479 1.60688 7.88439C1.19593 8.91852 0.926017 10.0032 0.804413 11.1094C0.676619 12.2438 0.698722 13.3901 0.870153 14.5187C1.03996 15.6504 1.37075 16.7519 1.85246 17.7898C2.37376 18.9133 3.08432 19.9387 3.95309 20.8214C4.81928 21.6911 5.813 22.4236 6.90001 22.9938C7.66118 23.3939 8.45615 23.7262 9.27569 23.9867C9.37484 24.0134 9.48048 24.001 9.57076 23.9521C9.66104 23.9031 9.72907 23.8214 9.7608 23.7237C9.78478 23.6262 9.76957 23.5231 9.71843 23.4367C9.66729 23.3502 9.5843 23.2873 9.48726 23.2613C9.32329 23.2084 9.15932 23.1532 8.99762 23.0951C8.90544 23.0618 8.81401 23.0278 8.72258 22.993L8.5843 22.9394C8.56238 22.9311 8.54123 22.9213 8.51856 22.9137C8.59865 22.9409 8.545 22.9243 8.50269 22.9069C8.05703 22.7242 7.62142 22.5179 7.19773 22.2888C6.7046 22.0225 6.23023 21.7228 5.77792 21.3919L5.75147 21.3722L5.65853 21.3012C5.59581 21.2536 5.53461 21.2052 5.47265 21.1561C5.35275 21.0594 5.23437 20.9604 5.1175 20.8592C4.87671 20.6491 4.64524 20.429 4.42309 20.1988C4.31277 20.0839 4.20547 19.966 4.10044 19.8466C4.04754 19.7862 3.99465 19.7242 3.94251 19.6623C3.91455 19.629 3.8866 19.595 3.85939 19.561C3.89264 19.6026 3.82463 19.5179 3.81406 19.5036C3.62968 19.2701 3.45665 19.0283 3.29343 18.7805C2.99011 18.317 2.72332 17.8307 2.4955 17.3259C2.48416 17.3002 2.4494 17.2201 2.47963 17.2904L2.4426 17.2057C2.41464 17.14 2.38744 17.0743 2.36024 17.0078C2.30986 16.8803 2.25949 16.7519 2.20911 16.6224C2.11542 16.364 2.03079 16.1018 1.95598 15.8381C1.88118 15.5743 1.81468 15.3091 1.75876 15.0386C1.73005 14.9041 1.70436 14.7696 1.6832 14.6344C1.67187 14.5694 1.66129 14.5044 1.65071 14.4386C1.64618 14.4084 1.64089 14.379 1.63635 14.3487C1.63182 14.3185 1.63031 14.3087 1.62804 14.2883C1.62577 14.2679 1.61671 14.2127 1.62804 14.2626C1.63938 14.3125 1.622 14.221 1.62049 14.2074L1.60688 14.1016C1.59857 14.0314 1.59026 13.9603 1.5827 13.8901C1.56835 13.7541 1.55626 13.6173 1.54643 13.4805C1.52679 13.2085 1.51621 12.935 1.51394 12.6622C1.51001 12.1182 1.54131 11.5745 1.60764 11.0346C1.6152 10.9703 1.62426 10.9061 1.63258 10.8411C1.62351 10.9091 1.63258 10.8578 1.63258 10.8222C1.63258 10.7867 1.64391 10.7467 1.65071 10.7036C1.67036 10.5759 1.69303 10.4482 1.71645 10.3205C1.76682 10.0576 1.82526 9.79636 1.89175 9.53693C2.02181 9.02416 2.18641 8.52077 2.38442 8.03022C2.40784 7.97204 2.43278 7.91386 2.45998 7.85567C2.47283 7.82469 2.48643 7.79371 2.50003 7.76273C2.4698 7.833 2.50003 7.76273 2.51363 7.73326C2.56804 7.61539 2.62395 7.49751 2.68213 7.38114C2.79699 7.14992 2.92066 6.92324 3.05314 6.70108C3.18387 6.48195 3.32366 6.2666 3.471 6.05729C3.54405 5.95352 3.61961 5.85126 3.69769 5.75051L3.81028 5.60694C3.85637 5.54951 3.77325 5.65228 3.8201 5.59561L3.89188 5.50947C4.21499 5.12436 4.57152 4.76859 4.95731 4.44631C5.06688 4.35488 5.17946 4.26798 5.29281 4.18184C5.32757 4.15464 5.29281 4.18184 5.2845 4.18713L5.32757 4.15539L5.42958 4.08361C5.49758 4.03626 5.56634 3.98941 5.63586 3.94306C5.90033 3.76927 6.17336 3.60807 6.45495 3.45947C6.72849 3.31439 7.00807 3.1814 7.29294 3.05823L7.47958 2.98267L7.54154 2.95773L7.52416 2.96453L7.63221 2.92222C7.77427 2.86681 7.91708 2.81391 8.06065 2.76354C8.56052 2.58912 9.06896 2.44032 9.58398 2.31772C9.98094 2.22251 10.3814 2.14166 10.7854 2.07517C10.9214 2.05325 11.0582 2.0321 11.1957 2.01396L11.2713 2.00338H11.303C11.3748 1.99356 11.2055 2.01547 11.2464 2.01018C11.3506 1.99734 11.4549 1.98449 11.5592 1.97316C12.2617 1.89712 12.9688 1.87187 13.6749 1.89759C13.9389 1.90767 14.2023 1.9253 14.4653 1.95049C14.5703 1.96031 14.6746 1.9724 14.7789 1.98449C14.8431 1.99205 14.8 1.98449 14.7562 1.98449L14.8235 1.99356L14.9451 2.01018C15.4809 2.09051 16.0109 2.20536 16.5319 2.35399C16.8417 2.44215 17.1473 2.54138 17.4485 2.65171L17.657 2.72727L17.7674 2.77034C17.7727 2.77034 17.8248 2.79301 17.7817 2.77638L17.8271 2.79452C17.9548 2.84741 18.0825 2.90182 18.2087 2.95849C18.9445 3.28207 19.6458 3.67928 20.3017 4.14406L20.3614 4.18788L20.3183 4.15615L20.344 4.17504C20.4408 4.2506 20.536 4.32087 20.6297 4.39644C20.8972 4.61053 21.1538 4.83722 21.3996 5.0765C21.6319 5.30016 21.8533 5.53314 22.0638 5.77545C22.1142 5.83237 22.1626 5.88904 22.2089 5.94546L22.2739 6.02102L22.2966 6.04898L22.3185 6.07618C22.4107 6.19255 22.5013 6.31118 22.5882 6.43057C22.9103 6.87135 23.2007 7.33445 23.4572 7.81638C23.5705 8.03047 23.6776 8.24708 23.7783 8.46622L23.8101 8.53573C23.8146 8.54707 23.8199 8.55916 23.8252 8.57049C23.8463 8.61734 23.7957 8.50249 23.8161 8.54933L23.8841 8.7065C23.9249 8.80398 23.965 8.90221 24.0035 9.00044C24.243 9.61733 24.4449 10.2482 24.608 10.8895C24.6632 11.1011 24.7138 11.3126 24.7591 11.5265C24.7841 11.6466 24.8075 11.7675 24.8287 11.8884C24.84 11.9496 24.8498 12.0108 24.8604 12.0728L24.8763 12.1741C24.8763 12.1892 24.88 12.2035 24.8823 12.2186C24.8846 12.2337 24.8936 12.2942 24.8823 12.2428C24.871 12.1914 24.8899 12.3018 24.8921 12.3138L24.9035 12.4053C24.9125 12.4808 24.9208 12.5519 24.9276 12.6252C24.9428 12.7717 24.9548 12.9188 24.9639 13.0664C24.9836 13.3828 24.9888 13.6999 24.9798 14.0178C24.9702 14.3623 24.9433 14.7059 24.8989 15.0484C24.8989 15.0688 24.8936 15.0885 24.8906 15.1081C24.8906 15.0991 24.8974 15.0628 24.8906 15.1081C24.8838 15.1535 24.8763 15.2018 24.8687 15.2487C24.8536 15.3439 24.8377 15.4383 24.8196 15.5328C24.7841 15.7202 24.744 15.9106 24.6979 16.0919C24.6171 16.4214 24.5241 16.7493 24.4229 17.0743C24.3095 17.4377 24.1803 17.7966 24.0322 18.1488L23.971 18.2916C23.9506 18.3377 24.002 18.222 23.9808 18.2681C23.9756 18.2795 23.971 18.2908 23.9657 18.3014C23.9544 18.3278 23.9423 18.3543 23.9302 18.3769C23.8829 18.4777 23.8338 18.5797 23.7829 18.683C23.6756 18.8961 23.5602 19.1049 23.4368 19.3094C23.3068 19.5245 23.1673 19.7348 23.0182 19.9403C22.9812 19.991 22.9426 20.0408 22.9048 20.0915C22.8844 20.1187 22.8633 20.1459 22.8421 20.1723L22.8149 20.2071C22.8096 20.2139 22.7688 20.2652 22.7998 20.2267C22.8308 20.1882 22.7998 20.2267 22.793 20.2343L22.7552 20.2804C22.7363 20.303 22.7167 20.3257 22.6978 20.3491L22.5588 20.5078C22.3711 20.7158 22.1726 20.9138 21.9641 21.101C21.8553 21.1977 21.744 21.2914 21.6301 21.3821C21.5742 21.4266 21.5175 21.4705 21.4608 21.5135C21.452 21.521 21.4427 21.5278 21.4329 21.5339L21.3233 21.6095C20.9955 21.8387 20.6495 22.0409 20.2889 22.214C20.1506 22.2805 20.0108 22.3417 19.8695 22.3999L19.8121 22.4233L19.8468 22.4097L19.8166 22.421C19.7675 22.4407 19.7184 22.4596 19.6655 22.4777C19.5612 22.517 19.4562 22.5533 19.3504 22.5895C18.8312 22.763 18.298 22.8911 17.7568 22.9726L17.6548 22.987C17.5792 22.9983 17.7009 22.9825 17.6223 22.9915C17.5437 23.0006 17.4583 23.0104 17.376 23.018C17.2067 23.0336 17.0369 23.0442 16.8667 23.0497C16.5263 23.0613 16.1856 23.051 15.8466 23.0187L15.7075 23.0044L15.6524 22.9976C15.5579 22.9847 15.4635 22.9704 15.3698 22.9538C15.1831 22.922 14.9988 22.882 14.8159 22.8359C14.5414 22.766 14.271 22.681 14.0059 22.5812L13.9145 22.5457C13.8752 22.5306 13.8442 22.517 13.9046 22.5457L13.7263 22.4702C13.613 22.4198 13.5011 22.3674 13.3908 22.313C13.1737 22.2047 12.9624 22.0871 12.7568 21.9601C12.6561 21.8966 12.5566 21.8314 12.4584 21.7644C12.4108 21.7327 12.3647 21.6994 12.3186 21.6669C12.2936 21.6488 12.268 21.6322 12.243 21.6125C12.3027 21.6609 12.2612 21.6261 12.2287 21.6012C12.0428 21.4606 11.8632 21.3123 11.6899 21.1561C11.3498 20.8503 11.033 20.5194 10.7424 20.1663L10.694 20.1081L10.7167 20.136C10.7051 20.1238 10.6945 20.1106 10.6849 20.0967C10.6487 20.0514 10.6131 20.0053 10.5776 19.9592C10.5089 19.8708 10.4424 19.7809 10.3766 19.6902C10.2467 19.5104 10.1225 19.3273 10.0041 19.1409C9.7744 18.7797 9.56383 18.4087 9.37241 18.0279C9.27871 17.842 9.18879 17.6553 9.10341 17.4664C9.09283 17.4422 9.08225 17.4181 9.07092 17.3909C9.03994 17.3221 9.08376 17.4203 9.07092 17.3984C9.04976 17.3501 9.0286 17.3025 9.0082 17.2549C8.96966 17.1634 8.93264 17.072 8.8941 16.9798C8.75356 16.6332 8.6251 16.2821 8.50873 15.9265C8.32218 15.3592 8.1643 14.783 8.03571 14.1999C7.9934 14.0102 7.95486 13.8221 7.91935 13.6279C7.90726 13.5636 7.89592 13.4994 7.88459 13.4359C7.87174 13.3604 7.8589 13.2848 7.84681 13.2093C7.83774 13.1533 7.82943 13.0974 7.82112 13.0415C7.81734 13.0151 7.81205 12.9886 7.80978 12.9622C7.8181 13.0506 7.80978 12.9675 7.80525 12.9297C7.66765 11.9031 7.62616 10.8659 7.68133 9.83162C7.69493 9.5664 7.71684 9.30269 7.74556 9.03747C7.75311 8.97475 7.75991 8.91203 7.76822 8.84856C7.772 8.81531 7.77654 8.78131 7.78107 8.74806C7.78107 8.73371 7.7856 8.71935 7.78712 8.70499C7.78712 8.73219 7.77805 8.76544 7.78712 8.71859C7.80601 8.59089 7.82565 8.46319 7.84908 8.33625C7.93331 7.85039 8.05972 7.37279 8.22689 6.90888C8.26694 6.80007 8.31076 6.69353 8.3561 6.58698C8.32663 6.64894 8.38406 6.52049 8.3561 6.58698C8.36894 6.56054 8.38103 6.53334 8.39312 6.50689C8.41806 6.45475 8.44375 6.40337 8.46869 6.35199C8.5664 6.16126 8.6783 5.97813 8.80343 5.80416C8.8329 5.76336 8.86312 5.72406 8.89335 5.68477C8.93566 5.63037 8.84423 5.7422 8.88957 5.69006C8.90921 5.66739 8.9281 5.64397 8.94775 5.62205C9.01384 5.54678 9.0837 5.47491 9.15706 5.4067C9.19182 5.37421 9.22733 5.34247 9.26436 5.31225C9.28174 5.29714 9.38223 5.23669 9.38375 5.21704C9.38375 5.23744 9.30818 5.26767 9.37392 5.22535L9.43664 5.18304C9.47895 5.15533 9.52202 5.13014 9.56585 5.10748C9.65373 5.05863 9.74401 5.01424 9.83636 4.97449C9.77364 5.00244 9.82125 4.98053 9.85525 4.96844L9.95726 4.93368C10.0275 4.91177 10.0986 4.89212 10.1711 4.87474C10.2436 4.85737 10.3079 4.84528 10.3774 4.83394C10.4099 4.82865 10.4734 4.82034 10.4023 4.82865C10.4461 4.82336 10.49 4.81883 10.5346 4.81581C10.6796 4.80385 10.8253 4.80208 10.9706 4.81052C11.0098 4.81052 11.0491 4.81354 11.0884 4.81958L11.1391 4.82487C11.1338 4.82487 11.0718 4.81505 11.1179 4.82487C11.2018 4.83847 11.2849 4.85208 11.3673 4.87172C11.433 4.88683 11.498 4.90497 11.5622 4.92537C11.6 4.93746 11.637 4.95031 11.6733 4.96391L11.7209 4.98129C11.6854 4.96693 11.6861 4.96769 11.7209 4.98129C11.7866 5.01151 11.8524 5.04325 11.9151 5.07876C11.9491 5.09841 11.9831 5.11805 12.0156 5.13921L12.0579 5.16717C12.0639 5.16717 12.1206 5.21175 12.0866 5.18606C12.0526 5.16037 12.1327 5.22384 12.1448 5.23366C12.1569 5.24349 12.1894 5.27145 12.2105 5.29109C12.2603 5.33647 12.3077 5.38439 12.3526 5.43466C12.3654 5.44826 12.4281 5.52005 12.3972 5.48453C12.3662 5.44902 12.4198 5.51476 12.4281 5.52609C12.4682 5.57974 12.5037 5.63566 12.5407 5.69308C12.5778 5.75051 12.6042 5.80114 12.6329 5.8563C12.6488 5.88652 12.6609 5.91826 12.6775 5.94773C12.6941 5.9772 12.6684 5.92657 12.6677 5.92355C12.6745 5.94093 12.6828 5.95906 12.6896 5.97644C12.7386 6.09653 12.7787 6.22002 12.8097 6.34594C12.8238 6.40639 12.8367 6.46684 12.8483 6.52729C12.8483 6.54165 12.852 6.556 12.8551 6.5696C12.8664 6.62325 12.8475 6.49933 12.8551 6.55374C12.8551 6.58623 12.8634 6.61948 12.8664 6.65197C12.8777 6.77632 12.88 6.90132 12.8732 7.026C12.8767 7.0849 12.8713 7.14398 12.8573 7.2013C12.8573 7.2013 12.8709 7.12574 12.8619 7.1673C12.8581 7.18468 12.8558 7.20206 12.8528 7.21944C12.8468 7.24966 12.8407 7.27913 12.8339 7.30936C12.8211 7.36376 12.8067 7.41817 12.7893 7.47106C12.7803 7.49977 12.7704 7.52773 12.7599 7.55494L12.7463 7.59045C12.7402 7.60707 12.7123 7.64334 12.7417 7.60329C12.7712 7.56325 12.7259 7.63276 12.7183 7.64712C12.7107 7.66148 12.6956 7.69019 12.6828 7.71135C12.6548 7.76047 12.6223 7.8058 12.5898 7.8519C12.5574 7.89799 12.639 7.80051 12.5898 7.8519C12.5657 7.87608 12.5438 7.90177 12.5188 7.92746C12.4939 7.95315 12.4697 7.97128 12.4433 7.99395C12.4365 8 12.4002 8.03249 12.4387 7.99849C12.4773 7.96448 12.4312 8.00378 12.4213 8.00982C12.3714 8.04281 12.3197 8.07308 12.2664 8.10049L12.1909 8.13525C12.1244 8.16623 12.203 8.13525 12.2083 8.12845C12.1919 8.13745 12.1743 8.14407 12.1561 8.1481C11.9117 8.22474 11.6604 8.27738 11.4058 8.30527C10.8769 8.38083 10.32 8.45639 9.9293 8.8342C9.61345 9.14174 9.50313 9.53844 9.53789 9.95932C9.59079 10.6152 9.76458 11.2696 9.92024 11.9088C10.1864 13.0198 10.5125 14.1156 10.8973 15.1912C11.0484 15.622 11.2154 16.0496 11.3831 16.4758C11.5698 16.9488 11.7572 17.4271 11.9876 17.8813C12.0964 18.0943 12.2249 18.3256 12.4168 18.482C12.5359 18.5785 12.6732 18.6501 12.8206 18.6923C12.9679 18.7344 13.1223 18.7465 13.2744 18.7276C13.7981 18.6724 14.2311 18.383 14.6731 18.1329C14.7796 18.0732 14.8877 18.0143 14.998 17.9621L15.0842 17.9228C15.0962 17.9175 15.1091 17.913 15.1212 17.907C15.162 17.8881 15.0887 17.9206 15.0894 17.9198C15.1443 17.89 15.2038 17.8698 15.2655 17.8601C15.3199 17.8442 15.3758 17.8306 15.4317 17.8201L15.4703 17.8133C15.5458 17.7997 15.4446 17.8193 15.4438 17.8133L15.536 17.8072C15.5526 17.8072 15.7038 17.7966 15.7106 17.8125C15.7106 17.8125 15.6282 17.7974 15.6735 17.8072L15.7279 17.817C15.7612 17.8231 15.7929 17.8306 15.8254 17.8397C15.8579 17.8488 15.901 17.8624 15.9335 17.8745L15.9229 17.8707L15.9705 17.8934C16.006 17.9115 16.04 17.9304 16.074 17.9515C16.0876 17.9606 16.1012 17.9704 16.1156 17.9787C16.0733 17.9425 16.1647 18.0075 16.1156 17.9787C16.2338 18.0789 16.3468 18.185 16.4541 18.2969C16.5004 18.3447 16.545 18.3951 16.5878 18.448L16.6181 18.4842C16.572 18.4246 16.609 18.4729 16.6181 18.4842C16.6407 18.5137 16.6634 18.5432 16.6846 18.5734C16.7701 18.6922 16.8478 18.8164 16.9173 18.9452C16.9513 19.0079 16.9815 19.0721 17.0125 19.1364C17.0314 19.1756 17.008 19.1258 17.0057 19.1212L17.0306 19.1809C17.0452 19.2167 17.0588 19.2522 17.0714 19.2875C17.1205 19.4222 17.1584 19.5607 17.1848 19.7016C17.1916 19.734 17.1984 19.7915 17.1901 19.7235C17.1946 19.759 17.1984 19.7937 17.2014 19.8293C17.2067 19.8989 17.2082 19.9688 17.2059 20.0386C17.2059 20.068 17.2022 20.0967 17.1999 20.1262C17.1999 20.1391 17.1923 20.2018 17.1999 20.1481C17.2075 20.0945 17.1999 20.1481 17.1999 20.1549C17.188 20.2202 17.1716 20.2846 17.1508 20.3476C17.1417 20.3741 17.1311 20.3997 17.1213 20.4232C17.153 20.3363 17.1175 20.4232 17.1062 20.4481C17.0758 20.5026 17.0412 20.5547 17.0027 20.6038C17.0435 20.5516 17.008 20.5947 16.9853 20.6181C16.9626 20.6415 16.9354 20.665 16.9097 20.6884C16.8992 20.6982 16.8863 20.7065 16.8757 20.7164C16.8757 20.7164 16.9332 20.6801 16.8961 20.7012C16.8591 20.7224 16.8387 20.7405 16.8092 20.7579C16.7521 20.7918 16.6931 20.8223 16.6324 20.8493L16.5894 20.8682C16.5894 20.8682 16.6521 20.8448 16.609 20.8599C16.5659 20.875 16.5372 20.8871 16.5009 20.8992C16.3559 20.9491 16.2078 20.9906 16.0589 21.0307C15.8889 21.0768 15.7189 21.1191 15.5451 21.1493C15.4975 21.1576 15.4506 21.1644 15.403 21.1712C15.4627 21.1629 15.3675 21.175 15.3501 21.1765C15.2693 21.1856 15.1877 21.1916 15.1061 21.1954C14.8397 21.2079 14.5728 21.198 14.3081 21.1659C14.1026 21.1418 13.9054 21.3564 13.9137 21.5438C13.9243 21.7704 14.0882 21.8936 14.3081 21.9216L14.3021 21.9186Z" fill="#12141D"/>
</g>
<defs>
<clipPath id="clip0_7_85">
<rect width="26" height="24" fill="white"/>
</clipPath>
</defs>
</svg>
