<svg width="16" height="20" viewBox="0 0 16 20" fill="none" xmlns="http://www.w3.org/2000/svg">
<path d="M1.60001 2.95652C1.60001 2.69514 1.68429 2.44448 1.83432 2.25966C1.98435 2.07484 2.18783 1.97101 2.40001 1.97101H4.12241C4.31177 1.97112 4.49497 2.05397 4.6394 2.20483C4.78384 2.35569 4.88015 2.56478 4.91121 2.79489L5.50321 7.16562C5.53149 7.37377 5.50479 7.58762 5.42702 7.77568C5.34925 7.96373 5.22452 8.11607 5.07121 8.21025L3.83281 8.97205C4.27689 10.3278 4.93827 11.5593 5.77743 12.593C6.61658 13.6268 7.61628 14.4415 8.7168 14.9886L9.33601 13.463C9.41242 13.2743 9.53595 13.1208 9.68845 13.025C9.84094 12.9292 10.0144 12.8962 10.1832 12.9308L13.7312 13.6601C13.918 13.6984 14.0877 13.817 14.2102 13.9949C14.3327 14.1729 14.3999 14.3985 14.4 14.6318V16.7536C14.4 17.015 14.3157 17.2657 14.1657 17.4505C14.0157 17.6353 13.8122 17.7391 13.6 17.7391H12C6.25601 17.7391 1.60001 12.0035 1.60001 4.92753V2.95652Z" fill="#0961F7"/>
</svg>
