<svg width="19" height="18" viewBox="0 0 19 18" fill="none" xmlns="http://www.w3.org/2000/svg">
<g clip-path="url(#clip0_9_420)">
<path d="M14.5407 2.43357C12.2812 0.55989 9.4807 0.365153 7.70854 0.623047C6.954 0.741109 6.21721 0.953289 5.51542 1.25463C4.847 1.53831 2.85227 2.3862 1.6207 4.38251C0.0764883 6.88514 0.746486 9.50884 0.940697 10.1719C1.90491 13.4651 4.80911 14.904 5.35226 15.1604C8.67701 16.7288 11.8102 15.6272 12.3217 15.4383C13.4833 14.9864 14.5278 14.278 15.3775 13.3662C15.7959 12.9135 16.7506 11.7762 17.1669 10.1625C17.8375 7.56933 16.9427 4.42619 14.5407 2.43357Z" fill="#88CCFF"/>
<path d="M10.9833 12.4669C10.8676 12.4517 10.753 12.4291 10.6402 12.399C10.5639 12.3791 10.4886 12.3554 10.4144 12.3291L10.3539 12.3064C10.2849 12.2801 10.4065 12.3301 10.337 12.299C10.287 12.2759 10.237 12.2543 10.1876 12.2296C9.90943 12.0916 9.66313 11.8971 9.46438 11.6585L9.42966 11.6169C9.47652 11.6722 9.43391 11.6222 9.42547 11.6112C9.40127 11.5796 9.37756 11.5469 9.35441 11.5143C9.30051 11.4361 9.25232 11.3541 9.2102 11.269C9.20706 11.2632 9.17492 11.1938 9.19863 11.2475C9.18914 11.2259 9.18022 11.2038 9.17178 11.1817C9.154 11.1363 9.13852 11.0902 9.12548 11.0432C9.11181 10.9964 9.10072 10.949 9.09179 10.9017C9.09179 10.8891 9.08071 10.8206 9.08914 10.8906C9.08601 10.8637 9.08287 10.838 9.08071 10.8096C9.07443 10.7281 9.07443 10.6463 9.08071 10.5649C9.08071 10.5443 9.08496 10.5238 9.08649 10.5032C9.09228 10.4338 9.07548 10.5601 9.08649 10.4912C9.09493 10.4432 9.10386 10.3953 9.1155 10.348C9.13594 10.265 9.16174 10.1834 9.19284 10.1038C9.20072 10.0833 9.20916 10.0633 9.21759 10.0433C9.1934 10.1017 9.22178 10.0343 9.22596 10.0259C9.24807 9.97902 9.27234 9.93272 9.29758 9.88746C9.35016 9.79423 9.40846 9.70441 9.47233 9.6185C9.48649 9.5996 9.50127 9.58112 9.5155 9.56271C9.52965 9.5443 9.53495 9.53796 9.5155 9.56271C9.52547 9.55009 9.536 9.53803 9.54653 9.52589C9.58286 9.48328 9.62129 9.44165 9.6602 9.40114C9.74102 9.31802 9.82637 9.23942 9.91598 9.16585L9.97547 9.11802C9.98286 9.11223 10.0623 9.05323 10.0228 9.08169C10.0723 9.0464 10.1228 9.01223 10.1739 8.97639L9.84123 8.56482C9.76759 8.63504 9.69179 8.7031 9.61389 8.76907C9.5609 8.81328 9.5072 8.85644 9.45281 8.89849L9.41076 8.93064C9.37282 8.95644 9.37917 8.95428 9.41076 8.93064C9.37387 8.95533 9.33914 8.98329 9.30546 9.00749C9.15093 9.11523 8.99047 9.21432 8.82492 9.30428C8.73197 9.35553 8.63685 9.40379 8.53971 9.44905C8.49229 9.47115 8.44445 9.4927 8.39599 9.51376L8.32179 9.54535L8.30073 9.55379L8.26809 9.56641C8.03295 9.65706 7.79139 9.73021 7.54547 9.78537C7.41653 9.81431 7.286 9.83802 7.15495 9.85692C7.11232 9.86327 7.04706 9.87115 6.97495 9.87798C6.90285 9.88481 6.82811 9.8906 6.75442 9.8943C6.48167 9.90887 6.20818 9.90183 5.93653 9.87324L5.84864 9.86327C5.90759 9.8701 5.81075 9.85797 5.796 9.85643C5.73706 9.84744 5.67759 9.83802 5.61864 9.82749C5.50811 9.80748 5.39759 9.78433 5.28864 9.75692C5.0832 9.70643 4.88092 9.64388 4.68285 9.56955L4.62391 9.54695C4.55443 9.5201 4.66706 9.5648 4.61338 9.5427C4.57759 9.52798 4.5418 9.51327 4.50812 9.49744C4.45075 9.47276 4.3939 9.44486 4.33811 9.41955V9.87219C4.90829 9.62659 5.48092 9.38677 6.05601 9.15275C6.34916 9.03322 6.6018 8.93169 6.90653 8.81168C7.21127 8.69166 7.50969 8.5743 7.81287 8.45798C9.04793 7.98323 10.2935 7.53359 11.5496 7.10905C12.2297 6.87887 12.9127 6.65642 13.5986 6.44168L13.2507 6.18853C13.2157 6.86712 13.1521 7.54328 13.0602 8.21691C13.0602 8.23379 13.0555 8.25059 13.0533 8.26691C13.0597 8.22012 13.0533 8.26329 13.0533 8.27165C13.0475 8.30854 13.0423 8.34536 13.037 8.38218C13.0281 8.44271 13.0192 8.50324 13.0097 8.56377C13.0012 8.61642 12.9928 8.66907 12.9839 8.72165C12.9611 8.85463 12.9365 8.98748 12.9102 9.12011C12.7081 10.1538 12.4834 11.1843 12.2544 12.2132C12.1802 12.548 12.0765 12.8896 12.0439 13.2316C12.0377 13.3956 12.0517 13.5596 12.0855 13.7201C12.2076 14.4927 12.3971 15.2574 12.5823 16.018C12.624 16.1885 12.666 16.359 12.7081 16.5296C12.7397 16.6553 12.9118 16.7653 13.046 16.7127C13.8014 16.4176 14.5129 16.0202 15.1602 15.5317C15.8131 15.0367 16.389 14.4477 16.8691 13.7838C17.4259 13.0265 17.8364 12.1721 18.0796 11.2643C18.2943 10.4288 18.359 9.56188 18.2707 8.7038C18.1781 7.79753 17.9353 6.91297 17.5523 6.08642C16.7201 4.29223 15.2614 2.86365 13.4502 2.06907C12.5784 1.68992 11.6536 1.4464 10.7081 1.34696C9.92017 1.26143 9.12464 1.2738 8.33971 1.3838C7.53446 1.50469 6.74872 1.73139 6.00285 2.05801C5.48955 2.27238 4.99428 2.52759 4.5218 2.82117C3.76583 3.29176 3.09289 3.88413 2.53023 4.57432C1.86372 5.40122 1.40027 6.37281 1.17707 7.41116C0.894195 8.78755 0.978049 10.2142 1.42023 11.548C1.67911 12.3019 2.05899 13.0087 2.54496 13.6406C2.992 14.2198 3.5099 14.7408 4.08653 15.1912C4.606 15.5967 5.16045 15.9553 5.74338 16.2627C6.21858 16.5123 6.70902 16.7317 7.21179 16.9195C7.51021 17.0317 7.81336 17.1337 8.12179 17.218C8.17444 17.2333 8.23232 17.248 8.28867 17.2606C8.42758 17.2927 8.59285 17.219 8.62597 17.078C8.6349 17.0442 8.63699 17.009 8.63218 16.9744C8.6273 16.9398 8.61565 16.9066 8.5978 16.8765C8.57995 16.8465 8.55638 16.8203 8.52827 16.7995C8.50024 16.7787 8.4683 16.7637 8.43441 16.7554C8.25282 16.7137 8.07388 16.659 7.89704 16.6022C7.72019 16.5453 7.54653 16.4848 7.37337 16.4201L7.21916 16.3611L7.14232 16.3306L7.10863 16.3174C7.19705 16.3511 7.13811 16.329 7.11758 16.3206C7.0025 16.2739 6.88811 16.2255 6.77442 16.1753C6.24999 15.9441 5.74336 15.6744 5.25864 15.3685C5.12075 15.2818 4.98548 15.192 4.85285 15.099L4.7618 15.0348C4.74075 15.0195 4.66443 14.9822 4.65653 14.9585C4.65653 14.9611 4.70917 14.998 4.67022 14.9685L4.64917 14.9532L4.60075 14.9164C4.56548 14.8901 4.53075 14.8638 4.49548 14.8364C4.22563 14.6267 3.96785 14.402 3.72338 14.1632C3.59742 14.0394 3.47461 13.9122 3.35496 13.7816C3.29391 13.7136 3.23426 13.6448 3.17602 13.5754L3.13338 13.5227L3.11549 13.5006C3.0918 13.4727 3.14549 13.5385 3.12233 13.5095C3.09286 13.4722 3.06286 13.4348 3.03391 13.3975C2.80631 13.1042 2.60134 12.7939 2.42075 12.4696C2.32707 12.3012 2.24181 12.1291 2.16128 11.9548C2.15707 11.9453 2.15338 11.9359 2.14865 11.9264C2.17286 11.9791 2.15654 11.9438 2.15181 11.9327L2.12286 11.8664C2.10286 11.8185 2.08286 11.7706 2.06391 11.7222C2.02883 11.6313 1.99374 11.5395 1.95865 11.4469C1.88128 11.2254 1.81497 11.0001 1.76023 10.7727C1.73128 10.6522 1.7076 10.5306 1.68286 10.4091C1.6697 10.3391 1.65707 10.2685 1.64602 10.1985C1.6397 10.1606 1.63391 10.1232 1.62865 10.0854C1.62745 10.0742 1.62569 10.0631 1.62338 10.0522C1.62338 10.0522 1.63128 10.1096 1.6276 10.0796C1.62391 10.0496 1.62128 10.0343 1.61865 10.0112C1.57071 9.63963 1.54925 9.26516 1.55444 8.89061C1.5576 8.67235 1.57023 8.45415 1.59233 8.23588C1.5976 8.18323 1.60338 8.13428 1.6097 8.08323L1.62076 8.00011C1.61444 8.04007 1.62602 7.95855 1.62076 8.00011C1.62076 7.98379 1.62549 7.96796 1.62813 7.9522C1.64602 7.83428 1.66707 7.71692 1.69128 7.60011C1.74079 7.35981 1.80351 7.12243 1.87918 6.88905C1.91918 6.76537 1.96286 6.64221 2.01023 6.52063C2.03233 6.46484 2.05496 6.40958 2.07812 6.35431C2.10496 6.29063 2.11181 6.27537 2.14707 6.19958C2.36603 5.73189 2.63913 5.29151 2.96075 4.88748C2.97128 4.87432 2.98128 4.86117 2.99181 4.84853L2.98759 4.8538L3.04286 4.78748C3.0818 4.74116 3.1218 4.69485 3.16233 4.64959C3.23882 4.56327 3.31742 4.47888 3.39812 4.39643C3.5497 4.23853 3.70917 4.09221 3.8718 3.95011C3.95215 3.88169 4.03391 3.8145 4.11706 3.74854C4.15338 3.71959 4.18969 3.69169 4.22654 3.66327L4.28549 3.61906L4.31917 3.5938C4.30233 3.60643 4.28917 3.6159 4.3139 3.59801C4.46706 3.48696 4.62338 3.38012 4.78338 3.27906C5.05891 3.10539 5.34334 2.94622 5.63548 2.80222C6.26007 2.48839 6.91644 2.24226 7.59337 2.06801C7.87082 1.99596 8.15192 1.93887 8.43546 1.89696C8.47235 1.8917 8.50965 1.88907 8.54598 1.8817C8.46544 1.89749 8.53071 1.8817 8.55073 1.8817L8.62123 1.8738C8.7086 1.8638 8.79598 1.85538 8.8844 1.84802C9.06655 1.83275 9.24918 1.82327 9.43126 1.81907C9.83363 1.80974 10.2362 1.82574 10.6365 1.86696C10.6844 1.8717 10.7323 1.87696 10.7797 1.88275L10.857 1.8917C10.7955 1.88433 10.8744 1.8917 10.8949 1.89749C11.0037 1.91222 11.1121 1.92977 11.2202 1.95012C11.4388 1.98836 11.6554 2.03433 11.8702 2.08801C12.0918 2.1438 12.3118 2.20749 12.5281 2.28012C12.6407 2.31801 12.7528 2.35854 12.8634 2.40065L12.9444 2.43222L12.9791 2.4459C12.9686 2.4417 12.9334 2.42749 12.9828 2.4459C13.0323 2.46433 13.0907 2.49064 13.1444 2.5138C13.6006 2.71235 14.0374 2.95286 14.4491 3.23222C14.4976 3.26485 14.5454 3.29854 14.5928 3.33222L14.6697 3.38748L14.6797 3.39485L14.7233 3.42801C14.8286 3.50748 14.9307 3.58906 15.0307 3.6738C15.21 3.82362 15.3817 3.98152 15.546 4.14748C15.7081 4.31011 15.8618 4.48011 16.0096 4.65537L16.0623 4.72011C16.0817 4.7438 16.0623 4.71695 16.0571 4.71327C16.067 4.7259 16.0765 4.73853 16.0865 4.75064C16.1239 4.79748 16.1602 4.84432 16.196 4.89169C16.2654 4.98327 16.3323 5.0759 16.3976 5.17011C16.6519 5.53441 16.8751 5.91945 17.0649 6.32116L17.0986 6.39431C17.1039 6.40642 17.1344 6.47642 17.1128 6.42642C17.1344 6.4759 17.1554 6.52484 17.176 6.57432C17.2184 6.67712 17.2586 6.78028 17.2965 6.88379C17.3706 7.08695 17.4363 7.29256 17.4939 7.50063C17.5514 7.70869 17.5995 7.91678 17.6381 8.12486C17.6581 8.23009 17.675 8.33539 17.6907 8.44432C17.6823 8.39167 17.6907 8.45429 17.6944 8.47381C17.6981 8.49327 17.7012 8.52639 17.7044 8.55115C17.7102 8.6038 17.716 8.65645 17.7213 8.70533C17.7637 9.12367 17.7703 9.54486 17.7412 9.96431C17.7339 10.0695 17.724 10.1738 17.7118 10.2769C17.7065 10.3232 17.7002 10.3695 17.6944 10.4159C17.6886 10.4622 17.7012 10.3711 17.6944 10.4101L17.6897 10.4422C17.6854 10.4707 17.6812 10.499 17.6765 10.5269C17.6432 10.7283 17.6009 10.9282 17.5496 11.1264C17.4851 11.3735 17.4066 11.6167 17.3144 11.8548C17.2928 11.9111 17.2707 11.9669 17.2476 12.0227L17.2128 12.1043L17.1976 12.139L17.1897 12.157C17.1412 12.2622 17.0897 12.3711 17.036 12.4764C16.8491 12.8407 16.6342 13.19 16.3934 13.5212C16.3418 13.5913 16.2891 13.6615 16.2354 13.7316L16.1676 13.8175C16.1612 13.8258 16.1534 13.8343 16.1476 13.8427L16.1649 13.8212L16.1259 13.869C16.0456 13.9666 15.9626 14.0622 15.877 14.1559C15.5407 14.5253 15.1707 14.8625 14.7718 15.1632C14.7617 15.1706 14.6991 15.2158 14.735 15.1912L14.6739 15.2354C14.6212 15.2716 14.5728 15.3069 14.5218 15.3406C14.427 15.4059 14.3313 15.4685 14.2339 15.5296C14.0585 15.6386 13.8802 15.7412 13.6991 15.8369C13.5479 15.9162 13.3947 15.9912 13.2397 16.0617C13.1695 16.0929 13.1005 16.1229 13.0328 16.1517L12.9444 16.1885C12.886 16.2122 12.9934 16.169 12.9518 16.1854L12.9018 16.2053L13.2397 16.3879C13.0192 15.5038 12.796 14.6159 12.6402 13.7185C12.6318 13.6717 12.6239 13.6254 12.6165 13.5785C12.6139 13.559 12.6107 13.5396 12.6076 13.5201C12.6076 13.5117 12.6076 13.5027 12.6039 13.4943C12.5965 13.4443 12.6144 13.5712 12.6091 13.5316C12.6039 13.4922 12.5971 13.4422 12.5934 13.3969C12.5904 13.3559 12.5904 13.3148 12.5934 13.2738C12.5934 13.2311 12.6155 13.1159 12.5934 13.2422C12.6018 13.1964 12.6091 13.1506 12.6186 13.1053C12.6576 12.9169 12.7018 12.7295 12.7434 12.5422C12.97 11.5275 13.1874 10.5099 13.3954 9.48956C13.578 8.57625 13.7028 7.65228 13.7691 6.72326C13.7825 6.54432 13.7937 6.36537 13.8028 6.18642C13.8113 6.02169 13.6196 5.88221 13.4549 5.93379C12.2104 6.32467 10.9744 6.73993 9.74702 7.17958C8.49368 7.62871 7.25109 8.10241 6.01916 8.60066C5.36408 8.86516 4.71215 9.13713 4.06338 9.41641C3.87759 9.49591 3.8897 9.78481 4.06338 9.86905C4.83534 10.2417 5.68249 10.4324 6.53969 10.4264C7.58054 10.4152 8.59668 10.1078 9.46913 9.54012C9.74241 9.36244 9.9989 9.16014 10.2354 8.93587C10.2817 8.8918 10.3095 8.8319 10.3134 8.76816C10.3173 8.70442 10.297 8.64159 10.2565 8.59222C10.2148 8.54111 10.1565 8.50638 10.0917 8.49397C10.027 8.48155 9.95991 8.49229 9.90231 8.5243C9.15337 9.00533 8.53866 9.77694 8.52702 10.667C8.51656 11.4538 9.05337 12.1632 9.72491 12.5779C10.0643 12.7854 10.4433 12.9197 10.8376 12.9722C10.9791 12.9906 11.1391 12.9396 11.1755 12.789C11.2049 12.6659 11.1355 12.4869 10.9833 12.4669Z" fill="#010101"/>
</g>
<defs>
<clipPath id="clip0_9_420">
<rect width="18.1309" height="16.7362" fill="white" transform="translate(0.628784 0.531616)"/>
</clipPath>
</defs>
</svg>
