<svg width="26" height="24" viewBox="0 0 26 24" fill="none" xmlns="http://www.w3.org/2000/svg">
<g clip-path="url(#clip0_7_80)">
<path d="M19.9499 2.72743C16.7098 0.0405445 12.6938 -0.238711 10.1525 0.131113C9.07047 0.300416 8.0139 0.604686 7.00752 1.03681C6.049 1.44361 3.18852 2.65951 1.42242 5.52225C-0.792002 9.11106 0.168787 12.8735 0.447288 13.8244C1.82998 18.5469 5.99466 20.6103 6.77355 20.9779C11.5413 23.227 16.0343 21.6474 16.7679 21.3764C18.4336 20.7284 19.9315 19.7126 21.1499 18.405C21.7499 17.7559 23.119 16.1249 23.716 13.8108C24.6776 10.0922 23.3945 5.58489 19.9499 2.72743Z" fill="#88CCFF"/>
<path d="M14.8485 17.1155C14.6826 17.0937 14.5182 17.0612 14.3564 17.0181C14.247 16.9895 14.1391 16.9555 14.0327 16.9178L13.9459 16.8853C13.847 16.8476 14.0213 16.9193 13.9217 16.8747C13.85 16.8415 13.7783 16.8106 13.7074 16.7751C13.3085 16.5772 12.9553 16.2983 12.6703 15.9562L12.6205 15.8966C12.6877 15.9758 12.6266 15.9041 12.6145 15.8883C12.5798 15.843 12.5458 15.7962 12.5126 15.7494C12.4353 15.6373 12.3662 15.5197 12.3058 15.3977C12.3013 15.3894 12.2552 15.2898 12.2892 15.3668C12.2756 15.3358 12.2628 15.3041 12.2507 15.2724C12.2252 15.2074 12.203 15.1412 12.1843 15.0739C12.1647 15.0067 12.1488 14.9388 12.136 14.8709C12.136 14.8528 12.1201 14.7547 12.1322 14.855C12.1277 14.8165 12.1232 14.7796 12.1201 14.7388C12.1111 14.622 12.1111 14.5047 12.1201 14.3879C12.1201 14.3584 12.1262 14.329 12.1284 14.2995C12.1367 14.1999 12.1126 14.3811 12.1284 14.2822C12.1405 14.2135 12.1533 14.1448 12.17 14.0769C12.1993 13.9579 12.2363 13.8409 12.2809 13.7267C12.2922 13.6973 12.3043 13.6686 12.3164 13.6399C12.2817 13.7237 12.3224 13.6271 12.3284 13.615C12.3601 13.5478 12.3949 13.4814 12.4311 13.4165C12.5065 13.2828 12.5901 13.154 12.6817 13.0308C12.702 13.0037 12.7232 12.9772 12.7436 12.9508C12.7639 12.9244 12.7715 12.9153 12.7436 12.9508C12.7579 12.9327 12.773 12.9154 12.7881 12.898C12.8402 12.8369 12.8953 12.7772 12.9511 12.7191C13.067 12.5999 13.1894 12.4872 13.3179 12.3817L13.4032 12.3131C13.4138 12.3048 13.5277 12.2202 13.4711 12.261C13.5421 12.2104 13.6145 12.1614 13.6877 12.11L13.2107 11.5198C13.1051 11.6205 12.9964 11.7181 12.8847 11.8127C12.8087 11.8761 12.7317 11.938 12.6537 11.9983L12.5934 12.0444C12.539 12.0814 12.5481 12.0783 12.5934 12.0444C12.5405 12.0798 12.4907 12.1199 12.4424 12.1546C12.2208 12.3091 11.9907 12.4512 11.7533 12.5802C11.62 12.6537 11.4836 12.7229 11.3443 12.7878C11.2763 12.8195 11.2077 12.8504 11.1382 12.8806L11.0318 12.9259L11.0016 12.938L10.9548 12.9561C10.6176 13.0861 10.2712 13.191 9.91855 13.2701C9.73364 13.3116 9.54646 13.3456 9.35853 13.3727C9.2974 13.3818 9.20381 13.3931 9.10041 13.4029C8.99701 13.4127 8.88984 13.421 8.78417 13.4263C8.39303 13.4472 8.00085 13.4371 7.6113 13.3961L7.48526 13.3818C7.56979 13.3916 7.43092 13.3742 7.40978 13.372C7.32525 13.3591 7.23997 13.3456 7.15543 13.3305C6.99694 13.3018 6.83844 13.2686 6.68221 13.2293C6.3876 13.1569 6.09753 13.0672 5.8135 12.9606L5.72897 12.9282C5.62934 12.8897 5.79086 12.9538 5.71387 12.9221C5.66255 12.901 5.61123 12.8799 5.56293 12.8572C5.48066 12.8218 5.39914 12.7818 5.31914 12.7455V13.3946C6.13678 13.0424 6.95794 12.6985 7.78263 12.3629C8.20302 12.1915 8.5653 12.0459 9.00229 11.8738C9.43929 11.7017 9.86723 11.5334 10.302 11.3666C12.0731 10.6858 13.8593 10.041 15.6606 9.43221C16.6358 9.10213 17.6152 8.78313 18.5989 8.47519L18.1 8.11216C18.0497 9.08528 17.9586 10.0549 17.8268 11.0209C17.8268 11.0451 17.82 11.0692 17.8169 11.0926C17.826 11.0255 17.8169 11.0874 17.8169 11.0994C17.8086 11.1523 17.8011 11.2051 17.7935 11.2579C17.7807 11.3447 17.7679 11.4315 17.7543 11.5183C17.7422 11.5938 17.7301 11.6693 17.7173 11.7447C17.6846 11.9354 17.6494 12.1259 17.6117 12.3161C17.3218 13.7984 16.9996 15.2762 16.6712 16.7517C16.5648 17.2317 16.4161 17.7216 16.3693 18.2121C16.3605 18.4472 16.3806 18.6824 16.429 18.9125C16.6041 20.0205 16.8758 21.1171 17.1414 22.2078C17.2013 22.4523 17.2615 22.6968 17.3218 22.9414C17.3671 23.1217 17.6139 23.2795 17.8064 23.204C18.8897 22.7809 19.9099 22.211 20.8382 21.5104C21.7745 20.8006 22.6003 19.9559 23.2888 19.0039C24.0872 17.918 24.6759 16.6927 25.0247 15.3909C25.3326 14.1928 25.4254 12.9496 25.2987 11.7191C25.1659 10.4195 24.8177 9.15103 24.2685 7.96574C23.0751 5.39283 20.9833 3.34423 18.386 2.20478C17.1358 1.66108 15.8097 1.31187 14.4538 1.16927C13.3239 1.04661 12.1831 1.06435 11.0575 1.2221C9.90275 1.39546 8.77599 1.72055 7.7064 2.18893C6.97032 2.49634 6.2601 2.86231 5.58255 3.28331C4.49847 3.95814 3.53346 4.80762 2.7266 5.79736C1.77081 6.98314 1.10622 8.37642 0.786151 9.86543C0.3805 11.8392 0.500748 13.885 1.13484 15.7977C1.50608 16.8789 2.05084 17.8924 2.74773 18.7986C3.38879 19.6292 4.13146 20.3762 4.95837 21.0221C5.70329 21.6036 6.49839 22.1179 7.33431 22.5587C8.01576 22.9166 8.71906 23.2312 9.44004 23.5006C9.86798 23.6614 10.3027 23.8078 10.745 23.9286C10.8205 23.9505 10.9035 23.9716 10.9843 23.9897C11.1835 24.0357 11.4205 23.9301 11.468 23.7278C11.4808 23.6794 11.4838 23.6289 11.4769 23.5793C11.4699 23.5297 11.4532 23.482 11.4276 23.4389C11.402 23.3959 11.3682 23.3583 11.3279 23.3285C11.2877 23.2986 11.2419 23.2771 11.1933 23.2652C10.9329 23.2055 10.6763 23.127 10.4227 23.0455C10.1691 22.964 9.92006 22.8772 9.67175 22.7844L9.45061 22.6998L9.34042 22.6561L9.29211 22.6372C9.41891 22.6855 9.33438 22.6538 9.30494 22.6417C9.13991 22.5748 8.97588 22.5054 8.81285 22.4334C8.06081 22.1018 7.33428 21.715 6.63919 21.2764C6.44145 21.1521 6.24748 21.0233 6.05728 20.89L5.92671 20.7979C5.89652 20.776 5.78708 20.7224 5.77576 20.6885C5.77576 20.6922 5.85124 20.7451 5.79539 20.7028L5.7652 20.6809L5.69576 20.6281C5.64519 20.5903 5.59538 20.5526 5.54481 20.5134C5.15783 20.2127 4.78817 19.8904 4.4376 19.548C4.25697 19.3704 4.08086 19.188 3.90928 19.0008C3.82173 18.9032 3.73619 18.8046 3.65267 18.705L3.59153 18.6295L3.56587 18.5978C3.53191 18.5578 3.60889 18.6522 3.57568 18.6106C3.53342 18.5571 3.4904 18.5035 3.44889 18.4499C3.12251 18.0293 2.82857 17.5844 2.56961 17.1193C2.43527 16.8778 2.313 16.631 2.19752 16.3811C2.19148 16.3675 2.1862 16.354 2.17941 16.3404C2.21413 16.4159 2.19073 16.3653 2.18394 16.3494L2.14243 16.2543C2.11375 16.1857 2.08507 16.117 2.05789 16.0475C2.00758 15.9172 1.95726 15.7856 1.90695 15.6528C1.796 15.3351 1.7009 15.012 1.62241 14.686C1.5809 14.5131 1.54693 14.3388 1.51146 14.1645C1.49259 14.0641 1.47448 13.9629 1.45863 13.8626C1.44957 13.8082 1.44127 13.7546 1.43372 13.7003C1.432 13.6843 1.42948 13.6684 1.42617 13.6527C1.42617 13.6527 1.43749 13.735 1.43221 13.692C1.42693 13.649 1.42315 13.6271 1.41938 13.5939C1.35063 13.0611 1.31986 12.5241 1.3273 11.987C1.33183 11.674 1.34994 11.3611 1.38164 11.0481C1.38919 10.9726 1.39749 10.9024 1.40655 10.8292L1.4224 10.71C1.41334 10.7673 1.42995 10.6504 1.4224 10.71C1.4224 10.6866 1.42919 10.6639 1.43297 10.6413C1.45863 10.4722 1.48882 10.3039 1.52354 10.1364C1.59453 9.7918 1.68448 9.45139 1.79298 9.11672C1.85034 8.93936 1.91298 8.76275 1.98091 8.5884C2.01261 8.5084 2.04506 8.42915 2.07827 8.3499C2.11676 8.25858 2.12658 8.23669 2.17714 8.12801C2.49114 7.45733 2.88276 6.82582 3.34398 6.24643C3.35907 6.22756 3.37341 6.2087 3.38851 6.19058L3.38247 6.19813L3.46172 6.10303C3.51757 6.03661 3.57493 5.9702 3.63304 5.90529C3.74273 5.78151 3.85544 5.6605 3.97117 5.54226C4.18854 5.31583 4.41722 5.10601 4.65044 4.90223C4.76566 4.80412 4.8829 4.70776 5.00215 4.61317C5.05423 4.57166 5.1063 4.53165 5.15914 4.4909L5.24367 4.4275L5.29197 4.39127C5.26782 4.40939 5.24895 4.42297 5.28442 4.39731C5.50405 4.23806 5.72821 4.08485 5.95766 3.93993C6.35278 3.69088 6.76065 3.46264 7.17959 3.25614C8.07526 2.8061 9.0165 2.45314 9.98723 2.20327C10.3851 2.09995 10.7882 2.01807 11.1948 1.95798C11.2477 1.95043 11.3012 1.94666 11.3533 1.93609C11.2378 1.95873 11.3314 1.93609 11.3601 1.93609L11.4612 1.92477C11.5865 1.91043 11.7118 1.89835 11.8386 1.88779C12.0998 1.8659 12.3617 1.85231 12.6228 1.84628C13.1998 1.8329 13.7771 1.85584 14.3512 1.91496C14.4198 1.92175 14.4885 1.9293 14.5565 1.9376L14.6674 1.95043C14.5791 1.93986 14.6923 1.95043 14.7217 1.95873C14.8777 1.97986 15.0332 2.00502 15.1882 2.03421C15.5016 2.08905 15.8123 2.15497 16.1203 2.23195C16.438 2.31195 16.7535 2.40328 17.0637 2.50743C17.2252 2.56177 17.386 2.61989 17.5445 2.68027L17.6607 2.72555L17.7105 2.74517C17.6954 2.73914 17.6449 2.71876 17.7158 2.74517C17.7868 2.77159 17.8705 2.80933 17.9475 2.84254C18.6017 3.12726 19.2281 3.47215 19.8185 3.87276C19.888 3.91956 19.9566 3.96786 20.0246 4.01616L20.1348 4.09541L20.1491 4.10598L20.2117 4.15353C20.3627 4.26749 20.5091 4.38448 20.6525 4.50599C20.9096 4.72084 21.1559 4.94727 21.3914 5.18526C21.6239 5.41848 21.8443 5.66226 22.0563 5.91359L22.1318 6.00642C22.1597 6.04039 22.1318 6.00189 22.1243 5.99661C22.1386 6.01473 22.1522 6.03284 22.1665 6.0502C22.2201 6.11737 22.2722 6.18454 22.3235 6.25247C22.4231 6.3838 22.519 6.51663 22.6126 6.65173C22.9773 7.17414 23.2974 7.7263 23.5696 8.30235L23.6179 8.40726C23.6255 8.42462 23.6692 8.525 23.6383 8.4533C23.6692 8.52425 23.6994 8.59444 23.7289 8.66539C23.7897 8.81281 23.8473 8.96074 23.9017 9.10918C24.0079 9.40051 24.1022 9.69536 24.1847 9.99374C24.2672 10.2921 24.3362 10.5905 24.3915 10.8889C24.4202 11.0398 24.4444 11.1908 24.467 11.347C24.4549 11.2715 24.467 11.3613 24.4723 11.3893C24.4776 11.4172 24.4821 11.4647 24.4866 11.5002C24.4949 11.5757 24.5032 11.6512 24.5108 11.7213C24.5716 12.3212 24.5812 12.9252 24.5394 13.5267C24.5289 13.6776 24.5148 13.8271 24.4972 13.975C24.4896 14.0414 24.4806 14.1078 24.4723 14.1743C24.464 14.2407 24.4821 14.1101 24.4723 14.166L24.4655 14.212C24.4594 14.2528 24.4534 14.2935 24.4466 14.3335C24.3988 14.6223 24.3382 14.9089 24.2647 15.1932C24.1722 15.5475 24.0596 15.8962 23.9274 16.2377C23.8964 16.3185 23.8647 16.3985 23.8315 16.4785L23.7817 16.5955L23.7598 16.6453L23.7485 16.671C23.679 16.8219 23.6051 16.9781 23.5281 17.1291C23.2601 17.6515 22.952 18.1524 22.6066 18.6273C22.5326 18.7279 22.4571 18.8285 22.3801 18.9291L22.2828 19.0522C22.2737 19.0642 22.2624 19.0763 22.2541 19.0884L22.279 19.0575L22.2231 19.1261C22.1079 19.266 21.9889 19.4031 21.8661 19.5375C21.3839 20.0672 20.8533 20.5508 20.2812 20.982C20.2668 20.9926 20.177 21.0575 20.2284 21.0221L20.1408 21.0855C20.0653 21.1375 19.9959 21.1881 19.9227 21.2364C19.7868 21.33 19.6495 21.4198 19.5098 21.5074C19.2583 21.6638 19.0026 21.8108 18.743 21.9481C18.5262 22.0618 18.3065 22.1693 18.0841 22.2704C17.9835 22.3152 17.8846 22.3582 17.7875 22.3995L17.6607 22.4523C17.5769 22.4863 17.7309 22.4244 17.6713 22.4478L17.5996 22.4764L18.0841 22.7383C17.7679 21.4704 17.4479 20.1971 17.2245 18.9103C17.2124 18.8431 17.2011 18.7767 17.1905 18.7095C17.1867 18.6816 17.1822 18.6537 17.1777 18.6257C17.1777 18.6137 17.1777 18.6008 17.1724 18.5888C17.1618 18.5171 17.1875 18.699 17.1799 18.6423C17.1724 18.5857 17.1626 18.514 17.1573 18.4491C17.1531 18.3903 17.1531 18.3313 17.1573 18.2725C17.1573 18.2114 17.189 18.0461 17.1573 18.2272C17.1694 18.1616 17.1799 18.0959 17.1935 18.031C17.2494 17.7608 17.3128 17.4921 17.3724 17.2234C17.6974 15.7683 18.0092 14.3091 18.3075 12.8459C18.5693 11.5362 18.7483 10.2112 18.8434 8.87898C18.8625 8.62237 18.8786 8.36575 18.8917 8.10914C18.9038 7.87291 18.629 7.6729 18.3928 7.74686C16.6081 8.30739 14.8357 8.90288 13.0756 9.53334C11.2783 10.1774 9.4964 10.8567 7.72979 11.5712C6.79039 11.9505 5.85551 12.3405 4.92517 12.741C4.65874 12.855 4.6761 13.2693 4.92517 13.3901C6.03217 13.9245 7.247 14.198 8.47624 14.1894C9.96883 14.1733 11.426 13.7324 12.6771 12.9184C13.069 12.6636 13.4368 12.3735 13.776 12.0519C13.8423 11.9887 13.8822 11.9028 13.8878 11.8114C13.8934 11.72 13.8643 11.6299 13.8062 11.5591C13.7464 11.4858 13.6628 11.436 13.5699 11.4182C13.4771 11.4004 13.3809 11.4158 13.2983 11.4617C12.2243 12.1515 11.3428 13.258 11.3261 14.5343C11.3111 15.6626 12.0809 16.68 13.0439 17.2747C13.5306 17.5722 14.0741 17.7648 14.6395 17.8401C14.8425 17.8665 15.0719 17.7933 15.124 17.5774C15.1663 17.4008 15.0667 17.1442 14.8485 17.1155Z" fill="#010101"/>
</g>
<defs>
<clipPath id="clip0_7_80">
<rect width="26" height="24" fill="white"/>
</clipPath>
</defs>
</svg>
