<svg width="53" height="52" viewBox="0 0 53 52" fill="none" xmlns="http://www.w3.org/2000/svg">
<g clip-path="url(#clip0_9_354)">
<path d="M38.4706 3.67702C38.5505 3.67702 38.6306 3.67702 38.7105 3.67702C38.8706 3.75701 39.0305 3.75701 39.1105 3.75701C39.3504 3.837 39.5904 3.91699 39.8304 3.99697C39.9904 4.07696 40.1503 4.15695 40.2303 4.23694C40.3903 4.31693 40.4703 4.39692 40.6302 4.5569C40.7103 4.63689 40.7903 4.71688 40.8702 4.79687C40.9502 4.95684 41.1102 5.03683 41.1902 5.19681C41.3502 5.35679 41.4301 5.51676 41.5901 5.75673C41.6701 5.9167 41.7501 6.15667 41.8301 6.31665C41.9901 6.6366 42.0701 6.95656 42.15 7.27652C42.23 7.67646 42.3101 8.0764 42.39 8.55633C42.39 8.7963 42.71 8.95625 42.9499 8.87629C43.0299 8.87629 43.1899 8.7963 43.1899 8.71631C43.2699 8.63632 43.2699 8.47634 43.2699 8.39635C43.1899 7.75645 43.0299 7.11654 42.7899 6.47662C42.55 5.9167 42.39 5.35679 41.9901 4.87686C41.9101 4.79687 41.8301 4.63689 41.7501 4.5569C41.6701 4.39692 41.5102 4.31693 41.4301 4.15695C41.3502 3.91699 41.1102 3.75701 40.9502 3.59703C40.6302 3.35707 40.2303 3.19709 39.8304 3.03711C39.6704 2.95713 39.3504 2.95713 39.1105 2.87714C38.9505 2.87714 38.8706 2.87714 38.7105 2.87714C38.6306 2.87714 38.5505 2.87714 38.5505 2.87714C38.3106 2.87714 38.1506 3.03711 38.1506 3.27708C38.0707 3.51704 38.3106 3.67702 38.4706 3.67702ZM51.1887 28.4736C51.0288 28.1535 50.9488 27.7536 50.7888 27.4337C50.6288 27.1137 50.4689 26.8737 50.3089 26.6338C50.3089 26.5538 50.2289 26.5538 50.2289 26.4738C50.1489 26.3138 49.989 26.2338 49.909 26.1539C49.749 25.9939 49.4291 25.8339 49.1891 25.6739C48.9491 25.594 48.7891 25.5139 48.5491 25.434C48.3092 25.354 48.1492 25.354 47.9092 25.354C47.8293 25.354 47.6693 25.354 47.5893 25.354C47.3493 25.354 47.1094 25.354 46.7894 25.434C46.5495 25.434 46.3095 25.5139 46.0695 25.6739C45.9895 25.6739 45.9095 25.6739 45.9095 25.7539C45.7496 25.8339 45.6695 26.0739 45.7496 26.3138C45.8295 26.4738 46.0695 26.5538 46.3095 26.4738C46.3894 26.4738 46.4694 26.4738 46.6294 26.3939C46.8694 26.3939 47.0294 26.3138 47.2693 26.3138C47.4293 26.3138 47.5093 26.3138 47.6693 26.3138C47.8293 26.3138 47.9892 26.3138 48.1492 26.3939C48.3092 26.3939 48.3892 26.4738 48.5491 26.4738C48.7091 26.4738 48.8691 26.5538 49.0291 26.6338C49.1891 26.7138 49.269 26.7937 49.4291 26.8738C49.509 26.9538 49.669 27.1137 49.749 27.2737C50.0689 27.7536 50.3089 28.3136 50.5489 28.9534C50.6288 29.1934 50.7089 29.4334 50.7888 29.6733C50.8688 30.0733 51.0288 30.5532 51.1088 30.9532C51.1887 31.1932 51.4287 31.3531 51.5887 31.2731C51.8287 31.1932 51.9087 30.9532 51.9087 30.7932C51.5887 29.9933 51.4287 29.1934 51.1887 28.4736ZM2.55563 38.6321C2.31566 37.7522 2.0757 36.7923 1.91571 35.9125C1.83572 35.5125 1.75574 35.1126 1.59576 34.7126C1.51577 34.4726 1.51577 34.2327 1.43578 34.0728C1.43578 33.9127 1.35579 33.8328 1.35579 33.6728C1.35579 33.4328 1.11583 33.3528 0.955852 33.3528H0.875863C0.795874 33.3528 0.715886 33.4328 0.635897 33.5128C0.555908 33.6728 0.555908 33.7528 0.555908 33.8328C0.555908 33.9928 0.555908 34.0728 0.635897 34.2327C0.635897 34.4726 0.715886 34.7126 0.795874 34.9526C0.875863 35.3526 0.955852 35.7525 1.11583 36.1525C1.35579 37.0323 1.51577 37.9922 1.75574 38.8721C1.83572 39.112 2.0757 39.272 2.31566 39.192C2.47564 39.192 2.63562 38.8721 2.55563 38.6321ZM12.6342 14.1555C12.7142 14.4755 12.7942 14.7154 12.9541 14.9554C13.0341 15.1954 13.3541 15.2754 13.5941 15.1154C13.6741 15.0354 13.754 14.9554 13.834 14.8755C13.834 14.7154 13.834 14.6355 13.834 14.5555V14.4755C13.754 14.3155 13.6741 14.1555 13.6741 13.9156C13.5941 13.7556 13.5941 13.5956 13.5941 13.4356C13.5941 13.1157 13.5941 12.7957 13.6741 12.4758C13.754 12.2358 13.754 11.9959 13.834 11.7559C13.914 11.5159 13.994 11.2759 14.074 11.036C14.234 10.6361 14.474 10.3161 14.6339 9.99614C14.8739 9.67621 15.0339 9.3562 15.2738 9.03627L15.3538 8.95625C15.3538 8.95625 15.2738 8.95625 15.2738 9.03627C15.3538 8.95625 15.4338 8.87629 15.4338 8.7963C15.4338 8.71631 15.4338 8.55633 15.4338 8.47634C15.3538 8.31636 15.1939 8.23638 15.0339 8.23638C14.9539 8.23638 14.8739 8.23638 14.8739 8.31637C14.7939 8.39635 14.7139 8.47634 14.6339 8.55633C14.5539 8.63632 14.474 8.71631 14.394 8.7963C14.234 8.95625 14.074 9.11622 13.994 9.3562C13.6741 9.83617 13.4341 10.2361 13.1941 10.796C13.1142 11.0359 13.0341 11.2759 12.8742 11.5159C12.7942 11.7559 12.7142 11.9959 12.7142 12.2358C12.6342 12.6357 12.5543 13.1157 12.6342 13.5157C12.5543 13.7556 12.5543 13.9156 12.6342 14.1555ZM50.8688 47.4309C50.7888 47.4309 50.7888 47.4309 50.7089 47.4309C50.5489 47.4309 50.3089 47.5908 50.3089 47.7508C50.1489 48.1507 49.989 48.5507 49.8289 48.9506C49.8289 49.0307 49.749 49.1106 49.749 49.1106C49.669 49.2706 49.589 49.4306 49.4291 49.5906C49.349 49.6705 49.269 49.7505 49.1891 49.8306C49.1091 49.9105 48.9491 49.9905 48.8691 49.9905C48.5491 50.0705 48.3092 50.1505 47.9892 50.2304C47.6693 50.3105 47.3493 50.3104 47.1094 50.3104C46.6294 50.3104 46.2295 50.3905 45.7496 50.3905C45.5096 50.3905 45.2696 50.3905 44.9497 50.3905C44.7897 50.3905 44.5497 50.3905 44.3898 50.3905C44.1498 50.3905 43.9898 50.5504 43.9898 50.7904C43.9898 51.0303 44.1498 51.1903 44.3898 51.1903C44.5497 51.1903 44.7897 51.2703 44.9497 51.2703C45.2696 51.2703 45.5896 51.2703 45.9095 51.2703C46.5495 51.2703 47.1893 51.1903 47.7492 51.1104C48.0692 51.1104 48.3892 51.0303 48.7091 50.9504C48.7891 50.9504 48.8691 50.9504 48.8691 50.8704C49.0291 50.8704 49.1091 50.7904 49.269 50.7104C49.4291 50.6304 49.589 50.5504 49.669 50.4704C49.829 50.3905 49.989 50.2304 50.1489 50.0705C50.4689 49.7505 50.6288 49.2706 50.8688 48.8707C51.0288 48.5507 51.1088 48.1507 51.2688 47.8308C51.2688 47.7508 51.1088 47.5109 50.8688 47.4309Z" fill="black"/>
<path d="M46.8693 48.6303C47.4292 48.6303 48.1491 48.7102 48.6291 48.3903C49.0289 48.1503 49.109 47.6704 49.2689 47.3504C49.3489 46.9505 49.4289 46.5506 49.4289 46.1506C49.5089 45.3507 49.5089 44.6308 49.5089 43.8309C49.5089 42.8711 49.5889 41.9112 49.4289 40.9514C49.4289 40.7914 49.2689 40.6313 49.189 40.4714C49.109 40.3114 48.949 40.1515 48.789 40.1515C48.6291 40.0714 48.469 39.9915 48.3091 39.9915C48.1491 39.9915 47.9891 39.9915 47.8292 39.9915C47.4292 39.9915 47.0293 40.0714 46.6293 40.0714C46.3893 40.0714 46.1493 40.0714 45.8294 40.1515C45.8294 39.8315 45.7495 39.4316 45.7495 39.1116C45.6695 38.7116 45.5894 38.3117 45.3495 37.9118C45.3495 37.9118 45.3495 37.9118 45.3495 37.8318C45.6695 37.8318 45.9894 37.7518 46.3094 37.7518C46.7093 37.6718 47.1092 37.6718 47.5892 37.5918C47.7491 37.5918 47.9091 37.5118 48.0691 37.5118C48.2291 37.5118 48.469 37.4318 48.6291 37.3519C48.949 37.2719 49.189 37.1119 49.4289 37.0319C49.7489 36.8719 49.9089 36.472 49.9889 36.152C50.0688 35.9921 50.0688 35.832 50.0688 35.6721C50.0688 35.5921 50.0688 35.5121 50.0688 35.3521C50.0688 34.9522 50.0688 34.6323 50.0688 34.2323C50.0688 33.4324 49.9889 32.6325 49.9089 31.7527C49.9089 31.3527 49.8288 30.8727 49.7489 30.4728C49.7489 30.3928 49.6689 30.3128 49.6689 30.1529C49.5889 29.9929 49.5889 29.8329 49.5089 29.7529C49.5089 29.673 49.4289 29.5929 49.3489 29.5129C49.2689 29.433 49.189 29.273 49.109 29.193C49.029 29.193 49.029 29.113 48.949 29.113C48.789 29.033 48.709 28.953 48.549 28.8731C48.3091 28.5531 48.0691 28.5531 47.7491 28.4731H47.6692C47.4292 28.4731 47.2693 28.4731 47.0293 28.5531C46.8693 28.5531 46.7093 28.5531 46.5493 28.6331C46.0694 28.6331 45.6695 28.713 45.1895 28.793C44.3897 28.8731 43.5898 28.953 42.7899 29.033C42.1499 29.113 41.5101 29.193 40.8701 29.273C40.8701 29.273 40.9502 29.273 40.9502 29.193C41.1101 29.033 41.1901 28.8731 41.1901 28.7131C41.1101 27.9132 41.0301 27.1932 40.9502 26.3934C40.8701 25.9935 40.8701 25.6735 40.7901 25.2735C40.7901 25.0336 40.7102 24.8736 40.7102 24.6337C40.7102 24.5536 40.7102 24.4737 40.7102 24.3937C40.7102 24.1537 40.6301 23.9137 40.5502 23.7537C40.3902 23.5138 40.2302 23.2738 39.9903 23.1938C39.7503 23.0339 39.5103 23.0339 39.1904 23.0339C39.0304 23.0339 38.8704 23.0339 38.6305 23.0339C38.4704 23.0339 38.2305 23.0339 38.0706 23.0339C37.2707 23.0339 36.4708 23.1139 35.6709 23.1938C34.871 23.2738 34.0711 23.3538 33.1912 23.3538C32.3114 23.4338 31.5115 23.5138 30.6316 23.5138C29.8317 23.5138 29.1118 23.5138 28.3119 23.5938C28.3119 23.5138 28.3119 23.4338 28.3119 23.4338C28.2319 22.7139 28.1519 21.994 28.1519 21.2741C28.1519 20.9542 28.072 20.5542 28.072 20.2343C28.072 20.0742 27.9919 19.8343 27.9919 19.6744C27.9919 19.5143 27.9119 19.4344 27.832 19.2744V19.1944C27.832 19.1944 27.832 19.1144 27.752 19.1144C28.072 19.1144 28.3919 19.1144 28.7118 19.1144C29.5117 19.1144 30.3116 19.0344 31.1915 18.9544C31.8314 18.8745 32.4713 18.7944 33.1112 18.6345C33.7511 18.5545 34.311 18.3945 34.871 18.2345C35.191 18.1545 35.5109 18.0746 35.8308 17.9146C36.1508 17.8346 36.4708 17.6746 36.7907 17.5147C37.5106 17.1946 38.1505 16.7148 38.7104 16.2348C39.0304 15.9149 39.2703 15.5949 39.5903 15.2749C39.8302 14.955 40.0702 14.555 40.2302 14.1551C40.3902 13.8352 40.4702 13.4352 40.5502 13.1153C40.6301 12.7153 40.7102 12.3154 40.7102 11.8354C40.7102 11.4355 40.7102 10.9556 40.6301 10.5556C40.5502 10.2357 40.5502 9.91568 40.3902 9.59575C40.3102 9.27582 40.1503 8.95582 40.0702 8.63589C39.9103 8.31593 39.8302 8.07596 39.6703 7.75601C39.4303 7.35607 39.1104 6.87614 38.7104 6.55619C38.4704 6.31622 38.2305 6.15624 37.9905 5.99626C37.7506 5.83628 37.4306 5.75629 37.1906 5.6763C36.8707 5.59632 36.5507 5.51633 36.3108 5.51633C36.2308 5.51633 36.2308 5.51633 36.1508 5.51633C36.0708 5.51633 36.0708 5.51633 35.9908 5.51633C35.8308 5.35635 35.8308 5.27636 35.7509 5.19637C35.6709 4.95641 35.5109 4.71644 35.3509 4.55647C35.0309 4.07653 34.631 3.67658 34.2311 3.27664C33.9911 3.03668 33.8312 2.8767 33.5912 2.71672C33.5111 2.63674 33.4312 2.55675 33.2712 2.47676C33.1112 2.39677 33.0313 2.23679 32.8713 2.1568C32.6313 1.99682 32.3913 1.83684 32.1513 1.75685C31.6714 1.4369 31.1115 1.27692 30.4716 1.11695C30.1517 1.03696 29.9117 1.03696 29.5917 0.95697C29.4318 0.95697 29.3518 0.95697 29.1918 0.95697C28.9518 0.95697 28.7918 0.95697 28.5519 0.95697C27.9119 1.03696 27.2721 1.19694 26.7122 1.4369C26.1522 1.67687 25.6723 1.91683 25.1924 2.31678C24.9524 2.47676 24.7124 2.71672 24.4724 2.95669C24.3125 3.11667 24.1525 3.35663 23.9925 3.5966C23.8326 3.75657 23.7525 3.99654 23.6726 4.15652C23.5926 4.15652 23.5926 4.07653 23.5126 4.07653C23.3526 3.99654 23.1926 3.99654 23.0327 3.91655C22.8727 3.91655 22.7127 3.83656 22.5527 3.83656C22.3927 3.75657 22.1527 3.75657 21.9128 3.75657C21.7529 3.75657 21.6728 3.75657 21.5129 3.75657C21.3529 3.75657 21.1929 3.75657 21.0329 3.75657C20.8729 3.75657 20.7929 3.83656 20.633 3.83656C20.233 3.91655 19.9131 4.07653 19.5131 4.23651C18.9532 4.47648 18.5533 4.79643 18.1533 5.27636C17.7534 5.75629 17.5135 6.31622 17.3534 6.87614C17.1135 7.51605 17.0335 8.15595 17.1135 8.79587C17.1135 9.11586 17.1934 9.35577 17.2735 9.67577C17.2735 9.75572 17.3534 9.83574 17.3534 9.91568C16.9535 9.9957 16.6335 10.1557 16.3136 10.3156C15.9936 10.4756 15.7537 10.7156 15.5137 11.0356C15.2737 11.2755 15.1138 11.5955 14.9538 11.9154C14.8738 12.0754 14.8738 12.3154 14.7938 12.4753C14.7938 12.6353 14.7938 12.8753 14.7138 13.0353C14.7138 13.1952 14.7138 13.4352 14.7938 13.5952C14.7938 13.8352 14.9538 14.1551 15.0337 14.3951C15.1938 14.6351 15.2737 14.875 15.4337 15.035C15.5937 15.195 15.7537 15.3549 15.9137 15.5949C16.3136 15.9949 16.7136 16.3148 17.1934 16.6347C17.5934 16.9547 18.0734 17.1946 18.5533 17.3547C18.7132 17.4346 18.8732 17.5147 19.1132 17.5946C19.2731 17.6746 19.5131 17.7546 19.7531 17.8346C19.9931 17.9146 20.1531 17.9945 20.393 17.9945C20.633 18.0746 20.8729 18.1545 21.1129 18.1545C21.5129 18.2345 21.9128 18.3146 22.3128 18.3945C22.7127 18.4745 23.1926 18.5545 23.5926 18.6345C23.9925 18.7145 24.4724 18.7145 24.8724 18.7944C25.3523 18.8745 25.8322 18.8745 26.3122 18.8745C26.5522 18.8745 26.7921 18.8745 27.1121 18.8745L27.0321 18.9544V19.0344C26.9521 19.1944 26.9521 19.3544 26.9521 19.5143C26.9521 19.6744 26.9521 19.8343 26.8721 19.9943C26.8721 20.3942 26.8721 20.7142 26.8721 21.1141C26.8721 21.834 26.9521 22.6339 27.1121 23.3538C26.6321 23.3538 26.0722 23.3538 25.5922 23.3538C23.9925 23.3538 22.3927 23.3538 20.7929 23.4338C19.9931 23.4338 19.1132 23.4338 18.3133 23.5138C17.5135 23.5138 16.7136 23.5938 15.9137 23.5938C15.1138 23.5938 14.3139 23.6738 13.514 23.7537C13.354 23.7537 13.114 23.7537 12.954 23.8338C12.7141 23.8338 12.5541 23.9137 12.3142 23.9937C12.1541 24.0737 11.9942 24.1537 11.9142 24.2337C11.8342 24.3136 11.7543 24.4737 11.6742 24.5536C11.5942 24.7136 11.5942 24.8736 11.5143 25.0336C11.5143 25.2735 11.5143 25.5135 11.5143 25.7535C11.5942 26.4734 11.6742 27.1932 11.8342 27.8332C11.9142 28.1531 11.9942 28.5531 11.9942 28.8731C11.9942 28.953 12.0742 29.113 12.0742 29.193C11.7543 29.193 11.5143 29.193 11.1943 29.273C10.3945 29.273 9.59456 29.273 8.79466 29.353C8.39471 29.353 7.91477 29.433 7.51483 29.433C7.19488 29.433 6.87492 29.5129 6.47498 29.5129C6.315 29.5129 6.15502 29.6729 6.07503 29.8329C5.67509 29.8329 5.35514 29.9129 4.95519 29.9129C4.79522 29.9129 4.63524 29.9929 4.47526 29.9929C4.39527 29.9929 4.39527 29.9929 4.31528 29.9929C4.1553 30.0728 4.07531 30.0728 3.91533 30.1529C3.83535 30.1529 3.75536 30.2329 3.75536 30.3128C3.67537 30.3928 3.59538 30.4728 3.51539 30.5528C3.4354 30.6328 3.35542 30.7928 3.35542 30.8727C3.27543 31.0327 3.27543 31.1127 3.27543 31.2727C3.19544 31.7527 3.27543 32.2326 3.35542 32.7125C3.35542 33.1125 3.4354 33.5124 3.4354 33.9123C3.51539 34.7122 3.59538 35.5921 3.75536 36.392C3.83535 36.7919 3.91534 37.2719 4.07531 37.6718C4.23529 38.0718 4.39527 38.4717 4.79522 38.7116C4.95519 38.8717 5.11517 38.9516 5.27515 39.0316C5.51511 39.1116 5.83507 39.1916 6.07503 39.1916H6.15502V39.2716C6.15502 39.3516 6.15502 39.5115 6.07503 39.5915C6.07503 39.6715 6.07503 39.8315 6.07503 39.9115C6.07503 40.3914 6.15502 40.7914 6.23501 41.2713C6.23501 41.2713 6.23501 41.2713 6.23501 41.3513C5.91505 41.4312 5.67509 41.4312 5.35514 41.5113C5.27515 41.5113 5.19516 41.5113 5.11517 41.5113C5.03518 41.5113 4.95519 41.5113 4.87521 41.5113C4.55525 41.7513 4.39527 41.9112 4.47526 42.1512C4.39527 42.1512 4.31528 42.1512 4.23529 42.1512C4.07531 42.1512 3.91534 42.2311 3.75536 42.2311C3.59538 42.2311 3.43541 42.3112 3.19544 42.3112C3.03546 42.3112 2.95547 42.3911 2.7955 42.4711C2.63552 42.4711 2.55553 42.5511 2.47554 42.6311C2.15559 42.8711 1.99561 43.191 1.99561 43.591C1.99561 43.8309 1.99561 44.0709 2.0756 44.2309C2.15559 44.6308 2.15559 45.1107 2.23558 45.5107C2.39556 46.3106 2.63552 47.1105 2.87549 47.8304C3.03546 48.2303 3.19544 48.6303 3.35542 49.0302C3.4354 49.1902 3.59538 49.3502 3.67537 49.5101C3.83535 49.6701 3.99532 49.8301 4.1553 49.9901C4.23529 49.9901 4.31528 50.07 4.31528 50.07C4.47526 50.1501 4.55525 50.15 4.71523 50.23C4.95519 50.31 5.19516 50.39 5.43512 50.39C5.83507 50.47 6.23501 50.47 6.63496 50.47C7.0349 50.47 7.43484 50.47 7.83478 50.47C8.71463 50.47 9.51453 50.47 10.3945 50.39C11.1943 50.39 11.9942 50.39 12.8741 50.31C14.6339 50.23 16.3935 50.23 18.2333 50.1501C18.6333 50.1501 19.0332 50.1501 19.3532 50.07C19.6731 50.07 19.9931 49.9901 20.233 49.9101C20.713 49.8301 21.1129 49.5901 21.4329 49.2702C21.7528 48.8703 21.8328 48.3903 21.9128 47.9903C21.9928 47.5904 21.9928 47.1105 22.0728 46.7105C22.1527 45.9106 22.1527 45.1107 22.1527 44.3108C22.1527 43.9109 22.1527 43.5109 22.1527 43.1111C22.1527 42.7911 22.1527 42.5511 22.0728 42.2311C22.0728 41.9912 21.9928 41.7513 21.9128 41.5912C21.8328 41.5113 21.8328 41.3513 21.7528 41.2713C21.6728 41.1913 21.5928 41.1113 21.5129 41.0313C21.4329 41.0313 21.4329 40.9514 21.3529 40.9514C21.2729 40.8713 21.1129 40.8713 20.953 40.7914C20.8729 40.7914 20.7929 40.7914 20.7929 40.7914C20.713 40.7914 20.553 40.7914 20.473 40.7914C20.313 40.7914 20.1531 40.7914 19.9131 40.7914C19.7531 40.7914 19.6731 40.7914 19.5131 40.7914C19.1932 40.7914 18.8732 40.7914 18.6333 40.7914C18.5533 40.7914 18.3933 40.7914 18.3133 40.7914C18.3933 40.7114 18.4733 40.6313 18.4733 40.4714C18.4733 40.3914 18.4733 40.2315 18.4733 40.1515C18.4733 39.8315 18.3933 39.5915 18.3133 39.2716C18.3133 39.1116 18.2333 38.9516 18.1533 38.7116C18.1533 38.7116 18.1533 38.7116 18.1533 38.6317C18.1533 38.5517 18.1533 38.5517 18.0734 38.5517C18.1533 38.5517 18.1533 38.5517 18.2333 38.5517C19.0332 38.3917 19.8331 38.3117 20.633 38.0718C20.8729 37.9917 21.0329 37.9917 21.2729 37.8318C21.3529 37.8318 21.4329 37.7518 21.4329 37.7518C21.5129 37.6718 21.5928 37.5918 21.6728 37.5118C21.8328 37.4318 21.9128 37.1918 21.9128 37.0319C21.9128 36.9519 21.9128 36.9519 21.9928 36.8719C21.9928 36.7119 21.9928 36.6319 22.0728 36.472C22.0728 36.312 22.0728 36.152 22.0728 35.912C22.0728 35.6721 22.0728 35.4322 22.0728 35.1922C22.0728 34.3923 21.9928 33.5924 21.9128 32.8725C21.8328 31.9926 21.7529 31.1127 21.5129 30.2329C21.5129 30.1529 21.5129 30.1529 21.4329 30.0728C21.4329 29.9929 21.3529 29.8329 21.2729 29.7529C21.1929 29.673 21.1929 29.5929 21.1129 29.5129C21.0329 29.433 20.953 29.273 20.7929 29.193C20.713 29.193 20.713 29.113 20.633 29.113C20.473 29.033 20.3931 28.953 20.233 28.953C19.9931 28.8731 19.7531 28.8731 19.5131 28.8731C19.4332 28.8731 19.4332 28.8731 19.3532 28.8731C19.1932 28.8731 19.1132 28.8731 18.9532 28.8731C18.7132 28.8731 18.4733 28.8731 18.2333 28.8731C17.3534 28.953 16.5536 28.953 15.6737 29.033C14.7138 29.113 13.7539 29.113 12.7941 29.193C12.7941 29.033 12.7941 28.8731 12.7941 28.7131C12.7941 28.3132 12.7141 27.9931 12.6341 27.5932C12.5541 26.8733 12.5541 26.0734 12.5541 25.3535V25.2735C12.6341 25.2735 12.6341 25.1936 12.7141 25.1936C13.434 24.8736 14.2339 24.7936 15.0337 24.6337C15.4337 24.5536 15.9137 24.5536 16.3136 24.4737C16.7136 24.4737 17.1934 24.3937 17.5934 24.3937C18.4733 24.3937 19.3532 24.3136 20.233 24.3136C21.9128 24.3136 23.5926 24.3136 25.2723 24.2337C27.0321 24.2337 28.7118 24.1537 30.4716 24.1537C31.3515 24.1537 32.1513 24.1537 33.0313 24.1537C33.8312 24.1537 34.711 24.1537 35.5109 24.1537C35.9908 24.1537 36.4708 24.1537 36.9507 24.1537C37.4306 24.1537 37.9105 24.1537 38.3905 24.2337C38.5505 24.2337 38.6305 24.3136 38.7904 24.3136C38.7904 24.3937 38.8704 24.3937 38.8704 24.4737C39.0304 24.7936 39.0304 25.1936 39.1104 25.5935C39.1904 25.9935 39.1904 26.4734 39.1904 26.8733C39.1904 27.4332 39.1904 27.9132 39.1904 28.4731C39.1904 28.793 39.3504 29.033 39.5903 29.113C38.7104 29.193 37.9105 29.273 37.0307 29.433C36.5507 29.5129 36.1508 29.5129 35.6709 29.673C35.4309 29.7529 35.191 29.7529 34.951 29.8329C34.791 29.8329 34.711 29.8329 34.631 29.9129H34.551C34.1511 29.9129 33.7511 29.9929 33.4312 30.0728C33.3512 30.0728 33.2712 30.0728 33.1912 30.1529C33.1112 30.1529 33.0313 30.2329 32.8713 30.2329C32.7112 30.3128 32.6313 30.3128 32.4713 30.3928C32.3913 30.3928 32.3114 30.4728 32.3114 30.4728C32.2314 30.5528 32.1513 30.6328 31.9914 30.7128C31.9114 30.7928 31.8314 30.8727 31.7514 31.0327C31.6714 31.1127 31.6714 31.2727 31.6714 31.3527C31.5914 31.6726 31.6714 31.9926 31.7514 32.3126C31.7514 32.4725 31.8314 32.7125 31.8314 32.8725C31.9114 33.2724 31.9914 33.6724 32.0714 33.9923C32.3114 34.8722 32.5513 35.6721 32.9512 36.392C33.1112 36.6319 33.2712 36.7919 33.4312 36.9519C33.5912 37.1119 33.8312 37.2719 33.9911 37.3519C34.0711 37.3519 34.1511 37.4318 34.2311 37.4318C34.3911 37.5118 34.551 37.5118 34.631 37.5918C34.711 37.5918 34.791 37.6718 34.951 37.6718C35.1109 37.7518 35.3509 37.7518 35.5109 37.7518H35.5908C35.5908 37.8318 35.5109 37.8318 35.5109 37.9118V37.9917C35.3509 38.4717 35.3509 38.9516 35.4309 39.4316C35.4309 39.8315 35.7509 40.0714 36.0708 40.0714C36.2308 40.0714 36.3907 39.9915 36.5507 39.9115C36.6307 39.8315 36.7107 39.7515 36.7107 39.5915C36.7107 39.5115 36.7107 39.3516 36.7107 39.2716C36.6307 38.7916 36.5507 38.3117 36.3108 37.9118C36.3108 37.9118 36.3108 37.8318 36.2308 37.8318C37.0307 37.9118 37.7506 37.9118 38.5505 37.9118C39.4303 37.9118 40.3102 37.8318 41.1101 37.7518C42.1499 37.6718 43.1098 37.5918 44.1497 37.5118V37.5918C44.1497 37.6718 44.1497 37.6718 44.0697 37.7518C44.0697 37.9118 43.9897 38.0718 43.9897 38.1517C43.9897 38.3917 43.9897 38.5517 43.9897 38.7916C43.9897 39.1116 44.0697 39.5115 44.0697 39.8315C43.1098 39.9115 42.1499 39.9915 41.1901 40.0714C40.0702 40.1515 38.9504 40.1515 37.8306 40.2315C37.2707 40.2315 36.6307 40.2315 36.0708 40.3114C35.5908 40.3114 35.1109 40.3914 34.631 40.3914C34.631 40.3914 34.631 40.3914 34.711 40.3914C34.471 40.3914 34.311 40.4714 34.2311 40.6313C33.9911 40.6313 33.7511 40.6313 33.5111 40.6313C33.1112 40.6313 32.7913 40.6313 32.3913 40.7114C32.1513 40.7114 31.9114 40.7914 31.7514 40.7914C31.5914 40.7914 31.4315 40.9514 31.2715 41.0313C31.1915 41.0313 31.1915 41.1113 31.1115 41.1113C31.0315 41.1913 30.9516 41.2713 30.9516 41.3513C30.8715 41.4312 30.8715 41.5912 30.8715 41.6712C30.8715 41.7513 30.8715 41.9112 30.8715 41.9912C30.8715 42.0712 30.8715 42.2311 30.8715 42.3911C30.8715 42.4711 30.8715 42.5511 30.8715 42.6311C30.8715 42.8711 30.9516 43.031 30.9516 43.271C31.0315 43.671 31.1115 44.0709 31.1915 44.4708C31.3515 45.1908 31.5115 45.9106 31.8314 46.6305C31.9114 46.8705 32.0714 47.1105 32.1513 47.3504C32.1513 47.4304 32.2314 47.4304 32.2314 47.5104C32.3114 47.6704 32.4713 47.7503 32.5513 47.9104C32.8713 48.2303 33.3512 48.3103 33.7511 48.3903C34.2311 48.3903 34.711 48.3903 35.191 48.4703C36.0708 48.4703 36.8707 48.4703 37.7506 48.4703C39.3504 48.4703 41.0301 48.4703 42.6299 48.5503C43.5097 48.5503 44.3096 48.5503 45.1895 48.6303C46.0694 48.5503 46.4694 48.6303 46.8693 48.6303ZM25.9123 17.9146C26.0722 17.7546 26.2322 17.6746 26.3921 17.5147C26.6321 17.3547 26.8721 17.1147 27.1121 16.8747C27.2721 16.7148 27.2721 16.3948 27.1121 16.2348C27.0321 16.1548 26.8721 16.0748 26.7921 16.0748C26.7122 16.0748 26.5522 16.1548 26.4722 16.1548C26.1522 16.4748 25.7523 16.7148 25.3523 17.0347C25.1924 17.1946 24.9524 17.2747 24.7924 17.4346C24.7124 17.5147 24.6325 17.5946 24.5524 17.6746L24.4724 17.7546C24.0725 17.7546 23.6726 17.6746 23.1926 17.6746C23.0327 17.6746 22.7927 17.5946 22.6327 17.5946C22.7127 17.5147 22.8727 17.4346 22.9526 17.3547C23.2726 17.1147 23.5926 16.7948 23.9125 16.5548C24.0725 16.3948 24.0725 16.0748 23.9125 15.9149C23.8326 15.8349 23.7525 15.7549 23.5926 15.7549C23.5126 15.7549 23.3526 15.8349 23.2726 15.8349C22.9526 16.0748 22.6327 16.3948 22.3128 16.6347C22.1527 16.7948 21.9928 16.9547 21.8328 17.1147C21.7528 17.1946 21.6728 17.2747 21.5928 17.2747C21.5928 17.2747 21.5928 17.2747 21.5129 17.3547C21.5928 17.3547 21.4329 17.3547 21.3529 17.3547C21.0329 17.2747 20.7929 17.1946 20.473 17.1147C20.633 17.0347 20.7929 16.8747 20.8729 16.7148C21.1929 16.3948 21.5129 16.1548 21.8328 15.8349C21.9928 15.6749 21.9928 15.3549 21.8328 15.195C21.7528 15.115 21.5928 15.035 21.5129 15.035C21.4329 15.035 21.2729 15.115 21.1929 15.115C20.8729 15.435 20.553 15.6749 20.233 15.9949C20.073 16.1548 19.9131 16.3148 19.7531 16.4748C19.7531 16.5548 19.7531 16.6347 19.6731 16.6347L19.5932 16.7148C19.5131 16.7148 19.4332 16.6347 19.4332 16.6347H19.5131C19.5131 16.6347 19.4332 16.6347 19.4332 16.5548C19.1932 16.4748 19.0332 16.3948 18.7933 16.2348C18.6333 16.1548 18.4733 16.0748 18.3133 15.9949C18.4733 15.8349 18.6333 15.6749 18.8732 15.5149C19.1932 15.195 19.5131 14.875 19.8331 14.6351C19.9931 14.4751 19.9931 14.1551 19.8331 13.9951C19.7531 13.9152 19.5932 13.8352 19.5131 13.8352C19.4332 13.8352 19.2731 13.9152 19.1932 13.9951C18.8732 14.2351 18.5533 14.555 18.3133 14.875C18.1533 15.035 18.0734 15.115 17.9133 15.2749C17.8334 15.3549 17.7534 15.435 17.5934 15.5149C17.5135 15.435 17.4334 15.435 17.3534 15.3549C17.1934 15.195 17.0335 15.115 16.8735 14.955C16.7136 14.795 16.6335 14.715 16.5536 14.555C16.5536 14.555 16.5536 14.555 16.5536 14.4751L16.6335 14.3951C16.7935 14.3151 16.8735 14.1551 17.0335 13.9951C17.3534 13.6752 17.5934 13.4352 17.9133 13.1153C18.0734 12.9553 18.0734 12.6353 17.9133 12.4753C17.8334 12.3953 17.6734 12.3154 17.5934 12.3154C17.5135 12.3154 17.3534 12.3154 17.2735 12.3953C16.9535 12.7153 16.7136 12.9553 16.3935 13.2752C16.3136 13.3552 16.1536 13.5152 16.0736 13.5952C15.9936 13.4352 15.9936 13.2752 15.9137 13.1153C15.9137 12.9553 15.9137 12.7953 15.9137 12.6353C15.9137 12.3953 15.9936 12.2354 16.0736 12.0754C16.1536 11.9154 16.2336 11.7555 16.3935 11.5955C16.4736 11.4355 16.6335 11.3555 16.7935 11.1956C16.9535 11.1155 17.1135 11.0356 17.2735 10.8755C17.4334 10.7956 17.6734 10.7956 17.8334 10.7156C17.9133 10.7156 17.9934 10.7156 18.0734 10.7156C18.3133 10.7156 18.4733 10.7156 18.7132 10.7156C18.7932 10.7156 18.9532 10.7956 19.0332 10.7956C19.1132 10.7956 19.2731 10.8755 19.3532 10.9556C19.5131 11.0356 19.7531 11.1155 19.9131 11.1956C19.9131 11.1956 19.9131 11.2755 19.9931 11.2755C20.1531 11.4355 20.313 11.5155 20.553 11.4355C20.713 11.3555 20.793 11.0356 20.713 10.8755C20.633 10.7956 20.633 10.7156 20.553 10.7156C20.553 10.6356 20.473 10.6356 20.473 10.5556C20.3931 10.4756 20.313 10.3156 20.233 10.2357C20.1531 10.1557 20.073 10.1557 19.9931 10.0757C19.9131 9.9957 19.7531 9.91568 19.5932 9.83574C19.2731 9.67577 18.9532 9.67577 18.6333 9.59575C18.5533 9.59575 18.5533 9.59575 18.4733 9.59575C18.4733 9.43579 18.3933 9.1958 18.3933 9.03584C18.3933 8.87586 18.3933 8.71588 18.3933 8.63589C18.3933 8.39592 18.3933 8.15595 18.3933 7.91599C18.4733 7.59603 18.5533 7.19609 18.7132 6.87614C18.8732 6.63617 18.9532 6.31622 19.1932 6.07625C19.3532 5.83628 19.5131 5.6763 19.7531 5.51633C19.9931 5.35635 20.1531 5.27636 20.393 5.11638C20.553 5.0364 20.713 5.0364 20.8729 4.95641C21.0329 4.87642 21.2729 4.87642 21.4329 4.87642C21.5928 4.87642 21.7529 4.87642 21.9128 4.87642C22.0728 4.87642 22.3128 4.87642 22.4727 4.87642C22.7927 4.95641 23.0327 4.95641 23.2726 5.0364C23.1926 5.11638 23.1926 5.27636 23.1126 5.35635C22.9526 5.6763 22.9526 5.83628 22.8727 5.99626C22.7927 6.23623 22.7127 6.4762 22.7127 6.71616C22.6327 7.03611 22.7927 7.35607 23.1126 7.43606C23.4326 7.51605 23.8326 7.35607 23.9125 7.03612C23.9925 6.71616 24.0725 6.4762 24.1525 6.15624C24.2325 5.91627 24.3125 5.75629 24.3925 5.51633C24.5524 5.27636 24.6324 5.0364 24.7924 4.79643C24.9524 4.55647 25.1124 4.39649 25.1924 4.15652C25.5123 3.83656 25.8322 3.51661 26.1522 3.19665C26.4722 2.95669 26.8721 2.71672 27.192 2.55675C27.432 2.47676 27.672 2.39677 27.9119 2.31678C28.1519 2.23679 28.3119 2.23679 28.5519 2.1568C28.7918 2.1568 29.0318 2.1568 29.2717 2.07681C29.5117 2.07681 29.6717 2.07681 29.9117 2.07681C30.3916 2.1568 30.7915 2.23679 31.1915 2.39677C31.5115 2.55675 31.7514 2.63674 31.9914 2.79671C32.2314 2.95669 32.4713 3.11667 32.7112 3.27664C32.9512 3.43662 33.1912 3.67658 33.4312 3.83656C33.6711 3.99654 33.8312 4.23651 34.0711 4.47648C34.2311 4.63645 34.471 4.87642 34.631 5.11638C34.711 5.19637 34.871 5.35635 34.951 5.43634C34.311 5.59631 33.7511 5.83628 33.2712 6.15624C33.0313 6.31622 32.9512 6.63617 33.0313 6.95613C33.1912 7.19609 33.5111 7.27608 33.8312 7.19609C33.9911 7.1161 34.2311 6.95613 34.471 6.87614C34.791 6.71616 35.191 6.63617 35.5908 6.55619C35.8308 6.55619 36.1508 6.55619 36.3907 6.55619C36.6307 6.63617 36.8707 6.63617 37.1107 6.79615C37.3506 6.87614 37.5906 7.03612 37.7506 7.19609C37.9905 7.43606 38.2305 7.67602 38.4704 7.91599C38.6305 8.07596 38.7104 8.31594 38.8704 8.47591C38.9504 8.63589 39.0304 8.87586 39.1904 9.03584C39.2703 9.1958 39.2703 9.27582 39.3504 9.43579C39.4303 9.59575 39.4303 9.67577 39.5103 9.83574C39.5903 10.0757 39.6703 10.3957 39.6703 10.6356C39.6703 10.8755 39.7503 11.1155 39.7503 11.3555C39.7503 11.5955 39.7503 11.8354 39.7503 12.0754C39.7503 12.3154 39.6703 12.5554 39.5903 12.7953C39.5103 13.0353 39.4303 13.1952 39.3504 13.4352C39.2703 13.5952 39.1904 13.7551 39.1104 13.9152C38.9504 14.1551 38.7904 14.3951 38.6305 14.6351C38.5505 14.715 38.4704 14.875 38.3105 14.955C38.1505 15.195 37.9105 15.3549 37.6706 15.5949C37.3506 15.8349 37.0307 16.0748 36.6307 16.2348C36.8707 15.9949 37.0307 15.7549 37.2707 15.435C37.3506 15.3549 37.3506 15.195 37.3506 15.115C37.3506 15.035 37.2707 14.875 37.1906 14.875C36.8707 14.955 36.7907 14.955 36.7107 14.955H36.6307C36.4708 14.955 36.3907 15.035 36.3907 15.115C36.2308 15.3549 36.0708 15.5149 35.8308 15.7549L35.9108 15.6749C35.5908 16.0748 35.2709 16.4748 34.951 16.8747L34.871 16.9547C34.871 16.9547 34.871 17.0347 34.791 17.1147C34.631 17.1946 34.3911 17.2747 34.2311 17.2747C33.9111 17.3547 33.5912 17.4346 33.2712 17.5147C33.1912 17.5147 33.1112 17.5147 33.0313 17.5946C33.1112 17.5147 33.1112 17.5147 33.1912 17.4346C33.5111 17.0347 33.8312 16.7148 34.1511 16.3148C34.2311 16.2348 34.311 16.1548 34.311 15.9949C34.311 15.9149 34.311 15.7549 34.2311 15.6749C34.1511 15.5949 33.9911 15.5149 33.9111 15.5149C33.8312 15.5149 33.6711 15.5149 33.5912 15.6749C33.2712 16.0748 32.9512 16.3948 32.5513 16.7948C32.3913 16.9547 32.2314 17.1147 32.1513 17.2747C32.0714 17.3547 31.9914 17.4346 31.9114 17.5147L31.8314 17.5946C31.8314 17.5946 31.8314 17.6746 31.7514 17.6746C31.1115 17.7546 30.4716 17.8346 29.8317 17.8346C29.9117 17.7546 29.9117 17.7546 29.9917 17.6746C30.2316 17.3547 30.5516 17.0347 30.7915 16.7148C30.9516 16.5548 30.8715 16.2348 30.6316 16.0748C30.5516 15.9949 30.4716 15.9949 30.3916 15.9949H30.3116C30.1517 15.9949 30.1517 16.0748 30.0716 16.1548C29.8317 16.4748 29.5917 16.7948 29.2717 17.1147C29.1118 17.2747 29.0318 17.4346 28.9518 17.5946C28.9518 17.6746 28.8718 17.7546 28.8718 17.7546C28.7118 17.7546 28.5519 17.7546 28.3119 17.7546C27.352 17.9945 26.6321 17.9146 25.9123 17.9146ZM20.233 48.5503C20.233 48.6303 20.233 48.6303 20.233 48.5503V48.5503ZM20.233 48.5503L20.313 48.4703C20.313 48.5502 20.313 48.5503 20.233 48.5503ZM20.393 42.2311C20.473 42.2311 20.553 42.3112 20.713 42.3112C20.713 42.3112 20.713 42.3112 20.7929 42.3112C20.7929 42.3112 20.7929 42.3911 20.8729 42.3911C20.953 42.5511 20.953 42.6311 20.953 42.7911C21.0329 43.9109 20.953 45.0308 20.8729 46.1506C20.8729 46.3905 20.7929 46.6305 20.7929 46.8705C20.7929 46.9505 20.7929 46.9505 20.7929 47.0305C20.7929 47.1105 20.7929 47.1105 20.7929 47.1904V47.2705C20.7929 47.1904 20.7929 47.1105 20.7929 47.1105C20.713 47.5104 20.633 47.9104 20.553 48.3103C20.553 48.3903 20.473 48.3903 20.473 48.4703L20.393 48.5503C20.313 48.6303 20.233 48.6303 20.1531 48.6303C19.9931 48.7102 19.8331 48.7102 19.7531 48.7902C19.7531 48.7902 19.7531 48.7902 19.8331 48.7102C19.9131 48.6303 19.9931 48.5503 19.9931 48.3903C19.9931 48.3103 19.9931 48.1503 19.9131 48.0704C19.8331 47.9903 19.7531 47.9104 19.5932 47.9104C19.5131 47.9104 19.3532 47.9104 19.2731 47.9903C19.1132 48.2303 18.9532 48.3903 18.7132 48.6303C18.6333 48.7102 18.6333 48.7902 18.6333 48.8703C18.2333 48.8703 17.9133 48.9502 17.5135 48.9502C17.5934 48.8703 17.6734 48.7902 17.7534 48.7102C17.8334 48.6303 17.8334 48.4703 17.8334 48.3903C17.8334 48.3103 17.7534 48.1503 17.6734 48.0704C17.5934 47.9903 17.5135 47.9903 17.4334 47.9903H17.3534C17.1934 47.9903 17.1934 48.0704 17.1135 48.1503C16.9535 48.3903 16.7935 48.5502 16.6335 48.7902C16.6335 48.8703 16.5536 48.9502 16.5536 48.9502C15.9137 48.9502 15.3537 49.0302 14.7138 49.0302C14.8738 48.8703 14.9538 48.7902 15.1138 48.6303C15.2737 48.4703 15.2737 48.1503 15.1138 47.9903C15.0337 47.9104 14.8738 47.8304 14.7938 47.8304C14.7138 47.8304 14.5538 47.8304 14.4738 47.9903C14.1539 48.3103 13.7539 48.7102 13.434 49.0302C13.114 49.0302 12.7141 49.0302 12.3941 49.0302C12.1541 49.0302 11.9942 49.0302 11.7543 49.0302C11.9142 48.8703 11.9942 48.7902 12.1541 48.6303C12.3142 48.4703 12.3142 48.1503 12.1541 47.9903C12.0742 47.9104 11.9142 47.8304 11.8342 47.8304C11.7543 47.8304 11.5942 47.9104 11.5143 47.9903C11.2743 48.2303 11.0343 48.3903 10.8743 48.6303C10.7144 48.7902 10.6344 48.8703 10.4744 49.0302C9.83454 49.0302 9.11458 49.0302 8.4747 48.9502C8.55467 48.8703 8.63469 48.7902 8.71463 48.7102C9.03464 48.3903 9.27455 48.0704 9.59456 47.7504C9.75452 47.5904 9.75452 47.2705 9.59456 47.1105C9.51453 47.0305 9.35457 46.9505 9.27455 46.9505C9.19461 46.9505 9.03464 46.9505 8.95462 47.1105C8.4747 47.6704 7.91477 48.2303 7.51483 48.7902L7.59482 48.7102C7.51483 48.7902 7.51483 48.8703 7.43484 48.8703C7.0349 48.8703 6.63496 48.7902 6.23501 48.7902C6.15502 48.7902 6.07503 48.7902 6.07503 48.7902C6.15502 48.6303 6.315 48.5503 6.39499 48.3903C6.71495 47.9903 6.95491 47.6704 7.27487 47.2705C6.95491 47.3505 6.87492 47.0305 6.63496 46.9505C6.55497 46.8705 6.47498 46.8705 6.39499 46.8705C6.23501 46.8705 6.07503 46.9505 5.99504 47.1105C5.67509 47.5104 5.43512 47.9104 5.11517 48.3103C5.03518 48.4703 4.87521 48.6303 4.79522 48.7902C4.71523 48.7102 4.63524 48.6303 4.55525 48.5503C4.39527 48.3103 4.23529 47.9903 4.07531 47.7504C4.23529 47.5904 4.31528 47.5104 4.47526 47.3504C4.71523 47.1105 4.95519 46.7905 5.11517 46.5506C5.27515 46.3905 5.19516 46.0706 4.95519 45.9106C4.87521 45.8306 4.79522 45.8306 4.71523 45.8306C4.55525 45.8306 4.39527 45.9106 4.31528 46.0706C4.1553 46.3106 3.91534 46.5506 3.67537 46.8705C3.67537 46.7905 3.67537 46.7905 3.67537 46.7105C3.59538 46.3905 3.51539 46.0706 3.51539 45.6707C3.75536 45.4307 3.83535 45.3507 3.91533 45.1908C3.99532 45.1107 4.07531 45.0308 4.07531 44.8708C4.07531 44.7908 4.07531 44.6308 3.99532 44.5508C3.91534 44.4708 3.83535 44.3909 3.67537 44.3909C3.59538 44.3909 3.59538 44.4708 3.51539 44.4708C3.51539 44.2309 3.4354 43.9909 3.51539 43.7509C3.59538 43.671 3.67537 43.671 3.75536 43.591C4.47526 43.351 5.27515 43.191 6.07503 43.1111C6.87492 43.031 7.59482 42.951 8.39471 42.951C8.71463 42.951 9.03464 42.7111 9.03464 42.3112V42.2311C10.3945 42.1512 11.6742 42.0712 13.0341 42.0712C14.3139 42.0712 15.5937 41.9912 16.8735 42.0712C17.5135 42.0712 18.1533 42.0712 18.7933 42.1512C19.1932 42.1512 19.8331 42.1512 20.393 42.2311ZM17.3534 38.7916C17.3534 38.8717 17.2735 38.8717 17.2735 38.9516C17.1934 39.1116 17.1934 39.1916 17.1934 39.3516C17.1934 39.6715 17.1934 39.9915 17.1934 40.3114C17.1934 40.4714 17.2735 40.6313 17.3534 40.7914C17.3534 40.7914 17.4334 40.7914 17.4334 40.8713C16.9535 40.8713 16.5536 40.8713 16.0736 40.9514C14.2339 41.0313 12.3941 41.1113 10.5544 41.1913C9.6745 41.2713 8.71463 41.2713 7.83478 41.3513C7.67481 41.3513 7.59482 41.3513 7.43484 41.3513C7.43484 41.2713 7.43484 41.1913 7.43484 41.1113C7.35485 40.7114 7.27487 40.3114 7.19488 39.9115C7.11489 39.7515 7.11489 39.5115 7.0349 39.3516C7.43484 39.3516 7.83478 39.3516 8.23473 39.3516C9.91448 39.3516 11.5143 39.1916 13.194 39.1116C14.0739 39.0316 14.8738 39.0316 15.7537 38.9516C16.2336 38.8717 16.7935 38.7916 17.3534 38.7916ZM20.633 36.6319L20.713 36.552C20.713 36.6319 20.633 36.6319 20.633 36.6319ZM16.3935 30.3128C17.4334 30.3128 18.5533 30.3128 19.5932 30.3928C19.7531 30.3928 19.8331 30.3928 19.9931 30.4728H20.073C20.073 30.4728 20.1531 30.4728 20.1531 30.5528C20.1531 30.4728 20.073 30.4728 20.073 30.3928C20.1531 30.4728 20.1531 30.5528 20.233 30.6327C20.313 30.7128 20.313 30.7928 20.393 30.8727C20.553 31.2727 20.633 31.7527 20.713 32.1526C20.793 32.8725 20.8729 33.5924 20.8729 34.3122C20.8729 35.0322 20.8729 35.7521 20.7929 36.472C20.7929 36.552 20.7929 36.552 20.7929 36.6319V36.7119C20.713 36.7919 20.633 36.7919 20.553 36.8719C20.473 36.9519 20.313 36.9519 20.233 36.9519C20.233 36.7919 20.233 36.7119 20.1531 36.6319C20.073 36.552 19.9131 36.472 19.8331 36.472C19.7531 36.472 19.5932 36.472 19.5131 36.6319C19.3532 36.8719 19.1132 37.0319 18.9532 37.2719L18.8732 37.3519C18.3933 37.4318 17.9133 37.5118 17.4334 37.5918C17.5135 37.5118 17.5934 37.4318 17.6734 37.3519C17.7534 37.2719 17.8334 37.1918 17.8334 37.0319C17.8334 36.9519 17.8334 36.7919 17.6734 36.7119C17.5934 36.6319 17.4334 36.552 17.3534 36.552C17.2735 36.552 17.1135 36.552 17.0335 36.7119C16.7935 36.9519 16.5536 37.1918 16.3935 37.4318L16.3136 37.5118C16.2336 37.5118 16.2336 37.5918 16.2336 37.6718C15.5937 37.7518 14.8738 37.8318 14.2339 37.8318C14.5538 37.5918 14.8738 37.2719 15.1138 36.9519C15.2737 36.7919 15.2737 36.552 15.1138 36.312C15.0337 36.232 14.8738 36.152 14.7938 36.152C14.7138 36.152 14.5538 36.152 14.4738 36.232C14.1539 36.552 13.834 36.8719 13.514 37.1119C13.354 37.2719 13.194 37.4318 13.0341 37.5918C12.954 37.6718 12.8741 37.7518 12.7941 37.8318C12.3941 37.8318 12.0742 37.8318 11.6742 37.8318C11.5942 37.8318 11.4343 37.8318 11.3543 37.8318C11.6742 37.5118 11.9942 37.1918 12.3142 36.8719C12.4741 36.7119 12.4741 36.392 12.3142 36.232C12.2342 36.152 12.0742 36.072 11.9942 36.072C11.9142 36.072 11.7543 36.072 11.6742 36.152C11.3543 36.472 11.1143 36.7119 10.7944 37.0319C10.5544 37.2719 10.3144 37.5118 10.0744 37.7518C9.6745 37.7518 9.19461 37.7518 8.79466 37.7518C8.71463 37.7518 8.71463 37.7518 8.63469 37.7518C8.95462 37.4318 9.19461 37.1119 9.51453 36.8719C9.6745 36.7119 9.6745 36.392 9.51453 36.232C9.43459 36.152 9.27455 36.072 9.19461 36.072C9.11458 36.072 8.95462 36.072 8.87468 36.152C8.55467 36.472 8.31471 36.7919 7.99476 37.1119C7.83478 37.2719 7.67481 37.5118 7.43484 37.6718C7.0349 37.6718 6.63496 37.6718 6.15502 37.5918C6.07503 37.5918 6.07503 37.5918 5.99504 37.5918C6.15502 37.4318 6.315 37.2719 6.47498 37.1119C6.87492 36.7119 7.19488 36.392 7.59482 35.9921C7.7548 35.832 7.7548 35.5921 7.59482 35.3521C7.51483 35.2721 7.35485 35.1922 7.27487 35.1922C7.19488 35.1922 7.0349 35.1922 6.95491 35.2721C6.63496 35.5921 6.315 35.912 5.99504 36.232C5.75508 36.472 5.51511 36.7119 5.35514 36.9519C5.27515 36.8719 5.27515 36.7919 5.19516 36.7119C5.11517 36.472 5.03518 36.152 4.95519 35.832H5.03518C5.03518 35.832 5.03518 35.7521 5.11517 35.7521C5.27515 35.5921 5.35514 35.5121 5.43512 35.3521C5.75508 34.9522 6.07503 34.5522 6.39499 34.2323C6.47498 34.1523 6.47498 33.9923 6.47498 33.9123C6.47498 33.8324 6.39499 33.6724 6.315 33.6724C6.23501 33.5924 6.15502 33.5924 6.07503 33.5924H5.99504C5.83507 33.5924 5.83507 33.6724 5.75508 33.7523C5.51511 34.0723 5.27515 34.3923 4.95519 34.7122L4.87521 34.7922C4.55525 34.6323 4.55525 34.1523 4.47526 33.5924C4.71523 33.3524 4.87521 33.1125 5.11517 32.9524C5.27515 32.7925 5.27515 32.5526 5.11517 32.3126C5.03518 32.2326 4.87521 32.1526 4.79522 32.1526C4.71523 32.1526 4.55525 32.1526 4.47526 32.2326C4.47526 31.9926 4.47526 31.8326 4.47526 31.5926V31.5127C4.55525 31.5127 4.55525 31.4327 4.63524 31.4327C4.87521 31.3527 5.19516 31.2727 5.51511 31.1927C5.99504 31.1127 6.39499 31.1127 6.87492 31.1127C7.43484 31.1127 8.07475 31.1127 8.63469 31.1127C8.95462 31.1127 9.27455 30.8727 9.27455 30.4728C9.35457 30.4728 9.43459 30.4728 9.59456 30.4728C10.5544 30.4728 11.4343 30.4728 12.3941 30.3928C12.4741 30.4728 12.6341 30.5528 12.7941 30.4728C12.8741 30.4728 12.8741 30.3928 12.954 30.3128C13.0341 30.3128 13.0341 30.3128 13.114 30.3128C14.1539 30.3928 15.2737 30.3128 16.3935 30.3128ZM12.7941 25.5135C12.7941 25.4336 12.7941 25.4336 12.7941 25.5135V25.5135ZM41.43 36.7919C41.1901 36.7919 40.9502 36.7919 40.7102 36.7919C40.8701 36.6319 41.0301 36.472 41.1901 36.312C41.2701 36.232 41.35 36.152 41.35 35.9921C41.35 35.832 41.35 35.7521 41.1901 35.6721C41.1101 35.5921 40.9502 35.5121 40.8701 35.5121C40.7901 35.5121 40.6301 35.5121 40.5502 35.6721C40.2302 35.9921 39.9103 36.392 39.5903 36.7919C39.5903 36.7919 39.5903 36.7919 39.5903 36.8719C39.0304 36.8719 38.4704 36.8719 37.9905 36.7919C37.9905 36.7919 37.9905 36.7119 38.0706 36.7119C38.2305 36.472 38.4704 36.152 38.6305 35.912C38.7904 35.7521 38.7104 35.4322 38.4704 35.2721C38.3905 35.1922 38.3105 35.1922 38.2305 35.1922C38.0706 35.1922 37.9105 35.2721 37.8306 35.4322C37.5906 35.832 37.3506 36.232 37.0307 36.6319V36.7119C36.8707 36.7119 36.7107 36.7119 36.5507 36.7119C36.3907 36.7119 36.2308 36.6319 36.0708 36.6319C35.9108 36.6319 35.8308 36.552 35.6709 36.552C36.0708 36.072 36.4708 35.5921 36.7907 35.1121C36.9507 34.9522 36.8707 34.6323 36.6307 34.4723C36.5507 34.3923 36.4708 34.3923 36.3907 34.3923C36.2308 34.3923 36.0708 34.4723 35.9908 34.6323C35.7509 34.9522 35.4309 35.3521 35.191 35.6721C35.0309 35.832 34.951 35.9921 34.791 36.232L34.711 36.152C34.631 36.072 34.471 35.912 34.3911 35.832C34.311 35.6721 34.2311 35.5121 34.1511 35.3521C34.1511 35.3521 34.1511 35.2721 34.0711 35.2721C34.0711 35.2721 34.1511 35.2721 34.1511 35.1922C34.1511 35.1922 34.1511 35.2721 34.0711 35.2721C34.1511 35.1121 34.311 34.9522 34.471 34.7922C34.711 34.4723 34.951 34.2323 35.1109 33.9123C35.2709 33.7523 35.191 33.4324 34.951 33.2724C34.871 33.1924 34.791 33.1924 34.711 33.1924H34.631C34.471 33.1924 34.471 33.2724 34.3911 33.3524C34.1511 33.5924 33.9911 33.9123 33.7511 34.2323C33.7511 34.1523 33.6711 34.0723 33.6711 34.0723C33.5912 33.7523 33.5111 33.3524 33.5111 33.0325C33.4312 32.6325 33.4312 32.2326 33.4312 31.7527V31.6726C33.4312 31.6726 33.4312 31.6726 33.5111 31.5926C33.5912 31.5926 33.6711 31.5127 33.7511 31.5127C33.9911 31.4327 34.1511 31.3527 34.3911 31.3527C34.711 31.2727 35.0309 31.2727 35.3509 31.1927C35.4309 31.1927 35.5109 31.1127 35.5908 31.0327C35.6709 30.9528 35.7509 30.8727 35.7509 30.7128C36.1508 30.7128 36.5507 30.6327 36.9507 30.6327C37.4306 30.5528 37.9105 30.5528 38.3905 30.4728C39.4303 30.3128 40.5502 30.2329 41.59 30.1529C42.6299 30.0728 43.5898 29.9929 44.6296 29.9129C45.1095 29.9129 45.5894 29.9129 46.0694 29.8329C46.6293 29.8329 47.1892 29.8329 47.7491 29.9129C47.8292 29.9129 47.9891 29.9929 48.0691 29.9929C48.0691 29.9929 48.1491 29.9929 48.1491 30.0728L48.2291 30.1529C48.3091 30.2329 48.3091 30.3128 48.3891 30.3928C48.469 30.6327 48.549 30.7928 48.549 31.0327C48.549 31.1127 48.549 31.1927 48.6291 31.2727C48.709 31.9126 48.709 32.6325 48.789 33.2724C48.789 33.9123 48.789 34.5522 48.709 35.1922C48.709 35.3521 48.6291 35.4322 48.6291 35.5921C48.6291 35.5921 48.6291 35.5921 48.6291 35.6721L48.549 35.7521C48.469 35.832 48.3891 35.832 48.3091 35.912C47.8292 36.152 47.2693 36.232 46.7093 36.312C46.9492 36.072 47.1092 35.832 47.3492 35.5121C47.4292 35.4322 47.4292 35.2721 47.4292 35.1922C47.4292 35.1121 47.3492 34.9522 47.1892 34.8722C47.1092 34.7922 47.0293 34.7922 46.9492 34.7922H46.8693C46.7093 34.7922 46.6293 34.8722 46.5493 35.0322C46.3893 35.2721 46.1493 35.5921 45.9894 35.832C45.9094 35.9921 45.8294 36.072 45.7495 36.232C45.6695 36.312 45.6695 36.392 45.5894 36.472C44.9496 36.552 44.3897 36.552 43.7497 36.6319C43.9097 36.472 43.9897 36.392 44.1497 36.232C44.3096 36.072 44.3096 35.7521 44.1497 35.5921C44.0697 35.5121 43.9097 35.4322 43.8298 35.4322C43.7497 35.4322 43.5898 35.4322 43.5097 35.5921C43.2698 35.832 43.0298 36.072 42.7098 36.392C42.6299 36.472 42.5499 36.552 42.3899 36.7119L42.3099 36.7919C42.07 36.7119 41.75 36.7919 41.43 36.7919ZM40.3902 47.4304C40.5502 47.2705 40.6301 47.1904 40.7901 47.0305C40.9502 46.8705 40.9502 46.6305 40.7901 46.3905C40.7102 46.3106 40.5502 46.2306 40.4702 46.2306C40.3902 46.2306 40.2302 46.2306 40.1503 46.3106C39.9103 46.5506 39.7503 46.7105 39.5103 46.9505C39.4303 47.0305 39.3504 47.1105 39.3504 47.1904C39.2703 47.2705 39.2703 47.2705 39.1904 47.3504C38.7104 47.3504 38.2305 47.3504 37.7506 47.3504C37.5906 47.3504 37.4306 47.3504 37.2707 47.3504C37.4306 47.1904 37.5906 47.0305 37.7506 46.8705C37.9105 46.7105 37.9105 46.4706 37.7506 46.2306C37.6706 46.1506 37.5106 46.0706 37.4306 46.0706C37.3506 46.0706 37.1906 46.0706 37.1107 46.1506C36.7907 46.4706 36.4708 46.8705 36.1508 47.1904C36.1508 47.1904 36.1508 47.1904 36.2308 47.1105C36.2308 47.1105 36.2308 47.1105 36.1508 47.1904C35.6709 47.1904 35.1109 47.1105 34.631 47.0305C34.871 46.7105 35.1109 46.3905 35.3509 46.1506C35.5109 45.9907 35.4309 45.6707 35.191 45.5107C35.1109 45.4307 35.0309 45.4307 34.951 45.4307H34.871C34.711 45.4307 34.711 45.5107 34.631 45.5907C34.471 45.8306 34.2311 46.0706 34.0711 46.3106C33.9911 46.3905 33.9111 46.5506 33.8312 46.6305C33.7511 46.5506 33.7511 46.5506 33.6711 46.4706C33.5912 46.3106 33.5111 46.2306 33.4312 46.0706C33.4312 45.9907 33.3512 45.9106 33.3512 45.8306C33.2712 45.6707 33.2712 45.5907 33.2712 45.4307C33.3512 45.3507 33.4312 45.3507 33.4312 45.2707C33.5111 45.1908 33.5912 45.1107 33.5912 44.9508C33.7511 44.7908 33.8312 44.5508 33.9911 44.3909C34.1511 44.2309 34.0711 43.9109 33.8312 43.8309C33.7511 43.7509 33.6711 43.7509 33.5912 43.7509C33.4312 43.7509 33.2712 43.8309 33.1912 43.9109C33.1112 44.0709 33.0313 44.2309 32.8713 44.3909C32.8713 44.2309 32.7913 44.1509 32.7913 43.9909C32.7913 43.671 32.7112 43.351 32.7112 43.031C32.7112 42.7111 32.6313 42.3911 32.7112 42.0712C32.7913 42.0712 32.9512 41.9912 33.0313 41.9912C33.1112 41.9912 33.1112 41.9912 33.1912 41.9912C34.3911 41.8312 35.6709 41.8312 36.8707 41.8312C37.1906 41.8312 37.4306 41.5912 37.5106 41.2713C37.6706 41.2713 37.8306 41.2713 37.9905 41.2713C39.1104 41.2713 40.2302 41.1913 41.43 41.1913C42.5499 41.1913 43.6697 41.1113 44.7896 41.1113C45.3495 41.1113 45.8294 41.1113 46.3893 41.1113C46.9492 41.1113 47.4292 41.1113 47.9891 41.1913V41.2713C48.0691 41.4312 48.0691 41.5113 48.0691 41.6712C48.0691 41.7513 48.0691 41.8312 48.0691 41.9112V41.8312C48.1491 42.4711 48.0691 43.031 48.0691 43.671C48.0691 44.2309 47.9891 44.7908 47.9091 45.3507C47.8292 45.9106 47.7491 46.4706 47.5092 47.0305C47.3492 47.1105 47.1092 47.1105 46.9492 47.1904C46.3893 47.2705 45.8294 47.2705 45.1895 47.2705C45.2695 47.1105 45.3495 46.8705 45.1895 46.7105C45.1095 46.6305 44.9496 46.5506 44.8696 46.5506C44.7896 46.5506 44.6296 46.5506 44.5496 46.7105C44.3897 46.8705 44.3096 47.0305 44.1497 47.1904C44.1497 47.1904 44.1497 47.1904 44.0697 47.2705V47.3504C43.7497 47.3504 43.5097 47.3504 43.1898 47.3504C43.3498 47.1904 43.3498 46.9505 43.1898 46.7905C43.1098 46.7105 42.9498 46.6305 42.8699 46.6305C42.7899 46.6305 42.6299 46.6305 42.5499 46.7105C42.3899 46.8705 42.3099 46.9505 42.1499 47.1105C42.07 47.1904 42.07 47.2705 41.99 47.2705C41.59 47.2705 41.2701 47.2705 40.8701 47.2705C40.7901 47.4304 40.5502 47.4304 40.3902 47.4304Z" fill="black"/>
<path d="M44.0697 33.3527C44.0697 33.4326 44.0697 33.5126 44.0697 33.5927C44.0697 33.6726 44.1497 33.7526 44.1497 33.9126C44.2297 33.9926 44.2297 34.0725 44.3097 34.1526C44.4696 34.3125 44.6297 34.3925 44.7896 34.4725C44.9496 34.5525 45.0295 34.5525 45.1896 34.5525C45.3495 34.5525 45.5095 34.5525 45.7495 34.5525C45.8294 34.5525 45.9894 34.5525 46.0694 34.4725C46.1494 34.4725 46.2294 34.3925 46.3893 34.3925C46.4694 34.3125 46.5494 34.3125 46.6293 34.2325C46.7094 34.1526 46.7893 34.0725 46.8693 33.9925C46.9493 33.9126 47.0293 33.8326 47.0293 33.6726C47.1093 33.5927 47.1093 33.5126 47.1093 33.4326C47.1893 33.1927 47.1093 32.9527 47.0293 32.6328C46.9493 32.3928 46.8693 32.2328 46.7094 32.0729C46.6293 31.9928 46.6293 31.9128 46.5494 31.8329C46.4694 31.7529 46.3893 31.7529 46.3893 31.6729C46.2294 31.5929 46.0694 31.5129 45.9095 31.5129C45.8294 31.5129 45.8294 31.5129 45.7495 31.5129H45.6695C45.5095 31.5129 45.4295 31.5929 45.2695 31.5929C44.9496 31.7529 44.6297 31.9128 44.3897 32.1528C44.3097 32.2328 44.2297 32.3128 44.1497 32.4727C44.0697 32.5528 43.9897 32.6328 43.9897 32.7127C43.7497 32.9527 43.8298 33.1927 44.0697 33.3527ZM45.9095 32.4727C45.8294 32.4727 45.8294 32.4727 45.9095 32.4727V32.4727ZM45.1896 32.7127C45.3495 32.6328 45.4295 32.5528 45.5895 32.4727C45.6695 32.4727 45.6695 32.4727 45.7495 32.4727H45.8294C45.8294 32.4727 45.8294 32.4727 45.9095 32.4727H45.9894L46.0694 32.5528C46.1494 32.6328 46.2294 32.7928 46.2294 32.8727C46.2294 32.9527 46.3094 33.0327 46.3094 33.1127C46.3094 33.1127 46.3094 33.1127 46.3094 33.1927C46.3094 33.2726 46.3094 33.3527 46.2294 33.3527C46.2294 33.3527 46.2294 33.3527 46.1494 33.4326L46.0694 33.5126C45.9894 33.5126 45.9095 33.5927 45.8294 33.5927C45.7495 33.5927 45.7495 33.5927 45.6695 33.5927C45.5895 33.5927 45.5095 33.5927 45.4295 33.5927C45.3495 33.5927 45.2695 33.5927 45.1896 33.5126L45.1096 33.4326C45.1096 33.4326 45.1096 33.4326 45.0295 33.4326C45.0295 33.4326 45.0295 33.4326 45.0295 33.3527C45.0295 33.2726 45.0295 33.1127 45.0295 33.0327C45.0295 32.9527 45.0295 32.8727 44.9496 32.7928C45.0295 32.7928 45.1096 32.7928 45.1896 32.7127ZM43.1898 44.2311C43.1898 44.3111 43.1898 44.3911 43.1098 44.3911C43.1098 44.5511 43.1098 44.6311 43.1098 44.791C43.1098 44.871 43.1098 45.031 43.1898 45.111C43.1898 45.191 43.2698 45.271 43.3498 45.431C43.4298 45.5909 43.6698 45.7509 43.8298 45.8309C43.9897 45.9108 44.2297 45.9909 44.3897 45.9909C44.4696 45.9909 44.6297 45.9909 44.7096 45.9909C44.7896 45.9909 44.8696 45.9108 45.0295 45.9108C45.1096 45.8309 45.1896 45.8309 45.2695 45.7509C45.3495 45.6709 45.5095 45.5909 45.5895 45.431C45.7495 45.271 45.8294 45.031 45.9095 44.871C45.9095 44.791 45.9894 44.6311 45.9894 44.5511C45.9894 44.3911 45.9894 44.2311 45.9894 44.1512C45.9894 43.9911 45.9095 43.8312 45.8294 43.5912C45.7495 43.4312 45.6695 43.2712 45.5095 43.0313C45.4295 42.9513 45.3495 42.8713 45.2695 42.8713C45.1896 42.7913 45.1096 42.7913 45.0295 42.7113C44.8696 42.6314 44.7096 42.6314 44.6297 42.6314C44.5496 42.6314 44.5496 42.6314 44.4696 42.6314C44.3097 42.6314 44.2297 42.6314 44.0697 42.7113C43.9897 42.7113 43.8298 42.7913 43.7497 42.8713C43.6698 42.9513 43.5898 42.9513 43.4298 43.0313C43.3498 43.0313 43.2699 43.1113 43.2699 43.1913C43.1098 43.3513 42.9498 43.5112 42.7899 43.6712C42.6299 43.8312 42.7099 44.1512 42.9498 44.2311C43.0299 44.2311 43.1098 44.3111 43.1898 44.2311ZM44.6297 43.5112C44.6297 43.5912 44.6297 43.5912 44.6297 43.5112V43.5112ZM43.9097 43.8312C44.0697 43.7512 44.2297 43.6712 44.3897 43.5912C44.4696 43.5912 44.5496 43.5912 44.5496 43.5112H44.6297H44.7096C44.7096 43.5112 44.7096 43.5112 44.7896 43.5112C44.8696 43.5112 44.8696 43.5912 44.9496 43.6712C44.9496 43.7512 45.0295 43.7512 45.0295 43.8312C45.0295 43.9112 45.1096 43.9911 45.1096 44.0711C45.1096 44.1512 45.1096 44.2311 45.1096 44.3911C45.1096 44.4711 45.0295 44.6311 45.0295 44.7111C45.0295 44.791 44.9496 44.791 44.9496 44.871C44.8696 44.951 44.8696 45.031 44.7896 45.031C44.7896 45.031 44.7096 45.031 44.7096 45.111H44.6297C44.5496 45.111 44.4696 45.111 44.3897 45.111H44.3097C44.3097 45.111 44.2297 45.111 44.2297 45.031L44.1497 44.951C44.1497 44.951 44.1497 44.871 44.0697 44.871C44.0697 44.791 44.0697 44.791 44.0697 44.7111C44.0697 44.5511 44.0697 44.3911 44.1497 44.2311C44.1497 44.0711 44.0697 43.9112 43.9097 43.8312C43.8298 43.9112 43.8298 43.8312 43.9097 43.8312Z" fill="black"/>
<path d="M15.4338 34.9523C15.5138 35.1123 15.5938 35.2722 15.6737 35.4322C15.7538 35.5122 15.8337 35.5922 15.8337 35.5922C15.9137 35.6722 15.9938 35.6722 16.0737 35.7522C16.1537 35.8321 16.2337 35.8321 16.3137 35.8321C16.3937 35.8321 16.3937 35.8321 16.4736 35.8321C16.5537 35.8321 16.6336 35.8321 16.7936 35.8321C16.8736 35.8321 16.9536 35.7522 17.1136 35.7522C17.1935 35.6722 17.3536 35.6722 17.4335 35.5922C17.5935 35.5122 17.7534 35.3523 17.9135 35.1922C17.9934 35.1123 18.0734 34.9523 18.1534 34.8723C18.2334 34.7923 18.2334 34.6323 18.3134 34.5524C18.3934 34.3924 18.3934 34.3124 18.3934 34.1524C18.3934 33.9924 18.3934 33.8325 18.3934 33.5925C18.3934 33.1925 18.2334 32.7926 17.9135 32.6326C17.8335 32.5526 17.7534 32.5526 17.6735 32.4727C17.5935 32.3926 17.5135 32.3926 17.4335 32.3926C17.3536 32.3926 17.2735 32.3926 17.2735 32.3926C17.1136 32.3926 16.9536 32.3926 16.7936 32.4727C16.6336 32.5526 16.3937 32.6326 16.2337 32.7926C16.1537 32.8726 15.9938 32.9526 15.9137 33.0326C15.8337 33.1125 15.7538 33.1925 15.6737 33.2725C15.5938 33.3525 15.5138 33.4325 15.4338 33.5925C15.3538 33.7525 15.4338 33.9124 15.5938 34.0724C15.4338 34.1524 15.3538 34.3124 15.3538 34.4723C15.3538 34.6323 15.3538 34.7123 15.3538 34.8723C15.3538 34.7123 15.3538 34.7923 15.4338 34.9523ZM17.2735 33.1125H17.1935C17.1935 33.1125 17.1935 33.1125 17.2735 33.1125ZM16.2337 33.6724C16.2337 33.7525 16.1537 33.7525 16.1537 33.7525C16.2337 33.7525 16.2337 33.6724 16.2337 33.6724ZM16.1537 33.7525C16.2337 33.6724 16.3137 33.5925 16.4736 33.5125C16.4736 33.5125 16.3937 33.5125 16.3937 33.5925L16.4736 33.5125C16.6336 33.4325 16.7936 33.2725 17.0336 33.1925C17.1136 33.1925 17.1136 33.1925 17.1935 33.1125H17.2735C17.2735 33.1125 17.2735 33.1125 17.3536 33.1125C17.3536 33.1125 17.3536 33.1125 17.4335 33.1125L17.5135 33.1925C17.5135 33.1925 17.5135 33.2725 17.5935 33.2725C17.5935 33.3525 17.5935 33.3525 17.5935 33.4325C17.5935 33.5125 17.5935 33.5925 17.5935 33.6724C17.5935 33.7525 17.5935 33.7525 17.5935 33.8325C17.5935 33.9124 17.5135 34.0724 17.5135 34.1524C17.4335 34.2323 17.4335 34.3124 17.3536 34.3924C17.2735 34.4723 17.1935 34.5524 17.1136 34.6323C17.0336 34.6323 17.0336 34.7123 16.9536 34.7123C16.8736 34.7123 16.8736 34.7123 16.7936 34.7123H16.7136H16.6336C16.6336 34.7123 16.6336 34.7123 16.5537 34.7123C16.5537 34.7123 16.5537 34.6323 16.4736 34.6323C16.4736 34.6323 16.4736 34.5524 16.3937 34.5524C16.3937 34.4723 16.3937 34.3924 16.3937 34.3924C16.3937 34.3124 16.3937 34.3124 16.3937 34.2323C16.3937 34.0724 16.3137 33.9124 16.1537 33.7525C16.1537 33.8325 16.1537 33.8325 16.1537 33.7525Z" fill="black"/>
<path d="M15.8346 43.991C15.7547 44.071 15.6747 44.2309 15.6747 44.311C15.5947 44.4709 15.6747 44.7108 15.9147 44.7909C15.8346 44.9508 15.7547 45.1108 15.6747 45.2708C15.5947 45.4308 15.5947 45.5908 15.5947 45.7507C15.5947 45.9107 15.5947 45.9907 15.5947 46.1507C15.5947 46.2307 15.5947 46.3907 15.6747 46.4706C15.6747 46.5506 15.7547 46.6306 15.8346 46.7906C15.9147 46.8705 15.9147 46.9506 15.9946 47.0305C15.9946 47.0305 16.0746 47.1105 16.1546 47.1105C16.2346 47.1906 16.3146 47.1906 16.3946 47.2705C16.5545 47.3505 16.7146 47.3505 16.9545 47.4305C17.0345 47.4305 17.1144 47.4305 17.1945 47.4305C17.2745 47.4305 17.2745 47.4305 17.3544 47.3505C17.4345 47.3505 17.5144 47.2705 17.5944 47.1906C17.6744 47.1105 17.7544 47.1105 17.8344 47.0305C17.9143 46.9506 17.9944 46.8705 18.0743 46.7906C18.1543 46.7106 18.2343 46.5506 18.3143 46.4706C18.3943 46.3106 18.4743 46.1507 18.5543 45.9907C18.6343 45.7507 18.7142 45.4308 18.7142 45.1908C18.7142 44.9508 18.7142 44.7108 18.6343 44.4709C18.6343 44.3909 18.5543 44.3109 18.4743 44.2309C18.3943 44.1509 18.3943 44.071 18.3143 43.991C18.2343 43.911 18.1543 43.831 18.0743 43.831C17.9944 43.751 17.8344 43.671 17.6744 43.591C17.5944 43.591 17.5144 43.5111 17.4344 43.5111C17.3544 43.5111 17.2745 43.5111 17.1945 43.5111H17.1144C16.8745 43.5111 16.6345 43.591 16.3946 43.751C16.0746 43.751 15.9147 43.911 15.8346 43.991ZM16.7945 46.4706H16.8745C16.8745 46.4706 16.8745 46.4706 16.7945 46.4706ZM16.8745 46.4706C16.8745 46.3907 16.8745 46.3907 16.8745 46.4706V46.4706ZM16.8745 46.3907C16.9545 46.3907 16.9545 46.3907 16.8745 46.3907V46.3907ZM17.1945 44.3909C17.1144 44.3909 17.1144 44.3909 17.1945 44.3909V44.3909ZM16.7146 44.3909C16.7945 44.3909 16.7945 44.3909 16.8745 44.3909C16.9545 44.3909 17.0345 44.3909 17.1144 44.3909H17.1945L17.2745 44.4709L17.3544 44.5509C17.3544 44.6309 17.4344 44.6309 17.4344 44.7108C17.4344 44.7909 17.5144 44.8709 17.5144 44.9508C17.5144 45.1108 17.5144 45.1908 17.5144 45.3508V45.4308C17.5144 45.5908 17.4345 45.6707 17.3544 45.7507C17.2745 45.8307 17.1945 45.9907 17.1144 46.0706L17.0345 46.1507C16.9545 46.2307 16.9545 46.2307 16.8745 46.3106C16.8745 46.3106 16.7945 46.3106 16.7945 46.3907H16.7146H16.6345C16.5545 46.3907 16.5545 46.3907 16.4746 46.3106L16.3946 46.2307C16.3946 46.2307 16.3946 46.2307 16.3146 46.1507C16.3146 46.1507 16.3146 46.0706 16.2346 46.0706C16.2346 45.9907 16.2346 45.9907 16.2346 45.9107C16.2346 45.8307 16.2346 45.8307 16.2346 45.7507C16.2346 45.5908 16.2346 45.5107 16.3146 45.4308C16.3146 45.3508 16.3946 45.2708 16.3946 45.1908V45.1108C16.3946 45.1108 16.3946 45.1108 16.3946 45.1908C16.3946 45.1908 16.3946 45.1108 16.4746 45.1108C16.5545 45.0308 16.5545 44.8709 16.5545 44.7909C16.5545 44.7108 16.4746 44.5509 16.3946 44.5509C16.3946 44.5509 16.3946 44.5509 16.3146 44.5509C16.3146 44.5509 16.3946 44.5509 16.3946 44.4709C16.5545 44.4709 16.6345 44.4709 16.7146 44.3909ZM5.35614 35.6722C5.27615 35.6722 5.27615 35.6722 5.35614 35.6722V35.6722Z" fill="black"/>
</g>
<defs>
<clipPath id="clip0_9_354">
<rect width="51.9105" height="50.3132" fill="white" transform="translate(0.555908 0.95697)"/>
</clipPath>
</defs>
</svg>
