<svg width="65" height="63" viewBox="0 0 65 63" fill="none" xmlns="http://www.w3.org/2000/svg">
<g clip-path="url(#clip0_2_38)">
<path d="M47.2223 3.86684C47.3207 3.86684 47.4192 3.86684 47.5176 3.86684C47.7147 3.96533 47.9116 3.96533 48.01 3.96533C48.3055 4.06381 48.601 4.1623 48.8965 4.26077C49.0934 4.35925 49.2904 4.45774 49.3888 4.55622C49.5858 4.65471 49.6843 4.75319 49.8812 4.95015C49.9797 5.04863 50.0783 5.14712 50.1767 5.2456C50.2752 5.44256 50.4722 5.54105 50.5706 5.73801C50.7676 5.93498 50.8661 6.13194 51.063 6.4274C51.1615 6.62435 51.2601 6.91981 51.3585 7.11678C51.5554 7.5107 51.6539 7.90463 51.7524 8.29857C51.8509 8.79098 51.9494 9.28339 52.0478 9.87429C52.0478 10.1697 52.4418 10.3667 52.7372 10.2682C52.8357 10.2682 53.0327 10.1697 53.0327 10.0713C53.1312 9.97277 53.1312 9.7758 53.1312 9.67732C53.0327 8.88946 52.8357 8.1016 52.5403 7.31373C52.2448 6.62435 52.0478 5.93498 51.5554 5.34409C51.457 5.2456 51.3585 5.04863 51.26 4.95015C51.1615 4.75319 50.9646 4.65471 50.8661 4.45774C50.7676 4.1623 50.4722 3.96533 50.2752 3.76836C49.8812 3.47292 49.3888 3.27595 48.8965 3.07898C48.6994 2.9805 48.3055 2.9805 48.01 2.88202C47.8131 2.88202 47.7147 2.88202 47.5176 2.88202C47.4192 2.88202 47.3207 2.88202 47.3207 2.88202C47.0252 2.88202 46.8283 3.07898 46.8283 3.37443C46.7298 3.66987 47.0252 3.86684 47.2223 3.86684ZM62.8809 34.3965C62.684 34.0025 62.5855 33.5101 62.3885 33.1162C62.1916 32.7223 61.9946 32.4268 61.7977 32.1313C61.7977 32.0329 61.6991 32.0329 61.6991 31.9344C61.6007 31.7375 61.4038 31.6389 61.3052 31.5405C61.1083 31.3436 60.7144 31.1465 60.4189 30.9496C60.1234 30.8511 59.9265 30.7526 59.631 30.6542C59.3355 30.5557 59.1386 30.5557 58.8431 30.5557C58.7447 30.5557 58.5478 30.5557 58.4492 30.5557C58.1538 30.5557 57.8584 30.5557 57.4644 30.6542C57.169 30.6542 56.8735 30.7526 56.5781 30.9496C56.4795 30.9496 56.3811 30.9496 56.3811 31.0481C56.1842 31.1465 56.0856 31.442 56.1842 31.7375C56.2826 31.9344 56.5781 32.0329 56.8735 31.9344C56.972 31.9344 57.0705 31.9344 57.2674 31.836C57.5629 31.836 57.7599 31.7375 58.0553 31.7375C58.2523 31.7375 58.3508 31.7375 58.5478 31.7375C58.7447 31.7375 58.9416 31.7375 59.1386 31.836C59.3355 31.836 59.4341 31.9344 59.631 31.9344C59.828 31.9344 60.0249 32.0329 60.222 32.1313C60.4189 32.2299 60.5173 32.3283 60.7144 32.4268C60.8128 32.5253 61.0098 32.7223 61.1083 32.9192C61.5022 33.5101 61.7977 34.1996 62.0931 34.9874C62.1916 35.2828 62.2901 35.5783 62.3885 35.8737C62.487 36.3661 62.684 36.957 62.7825 37.4495C62.8809 37.7449 63.1764 37.9419 63.3733 37.8434C63.6688 37.7449 63.7673 37.4495 63.7673 37.2525C63.3733 36.2677 63.1764 35.2828 62.8809 34.3965ZM3.00348 46.9038C2.70803 45.8204 2.41258 44.6386 2.21562 43.5554C2.11713 43.063 2.01866 42.5705 1.82169 42.0781C1.7232 41.7826 1.7232 41.4873 1.62472 41.2903C1.62472 41.0933 1.52624 40.9948 1.52624 40.7979C1.52624 40.5024 1.23079 40.4039 1.03383 40.4039H0.935343C0.83686 40.4039 0.738378 40.5024 0.639895 40.6008C0.541412 40.7979 0.541412 40.8963 0.541412 40.9948C0.541412 41.1918 0.541412 41.2903 0.639895 41.4873C0.639895 41.7826 0.738378 42.0781 0.83686 42.3736C0.935343 42.866 1.03383 43.3584 1.23079 43.8508C1.52624 44.9341 1.7232 46.1159 2.01866 47.1993C2.11713 47.4946 2.41258 47.6916 2.70803 47.5932C2.905 47.5932 3.10197 47.1993 3.00348 46.9038ZM15.4123 16.7681C15.5108 17.162 15.6092 17.4574 15.8062 17.7529C15.9047 18.0484 16.2986 18.1468 16.5941 17.9498C16.6926 17.8514 16.791 17.7529 16.8896 17.6545C16.8896 17.4574 16.8896 17.359 16.8896 17.2605V17.162C16.791 16.965 16.6926 16.7681 16.6926 16.4727C16.5941 16.2756 16.5941 16.0787 16.5941 15.8817C16.5941 15.4878 16.5941 15.0938 16.6926 14.6999C16.791 14.4045 16.791 14.1091 16.8896 13.8136C16.988 13.5181 17.0865 13.2227 17.185 12.9273C17.382 12.4349 17.6774 12.0409 17.8744 11.647C18.1698 11.2531 18.3668 10.8591 18.6622 10.4652L18.7607 10.3667C18.7607 10.3667 18.6622 10.3667 18.6622 10.4652C18.7607 10.3667 18.8592 10.2682 18.8592 10.1697C18.8592 10.0713 18.8592 9.87429 18.8592 9.7758C18.7607 9.57883 18.5638 9.48036 18.3668 9.48036C18.2683 9.48036 18.1698 9.48036 18.1698 9.57884C18.0713 9.67732 17.9728 9.7758 17.8744 9.87429C17.7759 9.97277 17.6774 10.0713 17.5789 10.1697C17.382 10.3667 17.185 10.5636 17.0865 10.8591C16.6926 11.45 16.3971 11.9425 16.1017 12.6318C16.0032 12.9272 15.9047 13.2227 15.7078 13.5181C15.6092 13.8136 15.5108 14.1091 15.5108 14.4045C15.4123 14.8969 15.3139 15.4878 15.4123 15.9803C15.3139 16.2756 15.3139 16.4727 15.4123 16.7681ZM62.487 57.7369C62.3885 57.7369 62.3885 57.7369 62.2901 57.7369C62.0931 57.7369 61.7977 57.9338 61.7977 58.1308C61.6007 58.6232 61.4038 59.1156 61.2067 59.608C61.2067 59.7066 61.1083 59.805 61.1083 59.805C61.0098 60.0019 60.9113 60.199 60.7144 60.3959C60.6159 60.4944 60.5173 60.5929 60.4189 60.6914C60.3204 60.7898 60.1234 60.8884 60.025 60.8884C59.631 60.9868 59.3355 61.0853 58.9417 61.1837C58.5478 61.2823 58.1538 61.2823 57.8584 61.2823C57.2674 61.2823 56.775 61.3808 56.1842 61.3808C55.8887 61.3808 55.5932 61.3808 55.1993 61.3808C55.0024 61.3808 54.7069 61.3808 54.51 61.3808C54.2145 61.3808 54.0175 61.5777 54.0175 61.8732C54.0175 62.1686 54.2145 62.3655 54.51 62.3655C54.7069 62.3655 55.0024 62.464 55.1993 62.464C55.5932 62.464 55.9872 62.464 56.3811 62.464C57.169 62.464 57.9568 62.3655 58.6462 62.2671C59.0402 62.2671 59.4341 62.1686 59.828 62.0701C59.9265 62.0701 60.025 62.0701 60.025 61.9716C60.222 61.9716 60.3204 61.8732 60.5173 61.7747C60.7144 61.6762 60.9113 61.5777 61.0098 61.4792C61.2068 61.3808 61.4038 61.1837 61.6007 60.9868C61.9946 60.5929 62.1916 60.0019 62.487 59.5096C62.684 59.1156 62.7825 58.6232 62.9794 58.2293C62.9794 58.1308 62.7825 57.8354 62.487 57.7369Z" fill="black"/>
<path d="M57.5628 59.2137C58.2522 59.2137 59.1385 59.3121 59.7295 58.9182C60.2218 58.6227 60.3203 58.0319 60.5173 57.6379C60.6158 57.1455 60.7142 56.6531 60.7142 56.1607C60.8127 55.1759 60.8127 54.2895 60.8127 53.3047C60.8127 52.1229 60.9113 50.9411 60.7142 49.7593C60.7142 49.5624 60.5173 49.3653 60.4188 49.1684C60.3203 48.9714 60.1234 48.7745 59.9264 48.7745C59.7295 48.6759 59.5324 48.5775 59.3355 48.5775C59.1385 48.5775 58.9416 48.5775 58.7446 48.5775C58.2522 48.5775 57.7598 48.676 57.2673 48.676C56.9719 48.676 56.6764 48.6759 56.2825 48.7745C56.2825 48.3806 56.1841 47.8882 56.1841 47.4942C56.0856 47.0017 55.987 46.5094 55.6917 46.017C55.6917 46.017 55.6917 46.017 55.6917 45.9185C56.0856 45.9185 56.4795 45.8199 56.8735 45.8199C57.3659 45.7215 57.8582 45.7215 58.4491 45.623C58.6461 45.623 58.843 45.5246 59.04 45.5246C59.237 45.5246 59.5324 45.426 59.7295 45.3276C60.1234 45.2291 60.4188 45.0321 60.7142 44.9336C61.1082 44.7367 61.3051 44.2443 61.4037 43.8504C61.5021 43.6534 61.5021 43.4564 61.5021 43.2594C61.5021 43.161 61.5021 43.0625 61.5021 42.8655C61.5021 42.3731 61.5021 41.9792 61.5021 41.4868C61.5021 40.5019 61.4037 39.5171 61.3051 38.4338C61.3051 37.9414 61.2066 37.3505 61.1082 36.858C61.1082 36.7596 61.0097 36.6611 61.0097 36.4641C60.9113 36.2672 60.9112 36.0702 60.8127 35.9717C60.8127 35.8733 60.7142 35.7748 60.6158 35.6762C60.5173 35.5778 60.4188 35.3809 60.3203 35.2823C60.2219 35.2823 60.2219 35.1838 60.1234 35.1838C59.9264 35.0854 59.8279 34.9869 59.6309 34.8884C59.3355 34.4944 59.04 34.4944 58.6461 34.396H58.5477C58.2522 34.396 58.0552 34.396 57.7598 34.4944C57.5628 34.4944 57.3659 34.4944 57.1688 34.593C56.578 34.593 56.0856 34.6914 55.4946 34.7899C54.5099 34.8884 53.525 34.9869 52.5402 35.0854C51.7523 35.1838 50.9645 35.2823 50.1766 35.3809C50.1766 35.3809 50.2751 35.3809 50.2751 35.2823C50.4721 35.0854 50.5705 34.8884 50.5705 34.6915C50.4721 33.7066 50.3735 32.8202 50.2751 31.8355C50.1766 31.3431 50.1766 30.9491 50.0781 30.4566C50.0781 30.1613 49.9796 29.9642 49.9796 29.6689C49.9796 29.5703 49.9796 29.4719 49.9796 29.3734C49.9796 29.0779 49.8811 28.7824 49.7827 28.5855C49.5857 28.2901 49.3887 27.9946 49.0933 27.8961C48.7979 27.6992 48.5024 27.6992 48.1085 27.6992C47.9115 27.6992 47.7145 27.6992 47.4191 27.6992C47.2221 27.6992 46.9267 27.6992 46.7297 27.6992C45.7449 27.6992 44.7601 27.7977 43.7752 27.8961C42.7904 27.9946 41.8055 28.0931 40.7223 28.0931C39.639 28.1916 38.6541 28.2901 37.5708 28.2901C36.5859 28.2901 35.6996 28.2901 34.7148 28.3885C34.7148 28.2901 34.7148 28.1916 34.7148 28.1916C34.6163 27.3053 34.5178 26.4188 34.5178 25.5325C34.5178 25.1386 34.4194 24.6462 34.4194 24.2523C34.4194 24.0553 34.3209 23.7599 34.3209 23.5629C34.3209 23.3659 34.2224 23.2675 34.1239 23.0705V22.972C34.1239 22.972 34.1239 22.8735 34.0254 22.8735C34.4194 22.8735 34.8133 22.8735 35.2072 22.8735C36.192 22.8735 37.1769 22.775 38.2602 22.6765C39.048 22.5781 39.8359 22.4796 40.6237 22.2826C41.4116 22.1841 42.101 21.9872 42.7904 21.7902C43.1844 21.6917 43.5783 21.5933 43.9722 21.3963C44.3662 21.2978 44.7601 21.1008 45.154 20.9039C46.0403 20.5099 46.8282 19.919 47.5175 19.3281C47.9115 18.9342 48.2069 18.5403 48.6009 18.1463C48.8963 17.7524 49.1917 17.26 49.3887 16.7676C49.5856 16.3737 49.6842 15.8812 49.7827 15.4873C49.8811 14.9949 49.9796 14.5025 49.9796 13.9116C49.9796 13.4191 49.9796 12.8283 49.8811 12.3359C49.7827 11.942 49.7827 11.548 49.5857 11.1541C49.4872 10.7602 49.2903 10.3662 49.1918 9.97228C48.9948 9.57835 48.8963 9.2829 48.6993 8.88897C48.4039 8.39656 48.01 7.80567 47.5175 7.41174C47.2221 7.11629 46.9267 6.91932 46.6312 6.72236C46.3357 6.52539 45.9418 6.42691 45.6464 6.32842C45.2525 6.22995 44.8585 6.13146 44.5631 6.13146C44.4646 6.13146 44.4646 6.13146 44.3662 6.13146C44.2676 6.13146 44.2676 6.13146 44.1691 6.13146C43.9722 5.93449 43.9722 5.83601 43.8737 5.73752C43.7752 5.44208 43.5783 5.14663 43.3813 4.94967C42.9873 4.35877 42.4949 3.86635 42.0026 3.37394C41.7071 3.0785 41.5102 2.88153 41.2147 2.68456C41.1162 2.58609 41.0177 2.4876 40.8208 2.38912C40.6237 2.29063 40.5253 2.09366 40.3284 1.99519C40.0329 1.79822 39.7374 1.60125 39.4419 1.50277C38.8511 1.10884 38.1617 0.911875 37.3738 0.71491C36.9799 0.616427 36.6845 0.616427 36.2906 0.517944C36.0936 0.517944 35.9951 0.517944 35.7981 0.517944C35.5027 0.517944 35.3057 0.517944 35.0103 0.517944C34.2224 0.616427 33.4346 0.813392 32.7452 1.10884C32.0558 1.40429 31.4649 1.69974 30.874 2.19215C30.5786 2.38912 30.2831 2.68456 29.9876 2.98001C29.7907 3.17698 29.5937 3.47242 29.3968 3.76788C29.1998 3.96484 29.1013 4.26029 29.0029 4.45725C28.9043 4.45725 28.9043 4.35877 28.8058 4.35877C28.6089 4.26029 28.4119 4.26029 28.215 4.16181C28.018 4.16181 27.821 4.06332 27.624 4.06332C27.4271 3.96484 27.1316 3.96484 26.8362 3.96484C26.6393 3.96484 26.5408 3.96484 26.3438 3.96484C26.1469 3.96484 25.9498 3.96484 25.7529 3.96484C25.5559 3.96484 25.4574 4.06332 25.2604 4.06332C24.768 4.16181 24.3741 4.35877 23.8817 4.55573C23.1923 4.85119 22.6999 5.24511 22.2075 5.83601C21.7151 6.42691 21.4197 7.11629 21.2226 7.80567C20.9273 8.59353 20.8287 9.38139 20.9273 10.1693C20.9273 10.5632 21.0257 10.8586 21.1242 11.2526C21.1242 11.351 21.2226 11.4495 21.2226 11.548C20.7302 11.6465 20.3363 11.8434 19.9424 12.0404C19.5484 12.2373 19.2531 12.5328 18.9576 12.9268C18.6621 13.2222 18.4652 13.6162 18.2682 14.0101C18.1697 14.207 18.1697 14.5025 18.0713 14.6995C18.0713 14.8964 18.0713 15.1919 17.9727 15.3888C17.9727 15.5858 17.9727 15.8812 18.0713 16.0782C18.0713 16.3737 18.2682 16.7676 18.3666 17.063C18.5637 17.3585 18.6621 17.654 18.8591 17.8509C19.0561 18.0479 19.2531 18.2448 19.45 18.5403C19.9424 19.0327 20.4348 19.4266 21.0257 19.8205C21.5181 20.2145 22.1091 20.5099 22.6999 20.7069C22.8969 20.8054 23.0938 20.9039 23.3893 21.0023C23.5862 21.1008 23.8817 21.1994 24.1772 21.2978C24.4726 21.3963 24.6696 21.4947 24.9651 21.4947C25.2604 21.5933 25.5559 21.6917 25.8514 21.6917C26.3438 21.7902 26.8362 21.8887 27.3286 21.9872C27.821 22.0857 28.4119 22.1841 28.9043 22.2826C29.3968 22.3811 29.9876 22.3811 30.48 22.4796C31.071 22.5781 31.6618 22.5781 32.2528 22.5781C32.5482 22.5781 32.8436 22.5781 33.2376 22.5781L33.1391 22.6765V22.775C33.0406 22.972 33.0406 23.1689 33.0406 23.3659C33.0406 23.5629 33.0406 23.7599 32.9421 23.9568C32.9421 24.4493 32.9421 24.8432 32.9421 25.3356C32.9421 26.2219 33.0406 27.2067 33.2376 28.0931C32.6467 28.0931 31.9573 28.0931 31.3663 28.0931C29.3968 28.0931 27.4271 28.0931 25.4574 28.1916C24.4726 28.1916 23.3893 28.1916 22.4044 28.2901C21.4197 28.2901 20.4348 28.3885 19.45 28.3885C18.4652 28.3885 17.4803 28.4871 16.4955 28.5855C16.2985 28.5855 16.003 28.5855 15.8061 28.684C15.5107 28.684 15.3137 28.7824 15.0183 28.881C14.8213 28.9795 14.6243 29.0779 14.5259 29.1764C14.4274 29.2749 14.3289 29.4719 14.2304 29.5703C14.1319 29.7673 14.1319 29.9642 14.0335 30.1613C14.0335 30.4566 14.0335 30.7521 14.0335 31.0476C14.1319 31.9339 14.2304 32.8202 14.4274 33.6081C14.5259 34.002 14.6243 34.4944 14.6243 34.8884C14.6243 34.9869 14.7228 35.1838 14.7228 35.2823C14.3289 35.2823 14.0335 35.2823 13.6395 35.3809C12.6547 35.3809 11.6699 35.3809 10.685 35.4793C10.1926 35.4793 9.60172 35.5778 9.10931 35.5778C8.71538 35.5778 8.32144 35.6762 7.82903 35.6762C7.63207 35.6762 7.4351 35.8732 7.33662 36.0702C6.8442 36.0702 6.45028 36.1687 5.95786 36.1687C5.7609 36.1687 5.56393 36.2672 5.36696 36.2672C5.26849 36.2672 5.26848 36.2672 5.17 36.2672C4.97303 36.3656 4.87455 36.3656 4.67758 36.4641C4.57911 36.4641 4.48062 36.5627 4.48062 36.6611C4.38214 36.7596 4.28365 36.858 4.18517 36.9566C4.08668 37.0551 3.98821 37.252 3.98821 37.3505C3.88972 37.5474 3.88972 37.6459 3.88972 37.8429C3.79124 38.4338 3.88972 39.0247 3.98821 39.6156C3.98821 40.108 4.08668 40.6005 4.08668 41.0928C4.18517 42.0776 4.28365 43.161 4.48062 44.1458C4.5791 44.6382 4.67759 45.2291 4.87455 45.7215C5.07152 46.2139 5.26849 46.7064 5.7609 47.0017C5.95786 47.1988 6.15482 47.2972 6.35179 47.3957C6.64724 47.4942 7.04117 47.5927 7.33662 47.5927H7.4351V47.6912C7.4351 47.7896 7.4351 47.9866 7.33662 48.0851C7.33662 48.1835 7.33662 48.3806 7.33662 48.479C7.33662 49.0699 7.4351 49.5624 7.53359 50.1532C7.53359 50.1532 7.53359 50.1532 7.53359 50.2517C7.13965 50.3502 6.8442 50.3502 6.45028 50.4487C6.35179 50.4487 6.25331 50.4487 6.15482 50.4487C6.05634 50.4487 5.95786 50.4487 5.85938 50.4487C5.46544 50.7442 5.26849 50.9411 5.36696 51.2366C5.26849 51.2366 5.17 51.2366 5.07152 51.2366C4.87455 51.2366 4.67759 51.335 4.48062 51.335C4.28365 51.335 4.08669 51.4335 3.79124 51.4335C3.59427 51.4335 3.49579 51.532 3.29883 51.6305C3.10186 51.6305 3.00338 51.7289 2.90489 51.8274C2.51096 52.1229 2.314 52.5168 2.314 53.0092C2.314 53.3047 2.314 53.6002 2.41248 53.7971C2.51096 54.2895 2.51096 54.8804 2.60945 55.3728C2.80642 56.3577 3.10186 57.3425 3.39731 58.2288C3.59427 58.7212 3.79124 59.2137 3.98821 59.7061C4.08668 59.903 4.28365 60.1 4.38214 60.2969C4.57911 60.4939 4.77606 60.6909 4.97303 60.8879C5.07152 60.8879 5.17 60.9863 5.17 60.9863C5.36696 61.0848 5.46544 61.0848 5.66241 61.1832C5.95786 61.2818 6.25331 61.3803 6.54875 61.3803C7.04117 61.4787 7.53359 61.4787 8.026 61.4787C8.51841 61.4787 9.01082 61.4787 9.50323 61.4787C10.5865 61.4787 11.5714 61.4787 12.6547 61.3803C13.6395 61.3803 14.6243 61.3803 15.7077 61.2818C17.8743 61.1832 20.0408 61.1832 22.306 61.0848C22.7984 61.0848 23.2908 61.0848 23.6847 60.9863C24.0786 60.9863 24.4726 60.8879 24.768 60.7893C25.359 60.6909 25.8514 60.3955 26.2453 60.0016C26.6392 59.5091 26.7377 58.9182 26.8362 58.4258C26.9347 57.9333 26.9347 57.3425 27.0332 56.8501C27.1316 55.8652 27.1316 54.8804 27.1316 53.8955C27.1316 53.4031 27.1316 52.9107 27.1316 52.4184C27.1316 52.0244 27.1316 51.7289 27.0332 51.335C27.0332 51.0395 26.9347 50.7442 26.8362 50.5471C26.7377 50.4487 26.7377 50.2517 26.6392 50.1532C26.5408 50.0548 26.4422 49.9563 26.3438 49.8577C26.2453 49.8577 26.2453 49.7593 26.1469 49.7593C26.0483 49.6608 25.8514 49.6608 25.6544 49.5624C25.5559 49.5624 25.4574 49.5624 25.4574 49.5624C25.359 49.5624 25.162 49.5624 25.0635 49.5624C24.8665 49.5624 24.6696 49.5624 24.3741 49.5624C24.1772 49.5624 24.0786 49.5624 23.8817 49.5624C23.4878 49.5624 23.0938 49.5624 22.7984 49.5624C22.6999 49.5624 22.503 49.5624 22.4044 49.5624C22.503 49.4638 22.6015 49.3653 22.6015 49.1684C22.6015 49.0699 22.6015 48.873 22.6015 48.7745C22.6015 48.3806 22.503 48.0851 22.4044 47.6912C22.4044 47.4942 22.306 47.2972 22.2075 47.0017C22.2075 47.0017 22.2075 47.0017 22.2075 46.9033C22.2075 46.8048 22.2075 46.8048 22.1091 46.8048C22.2075 46.8048 22.2075 46.8048 22.306 46.8048C23.2908 46.6078 24.2757 46.5094 25.2604 46.2139C25.5559 46.1154 25.7529 46.1154 26.0483 45.9185C26.1469 45.9185 26.2453 45.8199 26.2453 45.8199C26.3438 45.7215 26.4422 45.623 26.5408 45.5246C26.7377 45.426 26.8362 45.1306 26.8362 44.9336C26.8362 44.8352 26.8362 44.8352 26.9347 44.7367C26.9347 44.5397 26.9347 44.4412 27.0332 44.2443C27.0332 44.0473 27.0332 43.8504 27.0332 43.5549C27.0332 43.2594 27.0332 42.964 27.0332 42.6686C27.0332 41.6837 26.9347 40.6989 26.8362 39.8126C26.7377 38.7292 26.6393 37.6459 26.3438 36.5627C26.3438 36.4641 26.3438 36.4641 26.2453 36.3656C26.2453 36.2672 26.1469 36.0702 26.0483 35.9717C25.9498 35.8733 25.9498 35.7748 25.8514 35.6762C25.7529 35.5778 25.6544 35.3809 25.4574 35.2823C25.359 35.2823 25.359 35.1838 25.2604 35.1838C25.0635 35.0854 24.9651 34.9869 24.768 34.9869C24.4726 34.8884 24.1772 34.8884 23.8817 34.8884C23.7833 34.8884 23.7833 34.8884 23.6847 34.8884C23.4878 34.8884 23.3893 34.8884 23.1923 34.8884C22.8969 34.8884 22.6015 34.8884 22.306 34.8884C21.2226 34.9869 20.2379 34.9869 19.1545 35.0854C17.9727 35.1838 16.7909 35.1838 15.6092 35.2823C15.6092 35.0854 15.6092 34.8884 15.6092 34.6915C15.6092 34.1991 15.5107 33.8051 15.4122 33.3127C15.3137 32.4263 15.3137 31.4415 15.3137 30.5552V30.4566C15.4122 30.4566 15.4122 30.3582 15.5107 30.3582C16.397 29.9642 17.3819 29.8658 18.3666 29.6689C18.8591 29.5703 19.45 29.5703 19.9424 29.4719C20.4348 29.4719 21.0257 29.3734 21.5181 29.3734C22.6015 29.3734 23.6847 29.2749 24.768 29.2749C26.8362 29.2749 28.9043 29.2749 30.9724 29.1764C33.1391 29.1764 35.2072 29.0779 37.3738 29.0779C38.4572 29.0779 39.4419 29.0779 40.5253 29.0779C41.5102 29.0779 42.5934 29.0779 43.5783 29.0779C44.1691 29.0779 44.7601 29.0779 45.3509 29.0779C45.9418 29.0779 46.5327 29.0779 47.1236 29.1764C47.3206 29.1764 47.4191 29.2749 47.6161 29.2749C47.6161 29.3734 47.7145 29.3734 47.7145 29.4719C47.9115 29.8658 47.9115 30.3582 48.01 30.8506C48.1085 31.3431 48.1085 31.9339 48.1085 32.4263C48.1085 33.1157 48.1085 33.7066 48.1085 34.396C48.1085 34.7899 48.3054 35.0854 48.6009 35.1838C47.5175 35.2823 46.5327 35.3809 45.4494 35.5778C44.8585 35.6762 44.3662 35.6762 43.7752 35.8733C43.4797 35.9717 43.1844 35.9717 42.8889 36.0702C42.6919 36.0702 42.5934 36.0702 42.4949 36.1687H42.3965C41.904 36.1687 41.4116 36.2672 41.0177 36.3656C40.9192 36.3656 40.8208 36.3656 40.7223 36.4641C40.6237 36.4641 40.5253 36.5627 40.3284 36.5627C40.1313 36.6611 40.0329 36.6611 39.8359 36.7596C39.7374 36.7596 39.639 36.858 39.639 36.858C39.5405 36.9566 39.4419 37.0551 39.245 37.1535C39.1466 37.252 39.048 37.3505 38.9495 37.5474C38.8511 37.6459 38.8511 37.8429 38.8511 37.9414C38.7526 38.3353 38.8511 38.7292 38.9495 39.1232C38.9495 39.3201 39.048 39.6156 39.048 39.8126C39.1466 40.305 39.245 40.7974 39.3435 41.1913C39.639 42.2746 39.9344 43.2594 40.4268 44.1458C40.6237 44.4412 40.8208 44.6382 41.0177 44.8352C41.2147 45.0322 41.5102 45.2291 41.7071 45.3276C41.8055 45.3276 41.904 45.426 42.0026 45.426C42.1995 45.5246 42.3965 45.5246 42.4949 45.623C42.5934 45.623 42.6919 45.7215 42.8889 45.7215C43.0858 45.8199 43.3813 45.8199 43.5783 45.8199H43.6767C43.6767 45.9185 43.5783 45.9185 43.5783 46.017V46.1154C43.3813 46.7064 43.3813 47.2972 43.4797 47.8882C43.4797 48.3806 43.8737 48.676 44.2676 48.676C44.4646 48.676 44.6615 48.5775 44.8585 48.479C44.957 48.3806 45.0555 48.2821 45.0555 48.0851C45.0555 47.9866 45.0555 47.7896 45.0555 47.6912C44.957 47.1003 44.8585 46.5094 44.5631 46.017C44.5631 46.017 44.5631 45.9185 44.4646 45.9185C45.4494 46.017 46.3357 46.017 47.3206 46.017C48.4039 46.017 49.4872 45.9185 50.4721 45.8199C51.7523 45.7215 52.9341 45.623 54.2144 45.5246V45.623C54.2144 45.7215 54.2144 45.7215 54.1159 45.8199C54.1159 46.017 54.0174 46.2139 54.0174 46.3124C54.0174 46.6078 54.0174 46.8048 54.0174 47.1003C54.0174 47.4942 54.1159 47.9866 54.1159 48.3806C52.9341 48.479 51.7523 48.5775 50.5705 48.676C49.1917 48.7745 47.813 48.7745 46.4343 48.873C45.7449 48.873 44.957 48.873 44.2676 48.9714C43.6767 48.9714 43.0858 49.07 42.4949 49.07C42.4949 49.07 42.4949 49.07 42.5934 49.07C42.298 49.07 42.101 49.1684 42.0026 49.3653C41.7071 49.3653 41.4116 49.3653 41.1162 49.3653C40.6237 49.3653 40.2298 49.3653 39.7374 49.4638C39.4419 49.4638 39.1466 49.5624 38.9495 49.5624C38.7526 49.5624 38.5556 49.7593 38.3587 49.8577C38.2602 49.8577 38.2602 49.9563 38.1617 49.9563C38.0632 50.0548 37.9648 50.1532 37.9648 50.2517C37.8663 50.3502 37.8663 50.5471 37.8663 50.6456C37.8663 50.7442 37.8663 50.9411 37.8663 51.0395C37.8663 51.1381 37.8663 51.335 37.8663 51.532C37.8663 51.6305 37.8663 51.7289 37.8663 51.8274C37.8663 52.1229 37.9648 52.3199 37.9648 52.6153C38.0632 53.1077 38.1617 53.6002 38.2602 54.0925C38.4572 54.9789 38.6541 55.8652 39.048 56.7515C39.1466 57.047 39.3435 57.3425 39.4419 57.6379C39.4419 57.7364 39.5405 57.7364 39.5405 57.8349C39.639 58.0319 39.8359 58.1303 39.9344 58.3273C40.3284 58.7212 40.9192 58.8197 41.4116 58.9182C42.0026 58.9182 42.5934 58.9182 43.1844 59.0167C44.2676 59.0167 45.2525 59.0167 46.3357 59.0167C48.3054 59.0167 50.3735 59.0167 52.3432 59.1151C53.4265 59.1151 54.4113 59.1151 55.4946 59.2137C56.578 59.1151 57.0704 59.2137 57.5628 59.2137ZM31.7603 21.3963C31.9573 21.1994 32.1542 21.1008 32.3512 20.9039C32.6467 20.7069 32.9421 20.4115 33.2376 20.116C33.4346 19.919 33.4346 19.5251 33.2376 19.3281C33.1391 19.2297 32.9421 19.1311 32.8436 19.1311C32.7452 19.1311 32.5482 19.2297 32.4497 19.2297C32.0558 19.6236 31.5634 19.919 31.071 20.3129C30.874 20.5099 30.5786 20.6084 30.3816 20.8054C30.2831 20.9039 30.1847 21.0023 30.0861 21.1008L29.9876 21.1994C29.4952 21.1994 29.0029 21.1008 28.4119 21.1008C28.215 21.1008 27.9195 21.0023 27.7225 21.0023C27.821 20.9039 28.018 20.8054 28.1164 20.7069C28.5104 20.4115 28.9043 20.0176 29.2982 19.7221C29.4952 19.5251 29.4952 19.1311 29.2982 18.9342C29.1998 18.8358 29.1013 18.7372 28.9043 18.7372C28.8058 18.7372 28.6089 18.8358 28.5104 18.8358C28.1164 19.1311 27.7225 19.5251 27.3286 19.8205C27.1316 20.0176 26.9347 20.2145 26.7377 20.4115C26.6392 20.5099 26.5408 20.6084 26.4422 20.6084C26.4422 20.6084 26.4422 20.6084 26.3438 20.7069C26.4422 20.7069 26.2453 20.7069 26.1469 20.7069C25.7529 20.6084 25.4574 20.5099 25.0635 20.4115C25.2604 20.3129 25.4574 20.116 25.5559 19.919C25.9498 19.5251 26.3438 19.2297 26.7377 18.8358C26.9347 18.6387 26.9347 18.2448 26.7377 18.0479C26.6392 17.9494 26.4422 17.8509 26.3438 17.8509C26.2453 17.8509 26.0483 17.9494 25.9498 17.9494C25.5559 18.3434 25.162 18.6387 24.768 19.0327C24.5711 19.2297 24.3741 19.4266 24.1772 19.6236C24.1772 19.7221 24.1772 19.8205 24.0786 19.8205L23.9802 19.919C23.8817 19.919 23.7833 19.8205 23.7833 19.8205H23.8817C23.8817 19.8205 23.7833 19.8205 23.7833 19.7221C23.4878 19.6236 23.2908 19.5251 22.9954 19.3281C22.7984 19.2297 22.6015 19.1311 22.4044 19.0327C22.6015 18.8358 22.7984 18.6387 23.0938 18.4418C23.4878 18.0479 23.8817 17.654 24.2757 17.3585C24.4726 17.1616 24.4726 16.7676 24.2757 16.5706C24.1772 16.4722 23.9802 16.3737 23.8817 16.3737C23.7833 16.3737 23.5862 16.4722 23.4878 16.5706C23.0938 16.8661 22.6999 17.26 22.4044 17.654C22.2075 17.8509 22.1091 17.9494 21.912 18.1463C21.8136 18.2448 21.7151 18.3434 21.5181 18.4418C21.4197 18.3434 21.3212 18.3434 21.2226 18.2448C21.0257 18.0479 20.8287 17.9494 20.6318 17.7524C20.4348 17.5555 20.3363 17.4569 20.2379 17.26C20.2379 17.26 20.2379 17.26 20.2379 17.1616L20.3363 17.063C20.5333 16.9645 20.6318 16.7676 20.8287 16.5706C21.2226 16.1767 21.5181 15.8812 21.912 15.4873C22.1091 15.2904 22.1091 14.8964 21.912 14.6995C21.8136 14.6009 21.6166 14.5025 21.5181 14.5025C21.4197 14.5025 21.2226 14.5025 21.1242 14.6009C20.7302 14.9949 20.4348 15.2904 20.0408 15.6843C19.9424 15.7827 19.7455 15.9798 19.6469 16.0782C19.5484 15.8812 19.5484 15.6843 19.45 15.4873C19.45 15.2904 19.45 15.0933 19.45 14.8964C19.45 14.6009 19.5484 14.404 19.6469 14.207C19.7455 14.0101 19.8439 13.8131 20.0408 13.6162C20.1394 13.4191 20.3363 13.3207 20.5333 13.1238C20.7302 13.0252 20.9273 12.9268 21.1242 12.7298C21.3212 12.6313 21.6166 12.6313 21.8136 12.5328C21.912 12.5328 22.0105 12.5328 22.1091 12.5328C22.4044 12.5328 22.6015 12.5328 22.8969 12.5328C22.9954 12.5328 23.1923 12.6313 23.2908 12.6313C23.3893 12.6313 23.5862 12.7298 23.6847 12.8283C23.8817 12.9268 24.1772 13.0252 24.3741 13.1238C24.3741 13.1238 24.3741 13.2222 24.4726 13.2222C24.6696 13.4191 24.8665 13.5177 25.162 13.4191C25.359 13.3207 25.4575 12.9268 25.359 12.7298C25.2604 12.6313 25.2604 12.5328 25.162 12.5328C25.162 12.4344 25.0635 12.4344 25.0635 12.3359C24.9651 12.2373 24.8665 12.0404 24.768 11.942C24.6696 11.8434 24.5711 11.8434 24.4726 11.745C24.3741 11.6465 24.1772 11.548 23.9802 11.4495C23.5862 11.2526 23.1923 11.2526 22.7984 11.1541C22.6999 11.1541 22.6999 11.1541 22.6015 11.1541C22.6015 10.9571 22.503 10.6617 22.503 10.4647C22.503 10.2677 22.503 10.0708 22.503 9.97228C22.503 9.67684 22.503 9.38139 22.503 9.08594C22.6015 8.69201 22.6999 8.19959 22.8969 7.80567C23.0938 7.51021 23.1923 7.11629 23.4878 6.82083C23.6847 6.52539 23.8817 6.32842 24.1772 6.13146C24.4726 5.93449 24.6696 5.83601 24.9651 5.63904C25.162 5.54057 25.359 5.54057 25.5559 5.44208C25.7529 5.3436 26.0483 5.3436 26.2453 5.3436C26.4422 5.3436 26.6393 5.3436 26.8362 5.3436C27.0332 5.3436 27.3286 5.3436 27.5256 5.3436C27.9195 5.44208 28.215 5.44208 28.5104 5.54057C28.4119 5.63904 28.4119 5.83601 28.3134 5.93449C28.1164 6.32842 28.1164 6.52539 28.018 6.72236C27.9195 7.0178 27.821 7.31325 27.821 7.6087C27.7225 8.00262 27.9195 8.39656 28.3134 8.49505C28.7074 8.59353 29.1998 8.39656 29.2982 8.00264C29.3968 7.6087 29.4952 7.31325 29.5937 6.91932C29.6922 6.62387 29.7907 6.42691 29.8892 6.13146C30.0861 5.83601 30.1846 5.54057 30.3816 5.24511C30.5786 4.94967 30.7755 4.7527 30.874 4.45725C31.2679 4.06332 31.6618 3.66939 32.0558 3.27546C32.4497 2.98001 32.9421 2.68456 33.336 2.4876C33.6315 2.38912 33.927 2.29063 34.2224 2.19215C34.5178 2.09366 34.7148 2.09366 35.0103 1.99519C35.3057 1.99519 35.6012 1.99519 35.8966 1.89671C36.192 1.89671 36.389 1.89671 36.6845 1.89671C37.2754 1.99519 37.7677 2.09366 38.2602 2.29063C38.6541 2.4876 38.9495 2.58609 39.245 2.78304C39.5405 2.98001 39.8359 3.17698 40.1313 3.37394C40.4268 3.57091 40.7223 3.86635 41.0177 4.06332C41.3131 4.26029 41.5102 4.55573 41.8055 4.85119C42.0026 5.04814 42.298 5.3436 42.4949 5.63904C42.5934 5.73752 42.7904 5.93449 42.8889 6.03298C42.101 6.22994 41.4116 6.52539 40.8208 6.91932C40.5253 7.11629 40.4268 7.51021 40.5253 7.90415C40.7223 8.19959 41.1162 8.29808 41.5102 8.19959C41.7071 8.10111 42.0026 7.90415 42.2979 7.80567C42.6919 7.6087 43.1844 7.51021 43.6767 7.41174C43.9722 7.41174 44.3662 7.41174 44.6615 7.41174C44.957 7.51021 45.2525 7.51021 45.548 7.70718C45.8433 7.80567 46.1388 8.00263 46.3357 8.19959C46.6312 8.49505 46.9267 8.79049 47.2221 9.08594C47.4191 9.2829 47.5175 9.57835 47.7145 9.77532C47.813 9.97228 47.9115 10.2677 48.1085 10.4647C48.2069 10.6617 48.2069 10.7602 48.3054 10.9571C48.4039 11.1541 48.4039 11.2526 48.5024 11.4495C48.6009 11.745 48.6993 12.1389 48.6993 12.4344C48.6993 12.7298 48.7979 13.0252 48.7979 13.3207C48.7979 13.6162 48.7979 13.9116 48.7979 14.207C48.7979 14.5025 48.6993 14.798 48.6009 15.0933C48.5024 15.3888 48.4039 15.5858 48.3054 15.8812C48.2069 16.0782 48.1085 16.2751 48.01 16.4722C47.813 16.7676 47.6161 17.063 47.4191 17.3585C47.3206 17.4569 47.2221 17.654 47.0251 17.7524C46.8282 18.0479 46.5327 18.2448 46.2373 18.5403C45.8433 18.8358 45.4494 19.1311 44.957 19.3281C45.2525 19.0327 45.4494 18.7372 45.7449 18.3434C45.8433 18.2448 45.8433 18.0479 45.8433 17.9494C45.8433 17.8509 45.7449 17.654 45.6464 17.654C45.2525 17.7524 45.154 17.7524 45.0555 17.7524H44.957C44.7601 17.7524 44.6615 17.8509 44.6615 17.9494C44.4646 18.2448 44.2676 18.4418 43.9722 18.7372L44.0707 18.6387C43.6767 19.1311 43.2828 19.6236 42.8889 20.116L42.7904 20.2145C42.7904 20.2145 42.7904 20.3129 42.6919 20.4115C42.4949 20.5099 42.1995 20.6084 42.0026 20.6084C41.6086 20.7069 41.2147 20.8054 40.8208 20.9039C40.7223 20.9039 40.6237 20.9039 40.5253 21.0023C40.6237 20.9039 40.6237 20.9039 40.7223 20.8054C41.1162 20.3129 41.5102 19.919 41.904 19.4266C42.0026 19.3281 42.101 19.2297 42.101 19.0327C42.101 18.9342 42.101 18.7372 42.0026 18.6387C41.904 18.5403 41.7071 18.4418 41.6086 18.4418C41.5102 18.4418 41.3131 18.4418 41.2147 18.6387C40.8208 19.1311 40.4268 19.5251 39.9344 20.0176C39.7374 20.2145 39.5405 20.4115 39.4419 20.6084C39.3435 20.7069 39.245 20.8054 39.1466 20.9039L39.048 21.0023C39.048 21.0023 39.048 21.1008 38.9495 21.1008C38.1617 21.1994 37.3738 21.2978 36.5859 21.2978C36.6845 21.1994 36.6845 21.1994 36.783 21.1008C37.0784 20.7069 37.4724 20.3129 37.7677 19.919C37.9648 19.7221 37.8663 19.3281 37.5708 19.1311C37.4724 19.0327 37.3738 19.0327 37.2754 19.0327H37.1769C36.9799 19.0327 36.9799 19.1311 36.8814 19.2297C36.5859 19.6236 36.2906 20.0176 35.8966 20.4115C35.6996 20.6084 35.6012 20.8054 35.5027 21.0023C35.5027 21.1008 35.4041 21.1994 35.4041 21.1994C35.2072 21.1994 35.0102 21.1994 34.7148 21.1994C33.533 21.4947 32.6467 21.3963 31.7603 21.3963ZM24.768 59.1151C24.768 59.2137 24.768 59.2137 24.768 59.1151V59.1151ZM24.768 59.1151L24.8665 59.0167C24.8665 59.1151 24.8665 59.1151 24.768 59.1151ZM24.9651 51.335C25.0635 51.335 25.162 51.4335 25.359 51.4335C25.359 51.4335 25.359 51.4335 25.4574 51.4335C25.4574 51.4335 25.4574 51.532 25.5559 51.532C25.6544 51.7289 25.6544 51.8274 25.6544 52.0244C25.7529 53.4031 25.6544 54.782 25.5559 56.1607C25.5559 56.4561 25.4574 56.7515 25.4574 57.047C25.4574 57.1455 25.4574 57.1455 25.4574 57.244C25.4574 57.3425 25.4574 57.3425 25.4574 57.4409V57.5394C25.4574 57.4409 25.4574 57.3425 25.4574 57.3425C25.359 57.8349 25.2604 58.3273 25.162 58.8197C25.162 58.9182 25.0635 58.9182 25.0635 59.0167L24.9651 59.1151C24.8665 59.2137 24.768 59.2137 24.6696 59.2137C24.4726 59.3121 24.2756 59.3121 24.1772 59.4106C24.1772 59.4106 24.1772 59.4106 24.2757 59.3121C24.3741 59.2137 24.4726 59.1151 24.4726 58.9182C24.4726 58.8197 24.4726 58.6227 24.3741 58.5243C24.2757 58.4258 24.1772 58.3273 23.9802 58.3273C23.8817 58.3273 23.6847 58.3273 23.5862 58.4258C23.3893 58.7212 23.1923 58.9182 22.8969 59.2137C22.7984 59.3121 22.7984 59.4106 22.7984 59.5091C22.306 59.5091 21.912 59.6076 21.4197 59.6076C21.5181 59.5091 21.6166 59.4106 21.7151 59.3121C21.8136 59.2137 21.8136 59.0167 21.8136 58.9182C21.8136 58.8197 21.7151 58.6227 21.6166 58.5243C21.5181 58.4258 21.4197 58.4258 21.3212 58.4258H21.2226C21.0257 58.4258 21.0257 58.5243 20.9273 58.6227C20.7302 58.9182 20.5333 59.1151 20.3363 59.4106C20.3363 59.5091 20.2379 59.6076 20.2379 59.6076C19.45 59.6076 18.7606 59.7061 17.9727 59.7061C18.1697 59.5091 18.2682 59.4106 18.4652 59.2137C18.6621 59.0167 18.6621 58.6227 18.4652 58.4258C18.3666 58.3273 18.1697 58.2288 18.0713 58.2288C17.9727 58.2288 17.7758 58.2288 17.6773 58.4258C17.2834 58.8197 16.7909 59.3121 16.397 59.7061C16.0031 59.7061 15.5107 59.7061 15.1167 59.7061C14.8213 59.7061 14.6243 59.7061 14.3289 59.7061C14.5259 59.5091 14.6243 59.4106 14.8213 59.2137C15.0183 59.0167 15.0183 58.6227 14.8213 58.4258C14.7228 58.3273 14.5259 58.2288 14.4274 58.2288C14.3289 58.2288 14.1319 58.3273 14.0335 58.4258C13.738 58.7212 13.4425 58.9182 13.2456 59.2137C13.0486 59.4106 12.9501 59.5091 12.7531 59.7061C11.9654 59.7061 11.0789 59.7061 10.2911 59.6076C10.3896 59.5091 10.4881 59.4106 10.5865 59.3121C10.9805 58.9182 11.2759 58.5243 11.6699 58.1303C11.8668 57.9333 11.8668 57.5394 11.6699 57.3425C11.5714 57.244 11.3744 57.1455 11.2759 57.1455C11.1775 57.1455 10.9805 57.1455 10.882 57.3425C10.2911 58.0319 9.60172 58.7212 9.10931 59.4106L9.20779 59.3121C9.1093 59.4106 9.1093 59.5091 9.01082 59.5091C8.51841 59.5091 8.026 59.4106 7.53359 59.4106C7.4351 59.4106 7.33662 59.4106 7.33662 59.4106C7.4351 59.2137 7.63207 59.1151 7.73054 58.9182C8.12448 58.4258 8.41992 58.0319 8.81386 57.5394C8.41992 57.638 8.32144 57.244 8.026 57.1455C7.92751 57.047 7.82903 57.047 7.73054 57.047C7.53359 57.047 7.33662 57.1455 7.23813 57.3425C6.8442 57.8349 6.54875 58.3273 6.15482 58.8197C6.05634 59.0167 5.85938 59.2137 5.7609 59.4106C5.66241 59.3121 5.56393 59.2137 5.46544 59.1151C5.26849 58.8197 5.07152 58.4258 4.87455 58.1303C5.07152 57.9333 5.17 57.8349 5.36696 57.6379C5.66241 57.3425 5.95786 56.9485 6.15482 56.6531C6.35179 56.4561 6.25331 56.0622 5.95786 55.8652C5.85938 55.7667 5.7609 55.7667 5.66241 55.7667C5.46544 55.7667 5.26848 55.8652 5.17 56.0622C4.97303 56.3577 4.67759 56.6531 4.38214 57.047C4.38214 56.9485 4.38214 56.9485 4.38214 56.8501C4.28365 56.4561 4.18517 56.0622 4.18517 55.5698C4.48062 55.2743 4.57911 55.1759 4.67758 54.9789C4.77606 54.8804 4.87455 54.782 4.87455 54.5849C4.87455 54.4865 4.87455 54.2895 4.77606 54.191C4.67759 54.0925 4.57911 53.9941 4.38214 53.9941C4.28365 53.9941 4.28365 54.0925 4.18517 54.0925C4.18517 53.7971 4.08668 53.5016 4.18517 53.2062C4.28365 53.1077 4.38214 53.1077 4.48062 53.0092C5.36696 52.7137 6.35179 52.5168 7.33662 52.4184C8.32144 52.3199 9.20779 52.2213 10.1926 52.2213C10.5865 52.2213 10.9805 51.926 10.9805 51.4335V51.335C12.6547 51.2366 14.2304 51.1381 15.9046 51.1381C17.4803 51.1381 19.0561 51.0395 20.6318 51.1381C21.4197 51.1381 22.2075 51.1381 22.9954 51.2366C23.4878 51.2366 24.2756 51.2366 24.9651 51.335ZM21.2226 47.1003C21.2226 47.1988 21.1242 47.1988 21.1242 47.2972C21.0257 47.4942 21.0257 47.5927 21.0257 47.7896C21.0257 48.1835 21.0257 48.5775 21.0257 48.9714C21.0257 49.1684 21.1242 49.3653 21.2226 49.5624C21.2226 49.5624 21.3212 49.5624 21.3212 49.6608C20.7302 49.6608 20.2379 49.6608 19.6469 49.7593C17.3819 49.8577 15.1167 49.9563 12.8517 50.0548C11.7683 50.1532 10.5865 50.1532 9.50323 50.2517C9.30627 50.2517 9.20779 50.2517 9.01082 50.2517C9.01082 50.1532 9.01082 50.0548 9.01082 49.9563C8.91234 49.4638 8.81386 48.9714 8.71538 48.479C8.61689 48.2821 8.61689 47.9866 8.51841 47.7896C9.01082 47.7896 9.50323 47.7896 9.99565 47.7896C12.0638 47.7896 14.0335 47.5927 16.1016 47.4942C17.1848 47.3957 18.1697 47.3957 19.2531 47.2972C19.8439 47.1988 20.5333 47.1003 21.2226 47.1003ZM25.2604 44.4412L25.359 44.3428C25.359 44.4412 25.2604 44.4412 25.2604 44.4412ZM20.0408 36.6611C21.3212 36.6611 22.6999 36.6611 23.9802 36.7596C24.1772 36.7596 24.2756 36.7596 24.4726 36.858H24.5711C24.5711 36.858 24.6696 36.858 24.6696 36.9566C24.6696 36.858 24.5711 36.858 24.5711 36.7596C24.6696 36.858 24.6696 36.9566 24.768 37.055C24.8665 37.1535 24.8665 37.252 24.9651 37.3505C25.162 37.8429 25.2604 38.4338 25.359 38.9262C25.4575 39.8126 25.5559 40.6989 25.5559 41.5852C25.5559 42.4716 25.5559 43.3579 25.4574 44.2443C25.4574 44.3428 25.4574 44.3428 25.4574 44.4412V44.5397C25.359 44.6382 25.2604 44.6382 25.162 44.7367C25.0635 44.8352 24.8665 44.8352 24.768 44.8352C24.768 44.6382 24.768 44.5397 24.6696 44.4412C24.5711 44.3428 24.3741 44.2443 24.2757 44.2443C24.1772 44.2443 23.9802 44.2443 23.8817 44.4412C23.6847 44.7367 23.3893 44.9336 23.1923 45.2291L23.0938 45.3276C22.503 45.426 21.912 45.5246 21.3212 45.623C21.4197 45.5246 21.5181 45.426 21.6166 45.3276C21.7151 45.2291 21.8136 45.1306 21.8136 44.9336C21.8136 44.8352 21.8136 44.6382 21.6166 44.5397C21.5181 44.4412 21.3212 44.3428 21.2226 44.3428C21.1242 44.3428 20.9273 44.3428 20.8287 44.5397C20.5333 44.8352 20.2379 45.1306 20.0408 45.426L19.9424 45.5246C19.8439 45.5246 19.8439 45.623 19.8439 45.7215C19.0561 45.8199 18.1697 45.9185 17.3819 45.9185C17.7758 45.623 18.1697 45.2291 18.4652 44.8352C18.6621 44.6382 18.6621 44.3428 18.4652 44.0473C18.3666 43.9488 18.1697 43.8504 18.0713 43.8504C17.9727 43.8504 17.7758 43.8504 17.6773 43.9488C17.2834 44.3428 16.8895 44.7367 16.4955 45.0322C16.2985 45.2291 16.1016 45.426 15.9046 45.623C15.8061 45.7215 15.7077 45.8199 15.6092 45.9185C15.1167 45.9185 14.7228 45.9185 14.2304 45.9185C14.1319 45.9185 13.9349 45.9185 13.8365 45.9185C14.2304 45.5246 14.6243 45.1306 15.0183 44.7367C15.2153 44.5397 15.2153 44.1458 15.0183 43.9488C14.9198 43.8504 14.7228 43.7518 14.6243 43.7518C14.5259 43.7518 14.3289 43.7518 14.2304 43.8504C13.8365 44.2443 13.541 44.5397 13.1471 44.9336C12.8517 45.2291 12.5562 45.5246 12.2607 45.8199C11.7683 45.8199 11.1775 45.8199 10.685 45.8199C10.5865 45.8199 10.5865 45.8199 10.4881 45.8199C10.882 45.426 11.1775 45.0322 11.5714 44.7367C11.7683 44.5397 11.7683 44.1458 11.5714 43.9488C11.4729 43.8504 11.2759 43.7518 11.1775 43.7518C11.0789 43.7518 10.882 43.7518 10.7836 43.8504C10.3896 44.2443 10.0941 44.6382 9.7002 45.0322C9.50323 45.2291 9.30627 45.5246 9.01082 45.7215C8.51841 45.7215 8.026 45.7215 7.4351 45.623C7.33662 45.623 7.33662 45.623 7.23813 45.623C7.4351 45.426 7.63207 45.2291 7.82903 45.0322C8.32144 44.5397 8.71538 44.1458 9.20779 43.6534C9.40476 43.4564 9.40476 43.161 9.20779 42.8655C9.1093 42.767 8.91234 42.6686 8.81386 42.6686C8.71538 42.6686 8.51841 42.6686 8.41992 42.767C8.026 43.161 7.63207 43.5549 7.23813 43.9488C6.94269 44.2443 6.64724 44.5397 6.45028 44.8352C6.35179 44.7367 6.35179 44.6382 6.25331 44.5397C6.15482 44.2443 6.05634 43.8504 5.95786 43.4564H6.05634C6.05634 43.4564 6.05634 43.3579 6.15482 43.3579C6.35179 43.161 6.45028 43.0625 6.54875 42.8655C6.94269 42.3731 7.33662 41.8807 7.73054 41.4868C7.82903 41.3883 7.82903 41.1913 7.82903 41.0928C7.82903 40.9944 7.73054 40.7974 7.63207 40.7974C7.53359 40.6989 7.4351 40.6989 7.33662 40.6989H7.23813C7.04117 40.6989 7.04117 40.7974 6.94269 40.8958C6.64724 41.2898 6.35179 41.6837 5.95786 42.0776L5.85938 42.1761C5.46544 41.9792 5.46544 41.3883 5.36696 40.6989C5.66241 40.4034 5.85938 40.108 6.15482 39.911C6.35179 39.714 6.35179 39.4187 6.15482 39.1232C6.05634 39.0247 5.85938 38.9262 5.7609 38.9262C5.66241 38.9262 5.46544 38.9262 5.36696 39.0247C5.36696 38.7292 5.36696 38.5322 5.36696 38.2368V38.1383C5.46544 38.1383 5.46544 38.0398 5.56393 38.0398C5.85938 37.9414 6.25331 37.8429 6.64724 37.7444C7.23813 37.6459 7.73054 37.6459 8.32144 37.6459C9.01082 37.6459 9.79869 37.6459 10.4881 37.6459C10.882 37.6459 11.2759 37.3505 11.2759 36.858C11.3744 36.858 11.4729 36.858 11.6699 36.858C12.8517 36.858 13.9349 36.858 15.1167 36.7596C15.2153 36.858 15.4122 36.9566 15.6092 36.858C15.7077 36.858 15.7077 36.7596 15.8061 36.6611C15.9046 36.6611 15.9046 36.6611 16.003 36.6611C17.2834 36.7596 18.6621 36.6611 20.0408 36.6611ZM15.6092 30.7521C15.6092 30.6537 15.6092 30.6537 15.6092 30.7521V30.7521ZM50.866 44.6382C50.5705 44.6382 50.2751 44.6382 49.9796 44.6382C50.1766 44.4412 50.3735 44.2443 50.5705 44.0473C50.669 43.9488 50.7674 43.8504 50.7674 43.6534C50.7674 43.4564 50.7674 43.3579 50.5705 43.2594C50.4721 43.161 50.2751 43.0625 50.1766 43.0625C50.0781 43.0625 49.8811 43.0625 49.7827 43.2594C49.3887 43.6534 48.9948 44.1458 48.6009 44.6382C48.6009 44.6382 48.6009 44.6382 48.6009 44.7367C47.9115 44.7367 47.2221 44.7367 46.6312 44.6382C46.6312 44.6382 46.6312 44.5397 46.7297 44.5397C46.9267 44.2443 47.2221 43.8504 47.4191 43.5549C47.6161 43.3579 47.5175 42.964 47.2221 42.767C47.1236 42.6686 47.0251 42.6686 46.9267 42.6686C46.7297 42.6686 46.5327 42.767 46.4343 42.964C46.1388 43.4564 45.8433 43.9488 45.4494 44.4412V44.5397C45.2525 44.5397 45.0555 44.5397 44.8585 44.5397C44.6615 44.5397 44.4646 44.4412 44.2676 44.4412C44.0707 44.4412 43.9722 44.3428 43.7752 44.3428C44.2676 43.7518 44.7601 43.161 45.154 42.57C45.3509 42.3731 45.2525 41.9792 44.957 41.7822C44.8585 41.6837 44.7601 41.6837 44.6615 41.6837C44.4646 41.6837 44.2676 41.7822 44.1691 41.9792C43.8737 42.3731 43.4797 42.8655 43.1844 43.2594C42.9873 43.4564 42.8889 43.6534 42.6919 43.9488L42.5934 43.8504C42.4949 43.7518 42.298 43.5549 42.1995 43.4564C42.101 43.2594 42.0026 43.0625 41.904 42.8655C41.904 42.8655 41.9041 42.767 41.8055 42.767C41.8055 42.767 41.904 42.767 41.904 42.6686C41.904 42.6686 41.9041 42.767 41.8055 42.767C41.9041 42.57 42.101 42.3731 42.2979 42.1761C42.5934 41.7822 42.8889 41.4868 43.0858 41.0928C43.2828 40.8958 43.1844 40.5019 42.8889 40.305C42.7904 40.2065 42.6919 40.2065 42.5934 40.2065H42.4949C42.298 40.2065 42.298 40.305 42.1995 40.4034C41.9041 40.6989 41.7071 41.0928 41.4116 41.4868C41.4116 41.3883 41.3131 41.2898 41.3131 41.2898C41.2147 40.8958 41.1162 40.4034 41.1162 40.0095C41.0177 39.5171 41.0177 39.0247 41.0177 38.4338V38.3353C41.0177 38.3353 41.0177 38.3353 41.1162 38.2368C41.2147 38.2368 41.3131 38.1383 41.4116 38.1383C41.7071 38.0398 41.9041 37.9414 42.1995 37.9414C42.5934 37.8429 42.9873 37.8429 43.3813 37.7444C43.4797 37.7444 43.5783 37.6459 43.6767 37.5474C43.7752 37.449 43.8737 37.3505 43.8737 37.1535C44.3662 37.1535 44.8585 37.055 45.3509 37.055C45.9418 36.9566 46.5327 36.9566 47.1236 36.858C48.4039 36.6611 49.7827 36.5627 51.0629 36.4641C52.3432 36.3656 53.525 36.2672 54.8052 36.1687C55.3962 36.1687 55.987 36.1687 56.578 36.0702C57.2673 36.0702 57.9567 36.0702 58.6461 36.1687C58.7446 36.1687 58.9416 36.2672 59.04 36.2672C59.04 36.2672 59.1385 36.2672 59.1385 36.3656L59.237 36.4641C59.3355 36.5627 59.3355 36.6611 59.434 36.7596C59.5324 37.055 59.6309 37.252 59.6309 37.5474C59.6309 37.6459 59.6309 37.7444 59.7295 37.8429C59.8279 38.6308 59.8279 39.5171 59.9264 40.305C59.9264 41.0928 59.9264 41.8807 59.8279 42.6686C59.8279 42.8655 59.7295 42.964 59.7295 43.161C59.7295 43.161 59.7295 43.161 59.7295 43.2594L59.6309 43.3579C59.5324 43.4564 59.434 43.4564 59.3355 43.5549C58.7446 43.8504 58.0552 43.9488 57.3659 44.0473C57.6612 43.7518 57.8582 43.4564 58.1537 43.0625C58.2522 42.964 58.2522 42.767 58.2522 42.6686C58.2522 42.57 58.1537 42.3731 57.9567 42.2746C57.8582 42.1761 57.7598 42.1761 57.6612 42.1761H57.5628C57.3659 42.1761 57.2673 42.2746 57.1688 42.4716C56.9719 42.767 56.6764 43.161 56.4795 43.4564C56.381 43.6534 56.2825 43.7518 56.1841 43.9488C56.0856 44.0473 56.0856 44.1458 55.987 44.2443C55.1992 44.3428 54.5099 44.3428 53.722 44.4412C53.9189 44.2443 54.0174 44.1458 54.2144 43.9488C54.4113 43.7518 54.4113 43.3579 54.2144 43.161C54.1159 43.0625 53.9189 42.964 53.8205 42.964C53.722 42.964 53.525 42.964 53.4265 43.161C53.131 43.4564 52.8357 43.7518 52.4417 44.1458C52.3432 44.2443 52.2447 44.3428 52.0478 44.5397L51.9492 44.6382C51.6539 44.5397 51.2599 44.6382 50.866 44.6382ZM49.5857 57.7364C49.7827 57.5394 49.8811 57.4409 50.0781 57.244C50.2751 57.047 50.2751 56.7515 50.0781 56.4561C49.9796 56.3577 49.7827 56.2591 49.6842 56.2591C49.5857 56.2591 49.3887 56.2591 49.2903 56.3577C48.9948 56.6531 48.7979 56.8501 48.5024 57.1455C48.4039 57.244 48.3054 57.3425 48.3054 57.4409C48.2069 57.5394 48.2069 57.5394 48.1085 57.6379C47.5175 57.6379 46.9267 57.6379 46.3357 57.6379C46.1388 57.6379 45.9418 57.6379 45.7449 57.6379C45.9418 57.4409 46.1388 57.244 46.3357 57.047C46.5327 56.8501 46.5327 56.5546 46.3357 56.2591C46.2373 56.1607 46.0403 56.0622 45.9418 56.0622C45.8433 56.0622 45.6464 56.0622 45.548 56.1607C45.154 56.5546 44.7601 57.047 44.3662 57.4409C44.3662 57.4409 44.3662 57.4409 44.4646 57.3425C44.4646 57.3425 44.4646 57.3425 44.3662 57.4409C43.7752 57.4409 43.0858 57.3425 42.4949 57.244C42.7904 56.8501 43.0858 56.4561 43.3813 56.1607C43.5783 55.9638 43.4797 55.5698 43.1844 55.3728C43.0858 55.2743 42.9873 55.2743 42.8889 55.2743H42.7904C42.5934 55.2743 42.5934 55.3728 42.4949 55.4713C42.298 55.7667 42.0026 56.0622 41.8055 56.3577C41.7071 56.4561 41.6086 56.6531 41.5102 56.7515C41.4116 56.6531 41.4116 56.6531 41.3131 56.5546C41.2147 56.3577 41.1162 56.2591 41.0177 56.0622C41.0177 55.9638 40.9192 55.8652 40.9192 55.7667C40.8208 55.5698 40.8208 55.4713 40.8208 55.2743C40.9192 55.1759 41.0177 55.1759 41.0177 55.0773C41.1162 54.9789 41.2147 54.8804 41.2147 54.6834C41.4116 54.4865 41.5102 54.191 41.7071 53.9941C41.9041 53.7971 41.8055 53.4031 41.5102 53.3047C41.4116 53.2062 41.3131 53.2062 41.2147 53.2062C41.0177 53.2062 40.8208 53.3047 40.7223 53.4031C40.6237 53.6002 40.5253 53.7971 40.3284 53.9941C40.3284 53.7971 40.2298 53.6986 40.2298 53.5016C40.2298 53.1077 40.1313 52.7137 40.1313 52.3199C40.1313 51.926 40.0329 51.532 40.1313 51.1381C40.2298 51.1381 40.4268 51.0395 40.5253 51.0395C40.6237 51.0395 40.6237 51.0395 40.7223 51.0395C42.1995 50.8426 43.7752 50.8426 45.2525 50.8426C45.6464 50.8426 45.9418 50.5471 46.0403 50.1532C46.2373 50.1532 46.4343 50.1532 46.6312 50.1532C48.01 50.1532 49.3887 50.0548 50.866 50.0548C52.2447 50.0548 53.6234 49.9563 55.0023 49.9563C55.6917 49.9563 56.2825 49.9563 56.9719 49.9563C57.6612 49.9563 58.2522 49.9563 58.9416 50.0548V50.1532C59.04 50.3502 59.04 50.4487 59.04 50.6456C59.04 50.7442 59.04 50.8426 59.04 50.9411V50.8426C59.1385 51.6305 59.04 52.3199 59.04 53.1077C59.04 53.7971 58.9416 54.4865 58.843 55.1759C58.7446 55.8652 58.6461 56.5546 58.3506 57.244C58.1537 57.3425 57.8582 57.3425 57.6612 57.4409C56.9719 57.5394 56.2825 57.5394 55.4946 57.5394C55.5931 57.3425 55.6917 57.047 55.4946 56.8501C55.3962 56.7515 55.1992 56.6531 55.1007 56.6531C55.0023 56.6531 54.8052 56.6531 54.7068 56.8501C54.5099 57.047 54.4113 57.244 54.2144 57.4409C54.2144 57.4409 54.2144 57.4409 54.1159 57.5394V57.6379C53.722 57.6379 53.4265 57.6379 53.0326 57.6379C53.2295 57.4409 53.2295 57.1455 53.0326 56.9485C52.9341 56.8501 52.7371 56.7515 52.6387 56.7515C52.5402 56.7515 52.3432 56.7515 52.2447 56.8501C52.0478 57.047 51.9492 57.1455 51.7523 57.3425C51.6539 57.4409 51.6539 57.5394 51.5553 57.5394C51.0629 57.5394 50.669 57.5394 50.1766 57.5394C50.0781 57.7364 49.7827 57.7364 49.5857 57.7364Z" fill="black"/>
<path d="M54.1159 40.4037C54.1159 40.5021 54.1159 40.6007 54.1159 40.6992C54.1159 40.7976 54.2144 40.8961 54.2144 41.0931C54.3129 41.1916 54.3129 41.29 54.4113 41.3886C54.6083 41.5855 54.8053 41.6839 55.0023 41.7824C55.1992 41.881 55.2977 41.881 55.4947 41.881C55.6916 41.881 55.8886 41.881 56.1841 41.881C56.2825 41.881 56.4794 41.881 56.578 41.7824C56.6765 41.7824 56.7749 41.6839 56.9719 41.6839C57.0704 41.5855 57.1689 41.5855 57.2673 41.487C57.3659 41.3886 57.4643 41.29 57.5628 41.1915C57.6613 41.0931 57.7598 40.9946 57.7598 40.7976C57.8583 40.6992 57.8583 40.6007 57.8583 40.5021C57.9567 40.2068 57.8583 39.9113 57.7598 39.5174C57.6612 39.2219 57.5628 39.025 57.3659 38.828C57.2673 38.7295 57.2673 38.631 57.1689 38.5325C57.0704 38.434 56.9719 38.434 56.9719 38.3356C56.7749 38.2371 56.578 38.1385 56.381 38.1385C56.2825 38.1385 56.2825 38.1385 56.1841 38.1385H56.0855C55.8886 38.1385 55.7901 38.2371 55.5931 38.2371C55.1992 38.434 54.8053 38.631 54.5099 38.9264C54.4113 39.025 54.3129 39.1234 54.2144 39.3203C54.1159 39.4189 54.0174 39.5174 54.0174 39.6158C53.722 39.9113 53.8205 40.2068 54.1159 40.4037ZM56.381 39.3203C56.2825 39.3203 56.2825 39.3203 56.381 39.3203V39.3203ZM55.4947 39.6158C55.6916 39.5174 55.7901 39.4189 55.9871 39.3203C56.0855 39.3203 56.0855 39.3203 56.1841 39.3203H56.2825C56.2825 39.3203 56.2825 39.3203 56.381 39.3203H56.4794L56.578 39.4189C56.6765 39.5174 56.7749 39.7143 56.7749 39.8128C56.7749 39.9113 56.8734 40.0098 56.8734 40.1082C56.8734 40.1082 56.8734 40.1082 56.8734 40.2068C56.8734 40.3052 56.8734 40.4037 56.7749 40.4037C56.7749 40.4037 56.7749 40.4037 56.6765 40.5021L56.578 40.6007C56.4794 40.6007 56.381 40.6992 56.2825 40.6992C56.1841 40.6992 56.1841 40.6992 56.0855 40.6992C55.9871 40.6992 55.8886 40.6992 55.7901 40.6992C55.6916 40.6992 55.5931 40.6992 55.4947 40.6007L55.3962 40.5021C55.3962 40.5021 55.3962 40.5021 55.2976 40.5021C55.2976 40.5021 55.2976 40.5021 55.2976 40.4037C55.2976 40.3052 55.2976 40.1082 55.2976 40.0097C55.2976 39.9113 55.2976 39.8128 55.1992 39.7143C55.2976 39.7143 55.3962 39.7143 55.4947 39.6158ZM53.0326 53.7973C53.0326 53.8958 53.0326 53.9943 52.9341 53.9943C52.9341 54.1913 52.9341 54.2897 52.9341 54.4867C52.9341 54.5852 52.9341 54.7822 53.0326 54.8807C53.0326 54.9791 53.1311 55.0776 53.2295 55.2746C53.3281 55.4715 53.6235 55.6685 53.8205 55.767C54.0174 55.8654 54.3129 55.964 54.5099 55.964C54.6083 55.964 54.8053 55.964 54.9038 55.964C55.0023 55.964 55.1007 55.8654 55.2976 55.8654C55.3962 55.767 55.4947 55.767 55.5931 55.6685C55.6916 55.5701 55.8886 55.4715 55.9871 55.2746C56.1841 55.0776 56.2825 54.7822 56.381 54.5852C56.381 54.4867 56.4794 54.2897 56.4794 54.1913C56.4794 53.9943 56.4794 53.7973 56.4794 53.6989C56.4794 53.5018 56.381 53.3049 56.2825 53.0095C56.1841 52.8125 56.0855 52.6155 55.8886 52.3201C55.7901 52.2216 55.6916 52.1231 55.5931 52.1231C55.4947 52.0247 55.3962 52.0247 55.2976 51.9262C55.1007 51.8277 54.9037 51.8277 54.8053 51.8277C54.7068 51.8277 54.7068 51.8277 54.6083 51.8277C54.4113 51.8277 54.3129 51.8277 54.1159 51.9262C54.0174 51.9262 53.8205 52.0247 53.722 52.1231C53.6235 52.2216 53.525 52.2216 53.3281 52.3201C53.2295 52.3201 53.1311 52.4186 53.1311 52.5171C52.9341 52.7141 52.7371 52.911 52.5402 53.1079C52.3432 53.3049 52.4417 53.6989 52.7371 53.7973C52.8356 53.7973 52.9341 53.8958 53.0326 53.7973ZM54.8053 52.911C54.8053 53.0095 54.8053 53.0095 54.8053 52.911V52.911ZM53.9189 53.3049C54.1159 53.2065 54.3129 53.108 54.5099 53.0095C54.6083 53.0095 54.7068 53.0095 54.7068 52.911H54.8053H54.9038C54.9038 52.911 54.9038 52.911 55.0023 52.911C55.1007 52.911 55.1007 53.0095 55.1992 53.1079C55.1992 53.2065 55.2976 53.2065 55.2976 53.3049C55.2976 53.4034 55.3962 53.5018 55.3962 53.6004C55.3962 53.6989 55.3962 53.7973 55.3962 53.9943C55.3962 54.0928 55.2976 54.2897 55.2976 54.3883C55.2976 54.4867 55.1992 54.4867 55.1992 54.5852C55.1007 54.6836 55.1007 54.7822 55.0023 54.7822C55.0023 54.7822 54.9038 54.7822 54.9038 54.8807H54.8053C54.7068 54.8807 54.6083 54.8807 54.5099 54.8807H54.4113C54.4113 54.8807 54.3129 54.8807 54.3129 54.7822L54.2144 54.6836C54.2144 54.6836 54.2144 54.5852 54.1159 54.5852C54.1159 54.4867 54.1159 54.4867 54.1159 54.3883C54.1159 54.1913 54.1159 53.9943 54.2144 53.7973C54.2144 53.6004 54.1159 53.4034 53.9189 53.3049C53.8205 53.4034 53.8205 53.3049 53.9189 53.3049Z" fill="black"/>
<path d="M18.8592 42.3732C18.9577 42.5701 19.0562 42.7671 19.1546 42.964C19.2531 43.0626 19.3516 43.161 19.3516 43.161C19.4501 43.2595 19.5486 43.2595 19.647 43.358C19.7456 43.4565 19.844 43.4565 19.9425 43.4565C20.041 43.4565 20.041 43.4565 20.1395 43.4565C20.238 43.4565 20.3364 43.4565 20.5333 43.4565C20.6319 43.4565 20.7304 43.358 20.9273 43.358C21.0258 43.2595 21.2228 43.2595 21.3212 43.161C21.5182 43.0626 21.7151 42.8656 21.9122 42.6686C22.0106 42.5701 22.1091 42.3732 22.2076 42.2747C22.3061 42.1762 22.3061 41.9792 22.4046 41.8808C22.503 41.6838 22.503 41.5853 22.503 41.3883C22.503 41.1914 22.503 40.9944 22.503 40.699C22.503 40.2066 22.3061 39.7141 21.9122 39.5172C21.8137 39.4187 21.7151 39.4187 21.6167 39.3202C21.5182 39.2217 21.4198 39.2217 21.3212 39.2217C21.2228 39.2217 21.1243 39.2217 21.1243 39.2217C20.9273 39.2217 20.7304 39.2217 20.5333 39.3202C20.3364 39.4187 20.041 39.5172 19.844 39.7141C19.7456 39.8127 19.5486 39.9111 19.4501 40.0096C19.3516 40.108 19.2531 40.2066 19.1546 40.305C19.0562 40.4035 18.9577 40.502 18.8592 40.699C18.7607 40.8959 18.8592 41.0929 19.0562 41.2898C18.8592 41.3883 18.7607 41.5853 18.7607 41.7822C18.7607 41.9792 18.7607 42.0777 18.7607 42.2747C18.7607 42.0777 18.7607 42.1762 18.8592 42.3732ZM21.1243 40.108H21.0258C21.0258 40.108 21.0258 40.108 21.1243 40.108ZM19.844 40.7974C19.844 40.8959 19.7456 40.8959 19.7456 40.8959C19.844 40.8959 19.844 40.7974 19.844 40.7974ZM19.7456 40.8959C19.844 40.7974 19.9425 40.699 20.1395 40.6005C20.1395 40.6005 20.041 40.6005 20.041 40.699L20.1395 40.6005C20.3364 40.502 20.5334 40.305 20.8288 40.2066C20.9273 40.2066 20.9273 40.2066 21.0258 40.108H21.1243C21.1243 40.108 21.1243 40.108 21.2228 40.108C21.2228 40.108 21.2228 40.108 21.3212 40.108L21.4198 40.2066C21.4198 40.2066 21.4198 40.305 21.5182 40.305C21.5182 40.4035 21.5182 40.4035 21.5182 40.502C21.5182 40.6004 21.5182 40.699 21.5182 40.7974C21.5182 40.8959 21.5182 40.8959 21.5182 40.9944C21.5182 41.0929 21.4198 41.2898 21.4198 41.3883C21.3212 41.4868 21.3212 41.5853 21.2228 41.6838C21.1243 41.7822 21.0258 41.8808 20.9273 41.9792C20.8288 41.9792 20.8288 42.0777 20.7304 42.0777C20.6319 42.0777 20.6319 42.0777 20.5333 42.0777H20.4349H20.3364C20.3364 42.0777 20.3364 42.0777 20.238 42.0777C20.238 42.0777 20.238 41.9792 20.1395 41.9792C20.1395 41.9792 20.1395 41.8808 20.041 41.8808C20.041 41.7822 20.041 41.6838 20.041 41.6838C20.041 41.5853 20.041 41.5853 20.041 41.4868C20.041 41.2898 19.9425 41.0929 19.7456 40.8959C19.7456 40.9944 19.7456 40.9944 19.7456 40.8959Z" fill="black"/>
<path d="M19.3527 53.5017C19.2543 53.6002 19.1558 53.7971 19.1558 53.8957C19.0573 54.0926 19.1558 54.388 19.4513 54.4865C19.3527 54.6834 19.2543 54.8804 19.1558 55.0774C19.0573 55.2744 19.0573 55.4713 19.0573 55.6683C19.0573 55.8652 19.0573 55.9638 19.0573 56.1607C19.0573 56.2592 19.0573 56.4562 19.1558 56.5546C19.1558 56.6531 19.2543 56.7516 19.3527 56.9486C19.4513 57.047 19.4513 57.1456 19.5497 57.244C19.5497 57.244 19.6482 57.3425 19.7466 57.3425C19.8452 57.441 19.9437 57.441 20.0421 57.5395C20.2391 57.638 20.4361 57.638 20.7315 57.7364C20.83 57.7364 20.9284 57.7364 21.027 57.7364C21.1255 57.7364 21.1255 57.7364 21.2239 57.638C21.3224 57.638 21.4208 57.5395 21.5194 57.441C21.6179 57.3425 21.7163 57.3425 21.8148 57.244C21.9133 57.1456 22.0118 57.047 22.1102 56.9486C22.2087 56.8501 22.3073 56.6531 22.4057 56.5546C22.5042 56.3577 22.6026 56.1607 22.7012 55.9638C22.7997 55.6683 22.8981 55.2744 22.8981 54.9789C22.8981 54.6834 22.8981 54.388 22.7997 54.0926C22.7997 53.9941 22.7012 53.8956 22.6026 53.7971C22.5042 53.6986 22.5042 53.6002 22.4057 53.5017C22.3073 53.4032 22.2087 53.3047 22.1102 53.3047C22.0118 53.2062 21.8148 53.1078 21.6179 53.0092C21.5194 53.0092 21.4208 52.9108 21.3224 52.9108C21.2239 52.9108 21.1255 52.9108 21.027 52.9108H20.9284C20.6331 52.9108 20.3376 53.0092 20.0421 53.2062C19.6482 53.2062 19.4513 53.4032 19.3527 53.5017ZM20.5345 56.5546H20.6331C20.6331 56.5546 20.6331 56.5546 20.5345 56.5546ZM20.6331 56.5546C20.6331 56.4562 20.6331 56.4562 20.6331 56.5546V56.5546ZM20.6331 56.4562C20.7315 56.4562 20.7315 56.4562 20.6331 56.4562V56.4562ZM21.027 53.9941C20.9284 53.9941 20.9284 53.9941 21.027 53.9941V53.9941ZM20.4361 53.9941C20.5345 53.9941 20.5345 53.9941 20.6331 53.9941C20.7315 53.9941 20.83 53.9941 20.9284 53.9941H21.027L21.1255 54.0926L21.2239 54.191C21.2239 54.2895 21.3224 54.2895 21.3224 54.388C21.3224 54.4865 21.4208 54.585 21.4208 54.6834C21.4208 54.8804 21.4208 54.9789 21.4208 55.1759V55.2744C21.4208 55.4713 21.3224 55.5698 21.2239 55.6683C21.1255 55.7668 21.027 55.9638 20.9284 56.0622L20.83 56.1607C20.7315 56.2592 20.7315 56.2592 20.6331 56.3577C20.6331 56.3577 20.5345 56.3577 20.5345 56.4562H20.4361H20.3376C20.2391 56.4562 20.2391 56.4562 20.1406 56.3577L20.0421 56.2592C20.0421 56.2592 20.0421 56.2592 19.9437 56.1607C19.9437 56.1607 19.9437 56.0622 19.8452 56.0622C19.8452 55.9638 19.8452 55.9638 19.8452 55.8652C19.8452 55.7668 19.8452 55.7668 19.8452 55.6683C19.8452 55.4713 19.8452 55.3728 19.9437 55.2744C19.9437 55.1759 20.0421 55.0774 20.0421 54.9789V54.8804C20.0421 54.8804 20.0421 54.8804 20.0421 54.9789C20.0421 54.9789 20.0421 54.8804 20.1406 54.8804C20.2391 54.782 20.2391 54.585 20.2391 54.4865C20.2391 54.388 20.1406 54.191 20.0421 54.191C20.0421 54.191 20.0421 54.191 19.9437 54.191C19.9437 54.191 20.0421 54.191 20.0421 54.0926C20.2391 54.0926 20.3376 54.0926 20.4361 53.9941ZM6.45152 43.2595C6.35303 43.2595 6.35303 43.2595 6.45152 43.2595V43.2595Z" fill="black"/>
</g>
<defs>
<clipPath id="clip0_2_38">
<rect width="63.9125" height="61.946" fill="white" transform="translate(0.541412 0.517944)"/>
</clipPath>
</defs>
</svg>
