<svg width="344" height="87" viewBox="0 0 344 87" fill="none" xmlns="http://www.w3.org/2000/svg">
<rect x="20.6" y="20.6" width="138.8" height="44.8" rx="22.4" fill="url(#paint0_linear_187_67)"/>
<path d="M49.56 49H51.192L55.544 37.432H53.912L51.112 44.808C50.92 45.32 50.648 46.088 50.376 47C50.136 46.136 49.912 45.48 49.656 44.824L46.84 37.432H45.16L49.56 49ZM57.5271 39.32C58.0711 39.32 58.5191 38.872 58.5191 38.328C58.5191 37.768 58.0711 37.336 57.5271 37.336C56.9831 37.336 56.5351 37.768 56.5351 38.328C56.5351 38.872 56.9831 39.32 57.5271 39.32ZM56.7911 49H58.2951V41.176H56.7911V49ZM63.8546 49.192C65.7906 49.192 67.1026 48.248 67.4866 46.568H66.0786C65.8226 47.464 65.0546 47.944 63.8866 47.944C62.3986 47.944 61.5346 47.032 61.4226 45.384L67.4706 45.368V44.808C67.4706 42.488 66.0146 40.952 63.7906 40.952C61.5186 40.952 59.9666 42.648 59.9666 45.096C59.9666 47.528 61.5506 49.192 63.8546 49.192ZM63.7906 42.216C65.1186 42.216 65.9666 43.08 65.9666 44.376H61.4546C61.6466 43 62.4786 42.216 63.7906 42.216ZM70.5649 49H72.0529L73.4129 44.824C73.7009 43.88 73.8449 43.368 73.9249 42.984C74.0049 43.416 74.1649 44.024 74.4209 44.808L75.7809 49H77.2049L79.8769 41.176H78.3089L76.9969 45.24C76.7729 45.928 76.6289 46.472 76.5009 47.096C76.3729 46.536 76.1169 45.624 75.9889 45.24L74.6929 41.176H73.1569L71.8449 45.24C71.6689 45.752 71.4609 46.408 71.3329 47.096C71.1889 46.408 71.0289 45.816 70.8529 45.24L69.5569 41.176H68.0049L70.5649 49ZM85.5411 52.504H87.0451V47.72C87.5571 48.68 88.5971 49.208 89.8451 49.208C92.1651 49.208 93.4771 47.416 93.4771 45.032C93.4771 42.632 92.0851 40.952 89.8451 40.952C88.5971 40.952 87.5411 41.512 87.0131 42.584L86.9011 41.176H85.5411V52.504ZM87.0611 45.096C87.0611 43.464 87.9891 42.328 89.5251 42.328C91.0611 42.328 91.9731 43.48 91.9731 45.096C91.9731 46.696 91.0611 47.848 89.5251 47.848C87.9891 47.848 87.0611 46.696 87.0611 45.096ZM99.6149 41.112C99.3109 41.048 99.0869 41.016 98.8149 41.016C97.7429 41.016 96.9589 41.56 96.6389 42.376L96.5429 41.192H95.1349V49H96.6389V44.856C96.6389 43.352 97.5189 42.488 98.9429 42.488H99.6149V41.112ZM101.762 39.32C102.306 39.32 102.754 38.872 102.754 38.328C102.754 37.768 102.306 37.336 101.762 37.336C101.218 37.336 100.77 37.768 100.77 38.328C100.77 38.872 101.218 39.32 101.762 39.32ZM101.026 49H102.53V41.176H101.026V49ZM104.201 45.096C104.201 47.56 105.721 49.192 108.025 49.192C109.913 49.192 111.369 48.056 111.673 46.36H110.169C109.897 47.288 109.097 47.848 108.025 47.848C106.601 47.848 105.689 46.76 105.689 45.08C105.689 43.384 106.665 42.296 108.089 42.296C109.097 42.296 109.897 42.824 110.153 43.816H111.657C111.385 42.072 110.009 40.952 108.041 40.952C105.753 40.952 104.201 42.648 104.201 45.096ZM113.996 39.32C114.54 39.32 114.988 38.872 114.988 38.328C114.988 37.768 114.54 37.336 113.996 37.336C113.452 37.336 113.004 37.768 113.004 38.328C113.004 38.872 113.452 39.32 113.996 39.32ZM113.26 49H114.764V41.176H113.26V49ZM118.451 49V44.856C118.451 43.336 119.267 42.328 120.675 42.328C121.827 42.328 122.563 42.968 122.563 44.552V49H124.067V44.216C124.067 42.216 123.123 40.952 121.059 40.952C119.955 40.952 118.963 41.48 118.467 42.376L118.307 41.176H116.947V49H118.451ZM125.655 44.888C125.655 47.08 127.062 48.792 129.286 48.792C130.519 48.792 131.543 48.248 132.055 47.336V48.904C132.055 50.392 131.095 51.352 129.623 51.352C128.311 51.352 127.447 50.68 127.255 49.528H125.751C126.039 51.512 127.495 52.712 129.623 52.712C132.023 52.712 133.543 51.144 133.543 48.68V41.176H132.199L132.087 42.504C131.591 41.528 130.615 40.952 129.351 40.952C127.079 40.952 125.655 42.68 125.655 44.888ZM127.159 44.856C127.159 43.416 128.055 42.264 129.559 42.264C131.095 42.264 131.991 43.352 131.991 44.856C131.991 46.392 131.063 47.48 129.543 47.48C128.071 47.48 127.159 46.328 127.159 44.856Z" fill="#F6F6F7"/>
<rect x="20.6" y="20.6" width="138.8" height="44.8" rx="22.4" stroke="#282D45" stroke-width="1.2"/>
<rect x="183.6" y="20.6" width="138.8" height="44.8" rx="22.4" fill="#151934"/>
<path d="M212.56 49H214.192L218.544 37.432H216.912L214.112 44.808C213.92 45.32 213.648 46.088 213.376 47C213.136 46.136 212.912 45.48 212.656 44.824L209.84 37.432H208.16L212.56 49ZM220.527 39.32C221.071 39.32 221.519 38.872 221.519 38.328C221.519 37.768 221.071 37.336 220.527 37.336C219.983 37.336 219.535 37.768 219.535 38.328C219.535 38.872 219.983 39.32 220.527 39.32ZM219.791 49H221.295V41.176H219.791V49ZM226.855 49.192C228.791 49.192 230.103 48.248 230.487 46.568H229.079C228.823 47.464 228.055 47.944 226.887 47.944C225.399 47.944 224.535 47.032 224.423 45.384L230.471 45.368V44.808C230.471 42.488 229.015 40.952 226.791 40.952C224.519 40.952 222.967 42.648 222.967 45.096C222.967 47.528 224.551 49.192 226.855 49.192ZM226.791 42.216C228.119 42.216 228.967 43.08 228.967 44.376H224.455C224.647 43 225.479 42.216 226.791 42.216ZM233.565 49H235.053L236.413 44.824C236.701 43.88 236.845 43.368 236.925 42.984C237.005 43.416 237.165 44.024 237.421 44.808L238.781 49H240.205L242.877 41.176H241.309L239.997 45.24C239.773 45.928 239.629 46.472 239.501 47.096C239.373 46.536 239.117 45.624 238.989 45.24L237.693 41.176H236.157L234.845 45.24C234.669 45.752 234.461 46.408 234.333 47.096C234.189 46.408 234.029 45.816 233.853 45.24L232.557 41.176H231.005L233.565 49ZM248.541 52.504H250.045V47.72C250.557 48.68 251.597 49.208 252.845 49.208C255.165 49.208 256.477 47.416 256.477 45.032C256.477 42.632 255.085 40.952 252.845 40.952C251.597 40.952 250.541 41.512 250.013 42.584L249.901 41.176H248.541V52.504ZM250.061 45.096C250.061 43.464 250.989 42.328 252.525 42.328C254.061 42.328 254.973 43.48 254.973 45.096C254.973 46.696 254.061 47.848 252.525 47.848C250.989 47.848 250.061 46.696 250.061 45.096ZM262.615 41.112C262.311 41.048 262.087 41.016 261.815 41.016C260.743 41.016 259.959 41.56 259.639 42.376L259.543 41.192H258.135V49H259.639V44.856C259.639 43.352 260.519 42.488 261.943 42.488H262.615V41.112ZM264.762 39.32C265.306 39.32 265.754 38.872 265.754 38.328C265.754 37.768 265.306 37.336 264.762 37.336C264.218 37.336 263.77 37.768 263.77 38.328C263.77 38.872 264.218 39.32 264.762 39.32ZM264.026 49H265.53V41.176H264.026V49ZM267.201 45.096C267.201 47.56 268.721 49.192 271.025 49.192C272.913 49.192 274.369 48.056 274.673 46.36H273.169C272.897 47.288 272.097 47.848 271.025 47.848C269.601 47.848 268.689 46.76 268.689 45.08C268.689 43.384 269.665 42.296 271.089 42.296C272.097 42.296 272.897 42.824 273.153 43.816H274.657C274.385 42.072 273.009 40.952 271.041 40.952C268.753 40.952 267.201 42.648 267.201 45.096ZM276.996 39.32C277.54 39.32 277.988 38.872 277.988 38.328C277.988 37.768 277.54 37.336 276.996 37.336C276.452 37.336 276.004 37.768 276.004 38.328C276.004 38.872 276.452 39.32 276.996 39.32ZM276.26 49H277.764V41.176H276.26V49ZM281.451 49V44.856C281.451 43.336 282.267 42.328 283.675 42.328C284.827 42.328 285.563 42.968 285.563 44.552V49H287.067V44.216C287.067 42.216 286.123 40.952 284.059 40.952C282.955 40.952 281.963 41.48 281.467 42.376L281.307 41.176H279.947V49H281.451ZM288.655 44.888C288.655 47.08 290.062 48.792 292.286 48.792C293.519 48.792 294.543 48.248 295.055 47.336V48.904C295.055 50.392 294.095 51.352 292.623 51.352C291.311 51.352 290.447 50.68 290.255 49.528H288.751C289.039 51.512 290.495 52.712 292.623 52.712C295.023 52.712 296.543 51.144 296.543 48.68V41.176H295.199L295.087 42.504C294.591 41.528 293.615 40.952 292.351 40.952C290.079 40.952 288.655 42.68 288.655 44.888ZM290.159 44.856C290.159 43.416 291.055 42.264 292.559 42.264C294.095 42.264 294.991 43.352 294.991 44.856C294.991 46.392 294.063 47.48 292.543 47.48C291.071 47.48 290.159 46.328 290.159 44.856Z" fill="#F6F6F7"/>
<rect x="183.6" y="20.6" width="138.8" height="44.8" rx="22.4" stroke="#373E61" stroke-width="1.2"/>
<rect x="0.5" y="0.5" width="343" height="86" rx="4.5" stroke="#9747FF" stroke-dasharray="10 5"/>
<defs>
<linearGradient id="paint0_linear_187_67" x1="136.5" y1="20" x2="39" y2="64.5" gradientUnits="userSpaceOnUse">
<stop stop-color="#151934" stop-opacity="0.52"/>
<stop offset="0.479167" stop-color="#151934" stop-opacity="0.08"/>
<stop offset="1" stop-color="#151934" stop-opacity="0.49"/>
</linearGradient>
</defs>
</svg>
