<svg width="24" height="25" viewBox="0 0 24 25" fill="none" xmlns="http://www.w3.org/2000/svg">
<path fill-rule="evenodd" clip-rule="evenodd" d="M12 8.67266C9.64264 8.67266 7.71423 10.6012 7.71423 12.9584C7.71423 15.3157 9.64264 17.2441 12 17.2441C14.3574 17.2441 16.2857 15.3157 16.2857 12.9584C16.2857 10.6012 14.3574 8.67266 12 8.67266ZM22.2288 11.8155C21.7143 7.0728 17.8856 3.24411 13.1428 2.72987V0.958374H10.8572V2.72982C6.11443 3.24405 2.28573 7.07275 1.77123 11.8155H0V14.1012H1.77118C2.28568 18.8439 6.11432 22.6726 10.8571 23.1871V24.9584H13.1428V23.1872C17.8855 22.6727 21.7142 18.844 22.2288 14.1013H24V11.8155H22.2288ZM12 20.9584C7.5998 20.9584 3.99996 17.3585 3.99996 12.9584C3.99996 8.55823 7.5998 4.95839 12 4.95839C16.4001 4.95839 19.9999 8.55828 19.9999 12.9584C19.9999 17.3585 16.4001 20.9584 12 20.9584Z" fill="#00BCD4"/>
</svg>
