<svg width="46" height="35" viewBox="0 0 46 35" fill="none" xmlns="http://www.w3.org/2000/svg">
<path fill-rule="evenodd" clip-rule="evenodd" d="M45.7046 8.11833C45.7046 4.07558 42.7627 0.82342 39.1276 0.82342C34.2036 0.589839 29.182 0.5 24.0536 0.5C23.787 0.5 23.5203 0.5 23.2537 0.5C22.9871 0.5 22.7204 0.5 22.4538 0.5C17.3343 0.5 12.3037 0.589839 7.37982 0.82342C3.75354 0.82342 0.811633 4.09355 0.811633 8.13629C0.589434 11.3346 0.491667 14.5328 0.500555 17.7311C0.491667 20.9293 0.589434 24.1276 0.802745 27.3348C0.802745 31.3776 3.74466 34.6567 7.37094 34.6567C12.5437 34.8993 17.8498 35.0071 23.2448 34.9981C28.6487 35.016 33.937 34.9082 39.1187 34.6567C42.7538 34.6567 45.6958 31.3776 45.6958 27.3348C45.9091 24.1276 46.0068 20.9293 45.9979 17.7221C46.0157 14.5238 45.918 11.3256 45.7046 8.11833ZM18.8986 26.5443V8.89094L31.7861 17.7131L18.8986 26.5443Z" fill="white"/>
</svg>
