<svg width="24" height="25" viewBox="0 0 24 25" fill="none" xmlns="http://www.w3.org/2000/svg">
<path fill-rule="evenodd" clip-rule="evenodd" d="M12 8.35852C13.366 8.35852 14.6554 8.89557 15.6306 9.87078C16.6058 10.8459 17.1429 12.1354 17.1429 13.5014C17.1429 14.4454 16.906 15.3245 16.4387 16.1142C15.992 16.8695 15.3439 17.509 14.5645 17.9638L13.7143 18.46V19.4444V23.2441H10.2857V19.4444V18.46L9.43548 17.9638C7.84511 17.0357 6.85714 15.3258 6.85714 13.5014C6.85714 12.1354 7.3942 10.846 8.36941 9.87078C9.34463 8.89557 10.634 8.35852 12 8.35852ZM13.1428 0.958374C12.8002 0.958374 10.8572 0.958374 10.8572 0.958374V4.38695H13.1428V0.958374ZM20.0569 3.84395L18 5.90146L19.5999 7.50137L21.6573 5.44445L20.0569 3.84395ZM3.94307 3.84395L2.34262 5.44439L4.40009 7.50132L6 5.90146L3.94307 3.84395ZM12 6.64423C8.22879 6.64423 5.14286 9.73016 5.14286 13.5014C5.14286 16.0159 6.5145 18.2441 8.57143 19.4445V24.9584H15.4286V19.4444C17.4855 18.2441 18.8571 16.0727 18.8571 13.5013C18.8571 9.73011 15.7712 6.64423 12 6.64423ZM24 12.3585H20.5714V14.6442H24V12.3585ZM3.42857 12.3585H0V14.6442H3.42857V12.3585Z" fill="#F38D21"/>
</svg>
