<svg width="25" height="25" viewBox="0 0 25 25" fill="none" xmlns="http://www.w3.org/2000/svg">
<path fill-rule="evenodd" clip-rule="evenodd" d="M7.36406 9.96276L5.68418 11.6426L11.0842 17.0426L23.0842 5.04265L21.4043 3.36276L11.0842 13.6225L7.36406 9.96276ZM21.8842 12.2426C21.8842 17.5225 17.564 21.8426 12.2842 21.8426C7.00435 21.8426 2.68418 17.5225 2.68418 12.2426C2.68418 6.96276 7.00429 2.64265 12.2842 2.64265C13.1842 2.64265 14.0842 2.76276 14.9244 3.0027L16.7842 1.14265C15.4043 0.542645 13.9043 0.242645 12.2842 0.242645C5.68418 0.242645 0.28418 5.64265 0.28418 12.2426C0.28418 18.8426 5.68418 24.2426 12.2842 24.2426C18.8842 24.2426 24.2842 18.8426 24.2842 12.2426H21.8842Z" fill="#2196F3"/>
</svg>
