<svg width="17" height="8" viewBox="0 0 17 8" fill="none" xmlns="http://www.w3.org/2000/svg">
<path fill-rule="evenodd" clip-rule="evenodd" d="M5.12738 5.33807C6.03397 4.43147 7.23932 3.92683 8.52143 3.92683C9.80353 3.92683 11.0089 4.43413 11.9155 5.34072C12.4907 5.91595 12.9017 6.6072 13.1254 7.37862H16.7285V2.53577C16.7285 1.39963 15.8504 0.521484 14.7142 0.521484H2.37147C1.23533 0.521484 0.271484 1.39963 0.271484 2.53577V7.37862H3.9174C4.1412 6.6072 4.55216 5.9133 5.12738 5.33807ZM15.3572 4.0872C15.3572 4.39016 15.1116 4.63577 14.8086 4.63577H13.1629C12.86 4.63577 12.6143 4.3902 12.6143 4.0872V2.44148C12.6143 2.13853 12.8599 1.89291 13.1629 1.89291H14.8086C15.1116 1.89291 15.3572 2.13848 15.3572 2.44148V4.0872Z" fill="#2196F3"/>
</svg>
