<svg width="60" height="46" viewBox="0 0 60 46" fill="none" xmlns="http://www.w3.org/2000/svg">
<path fill-rule="evenodd" clip-rule="evenodd" d="M55.1538 7.33125H45.4183L39.5913 1.46625C39.5913 1.46625 39.5625 1.4375 39.5481 1.4375L39.5192 1.40875C38.6538 0.54625 37.4856 0 36.1587 0H24.0433C22.6298 0 21.375 0.60375 20.4952 1.56687V1.58125L14.7981 7.33125H4.84615C2.16346 7.33125 0 9.43 0 12.1038V41.1556C0 43.8294 2.16346 46 4.84615 46H55.1538C57.8221 46 60 43.8294 60 41.1556V12.1038C60 9.43 57.8221 7.33125 55.1538 7.33125ZM30 38.7406C22.6587 38.7406 16.6731 32.7606 16.6731 25.4294C16.6731 18.0837 22.6587 12.1181 30 12.1181C37.3558 12.1181 43.3269 18.0837 43.3269 25.4294C43.3269 32.7606 37.3558 38.7406 30 38.7406ZM54.2452 15.0219C53.1346 15.0219 52.226 14.1163 52.226 12.995C52.226 11.8738 53.1346 10.9681 54.2452 10.9681C55.3558 10.9681 56.2644 11.8738 56.2644 12.995C56.2644 14.1163 55.3558 15.0219 54.2452 15.0219Z" fill="white"/>
</svg>
