<svg width="182" height="34" viewBox="0 0 182 34" fill="none" xmlns="http://www.w3.org/2000/svg">
<rect x="1" y="0.5" width="33" height="33" rx="7.5" fill="#060B27"/>
<path d="M19.5 18.35H21.6429L22.5 14.75H19.5V12.95C19.5 12.023 19.5 11.15 21.2143 11.15H22.5V8.126C22.2206 8.0873 21.1654 8 20.0511 8C17.724 8 16.0714 9.4913 16.0714 12.23V14.75H13.5V18.35H16.0714V26H19.5V18.35Z" fill="#8F9BB7"/>
<rect x="1" y="0.5" width="33" height="33" rx="7.5" stroke="#282D45"/>
<rect x="50" y="0.5" width="33" height="33" rx="7.5" fill="#060B27"/>
<path d="M75.5 11.7647C74.8375 12.0735 74.1233 12.2765 73.3834 12.3735C74.1405 11.9059 74.7256 11.1647 75.001 10.2735C74.2868 10.7147 73.4952 11.0235 72.6606 11.2C71.9809 10.4412 71.0258 10 69.9417 10C67.9197 10 66.2677 11.6941 66.2677 13.7853C66.2677 14.0853 66.3021 14.3765 66.3623 14.65C63.2992 14.4912 60.5717 12.9824 58.7562 10.6971C58.4379 11.2529 58.2572 11.9059 58.2572 12.5941C58.2572 13.9088 58.9025 15.0735 59.9006 15.7353C59.2897 15.7353 58.7218 15.5588 58.2228 15.2941V15.3206C58.2228 17.1559 59.4962 18.6912 61.1826 19.0353C60.6412 19.1872 60.0727 19.2084 59.522 19.0971C59.7557 19.8492 60.2134 20.5074 60.8307 20.9791C61.448 21.4507 62.194 21.7121 62.9637 21.7265C61.659 22.7857 60.0417 23.3582 58.3776 23.35C58.0851 23.35 57.7925 23.3324 57.5 23.2971C59.1348 24.3735 61.0793 25 63.1616 25C69.9417 25 73.6673 19.2294 73.6673 14.2265C73.6673 14.0588 73.6673 13.9 73.6587 13.7324C74.3815 13.2029 75.001 12.5324 75.5 11.7647Z" fill="#8F9BB7"/>
<rect x="50" y="0.5" width="33" height="33" rx="7.5" stroke="#282D45"/>
<rect x="99" y="0.5" width="33" height="33" rx="7.5" fill="#060B27"/>
<path d="M111.068 10.7786C111.067 11.25 110.879 11.7021 110.545 12.0353C110.21 12.3685 109.756 12.5556 109.283 12.5554C108.81 12.5551 108.356 12.3676 108.022 12.0341C107.687 11.7005 107.5 11.2483 107.5 10.7768C107.5 10.3053 107.688 9.85325 108.023 9.52004C108.358 9.18683 108.812 8.99976 109.285 9C109.758 9.00024 110.211 9.18775 110.546 9.5213C110.88 9.85484 111.068 10.3071 111.068 10.7786ZM111.121 13.8717H107.554V25H111.121V13.8717ZM116.758 13.8717H113.208V25H116.722V19.1603C116.722 15.9072 120.977 15.605 120.977 19.1603V25H124.5V17.9515C124.5 12.4674 118.203 12.6718 116.722 15.365L116.758 13.8717Z" fill="#8F9BB7"/>
<rect x="99" y="0.5" width="33" height="33" rx="7.5" stroke="#282D45"/>
<rect x="148" y="0.5" width="33" height="33" rx="7.5" fill="#060B27"/>
<path d="M167.06 17C167.06 17.5063 166.91 18.0013 166.629 18.4223C166.347 18.8432 165.947 19.1714 165.48 19.3651C165.012 19.5589 164.497 19.6096 164.001 19.5108C163.504 19.412 163.048 19.1682 162.69 18.8102C162.332 18.4522 162.088 17.996 161.989 17.4994C161.89 17.0028 161.941 16.4881 162.135 16.0203C162.329 15.5526 162.657 15.1527 163.078 14.8714C163.499 14.5901 163.994 14.44 164.5 14.44C165.178 14.4421 165.828 14.7125 166.308 15.1921C166.787 15.6718 167.058 16.3217 167.06 17ZM172.5 13.48V20.52C172.5 21.7082 172.028 22.8477 171.188 23.6878C170.348 24.528 169.208 25 168.02 25H160.98C159.792 25 158.652 24.528 157.812 23.6878C156.972 22.8477 156.5 21.7082 156.5 20.52V13.48C156.5 12.2918 156.972 11.1523 157.812 10.3122C158.652 9.472 159.792 9 160.98 9H168.02C169.208 9 170.348 9.472 171.188 10.3122C172.028 11.1523 172.5 12.2918 172.5 13.48ZM168.34 17C168.34 16.2405 168.115 15.4981 167.693 14.8666C167.271 14.2351 166.671 13.7429 165.97 13.4523C165.268 13.1617 164.496 13.0856 163.751 13.2338C163.006 13.382 162.322 13.7477 161.785 14.2847C161.248 14.8217 160.882 15.506 160.734 16.2509C160.586 16.9957 160.662 17.7678 160.952 18.4695C161.243 19.1712 161.735 19.7709 162.367 20.1928C162.998 20.6148 163.741 20.84 164.5 20.84C165.518 20.84 166.495 20.4354 167.215 19.7153C167.935 18.9952 168.34 18.0184 168.34 17ZM169.62 12.84C169.62 12.6501 169.564 12.4645 169.458 12.3067C169.353 12.1488 169.203 12.0257 169.027 11.9531C168.852 11.8804 168.659 11.8614 168.473 11.8984C168.286 11.9355 168.115 12.0269 167.981 12.1612C167.847 12.2954 167.755 12.4665 167.718 12.6527C167.681 12.8389 167.7 13.032 167.773 13.2074C167.846 13.3828 167.969 13.5327 168.127 13.6382C168.285 13.7437 168.47 13.8 168.66 13.8C168.915 13.8 169.159 13.6989 169.339 13.5188C169.519 13.3388 169.62 13.0946 169.62 12.84Z" fill="#8F9BB7"/>
<rect x="148" y="0.5" width="33" height="33" rx="7.5" stroke="#282D45"/>
</svg>
