<svg width="47" height="51" viewBox="0 0 47 51" fill="none" xmlns="http://www.w3.org/2000/svg">
<g clip-path="url(#clip0_9_341)">
<path d="M31.3731 7.20678C31.5304 7.2854 31.7662 7.12818 31.8448 6.97094C31.8448 6.89233 31.8448 6.7351 31.8448 6.65649C31.7662 6.65649 31.6876 6.57787 31.609 6.49925C31.3731 6.42064 31.1373 6.34203 30.8228 6.26341C30.6656 6.18479 30.5084 6.18479 30.2725 6.18479C30.1939 6.18479 30.0367 6.18479 29.958 6.18479C29.6436 6.26341 29.4078 6.34203 29.172 6.49925C29.0933 6.57787 28.936 6.65649 28.8575 6.7351C28.7789 6.81371 28.7789 6.81371 28.7789 6.89233C28.7002 6.97094 28.7002 6.97094 28.7002 7.04956C28.6216 7.20678 28.7789 7.44263 28.936 7.44263C29.0933 7.52124 29.2505 7.44263 29.3291 7.2854L29.4078 7.20678C29.565 7.12818 29.7222 7.04956 29.8795 6.97094C30.0367 6.89233 30.1939 6.89233 30.2725 6.89233C30.4298 6.89233 30.5084 6.89233 30.6656 6.89233C30.8228 7.04956 31.0587 7.12818 31.3731 7.20678ZM40.1779 8.93631C40.2566 8.93631 40.2566 8.85773 40.3352 8.85773C40.4139 8.77907 40.571 8.77906 40.6497 8.70048C40.7283 8.70048 40.7283 8.70048 40.8069 8.62182C40.9641 8.54323 41.1214 8.54323 41.2786 8.54323C41.3572 8.54323 41.3572 8.54323 41.4359 8.54323C41.5144 8.54323 41.593 8.62182 41.6717 8.62182L41.7503 8.70048C41.8289 8.77906 41.8289 8.77907 41.8289 8.85773C41.9075 8.93631 41.9075 9.0149 41.9861 9.17215C42.0648 9.40798 42.0648 9.64381 42.1434 9.87965C42.1434 10.0369 42.1434 10.2727 42.1434 10.43C42.1434 10.5872 42.3006 10.8231 42.4578 10.8231C42.615 10.8231 42.8509 10.6658 42.8509 10.5086C42.8509 10.1156 42.8509 9.72248 42.7723 9.3294C42.6937 9.17215 42.6937 9.0149 42.615 8.85773C42.5364 8.70048 42.4578 8.62182 42.3792 8.46465C42.3792 8.38598 42.3006 8.38598 42.2219 8.3074C42.1434 8.22881 42.1434 8.22881 42.0648 8.15017C41.9861 8.07155 41.9075 8.07155 41.7503 7.99293C41.593 7.91432 41.4358 7.91432 41.2786 7.91432C41.2786 7.91432 41.2786 7.91432 41.1999 7.91432C41.1214 7.91432 40.9641 7.91432 40.8855 7.91432C40.7283 7.91432 40.6497 7.99293 40.4924 7.99293C40.3352 8.07155 40.1779 8.15017 40.0208 8.22881C39.8635 8.3074 39.7849 8.38598 39.7063 8.54323C39.6277 8.70048 39.6277 8.93631 39.7849 9.0149C40.0208 8.93631 40.0994 8.93631 40.1779 8.93631ZM34.1246 1.54653C34.2033 1.54653 34.2033 1.46791 34.2819 1.46791C34.4391 1.38931 34.5964 1.38931 34.675 1.31069C34.675 1.31069 34.675 1.31069 34.5964 1.31069C34.8322 1.23207 35.068 1.15346 35.3039 1.07485C35.6969 0.99623 35.9328 0.99623 36.2473 0.99623C36.4044 0.99623 36.5617 0.99623 36.7189 0.99623C36.8762 0.99623 37.112 0.99623 37.2692 1.07485C37.4264 1.07485 37.5837 1.15346 37.6623 1.15346C37.8195 1.23207 37.9768 1.31069 38.2126 1.31069C38.2912 1.38931 38.4484 1.38931 38.5271 1.46791C38.6843 1.54653 38.7629 1.62515 38.9201 1.78238C39.0774 1.9396 39.2346 2.09684 39.3919 2.25406C39.4704 2.33268 39.549 2.41129 39.549 2.48991C39.6277 2.64714 39.8635 2.72575 40.0208 2.64714C40.2566 2.56852 40.3352 2.33268 40.2566 2.09684C40.0994 1.86099 39.9421 1.62515 39.7849 1.38931C39.549 1.31069 39.3919 1.15346 39.156 0.99623C38.9201 0.839 38.7629 0.760386 38.5271 0.603156C38.2912 0.445927 37.9768 0.367313 37.7409 0.288698C37.4264 0.210083 37.112 0.210083 36.7189 0.210083C36.4831 0.210083 36.3259 0.210083 36.09 0.210083C35.7755 0.210083 35.5397 0.288698 35.2253 0.367313C34.9894 0.445927 34.675 0.524541 34.4391 0.603156C34.2819 0.681771 34.1246 0.760386 33.9675 0.839C33.8888 0.839 33.8888 0.917615 33.8102 0.917615C33.8102 0.99623 33.8102 0.99623 33.7315 0.99623C33.5744 1.15346 33.5744 1.31069 33.7315 1.46791C33.8102 1.62515 34.046 1.62515 34.1246 1.54653ZM34.4391 0.603156C34.5177 0.603156 34.5177 0.603156 34.4391 0.603156V0.603156Z" fill="black"/>
<path d="M45.4449 14.5962C45.2091 14.5962 45.0518 14.6748 45.0518 14.8321C44.9732 15.1465 44.816 15.461 44.6587 15.6968C44.5801 15.8541 44.5015 16.0113 44.3442 16.1685C44.1871 16.3257 44.1084 16.5616 43.9512 16.7188C43.8726 16.876 43.7154 16.9546 43.6367 17.0332C43.4795 17.1905 43.4009 17.2691 43.2436 17.3477C42.772 17.7408 42.2216 17.9766 41.5927 18.2125C41.4356 18.291 41.2783 18.291 41.1211 18.3697C40.9638 18.4483 40.8067 18.4483 40.5707 18.527C40.2563 18.6055 39.8632 18.6055 39.5487 18.6841C39.4702 18.6841 39.4702 18.6841 39.3916 18.6841H39.4702C39.3916 18.6841 39.3129 18.6841 39.2343 18.6841C39.1557 18.6841 39.0771 18.7628 39.0771 18.8414C39.0771 18.92 39.0771 18.9986 39.0771 19.0772C39.0771 19.1559 39.1557 19.2345 39.2343 19.2345C39.3916 19.2345 39.4702 19.2345 39.6274 19.2345C39.7847 19.2345 40.0205 19.2345 40.1777 19.2345C40.4922 19.2345 40.8066 19.1559 41.1211 19.0772C41.4356 18.9986 41.75 18.92 42.0645 18.7628C42.3789 18.6055 42.6934 18.4483 43.0078 18.291C43.3223 18.1339 43.5581 17.9766 43.794 17.7408C43.9512 17.5835 44.0298 17.505 44.1871 17.3477C44.3443 17.1905 44.4229 17.0332 44.5801 16.876C45.0518 16.2471 45.3662 15.5396 45.6021 14.8321C45.7593 14.9106 45.6021 14.6748 45.4449 14.5962ZM19.3448 23.0866C19.3448 22.4577 19.3448 21.8288 19.2662 21.1998C19.2662 21.0426 19.1876 20.8854 19.1876 20.6495C19.1876 20.5709 19.109 20.4137 19.109 20.335C19.0304 20.2565 18.9517 20.0992 18.8731 20.0206C18.7945 19.942 18.6373 19.8634 18.5587 19.7848C18.48 19.7848 18.48 19.7061 18.4015 19.7061C18.3228 19.6275 18.1656 19.6275 18.087 19.549C17.9298 19.4703 17.6939 19.4703 17.5367 19.3917C17.2222 19.313 16.9078 19.313 16.6719 19.2345C16.2789 19.1559 15.8858 19.1559 15.5713 19.0772C14.1562 18.92 12.7412 18.8414 11.3261 18.8414C10.9331 18.8414 10.6186 18.8414 10.2256 18.8414C9.83247 18.8414 9.36072 18.8414 8.96764 18.8414C8.18153 18.8414 7.39538 18.8414 6.60924 18.92C5.82309 18.92 5.03694 18.9986 4.32941 19.0772C3.54327 19.1559 2.75712 19.2345 1.97097 19.313C1.89236 19.313 1.89236 19.313 1.81374 19.313C1.73513 19.313 1.65651 19.3917 1.5779 19.4703C1.49928 19.549 1.42067 19.7061 1.42067 19.8634C1.42067 20.0206 1.49928 20.1779 1.5779 20.2565C1.65651 20.335 1.73513 20.4137 1.81374 20.4137C1.89236 20.4137 2.04959 20.4137 2.1282 20.4137C2.52127 20.335 2.91434 20.2565 3.38604 20.2565C5.35141 20.0206 7.39538 19.8634 9.36072 19.8634C10.3827 19.8634 11.4834 19.8634 12.584 19.8634C13.606 19.8634 14.7065 19.942 15.7285 20.0992C16.1216 20.1779 16.5147 20.1779 16.8291 20.2565C17.1436 20.335 17.458 20.4137 17.7725 20.5709C17.8511 20.5709 17.9298 20.6495 18.0084 20.7281C18.087 20.8854 18.087 21.1212 18.1656 21.357C18.3228 22.6149 18.4015 23.8727 18.4015 25.1305C18.48 26.467 18.48 27.8034 18.48 29.1399C18.48 31.8914 18.3228 34.6429 18.1656 37.3158C18.087 39.0453 18.0084 40.7749 17.9298 42.583C17.9298 43.4477 17.9298 44.3126 17.9298 45.1773C17.9298 46.0421 17.9298 46.9068 17.7725 47.693C17.7725 47.7716 17.7725 47.8502 17.6939 47.9288C17.6939 48.0861 17.6153 48.2433 17.5367 48.4005C17.5367 48.4791 17.458 48.4791 17.458 48.5577C17.2222 48.6363 16.9864 48.715 16.6719 48.715C16.3575 48.7936 16.043 48.7936 15.7285 48.8722C15.65 48.8722 15.5713 48.8722 15.4927 48.8722C15.7285 48.6363 15.9644 48.4005 16.2002 48.1646C16.3575 48.0074 16.3575 47.8502 16.2002 47.693C16.1216 47.6144 16.043 47.6143 15.9644 47.6143C15.8858 47.6143 15.8071 47.6144 15.7285 47.693C15.414 47.9288 15.1782 48.2433 14.8638 48.4791C14.7065 48.6363 14.5493 48.7936 14.3921 48.9508C13.8418 49.0294 13.2915 49.1081 12.8198 49.1081C12.977 48.9508 13.2129 48.8722 13.3701 48.715C13.5273 48.6363 13.5273 48.4005 13.4487 48.3219C13.3701 48.2433 13.3701 48.1646 13.2915 48.1646H13.2129C13.1342 48.1646 13.1342 48.1646 13.0556 48.1646C12.7412 48.4005 12.4267 48.6363 12.1123 48.8722L12.0336 48.9508C11.955 49.0294 11.8764 49.1081 11.8764 49.1866C11.2475 49.2652 10.6972 49.2652 10.0683 49.2652C10.3041 49.1081 10.6186 48.8722 10.8545 48.715C10.9331 48.6363 11.0116 48.6363 11.0116 48.4791C11.0116 48.4005 11.0116 48.3219 11.0116 48.2433C10.9331 48.1646 10.8545 48.0861 10.7758 48.0861H10.6972C10.6186 48.0861 10.6186 48.0861 10.54 48.1646C10.0683 48.4791 9.67522 48.7936 9.20355 49.1081C9.12489 49.1081 9.12489 49.1866 9.04631 49.1866C8.88906 49.3439 8.88906 49.4225 8.88906 49.5011C8.26014 49.5011 7.63123 49.5797 6.92369 49.5797C7.00231 49.5011 7.15954 49.4225 7.23815 49.3439C7.474 49.1866 7.70984 49.0294 7.94568 48.8722C8.0243 48.7936 8.10292 48.7936 8.10292 48.715C8.18153 48.6363 8.26014 48.6363 8.26014 48.4791C8.26014 48.4005 8.26014 48.3219 8.26014 48.2433C8.18153 48.1646 8.18153 48.0861 8.0243 48.0861H7.94568C7.86707 48.0861 7.86708 48.0861 7.78846 48.1646C7.474 48.4005 7.15954 48.6363 6.84508 48.7936C6.68785 48.8722 6.60924 48.9508 6.53062 49.1081C6.452 49.1866 6.3734 49.2652 6.21616 49.3439C6.13755 49.4225 6.13755 49.5797 6.13755 49.6583C5.50863 49.6583 4.87972 49.6583 4.2508 49.5797C4.32941 49.5011 4.32941 49.5011 4.40802 49.4225C4.48664 49.3439 4.64387 49.2652 4.72248 49.1866C4.95833 49.0294 5.19417 48.7936 5.43001 48.6363C5.58725 48.4791 5.58725 48.2433 5.43001 48.1646C5.35141 48.0861 5.27279 48.0861 5.19417 48.0861C5.11556 48.0861 5.03694 48.0861 4.95833 48.1646C4.72248 48.3219 4.48664 48.5577 4.2508 48.715C4.17218 48.7936 4.01495 48.8722 3.93633 49.0294C3.85773 49.1081 3.77911 49.1081 3.70049 49.1866C3.62188 49.2652 3.62188 49.3439 3.62188 49.4225C3.62188 49.5011 3.62188 49.5797 3.70049 49.5797C3.54327 49.5797 3.38604 49.5797 3.22881 49.5797C2.83574 49.5011 2.52127 49.4225 2.1282 49.3439C2.44266 49.0294 2.59989 48.9508 2.75712 48.7936C3.07158 48.5577 3.30742 48.2433 3.62188 47.9288C3.77911 47.7716 3.77911 47.5357 3.62188 47.4571C3.54327 47.3785 3.38604 47.2999 3.30742 47.2999C3.22881 47.2999 3.15019 47.2999 3.07158 47.3785C2.75712 47.693 2.44266 48.0074 2.1282 48.3219C1.97097 48.4791 1.89236 48.5577 1.81374 48.715C1.81374 48.2433 1.81374 47.8502 1.81374 47.3785C1.89236 47.2999 1.97097 47.2213 2.04959 47.2213C2.20681 47.0641 2.28543 46.9854 2.44266 46.8282C2.75712 46.5137 3.07158 46.1993 3.30742 45.8848C3.46465 45.7276 3.46465 45.5704 3.30742 45.4132C3.22881 45.3346 3.15019 45.3346 3.07158 45.3346C2.99296 45.3346 2.91434 45.3346 2.83574 45.4132C2.52128 45.7276 2.20681 46.0421 1.97097 46.3565C1.89236 46.3565 1.81374 46.3565 1.81374 46.4352C1.81374 45.8848 1.81374 45.3346 1.81374 44.7057C1.81374 44.627 1.81374 44.5484 1.81374 44.4697C1.89236 44.4697 1.97097 44.4697 2.04959 44.3912C2.20681 44.2339 2.36405 44.0767 2.44266 43.9981C2.6785 43.7622 2.91434 43.5264 3.15019 43.2906C3.30742 43.1333 3.30742 42.8975 3.15019 42.8188C3.07158 42.7402 2.99296 42.6617 2.91434 42.6617C2.83574 42.6617 2.75712 42.6617 2.6785 42.7402C2.44266 42.9761 2.20681 43.2119 2.04959 43.3692C1.97097 43.4477 1.97097 43.5264 1.89236 43.5264C1.89236 42.5044 1.97097 41.561 1.97097 40.539C2.04959 37.7089 1.97097 34.8788 1.89236 32.1273C1.81374 30.2405 1.65651 28.3538 1.5779 26.467C1.49928 25.5236 1.49928 24.5016 1.42067 23.5583C1.42067 23.0866 1.34205 22.6149 1.34205 22.1432C1.26344 21.6715 1.26344 21.1998 1.18483 20.7281C1.18483 20.6495 1.18483 20.5709 1.18483 20.4137C1.18483 20.2565 1.0276 20.0992 0.870367 20.0992C0.713138 20.0992 0.555908 20.2565 0.555908 20.4137C0.555908 20.4923 0.555908 20.6495 0.555908 20.7281C0.555908 20.8068 0.555908 20.8854 0.555908 20.964C0.555908 21.0426 0.555908 21.1212 0.555908 21.1212C0.555908 21.5143 0.555908 21.9074 0.555908 22.2218C0.634523 22.9294 0.634523 23.6369 0.713137 24.2658C0.791752 25.6023 0.948981 26.9387 0.948981 28.3538C0.948981 30.0833 0.948981 31.5769 1.0276 32.992C1.10621 34.3285 1.10621 35.6649 1.10621 37.0013C1.10621 38.4164 1.10621 39.8315 1.0276 41.1679C0.948981 42.5044 0.870367 43.9195 0.870367 45.2559C0.870367 45.9635 0.791752 46.5924 0.791752 47.2999C0.791752 47.6144 0.791752 47.9288 0.713137 48.3219C0.713137 48.4791 0.713137 48.715 0.713137 48.8722C0.713137 49.2652 0.948982 49.6583 1.26344 49.8941C1.34205 49.9728 1.34205 49.9728 1.42067 50.0514C1.49928 50.1301 1.5779 50.1301 1.65651 50.1301C1.81374 50.2086 1.89236 50.2086 2.04959 50.2872C2.28543 50.3659 2.52127 50.3659 2.75712 50.4445C3.15019 50.5231 3.46465 50.5231 3.85773 50.5231C4.48664 50.5231 5.19417 50.5231 5.82309 50.5231C7.15954 50.5231 8.57464 50.4445 9.91105 50.3659C11.2475 50.2872 12.584 50.2872 13.9204 50.2086C14.5493 50.2086 15.1782 50.1301 15.8071 50.0514C16.436 49.9728 17.065 49.9728 17.6939 49.8156C17.9298 49.737 18.1656 49.6583 18.3228 49.5011C18.4015 49.4225 18.48 49.2652 18.5587 49.1081C18.6373 48.9508 18.7159 48.715 18.7159 48.5577C18.7159 48.4005 18.7945 48.2433 18.7945 48.0861C18.7945 47.8502 18.7945 47.693 18.8731 47.4571C18.9517 46.7496 18.8731 46.1207 18.8731 45.4132C18.8731 44.0767 18.8731 42.7402 18.9517 41.3252C19.0304 39.9101 19.109 38.4951 19.1876 37.08C19.2662 35.7435 19.3448 34.4857 19.4234 33.1493C19.502 31.8128 19.5806 30.3978 19.5806 29.0613C19.5806 27.7249 19.5806 26.3884 19.5806 25.0519C19.3448 24.423 19.3448 23.7155 19.3448 23.0866Z" fill="black"/>
<path d="M4.0923 26.5459C4.0923 25.917 4.17092 25.3667 4.24953 24.8164C4.24953 24.6592 4.32814 24.5019 4.32814 24.3447C4.32814 24.1874 4.32814 24.0303 4.24953 23.873C4.17092 23.7158 4.0923 23.6372 3.93507 23.6372C3.77784 23.6372 3.62061 23.6372 3.46339 23.7158C3.30615 23.7944 3.22754 23.9516 3.22754 24.0303C3.14893 24.3447 3.14893 24.7378 3.14893 25.0523C3.14893 25.3667 3.07031 25.6812 3.07031 25.9956C3.07031 26.6245 3.07031 27.2534 3.07031 27.8823C3.07031 29.1402 3.14893 30.4767 3.22754 31.7345C3.30615 33.0709 3.38477 34.3287 3.46339 35.6652C3.542 36.2942 3.542 36.9231 3.62061 37.552C3.69923 38.1809 3.69923 38.8098 3.77784 39.4387C3.77784 39.7532 3.85646 40.0677 3.93507 40.3821C4.01369 40.6179 4.0923 40.8538 4.17092 41.011C4.17092 41.0896 4.24953 41.1682 4.32814 41.2468C4.48538 41.3255 4.56399 41.4041 4.72122 41.4827C5.27152 41.7186 5.90044 41.6399 6.45074 41.5613C7.78719 41.4041 9.04502 41.4041 10.3815 41.1682C11.0104 41.0896 11.5607 41.011 12.1896 40.8538C12.5041 40.7752 12.7399 40.6966 13.0543 40.6966C13.3688 40.6179 13.6833 40.5393 13.9978 40.5393C14.155 40.5393 14.3122 40.4607 14.4694 40.3821C14.5481 40.3821 14.6267 40.3035 14.7053 40.3035C14.7839 40.2249 14.8625 40.2249 15.0198 40.1462C15.177 40.0677 15.2556 39.989 15.3342 39.9104C15.4128 39.8318 15.4914 39.6746 15.57 39.5173C15.6487 39.3601 15.6487 39.2815 15.6487 39.1242C15.6487 38.9671 15.6487 38.8098 15.6487 38.6526C15.6487 38.0237 15.7273 37.3947 15.7273 36.7658C15.7273 36.1369 15.7273 35.508 15.7273 34.8791C15.7273 34.2502 15.7273 33.5426 15.7273 32.9137C15.8059 31.5773 15.8845 30.2408 15.9631 28.9043C16.0417 28.2754 16.0417 27.5679 16.1203 26.939C16.199 26.3101 16.1989 25.6812 16.1989 24.9736C16.1989 24.6592 16.1989 24.3447 16.1989 24.0303C16.1989 23.873 16.1989 23.7158 16.1989 23.5585C16.1989 23.4014 16.1989 23.3227 16.1989 23.2441C16.1989 23.0083 16.1203 22.851 16.0417 22.6938C16.0417 22.6938 16.0417 22.6152 15.9631 22.6152C15.8845 22.5366 15.8845 22.4579 15.8059 22.4579C15.7273 22.3794 15.57 22.3007 15.4914 22.3007C15.3342 22.2221 15.0983 22.2221 14.9411 22.3007C14.6267 22.3007 14.3908 22.3794 14.0763 22.3794C12.3468 22.4579 10.6959 22.4579 8.96643 22.4579C8.10165 22.4579 7.23689 22.4579 6.45074 22.3794C6.05766 22.3794 5.58598 22.3794 5.19291 22.3007C4.95707 22.3007 4.79983 22.3007 4.56399 22.3007C4.48538 22.3007 4.40676 22.3007 4.24953 22.3007C4.17092 22.3007 4.0923 22.3007 4.01369 22.3007C4.17092 22.2221 4.17092 22.2221 4.17092 22.2221C4.01369 22.2221 3.85646 22.3007 3.77784 22.4579C3.69923 22.6152 3.85646 22.851 4.01369 22.851C4.0923 22.851 4.17092 22.851 4.24953 22.851C4.48538 22.851 4.6426 22.9296 4.87845 22.9296C5.11429 22.9296 5.35013 22.9296 5.58598 22.9296C6.05766 22.9296 6.52935 22.9296 7.00105 23.0083C7.94442 23.0869 8.96643 23.0869 9.90977 23.1655C10.8532 23.2441 11.7965 23.3227 12.7399 23.3227C13.2116 23.3227 13.6833 23.3227 14.0763 23.3227C14.3122 23.3227 14.4694 23.3227 14.7053 23.3227C14.8625 23.3227 15.0198 23.3227 15.177 23.3227C15.2556 23.4799 15.2556 23.6372 15.3342 23.7944C15.4914 24.9736 15.4128 26.2314 15.3342 27.4107C15.2556 28.0396 15.2556 28.6685 15.177 29.2974C15.0983 29.9263 15.0983 30.5553 15.0198 31.1056C14.9411 32.3634 14.8625 33.6212 14.7839 34.8791C14.7839 35.508 14.7839 36.0583 14.7053 36.6872C14.7053 37.2375 14.6267 37.8664 14.5481 38.4167C14.5481 38.6526 14.4694 38.8884 14.3908 39.0457C14.3908 39.0457 14.3122 39.0457 14.3122 39.1242C14.2336 39.2029 14.155 39.2029 14.0763 39.2815C13.9978 39.2815 13.9978 39.3601 13.9192 39.3601C12.8972 39.7532 11.8752 39.9104 10.7745 40.0677C10.9318 39.989 11.0104 39.9104 11.1676 39.7532C11.6393 39.4387 12.0323 39.0457 12.5041 38.7312C12.5827 38.6526 12.5827 38.574 12.5827 38.4953C12.5827 38.4167 12.5827 38.3382 12.5041 38.2595C12.4254 38.1809 12.3468 38.1809 12.2683 38.1809C12.1896 38.1809 12.111 38.1809 12.0323 38.2595C11.4821 38.6526 10.9318 39.1242 10.3815 39.5173C10.2243 39.6746 10.067 39.7532 9.90977 39.9104C9.83118 39.9104 9.7526 39.989 9.7526 39.989C9.67393 40.2249 9.67393 40.2249 9.59535 40.3035C9.04502 40.3821 8.49473 40.3821 7.94442 40.4607C8.10165 40.3035 8.33749 40.1462 8.49473 39.989C8.96643 39.596 9.35951 39.2815 9.83118 38.9671C9.98843 38.8884 9.98843 38.6526 9.83118 38.4953C9.7526 38.4167 9.67393 38.4167 9.59535 38.4167C9.51668 38.4167 9.4381 38.4167 9.35951 38.4953C8.88777 38.8098 8.49473 39.2029 8.02304 39.5173C7.8658 39.6746 7.62996 39.8318 7.47273 39.989C7.39412 40.0676 7.3155 40.1462 7.23689 40.2249C7.15827 40.3035 7.15827 40.3035 7.07966 40.3821C7.00105 40.4607 7.00105 40.5393 7.00105 40.6179C6.84381 40.6179 6.68659 40.6179 6.52936 40.6179C6.13628 40.6179 5.82182 40.6179 5.42875 40.6179C5.42875 40.6179 5.50737 40.6179 5.50737 40.5393C5.66459 40.3821 5.90044 40.2249 6.05766 39.989C6.52936 39.596 7.00105 39.1242 7.39412 38.7312C7.55134 38.574 7.55134 38.4167 7.39412 38.2595C7.3155 38.1809 7.23689 38.1809 7.15827 38.1809C7.07966 38.1809 7.00105 38.1809 6.92243 38.2595C6.45074 38.6526 5.97906 39.1242 5.50737 39.5173C5.35013 39.6746 5.11429 39.9104 4.87845 40.0677C4.79983 40.1462 4.79983 40.1462 4.72122 40.2249C4.56399 39.8318 4.48538 39.4387 4.40676 39.0457C4.40676 39.0457 4.40676 39.0457 4.40676 38.9671C4.48538 38.9671 4.56399 38.9671 4.6426 38.8884C4.72122 38.7312 4.87845 38.6526 5.03567 38.574C5.19291 38.4167 5.42875 38.2595 5.58598 38.0237C5.97906 37.7092 6.29351 37.3162 6.68659 37.0017C6.84381 36.8444 6.84381 36.6086 6.68659 36.53C6.60797 36.4513 6.52936 36.4513 6.45074 36.4513C6.37212 36.4513 6.29351 36.4513 6.2149 36.53C5.82182 36.8444 5.50737 37.1589 5.11429 37.552C4.95706 37.7092 4.79983 37.8664 4.56399 38.0237C4.48538 38.1022 4.40676 38.1809 4.32814 38.2595C4.24953 37.552 4.17092 36.9231 4.17092 36.2155C4.17092 36.2155 4.17092 36.2942 4.24953 36.2942C4.32814 36.3727 4.40676 36.3727 4.48538 36.3727C4.56399 36.3727 4.6426 36.2942 4.6426 36.2942C4.87845 36.0583 5.11429 35.8224 5.35013 35.6652C5.6646 35.3507 5.97906 35.0363 6.37213 34.8004C6.52936 34.6432 6.52936 34.4074 6.37213 34.3287C6.29351 34.2502 6.2149 34.2502 6.13628 34.2502C6.05766 34.2502 5.97906 34.2502 5.90044 34.3287C5.58598 34.6432 5.19291 34.8791 4.87845 35.1935C4.72122 35.3507 4.6426 35.4293 4.48538 35.5866C4.40676 35.6652 4.24953 35.8224 4.17092 35.9011C4.17092 35.7438 4.17092 35.6652 4.17092 35.5866C4.17092 35.2722 4.17092 34.8791 4.0923 34.5646C4.17092 34.5646 4.17092 34.5646 4.24953 34.486C4.48538 34.2502 4.72122 34.0143 4.95706 33.7785C5.27152 33.464 5.6646 33.1496 5.97906 32.8351C6.13628 32.6778 6.13628 32.442 5.97906 32.3634C5.90044 32.2848 5.82182 32.2848 5.74321 32.2848C5.6646 32.2848 5.58598 32.2848 5.50737 32.3634C5.19291 32.6778 4.87845 32.9137 4.56399 33.2282C4.40676 33.3854 4.24953 33.5426 4.17092 33.6212L4.0923 33.6998C4.17092 33.0709 4.17092 32.5207 4.17092 32.0489H4.24953C4.40676 31.8917 4.56399 31.7345 4.72122 31.5773C4.95706 31.3414 5.27152 31.1056 5.50737 30.8698C5.66459 30.7125 5.66459 30.4767 5.50737 30.398C5.42875 30.3194 5.35013 30.3194 5.27152 30.3194C5.19291 30.3194 5.11429 30.3194 5.03567 30.398C4.79983 30.6338 4.48538 30.8698 4.24953 31.1056C4.17092 31.1842 4.17092 31.1842 4.0923 31.2628C4.0923 30.5553 4.01369 29.8478 4.01369 29.1402C4.0923 29.2974 4.32814 29.2974 4.48538 29.1402C4.56399 29.0616 4.6426 28.9829 4.72122 28.9829C4.79983 28.9043 4.95707 28.8258 5.03567 28.7471C5.11429 28.6685 5.19291 28.6685 5.19291 28.5899C5.19291 28.5113 5.19291 28.4327 5.19291 28.354C5.11429 28.2754 5.11429 28.1968 5.03567 28.1968H4.95706C4.87845 28.1968 4.79983 28.1968 4.72122 28.2754C4.56399 28.354 4.40676 28.5113 4.32814 28.5899C4.24953 28.5113 4.17092 28.5113 4.0923 28.5899C4.0923 28.5899 4.0923 28.5899 4.0923 28.6685C4.0923 28.5113 4.0923 28.354 4.0923 28.1968C4.0923 27.6465 4.01369 27.0962 4.0923 26.5459ZM4.87845 36.1369C4.79983 36.1369 4.79983 36.1369 4.87845 36.1369V36.1369ZM11.4821 43.8411L11.4034 43.7626C11.3248 43.6839 11.2463 43.6839 11.1676 43.6053C11.0104 43.5266 10.9318 43.5266 10.7745 43.4481C10.6959 43.4481 10.5387 43.4481 10.4601 43.4481C10.3815 43.4481 10.3028 43.4481 10.2243 43.4481C10.067 43.4481 9.90976 43.5266 9.7526 43.5266C9.59535 43.6053 9.51668 43.6053 9.35951 43.6839L9.28085 43.7626C9.20227 43.8411 9.20227 43.9197 9.1236 43.9197C9.1236 43.9984 9.04502 43.9984 9.04502 44.077C8.88777 43.9984 8.7306 44.077 8.57335 44.1556C8.41611 44.2342 8.33749 44.3915 8.25888 44.4701C8.18026 44.5486 8.10165 44.7059 8.02304 44.7845C7.94442 44.9417 7.8658 45.099 7.78719 45.2562C7.70858 45.4135 7.62996 45.6493 7.62996 45.8065C7.62996 45.9637 7.62996 46.1996 7.62996 46.3568C7.62996 46.4354 7.62996 46.5141 7.62996 46.5141C7.62996 46.5926 7.70858 46.6713 7.78719 46.8285C7.8658 46.9857 7.94442 47.0643 8.10165 47.2216C8.18027 47.3002 8.25888 47.3788 8.33749 47.3788C8.41611 47.4574 8.57335 47.536 8.65193 47.536C8.96643 47.6932 9.28085 47.6932 9.59535 47.6932C9.75252 47.6932 9.90976 47.6932 10.067 47.6146C10.2243 47.6146 10.3815 47.4574 10.5387 47.4574C10.6173 47.4574 10.6173 47.3788 10.6959 47.3788C10.7745 47.3002 10.8532 47.2216 10.9318 47.143C11.0104 47.0643 11.089 46.9857 11.1676 46.8285C11.2463 46.6713 11.3248 46.5141 11.4034 46.4354C11.5607 46.1996 11.6393 45.8851 11.7179 45.6493C11.7965 45.4921 11.7965 45.2562 11.8752 45.099C11.8752 44.9417 11.9538 44.7845 11.9538 44.6273C11.9538 44.5486 11.9538 44.4701 11.8752 44.3128C11.8752 44.2342 11.7965 44.1556 11.7965 44.077C11.6393 44.077 11.5607 43.9984 11.4821 43.8411ZM9.59535 44.5486C9.51668 44.5486 9.51668 44.5486 9.59535 44.5486V44.5486ZM8.57335 46.3568C8.57335 46.2782 8.57335 46.2782 8.57335 46.3568V46.3568ZM10.7745 45.1776C10.7745 45.3348 10.6959 45.4921 10.6173 45.7279C10.5387 45.9637 10.3815 46.1996 10.2243 46.3568C10.1456 46.4354 10.067 46.5141 9.98843 46.6713C9.90976 46.7499 9.90977 46.7499 9.83118 46.8285C9.7526 46.8285 9.67393 46.9071 9.67393 46.9071H9.59535C9.51668 46.9071 9.4381 46.9071 9.35951 46.9071C9.28085 46.9071 9.20227 46.9071 9.1236 46.8285C9.04502 46.8285 8.96643 46.7499 8.88777 46.6713C8.80918 46.5926 8.80918 46.5926 8.7306 46.5141L8.65193 46.4354C8.65193 46.3568 8.65193 46.3568 8.57335 46.2782C8.57335 46.1996 8.57335 46.121 8.57335 46.0424C8.57335 45.9637 8.65193 45.8065 8.65193 45.7279C8.65193 45.6493 8.7306 45.5706 8.80918 45.4921C8.88777 45.4134 8.88777 45.3348 8.96643 45.2562C9.04502 45.1776 9.1236 45.099 9.20227 45.0204L9.28085 44.9417C9.35951 44.9417 9.4381 44.8631 9.51668 44.7845C9.59535 44.7845 9.67393 44.7845 9.67393 44.7059C9.83118 44.6273 9.98843 44.6273 10.1456 44.5486C10.2243 44.5486 10.3028 44.5486 10.3815 44.5486C10.4601 44.5486 10.5387 44.5486 10.6173 44.6273C10.6173 44.6273 10.6959 44.6273 10.6959 44.7059C10.6959 44.7059 10.6959 44.7059 10.7745 44.7845C10.7745 44.7845 10.7745 44.8631 10.8532 44.8631V44.9417V45.0204C10.8532 45.0204 10.7745 45.099 10.7745 45.1776Z" fill="black"/>
<path d="M26.4984 18.2131C26.7343 18.3704 26.9701 18.4489 27.2059 18.5276C27.3632 18.6062 27.4418 18.6062 27.599 18.6848C27.7563 18.7634 27.9134 18.842 28.0707 18.842C28.2279 18.9207 28.4638 18.9207 28.621 18.9993C28.7782 19.0779 29.0141 19.0779 29.1713 19.1565C29.3285 19.1565 29.4858 19.2351 29.643 19.2351C29.8002 19.2351 29.9574 19.3138 30.0361 19.3138C30.1933 19.3138 30.4291 19.3138 30.5863 19.3923C30.8222 19.3923 30.9794 19.3923 31.2153 19.3923C31.5298 19.3923 31.8442 19.3923 32.1587 19.3923C32.3158 19.3923 32.4731 19.3923 32.6303 19.3923C32.8662 19.3923 33.102 19.3923 33.2593 19.3138C33.4165 19.3138 33.6523 19.2351 33.8096 19.2351C33.9668 19.2351 34.0454 19.1565 34.2027 19.1565C34.3598 19.1565 34.5171 19.0779 34.7529 19.0779C34.9888 19.0779 35.146 18.9993 35.3818 18.9207C36.0107 18.7634 36.6397 18.6062 37.2686 18.3704C37.8975 18.1345 38.5264 17.8987 39.1553 17.6629C39.3126 17.5842 39.4698 17.5056 39.6271 17.427C39.7842 17.3484 40.0202 17.2698 40.1773 17.1125C40.3346 17.0339 40.4918 16.9553 40.5704 16.8767C40.7277 16.7981 40.8849 16.7194 41.0421 16.5622C41.5924 16.1692 42.1427 15.7761 42.6144 15.2258C43.2433 14.5969 43.715 13.8894 44.1081 13.1818C44.737 12.0026 44.8942 10.6661 44.8156 9.3297C44.8156 8.77937 44.6584 8.30771 44.5011 7.75738C44.3439 7.28569 44.1081 6.89262 43.8722 6.49955C43.7936 6.34232 43.6364 6.2637 43.5578 6.10648C43.4006 5.94924 43.1647 5.79202 43.0075 5.63479C42.9289 5.7134 42.693 5.63479 42.4572 5.55617C42.2213 5.47755 41.9855 5.47755 41.7497 5.39895C41.671 5.39895 41.5138 5.39895 41.4352 5.39895C41.1207 5.39895 40.7277 5.47755 40.4132 5.55617C40.3346 5.55617 40.1773 5.63479 39.9415 5.7134C39.7057 5.79202 39.4698 5.94924 39.234 6.10648C39.0767 5.55617 38.9195 5.00587 38.6837 4.53418C38.4478 4.06249 37.9762 3.59081 37.5044 3.27635C37.0327 3.0405 36.4825 2.80466 35.9322 2.72604C35.7749 2.72604 35.6963 2.72604 35.5391 2.72604C35.4605 2.72604 35.4605 2.72604 35.3818 2.72604C35.2246 2.72604 35.146 2.72604 34.9888 2.80466C34.8316 2.80466 34.5957 2.88328 34.4385 2.96188C34.124 3.0405 33.8096 3.19773 33.4951 3.35496C33.2593 3.51219 32.9448 3.66942 32.7089 3.82665C32.5518 3.90527 32.3945 4.06249 32.2373 4.21972C32.08 4.29834 32.0014 4.45556 31.9228 4.6128C31.9228 4.6128 31.9228 4.6128 31.8442 4.6128C31.5298 4.45556 31.2153 4.37695 30.8222 4.29834C30.665 4.29834 30.5078 4.21972 30.3505 4.21972C30.1933 4.21972 30.0361 4.21972 29.8002 4.21972C29.643 4.21972 29.4072 4.21972 29.2499 4.21972C28.9354 4.29834 28.6996 4.37695 28.3852 4.45556C28.0707 4.6128 27.7563 4.77002 27.5204 5.00587C27.0487 5.39895 26.577 5.94924 26.3412 6.57816C26.1054 7.20708 26.0267 7.836 26.0267 8.46495C26.0267 8.62212 26.0267 8.70079 26.1054 8.85796C26.1054 9.01521 26.1839 9.17245 26.2625 9.3297C26.1054 9.40829 25.9481 9.40829 25.7909 9.48687C25.3978 9.64412 25.0834 9.87995 24.8475 10.1945C24.4544 10.5089 24.2186 10.902 23.9827 11.295C23.7469 11.6095 23.5897 12.0812 23.511 12.3956C23.4324 12.5529 23.4324 12.7887 23.4324 12.9459C23.4324 13.1818 23.3538 13.4176 23.3538 13.6534C23.3538 14.1252 23.4324 14.5969 23.5897 14.9899C23.6683 15.383 23.8255 15.6974 24.0614 16.0905C24.2186 16.405 24.4544 16.6409 24.6116 16.8767C24.8475 17.1911 25.0834 17.427 25.3978 17.5842C25.8695 17.8987 26.1839 18.0559 26.4984 18.2131ZM25.3978 16.1692C25.3978 16.0905 25.3192 16.0119 25.2405 15.9333C25.3978 15.6974 25.6336 15.5403 25.8694 15.383C26.2625 15.0685 26.6556 14.6754 27.0487 14.361C27.2059 14.2038 27.2059 13.9679 27.0487 13.8894C26.9701 13.8107 26.8914 13.8107 26.8129 13.8107C26.7343 13.8107 26.6556 13.8107 26.577 13.8894C26.1839 14.2038 25.8694 14.5183 25.4764 14.8327C25.3192 14.9899 25.1619 15.1472 25.0047 15.2258L24.9261 15.3044C24.9261 15.3044 24.9261 15.2258 24.8475 15.2258C24.7689 15.0685 24.7689 14.9114 24.6903 14.8327C24.6903 14.5969 24.6116 14.361 24.6116 14.2038C24.6116 14.2038 24.6903 14.2038 24.6903 14.1252C24.7689 14.0465 24.8475 13.9679 24.9261 13.8894C25.0047 13.8107 25.1619 13.7321 25.2405 13.5749C25.4764 13.339 25.7909 13.1032 26.0267 12.8674C26.1839 12.7101 26.1839 12.5529 26.0267 12.3956C25.9481 12.317 25.8695 12.317 25.7909 12.317C25.7123 12.317 25.6336 12.317 25.555 12.3956C25.3192 12.6315 25.0047 12.8674 24.7689 13.1032C24.6903 13.1818 24.6116 13.2604 24.6116 13.2604C24.6116 13.1818 24.6116 13.1032 24.6116 13.0245C24.6116 12.8674 24.6903 12.7101 24.6903 12.6315C24.7689 12.4743 24.7689 12.2384 24.8475 12.0812C24.9261 11.9239 24.9261 11.8454 25.0047 11.7667C25.0834 11.6095 25.2405 11.3736 25.3192 11.2164C25.3978 11.1378 25.4764 11.0592 25.555 10.9806C25.6336 10.902 25.7123 10.8234 25.8694 10.7447C25.9481 10.6661 26.0267 10.5875 26.1839 10.5089C26.2625 10.4303 26.4198 10.3517 26.577 10.3517C26.6556 10.3517 26.7343 10.273 26.8129 10.273C26.9701 10.1945 27.1274 10.1945 27.2845 10.1945C27.5204 10.1945 27.6776 10.1945 27.9134 10.1945C28.0707 10.273 28.3065 10.273 28.4638 10.3517C28.621 10.4303 28.7783 10.5089 28.8568 10.5875C29.0927 10.7447 29.2499 10.9806 29.4858 11.2164C29.5644 11.3736 29.7216 11.4523 29.8002 11.5309C29.8002 11.6095 29.8788 11.6881 29.8788 11.6881C29.9574 11.8454 30.1933 11.9239 30.3505 11.8454C30.5078 11.7667 30.5078 11.6095 30.5078 11.4523C30.5078 11.3736 30.5078 11.3736 30.4291 11.295C30.4291 11.2164 30.4291 11.1378 30.4291 11.1378C30.4291 11.0592 30.4291 10.9806 30.4291 10.9806C30.4291 10.902 30.3505 10.8234 30.3505 10.7447C30.2719 10.5875 30.2719 10.5089 30.1933 10.4303C30.1147 10.3517 30.0361 10.1945 29.9574 10.1158C29.8002 9.87995 29.5644 9.72279 29.2499 9.56554C29.0927 9.48687 29.0141 9.40829 28.8568 9.40829C28.621 9.3297 28.3852 9.25104 28.2279 9.25104C27.9921 9.25104 27.7563 9.17245 27.5204 9.25104C27.5204 9.17245 27.4418 9.17245 27.4418 9.09387C27.3632 8.93662 27.2845 8.70079 27.2845 8.54354C27.2845 8.30771 27.2845 8.07184 27.2845 7.836C27.3632 7.52154 27.4418 7.28569 27.5204 7.04985C27.599 6.81401 27.7563 6.57816 27.9134 6.34232C28.0707 6.18509 28.2279 6.02786 28.3852 5.87063C28.621 5.7134 28.8568 5.55617 29.0927 5.47755C29.3285 5.39895 29.4858 5.32033 29.7216 5.32033C30.0361 5.32033 30.2719 5.32033 30.5863 5.32033C30.665 5.32033 30.7436 5.32033 30.8222 5.32033C30.9008 5.32033 31.058 5.39895 31.1367 5.39895C31.2939 5.47755 31.4511 5.47755 31.6083 5.55617C31.7656 5.63479 32.0014 5.7134 32.1587 5.79202C32.3158 5.87063 32.4731 5.94924 32.5518 6.10648C32.7876 6.2637 32.9448 6.42094 33.1807 6.65678C33.4165 6.81401 33.7309 6.81401 33.8882 6.65678C34.0454 6.49955 34.124 6.10648 33.8882 5.94924C33.6523 5.7134 33.3378 5.47755 33.0234 5.24171C33.0234 5.24171 32.9448 5.24171 32.9448 5.1631C32.8662 4.92726 32.9448 4.92726 32.9448 4.84864C33.0234 4.77002 33.1807 4.69141 33.2593 4.6128C33.4165 4.53418 33.5738 4.37695 33.7309 4.29834C33.8882 4.14111 34.124 4.14111 34.2813 4.06249C34.4385 3.98388 34.5957 3.98388 34.7529 3.90527C34.9102 3.82665 35.0674 3.82665 35.2246 3.82665C35.2246 3.82665 35.2246 3.82665 35.3033 3.82665C35.3818 3.82665 35.4605 3.82665 35.5391 3.82665C35.6963 3.82665 35.8536 3.82665 36.0108 3.82665C36.0894 3.82665 36.168 3.82665 36.168 3.82665C36.3252 3.82665 36.4825 3.90527 36.6397 3.98388C36.7183 4.06249 36.7969 4.06249 36.8755 4.14111C36.9542 4.14111 37.0328 4.21972 37.19 4.29834C37.3472 4.45557 37.5044 4.53418 37.5831 4.69141C37.6617 4.77002 37.7403 4.92726 37.8189 5.00587C37.8975 5.08448 37.9762 5.24171 37.9762 5.32033C38.0547 5.47755 38.1333 5.7134 38.212 5.87063C38.2906 6.18509 38.3692 6.49954 38.4478 6.81401C38.4478 6.81401 38.4478 6.81401 38.4478 6.89262C38.4478 6.89262 38.4478 6.89262 38.4478 6.97123C38.2906 7.20708 38.1333 7.36431 38.0547 7.60015C37.9762 7.836 37.8975 7.99322 37.8189 8.22904C37.7403 8.38629 37.8189 8.54354 37.8975 8.62212C37.9762 8.70079 38.0547 8.85796 38.212 8.85796C38.3692 8.85796 38.5264 8.85796 38.6051 8.77937C38.7623 8.70079 38.7622 8.62212 38.8409 8.46495C38.8409 8.38629 38.9195 8.30771 38.9195 8.22904C39.0767 7.91462 39.234 7.67877 39.3912 7.44292C39.4698 7.36431 39.4698 7.28569 39.5484 7.20708C39.7057 7.04985 39.7842 6.97123 39.9415 6.81401C40.0202 6.73539 40.0987 6.65678 40.256 6.65678C40.3346 6.57816 40.4132 6.57816 40.5704 6.49955C40.4918 6.57816 40.6491 6.49955 40.7277 6.49955C40.8062 6.49955 40.9635 6.42094 41.0421 6.42094C41.1207 6.42094 41.278 6.42094 41.3566 6.42094C41.5138 6.42094 41.5924 6.42094 41.7497 6.42094C41.8282 6.42094 41.9069 6.42094 41.9855 6.49955C42.0641 6.49955 42.1427 6.57816 42.3 6.57816C42.4572 6.65678 42.6144 6.73539 42.693 6.81401C42.7717 6.89262 42.8502 6.89262 42.9289 6.97123C43.0075 7.04985 43.0861 7.12847 43.1647 7.20708C43.2433 7.28569 43.3219 7.36431 43.3219 7.44292C43.4006 7.60015 43.4792 7.75738 43.6364 7.99322C43.715 8.15046 43.7936 8.38629 43.8722 8.54354C43.9508 8.77937 43.9508 9.0152 44.0295 9.17245C44.1081 9.72278 44.1081 10.3517 44.0295 10.902C44.0295 11.1378 43.9508 11.3736 43.8722 11.6095C43.7936 11.9239 43.715 12.1598 43.5578 12.4743C43.4792 12.7101 43.4006 12.8674 43.2433 13.0245C43.1647 13.1818 43.0861 13.2604 43.0075 13.4176C42.8502 13.6534 42.7717 13.8107 42.6144 13.9679L42.693 13.8894C42.5358 14.0465 42.4572 14.2038 42.3 14.361C42.2213 14.4396 42.1427 14.5183 42.0641 14.5969C41.9855 14.6754 41.9069 14.7541 41.8282 14.8327C41.7497 14.9114 41.671 14.9899 41.5924 15.0685C41.5138 15.1472 41.4352 15.2258 41.3566 15.3044C41.3566 15.3044 41.278 15.383 41.1993 15.383C41.4352 14.9899 41.671 14.5969 41.9069 14.2038C41.9855 14.0465 41.9855 13.8107 41.8282 13.7321C41.7497 13.7321 41.671 13.6534 41.671 13.6534C41.5924 13.6534 41.4352 13.7321 41.3566 13.8107C41.1207 14.2038 40.8849 14.5969 40.6491 14.9899C40.4918 15.2258 40.4132 15.383 40.256 15.6189C40.1773 15.7761 40.0987 15.8547 40.0202 16.0119C40.0202 16.0905 39.9415 16.1692 40.0202 16.2478C39.9415 16.3264 39.8629 16.3264 39.7842 16.405C39.6271 16.5622 39.3912 16.6409 39.1553 16.7194C38.9982 16.7981 38.7623 16.8767 38.6051 16.9553C38.9195 16.5622 39.234 16.1692 39.5484 15.7761C39.6271 15.6974 39.6271 15.6189 39.6271 15.5403C39.6271 15.4616 39.5484 15.383 39.4698 15.3044C39.3912 15.3044 39.3126 15.2258 39.3126 15.2258H39.234C39.1553 15.2258 39.0767 15.3044 38.9982 15.383C38.5264 15.9333 38.1333 16.4836 37.6617 17.0339C37.5831 17.1125 37.5831 17.1125 37.5044 17.1911C37.4258 17.2698 37.4258 17.3484 37.5044 17.427C37.1114 17.5842 36.6397 17.7414 36.2466 17.82C36.4038 17.5842 36.6397 17.3484 36.7969 17.1125C36.8755 17.0339 36.8755 16.9553 36.8755 16.8767C36.8755 16.7981 36.8755 16.7194 36.7969 16.6409C36.7183 16.5622 36.6397 16.5622 36.5611 16.5622C36.4825 16.5622 36.4038 16.5622 36.3252 16.6409C36.0894 16.9553 35.8536 17.1911 35.6177 17.5056C35.4605 17.6629 35.3818 17.7414 35.3033 17.8987C35.2246 17.9773 35.2247 18.0559 35.146 18.1345C35.0674 18.1345 35.0674 18.1345 34.9888 18.1345C34.5957 18.2131 34.2813 18.2918 33.8882 18.3704C33.6523 18.3704 33.4951 18.449 33.2593 18.449C33.4951 18.2131 33.7309 18.0559 33.9668 17.82C34.124 17.6629 34.124 17.427 33.9668 17.3484C33.8882 17.2698 33.8096 17.2698 33.7309 17.2698C33.6523 17.2698 33.5738 17.2698 33.4951 17.3484C33.1807 17.5842 32.9448 17.82 32.7089 18.0559C32.5518 18.1345 32.4731 18.2918 32.3158 18.3704C32.2373 18.449 32.2373 18.4489 32.1587 18.5276C32.08 18.5276 32.0014 18.5276 31.8442 18.5276C31.6869 18.5276 31.4511 18.5276 31.2939 18.5276C31.1367 18.5276 30.9794 18.5276 30.8222 18.5276C30.665 18.5276 30.5078 18.5276 30.4291 18.5276C30.9008 18.2131 31.2939 17.82 31.7656 17.5056C31.8442 17.427 31.8442 17.3484 31.8442 17.2698C31.8442 17.1911 31.8442 17.1125 31.7656 17.0339C31.6869 16.9553 31.6083 16.9553 31.5298 16.9553C31.4511 16.9553 31.3725 16.9553 31.2939 17.0339C30.9794 17.2698 30.665 17.5056 30.2719 17.82C30.0361 17.9773 29.8788 18.1345 29.643 18.2918C29.5644 18.2918 29.5644 18.3703 29.5644 18.449C29.4858 18.449 29.4072 18.449 29.3285 18.449C29.0927 18.449 28.9354 18.3704 28.6996 18.2918C28.4638 18.2131 28.1493 18.1345 27.9134 18.0559C27.9921 17.9773 28.1493 17.8987 28.2279 17.82C28.6996 17.5056 29.0927 17.1911 29.5644 16.8767C29.643 16.7981 29.643 16.7194 29.643 16.6409C29.643 16.5622 29.643 16.4836 29.5644 16.405C29.4858 16.3264 29.4072 16.3264 29.3285 16.3264C29.2499 16.3264 29.1713 16.405 29.0927 16.405C28.7782 16.6409 28.4638 16.8767 28.0707 17.1911C27.9134 17.2698 27.8349 17.427 27.6776 17.5056C27.599 17.5842 27.5204 17.6629 27.4418 17.6629L27.3632 17.7414C27.3632 17.7414 27.3632 17.82 27.2845 17.8987C27.2059 17.8987 27.2059 17.82 27.1274 17.82C26.9701 17.7414 26.8129 17.6629 26.6556 17.5842C26.4984 17.5056 26.3412 17.427 26.2625 17.2698C26.4198 17.1125 26.6556 16.9553 26.8129 16.7981C27.2059 16.4836 27.5204 16.1692 27.9134 15.8547C28.0707 15.7761 28.0707 15.5403 27.9134 15.383C27.8349 15.3044 27.7563 15.3044 27.6776 15.3044C27.599 15.3044 27.5204 15.3044 27.4418 15.383C27.0487 15.6974 26.6556 16.0119 26.3412 16.3264C26.1839 16.4836 25.9481 16.6409 25.7909 16.8767C25.7123 16.4836 25.555 16.3264 25.3978 16.1692C25.4764 16.2478 25.4764 16.2478 25.4764 16.2478C25.3978 16.1692 25.3978 16.1692 25.3978 16.1692ZM27.2059 18.6062C27.1274 18.6062 27.1274 18.5276 27.1274 18.5276C27.2059 18.6062 27.2059 18.6062 27.2059 18.6062ZM10.1466 14.8327C10.1466 14.7541 10.1466 14.7541 10.1466 14.8327V14.8327ZM36.9542 25.996C36.9542 25.8387 36.8755 25.6029 36.8755 25.4457C36.8755 25.2098 36.7969 25.0526 36.7969 24.8168C36.7183 24.5809 36.7183 24.4237 36.6397 24.1878C36.6397 24.0306 36.6397 23.952 36.5611 23.7948C36.4825 23.6375 36.4038 23.5589 36.2466 23.5589H36.168C36.0108 23.6375 35.8536 23.7948 35.9322 23.952C35.9322 24.0306 35.9322 24.1093 36.0108 24.1878C36.0108 24.5023 36.0108 24.8168 36.0108 25.1313C36.0108 25.4457 36.0108 25.7602 36.0894 26.0746C36.168 26.7822 36.168 27.4111 36.2466 28.1186C36.3252 28.8261 36.3252 29.455 36.4038 30.1626C36.4038 30.8701 36.4825 31.499 36.4038 32.2066C36.4038 32.4424 36.3252 32.6782 36.2466 32.9141C36.168 33.0713 36.0894 33.1499 36.0108 33.3071C35.9322 33.4644 35.7749 33.543 35.6177 33.7002C35.4605 33.8575 35.3033 33.9361 35.146 34.0147C34.9888 34.0933 34.8316 34.1719 34.6743 34.2505C34.2027 34.4077 33.8096 34.565 33.3378 34.6436C32.8662 34.7222 32.3159 34.8795 31.8442 34.9581C31.4511 35.0366 31.058 35.0366 30.665 35.1153C30.1933 35.1153 29.8002 35.1939 29.3285 35.1939C28.9354 35.1939 28.4638 35.1939 28.0707 35.2725C27.8349 35.2725 27.6776 35.2725 27.4418 35.3511C27.2059 35.3511 26.9701 35.4297 26.7343 35.4297C27.1274 34.9581 27.5204 34.565 27.9134 34.1719C28.1493 33.9361 28.3852 33.7788 28.5424 33.543C28.621 33.4644 28.7783 33.3071 28.8568 33.2286C28.9354 33.1499 29.0141 32.9927 29.0927 32.9141C29.2499 32.8355 29.2499 32.5997 29.1713 32.4424C29.0927 32.3637 29.0141 32.2852 28.8568 32.2852C28.7783 32.2852 28.7782 32.2852 28.6996 32.3637C28.621 32.3637 28.621 32.4424 28.5424 32.4424C28.4638 32.521 28.3065 32.521 28.2279 32.5997C28.0707 32.6782 27.9921 32.8355 27.8349 32.9141C27.599 33.0713 27.3632 33.3071 27.1274 33.543C26.6556 34.0146 26.1054 34.4077 25.6336 34.8794C25.555 34.9581 25.4764 35.1153 25.3192 35.1939C25.1619 35.4297 24.9261 35.6656 24.9261 35.9801C24.9261 36.1373 24.9261 36.2159 25.0047 36.3731C25.0047 36.4517 25.0047 36.4517 25.0834 36.5303C25.1619 36.609 25.1619 36.6876 25.2405 36.7662C25.3978 36.8448 25.4764 36.9234 25.6336 37.0806C25.7909 37.1593 25.8695 37.2379 26.0267 37.3165C26.7343 37.631 27.3632 37.9454 28.0707 38.2599C28.1493 38.3385 28.3065 38.2599 28.3852 38.1812C28.4638 38.1026 28.5424 38.0241 28.621 37.9454C28.621 37.8668 28.621 37.7096 28.5424 37.631C28.4638 37.5523 28.3852 37.4737 28.3065 37.4737C28.2279 37.3951 28.0707 37.3951 27.9921 37.3165H28.0707C27.7563 37.1592 27.4418 37.0806 27.2059 36.9234C26.9701 36.7662 26.7343 36.6876 26.4984 36.5303C27.2059 36.4517 27.9134 36.4517 28.621 36.3731C29.3285 36.3731 29.9574 36.2945 30.665 36.2159C31.3725 36.1373 32.08 36.0586 32.7876 35.9014C33.102 35.8228 33.4165 35.7442 33.7309 35.6656C33.8882 35.587 34.0454 35.587 34.2813 35.5084C34.4385 35.4297 34.5957 35.3511 34.7529 35.3511C35.146 35.1939 35.4605 35.0366 35.7749 34.8794C36.168 34.7222 36.4825 34.4077 36.7183 34.1719C36.8755 34.0147 36.9542 33.9361 37.0328 33.7788C37.1114 33.6216 37.19 33.4644 37.2686 33.3071C37.3472 32.9927 37.4258 32.5997 37.4258 32.2066C37.4258 31.499 37.3472 30.7915 37.3472 30.1626C37.2686 28.6689 37.1114 27.3324 36.9542 25.996ZM20.5237 6.34232C20.3665 6.10648 20.1306 5.87063 19.8948 5.63479C19.7375 5.39895 19.5017 5.24171 19.2659 5.00587C19.1872 4.92726 19.1086 4.84864 19.03 4.77002C18.9514 4.69141 18.9514 4.69141 18.8728 4.69141C18.7941 4.69141 18.7941 4.6128 18.7155 4.6128C18.7155 4.6128 18.7155 4.6128 18.637 4.6128C18.5583 4.6128 18.5583 4.53418 18.4797 4.53418C18.4011 4.53418 18.2439 4.6128 18.1652 4.69141C18.0866 4.84864 18.0866 5.00587 18.2439 5.1631C18.3225 5.39895 18.5583 5.47755 18.7155 5.63479C18.8728 5.79202 19.03 6.02786 19.1872 6.18509C19.2659 6.34232 19.3445 6.49955 19.5017 6.57816C18.2439 6.42094 16.9074 6.34232 15.571 6.2637C15.3351 6.2637 15.0993 6.2637 14.8635 6.2637C14.4704 6.2637 14.0773 6.2637 13.6842 6.2637C13.0553 6.2637 12.3477 6.34232 11.7188 6.34232C11.4044 6.34232 11.0899 6.42094 10.7755 6.42094C10.5396 6.42094 10.3038 6.49955 10.068 6.49955C9.91072 6.49955 9.75347 6.57816 9.59623 6.57816C9.51764 6.57816 9.43906 6.65678 9.36039 6.65678C9.28181 6.65678 9.12456 6.73539 9.04598 6.81401C8.96731 6.81401 8.96731 6.89262 8.88873 6.89262C8.88873 7.12847 8.81006 7.20708 8.81006 7.28569C8.73148 7.44293 8.65289 7.60016 8.65289 7.75738C8.65289 7.99322 8.65289 8.22904 8.65289 8.46495C8.65289 8.77937 8.65289 9.17245 8.65289 9.48687C8.65289 10.1158 8.65289 10.7447 8.73148 11.3736C8.73148 12.0812 8.88873 12.7887 8.96731 13.4963C8.96731 13.7321 9.04598 13.8894 9.12456 14.1252C9.20314 14.361 9.36039 14.5969 9.43898 14.8327C9.43898 14.9114 9.51764 14.9899 9.51764 15.0685C9.59623 15.2258 9.83206 15.3044 9.98931 15.2258C10.1466 15.1472 10.2251 14.9114 10.1466 14.7541C10.1466 14.7541 10.1466 14.6754 10.068 14.6754C10.068 14.4396 10.068 14.1252 9.98931 13.8894C9.98931 13.6534 9.91072 13.4176 9.91072 13.1818C9.83206 12.317 9.75348 11.4523 9.75348 10.5875C9.75348 9.72278 9.67489 8.85796 9.83206 7.99322C9.83206 7.91462 9.83206 7.91462 9.83206 7.836C9.83206 7.836 9.83206 7.836 9.83206 7.75738C9.83206 7.75738 9.83206 7.75738 9.91072 7.67877C9.98931 7.60015 10.068 7.60015 10.1466 7.52154C10.5396 7.36431 11.0113 7.28569 11.4044 7.20708H11.3258C14.1559 6.89262 17.0646 7.12847 19.8161 7.44292C19.8948 7.44292 19.9734 7.44292 20.052 7.36431C20.052 7.36431 20.052 7.44292 19.9734 7.44292C19.659 7.75738 19.3445 8.07184 18.9514 8.38629C18.5583 8.62212 18.2439 8.93662 17.8508 9.17245C17.7722 9.25104 17.6935 9.3297 17.6935 9.40829C17.6935 9.48687 17.6935 9.56554 17.6935 9.72278C17.7722 9.87995 18.008 9.95862 18.1652 9.87995C18.4797 9.64412 18.7155 9.48687 19.03 9.25104C19.2659 9.09387 19.5803 8.85796 19.8161 8.70079C20.052 8.54354 20.3665 8.30771 20.6023 8.15046C20.7595 7.99322 20.9954 7.836 21.074 7.60015C21.1526 7.36431 21.074 7.12847 20.9168 6.89262C20.9168 6.73539 20.6809 6.57816 20.5237 6.34232Z" fill="black"/>
</g>
<defs>
<clipPath id="clip0_9_341">
<rect width="45.5215" height="50.3132" fill="white" transform="translate(0.555908 0.210083)"/>
</clipPath>
</defs>
</svg>
