<svg width="57" height="63" viewBox="0 0 57 63" fill="none" xmlns="http://www.w3.org/2000/svg">
<g clip-path="url(#clip0_2_57)">
<path d="M37.9454 9.13233C38.139 9.22913 38.4293 9.03555 38.5261 8.84196C38.5261 8.74517 38.5261 8.55159 38.5261 8.4548C38.4293 8.4548 38.3326 8.35801 38.2357 8.26121C37.9454 8.16443 37.655 8.06764 37.2678 7.97085C37.0743 7.87405 36.8807 7.87405 36.5903 7.87405C36.4935 7.87405 36.3 7.87405 36.2031 7.87405C35.816 7.97085 35.5256 8.06764 35.2353 8.26121C35.1384 8.35801 34.9448 8.4548 34.8481 8.55159C34.7513 8.64838 34.7513 8.64838 34.7513 8.74517C34.6544 8.84196 34.6544 8.84196 34.6544 8.93876C34.5577 9.13233 34.7513 9.42271 34.9448 9.42271C35.1384 9.5195 35.332 9.42271 35.4288 9.22913L35.5256 9.13233C35.7191 9.03555 35.9127 8.93876 36.1063 8.84196C36.3 8.74517 36.4935 8.74517 36.5903 8.74517C36.7839 8.74517 36.8807 8.74517 37.0743 8.74517C37.2678 8.93876 37.5582 9.03555 37.9454 9.13233ZM48.7859 11.2617C48.8828 11.2617 48.8828 11.165 48.9795 11.165C49.0764 11.0681 49.2699 11.0681 49.3667 10.9714C49.4635 10.9714 49.4635 10.9714 49.5602 10.8745C49.7538 10.7778 49.9474 10.7778 50.141 10.7778C50.2378 10.7778 50.2378 10.7778 50.3347 10.7778C50.4314 10.7778 50.5282 10.8745 50.625 10.8745L50.7218 10.9714C50.8185 11.0681 50.8185 11.0681 50.8185 11.165C50.9154 11.2617 50.9154 11.3585 51.0121 11.5521C51.109 11.8425 51.109 12.1328 51.2057 12.4232C51.2057 12.6168 51.2057 12.9071 51.2057 13.1008C51.2057 13.2944 51.3993 13.5847 51.5928 13.5847C51.7865 13.5847 52.0768 13.3911 52.0768 13.1976C52.0768 12.7136 52.0768 12.2297 51.9801 11.7457C51.8833 11.5521 51.8833 11.3585 51.7865 11.165C51.6897 10.9714 51.5928 10.8745 51.4961 10.681C51.4961 10.5842 51.3993 10.5842 51.3025 10.4874C51.2057 10.3907 51.2057 10.3907 51.109 10.2938C51.0121 10.197 50.9154 10.197 50.7218 10.1002C50.5282 10.0035 50.3346 10.0035 50.141 10.0035C50.141 10.0035 50.1411 10.0035 50.0442 10.0035C49.9474 10.0035 49.7538 10.0035 49.6571 10.0035C49.4635 10.0035 49.3667 10.1002 49.1731 10.1002C48.9795 10.197 48.7859 10.2938 48.5924 10.3907C48.3988 10.4874 48.302 10.5842 48.2052 10.7778C48.1084 10.9714 48.1084 11.2617 48.302 11.3585C48.5924 11.2617 48.6892 11.2617 48.7859 11.2617ZM41.333 2.16339C41.4299 2.16339 41.4299 2.06659 41.5266 2.06659C41.7202 1.96981 41.9138 1.96981 42.0106 1.87302C42.0106 1.87302 42.0106 1.87302 41.9138 1.87302C42.2042 1.77622 42.4946 1.67943 42.7849 1.58265C43.2689 1.48585 43.5592 1.48585 43.9464 1.48585C44.14 1.48585 44.3336 1.48585 44.5272 1.48585C44.7208 1.48585 45.0111 1.48585 45.2046 1.58265C45.3982 1.58265 45.5919 1.67943 45.6886 1.67943C45.8822 1.77622 46.0758 1.87302 46.3662 1.87302C46.4629 1.96981 46.6565 1.96981 46.7534 2.06659C46.9469 2.16339 47.0437 2.26018 47.2373 2.45377C47.4309 2.64734 47.6245 2.84093 47.8181 3.03451C47.9148 3.1313 48.0116 3.22809 48.0116 3.32489C48.1084 3.51846 48.3988 3.61525 48.5924 3.51846C48.8828 3.42167 48.9795 3.1313 48.8828 2.84093C48.6892 2.55055 48.4955 2.26018 48.302 1.96981C48.0116 1.87302 47.8181 1.67943 47.5277 1.48585C47.2373 1.29227 47.0437 1.19548 46.7534 1.0019C46.4629 0.808317 46.0758 0.711527 45.7855 0.614735C45.3982 0.517944 45.0111 0.517944 44.5272 0.517944C44.2368 0.517944 44.0432 0.517944 43.7528 0.517944C43.3656 0.517944 43.0753 0.614735 42.6882 0.711527C42.3978 0.808317 42.0106 0.905108 41.7202 1.0019C41.5266 1.09869 41.333 1.19548 41.1395 1.29227C41.0427 1.29227 41.0427 1.38906 40.9459 1.38906C40.9459 1.48585 40.9459 1.48585 40.849 1.48585C40.6555 1.67943 40.6555 1.87302 40.849 2.06659C40.9459 2.26018 41.2363 2.26018 41.333 2.16339ZM41.7202 1.0019C41.817 1.0019 41.817 1.0019 41.7202 1.0019V1.0019Z" fill="black"/>
<path d="M55.2707 18.2303C54.9803 18.2303 54.7867 18.327 54.7867 18.5206C54.6899 18.9078 54.4963 19.295 54.3027 19.5853C54.206 19.7789 54.1091 19.9725 53.9155 20.166C53.722 20.3597 53.6252 20.65 53.4317 20.8436C53.3348 21.0372 53.1413 21.134 53.0444 21.2307C52.8508 21.4243 52.7541 21.5212 52.5605 21.6179C51.9798 22.1019 51.3022 22.3923 50.5279 22.6826C50.3344 22.7794 50.1407 22.7794 49.9471 22.8762C49.7535 22.973 49.56 22.973 49.2696 23.0698C48.8825 23.1666 48.3985 23.1666 48.0113 23.2633C47.9145 23.2633 47.9145 23.2633 47.8178 23.2633H47.9145C47.8178 23.2633 47.7209 23.2633 47.6242 23.2633C47.5274 23.2633 47.4306 23.3602 47.4306 23.457C47.4306 23.5538 47.4306 23.6506 47.4306 23.7473C47.4306 23.8442 47.5274 23.9409 47.6242 23.9409C47.8178 23.9409 47.9145 23.9409 48.1081 23.9409C48.3017 23.9409 48.5921 23.9409 48.7856 23.9409C49.1728 23.9409 49.56 23.8442 49.9471 23.7473C50.3344 23.6506 50.7215 23.5538 51.1087 23.3602C51.4958 23.1666 51.883 22.973 52.2701 22.7794C52.6573 22.5859 52.9477 22.3923 53.238 22.1019C53.4317 21.9083 53.5284 21.8116 53.722 21.6179C53.9156 21.4243 54.0124 21.2307 54.206 21.0372C54.7867 20.2629 55.1738 19.3917 55.4643 18.5206C55.6578 18.6174 55.4643 18.327 55.2707 18.2303ZM23.136 28.6837C23.136 27.9094 23.136 27.1351 23.0393 26.3607C23.0393 26.1671 22.9425 25.9735 22.9425 25.6832C22.9425 25.5863 22.8457 25.3928 22.8457 25.296C22.7489 25.1992 22.6521 25.0056 22.5553 24.9089C22.4585 24.812 22.2649 24.7152 22.1682 24.6185C22.0713 24.6185 22.0713 24.5216 21.9746 24.5216C21.8777 24.4249 21.6842 24.4249 21.5874 24.3281C21.3939 24.2313 21.1034 24.2313 20.9099 24.1345C20.5227 24.0377 20.1356 24.0377 19.8451 23.9409C19.3612 23.8442 18.8773 23.8442 18.4901 23.7473C16.7478 23.5538 15.0057 23.457 13.2634 23.457C12.7794 23.457 12.3922 23.457 11.9084 23.457C11.4244 23.457 10.8436 23.457 10.3596 23.457C9.39174 23.457 8.42383 23.457 7.45592 23.5538C6.48801 23.5538 5.5201 23.6506 4.64898 23.7473C3.68108 23.8442 2.71317 23.9409 1.74526 24.0377C1.64846 24.0377 1.64846 24.0377 1.55167 24.0377C1.45489 24.0377 1.3581 24.1345 1.2613 24.2313C1.16451 24.3281 1.06773 24.5216 1.06773 24.7152C1.06773 24.9089 1.16451 25.1025 1.2613 25.1992C1.3581 25.296 1.45489 25.3928 1.55167 25.3928C1.64846 25.3928 1.84205 25.3928 1.93884 25.3928C2.42279 25.296 2.90675 25.1992 3.48749 25.1992C5.90727 24.9089 8.42383 24.7152 10.8436 24.7152C12.1019 24.7152 13.457 24.7152 14.8121 24.7152C16.0703 24.7152 17.4254 24.812 18.6837 25.0056C19.1676 25.1025 19.6516 25.1025 20.0387 25.1992C20.4259 25.296 20.813 25.3928 21.2003 25.5863C21.297 25.5863 21.3939 25.6832 21.4906 25.7799C21.5874 25.9735 21.5874 26.2639 21.6842 26.5543C21.8777 28.1029 21.9746 29.6516 21.9746 31.2002C22.0713 32.8457 22.0713 34.4911 22.0713 36.1366C22.0713 39.5243 21.8777 42.9119 21.6842 46.2028C21.5874 48.3322 21.4906 50.4617 21.3939 52.6878C21.3939 53.7525 21.3939 54.8173 21.3939 55.882C21.3939 56.9466 21.3939 58.0113 21.2003 58.9793C21.2003 59.076 21.2003 59.1729 21.1034 59.2696C21.1034 59.4632 21.0067 59.6568 20.9099 59.8503C20.9099 59.9472 20.813 59.9472 20.813 60.0439C20.5227 60.1407 20.2323 60.2375 19.8451 60.2375C19.458 60.3343 19.0708 60.3343 18.6837 60.4312C18.5869 60.4312 18.4901 60.4312 18.3933 60.4312C18.6837 60.1407 18.974 59.8503 19.2644 59.56C19.458 59.3664 19.458 59.1729 19.2644 58.9793C19.1676 58.8825 19.0708 58.8824 18.974 58.8824C18.8773 58.8824 18.7804 58.8825 18.6837 58.9793C18.2965 59.2696 18.0061 59.6568 17.619 59.9472C17.4254 60.1407 17.2318 60.3343 17.0383 60.5279C16.3607 60.6247 15.6831 60.7215 15.1024 60.7215C15.296 60.5279 15.5864 60.4312 15.78 60.2375C15.9735 60.1407 15.9735 59.8503 15.8767 59.7536C15.78 59.6568 15.78 59.56 15.6831 59.56H15.5864C15.4895 59.56 15.4895 59.56 15.3928 59.56C15.0057 59.8503 14.6184 60.1407 14.2313 60.4312L14.1345 60.5279C14.0377 60.6247 13.9409 60.7215 13.9409 60.8183C13.1665 60.915 12.4891 60.915 11.7148 60.915C12.0051 60.7215 12.3922 60.4312 12.6827 60.2375C12.7794 60.1407 12.8762 60.1407 12.8762 59.9472C12.8762 59.8503 12.8762 59.7536 12.8762 59.6568C12.7794 59.56 12.6827 59.4632 12.5858 59.4632H12.4891C12.3922 59.4632 12.3922 59.4632 12.2955 59.56C11.7148 59.9472 11.2308 60.3343 10.6501 60.7215C10.5532 60.7215 10.5532 60.8183 10.4565 60.8183C10.2629 61.0119 10.2629 61.1086 10.2629 61.2055C9.48853 61.2055 8.7142 61.3022 7.84309 61.3022C7.93988 61.2055 8.13346 61.1086 8.23025 61.0119C8.52063 60.8183 8.811 60.6247 9.10137 60.4312C9.19816 60.3343 9.29495 60.3343 9.29495 60.2375C9.39175 60.1407 9.48853 60.1407 9.48853 59.9472C9.48853 59.8503 9.48853 59.7536 9.48853 59.6568C9.39175 59.56 9.39175 59.4632 9.19816 59.4632H9.10137C9.00457 59.4632 9.00458 59.4632 8.90779 59.56C8.52063 59.8503 8.13345 60.1407 7.74629 60.3343C7.55272 60.4311 7.45592 60.5279 7.35913 60.7215C7.26234 60.8183 7.16555 60.915 6.97197 61.0119C6.87517 61.1086 6.87517 61.3022 6.87517 61.399C6.10085 61.399 5.32652 61.399 4.5522 61.3022C4.64898 61.2055 4.64898 61.2055 4.74577 61.1086C4.84257 61.0119 5.03615 60.915 5.13294 60.8183C5.42332 60.6247 5.71369 60.3343 6.00406 60.1407C6.19764 59.9472 6.19764 59.6568 6.00406 59.56C5.90727 59.4632 5.81048 59.4632 5.71369 59.4632C5.61689 59.4632 5.5201 59.4632 5.42332 59.56C5.13294 59.7536 4.84257 60.0439 4.5522 60.2375C4.45541 60.3343 4.26182 60.4312 4.16503 60.6247C4.06824 60.7215 3.97145 60.7215 3.87466 60.8183C3.77786 60.915 3.77786 61.0119 3.77786 61.1086C3.77786 61.2055 3.77786 61.3022 3.87466 61.3022C3.68108 61.3022 3.48749 61.3022 3.29392 61.3022C2.80996 61.2055 2.42279 61.1086 1.93884 61.0119C2.32601 60.6247 2.51958 60.5279 2.71317 60.3343C3.10033 60.0439 3.3907 59.6568 3.77786 59.2696C3.97145 59.076 3.97145 58.7857 3.77786 58.6889C3.68108 58.592 3.48749 58.4953 3.3907 58.4953C3.29392 58.4953 3.19712 58.4953 3.10033 58.592C2.71317 58.9793 2.32601 59.3664 1.93884 59.7536C1.74526 59.9472 1.64846 60.0439 1.55167 60.2375C1.55167 59.6568 1.55167 59.1729 1.55167 58.592C1.64846 58.4953 1.74526 58.3985 1.84205 58.3985C2.03563 58.2049 2.13242 58.1081 2.32601 57.9146C2.71317 57.5274 3.10033 57.1402 3.3907 56.753C3.58429 56.5594 3.58429 56.3659 3.3907 56.1723C3.29392 56.0756 3.19712 56.0756 3.10033 56.0756C3.00354 56.0756 2.90675 56.0756 2.80996 56.1723C2.4228 56.5594 2.03563 56.9466 1.74526 57.3338C1.64846 57.3338 1.55167 57.3338 1.55167 57.4306C1.55167 56.753 1.55167 56.0756 1.55167 55.3012C1.55167 55.2044 1.55167 55.1076 1.55167 55.0108C1.64846 55.0108 1.74526 55.0108 1.84205 54.914C2.03563 54.7204 2.22921 54.5268 2.32601 54.4301C2.61638 54.1397 2.90675 53.8493 3.19712 53.559C3.3907 53.3654 3.3907 53.075 3.19712 52.9782C3.10033 52.8814 3.00354 52.7846 2.90675 52.7846C2.80996 52.7846 2.71317 52.7847 2.61638 52.8814C2.32601 53.1718 2.03563 53.4621 1.84205 53.6557C1.74526 53.7525 1.74526 53.8493 1.64846 53.8493C1.64846 52.591 1.74526 51.4295 1.74526 50.1712C1.84205 46.6868 1.74526 43.2023 1.64846 39.8146C1.55167 37.4917 1.3581 35.1687 1.2613 32.8457C1.16451 31.6842 1.16451 30.4259 1.06773 29.2644C1.06773 28.6837 0.970931 28.1029 0.970931 27.5222C0.874139 26.9415 0.874139 26.3606 0.777348 25.7799C0.777348 25.6832 0.777348 25.5863 0.777348 25.3928C0.777348 25.1992 0.583767 25.0056 0.390185 25.0056C0.196603 25.0056 0.00302124 25.1992 0.00302124 25.3928C0.00302124 25.4896 0.00302124 25.6832 0.00302124 25.7799C0.00302124 25.8768 0.00302124 25.9735 0.00302124 26.0703C0.00302124 26.1671 0.00302124 26.2639 0.00302124 26.2639C0.00302124 26.7479 0.00302124 27.2318 0.00302124 27.6189C0.0998122 28.4901 0.099812 29.3612 0.196603 30.1355C0.293394 31.781 0.486976 33.4264 0.486976 35.1687C0.486976 37.2981 0.486976 39.1371 0.583767 40.8793C0.680558 42.5248 0.680557 44.1702 0.680557 45.8156C0.680557 47.5579 0.680558 49.3001 0.583767 50.9455C0.486976 52.591 0.390185 54.3333 0.390185 55.9787C0.390185 56.8499 0.293394 57.6242 0.293394 58.4953C0.293394 58.8825 0.293394 59.2696 0.196603 59.7536C0.196603 59.9472 0.196603 60.2375 0.196603 60.4312C0.196603 60.915 0.486976 61.399 0.874139 61.6893C0.970931 61.7862 0.970931 61.7862 1.06773 61.8829C1.16451 61.9798 1.2613 61.9798 1.3581 61.9798C1.55167 62.0766 1.64846 62.0766 1.84205 62.1733C2.13242 62.2702 2.42279 62.2702 2.71317 62.3669C3.19712 62.4638 3.58429 62.4637 4.06824 62.4637C4.84257 62.4637 5.71369 62.4637 6.48801 62.4637C8.13346 62.4637 9.87574 62.3669 11.5211 62.2702C13.1665 62.1733 14.812 62.1733 16.4575 62.0766C17.2318 62.0766 18.0061 61.9798 18.7804 61.8829C19.5548 61.7862 20.3291 61.7862 21.1034 61.5926C21.3939 61.4958 21.6842 61.399 21.8777 61.2055C21.9746 61.1086 22.0713 60.915 22.1682 60.7215C22.2649 60.5279 22.3617 60.2375 22.3617 60.0439C22.3617 59.8503 22.4585 59.6568 22.4585 59.4632C22.4585 59.1729 22.4585 58.9793 22.5553 58.6889C22.6521 57.8177 22.5553 57.0434 22.5553 56.1723C22.5553 54.5268 22.5553 52.8814 22.6521 51.1391C22.7489 49.3969 22.8457 47.6547 22.9425 45.9125C23.0393 44.267 23.136 42.7183 23.2329 41.0729C23.3296 39.4275 23.4264 37.6853 23.4264 36.0398C23.4264 34.3944 23.4264 32.7489 23.4264 31.1035C23.136 30.3291 23.136 29.458 23.136 28.6837Z" fill="black"/>
<path d="M4.35707 32.9428C4.35707 32.1685 4.45386 31.4909 4.55065 30.8134C4.55065 30.6199 4.64744 30.4263 4.64744 30.2327C4.64744 30.0391 4.64744 29.8455 4.55065 29.6519C4.45386 29.4583 4.35707 29.3616 4.16348 29.3616C3.9699 29.3616 3.77632 29.3616 3.58274 29.4583C3.38915 29.5552 3.29236 29.7487 3.29236 29.8455C3.19558 30.2327 3.19558 30.7166 3.19558 31.1038C3.19558 31.4909 3.09879 31.8782 3.09879 32.2653C3.09879 33.0396 3.09879 33.8139 3.09879 34.5883C3.09879 36.1369 3.19558 37.7824 3.29236 39.3311C3.38915 40.9765 3.48595 42.5251 3.58274 44.1706C3.67952 44.9449 3.67952 45.7193 3.77632 46.4936C3.87311 47.2679 3.87311 48.0422 3.9699 48.8166C3.9699 49.2037 4.0667 49.5909 4.16348 49.978C4.26027 50.2684 4.35707 50.5588 4.45386 50.7523C4.45386 50.8492 4.55064 50.9459 4.64744 51.0427C4.84102 51.1395 4.93781 51.2363 5.13139 51.3331C5.80893 51.6235 6.58326 51.5266 7.26079 51.4299C8.90624 51.2363 10.4549 51.2363 12.1004 50.9459C12.8747 50.8492 13.5522 50.7523 14.3265 50.5588C14.7137 50.462 15.0041 50.3652 15.3912 50.3652C15.7784 50.2684 16.1655 50.1716 16.5527 50.1716C16.7463 50.1716 16.9398 50.0749 17.1334 49.978C17.2303 49.978 17.3271 49.8812 17.4238 49.8812C17.5207 49.7845 17.6174 49.7845 17.811 49.6876C18.0046 49.5909 18.1014 49.494 18.1981 49.3973C18.295 49.3005 18.3917 49.1069 18.4885 48.9133C18.5853 48.7197 18.5853 48.623 18.5853 48.4293C18.5853 48.2358 18.5853 48.0422 18.5853 47.8486C18.5853 47.0743 18.6821 46.3 18.6821 45.5257C18.6821 44.7513 18.6821 43.977 18.6821 43.2027C18.6821 42.4284 18.6821 41.5572 18.6821 40.7829C18.779 39.1374 18.8757 37.492 18.9725 35.8465C19.0693 35.0722 19.0693 34.2011 19.1661 33.4268C19.2629 32.6525 19.2628 31.8782 19.2628 31.007C19.2628 30.6199 19.2628 30.2327 19.2628 29.8455C19.2628 29.6519 19.2628 29.4583 19.2628 29.2647C19.2628 29.0712 19.2628 28.9744 19.2628 28.8776C19.2628 28.5873 19.1661 28.3936 19.0693 28.2C19.0693 28.2 19.0693 28.1033 18.9725 28.1033C18.8757 28.0065 18.8757 27.9097 18.779 27.9097C18.6821 27.8129 18.4885 27.7161 18.3917 27.7161C18.1981 27.6193 17.9078 27.6193 17.7142 27.7161C17.3271 27.7161 17.0367 27.8129 16.6495 27.8129C14.5201 27.9097 12.4875 27.9097 10.3581 27.9097C9.29341 27.9097 8.2287 27.9097 7.26079 27.8129C6.77683 27.8129 6.1961 27.8129 5.71214 27.7161C5.42177 27.7161 5.22818 27.7161 4.93782 27.7161C4.84102 27.7161 4.74423 27.7161 4.55065 27.7161C4.45386 27.7161 4.35707 27.7161 4.26027 27.7161C4.45386 27.6193 4.45386 27.6193 4.45386 27.6193C4.26027 27.6193 4.0667 27.7161 3.9699 27.9097C3.87311 28.1033 4.0667 28.3936 4.26027 28.3936C4.35707 28.3936 4.45386 28.3936 4.55065 28.3936C4.84102 28.3936 5.0346 28.4904 5.32498 28.4904C5.61535 28.4904 5.90572 28.4904 6.1961 28.4904C6.77683 28.4904 7.35758 28.4904 7.93833 28.5873C9.09982 28.684 10.3581 28.684 11.5196 28.7809C12.6811 28.8776 13.8425 28.9744 15.0041 28.9744C15.5848 28.9744 16.1655 28.9744 16.6495 28.9744C16.9398 28.9744 17.1334 28.9744 17.4238 28.9744C17.6174 28.9744 17.811 28.9744 18.0046 28.9744C18.1014 29.168 18.1014 29.3616 18.1981 29.5552C18.3917 31.007 18.295 32.5556 18.1981 34.0075C18.1014 34.7819 18.1014 35.5562 18.0046 36.3305C17.9078 37.1048 17.9078 37.8792 17.811 38.5567C17.7142 40.1054 17.6174 41.654 17.5207 43.2027C17.5207 43.977 17.5207 44.6546 17.4238 45.4289C17.4238 46.1064 17.3271 46.8807 17.2303 47.5583C17.2303 47.8486 17.1334 48.139 17.0367 48.3326C17.0367 48.3326 16.9398 48.3326 16.9398 48.4293C16.8431 48.5262 16.7463 48.5262 16.6495 48.623C16.5527 48.623 16.5527 48.7197 16.456 48.7197C15.1977 49.2037 13.9394 49.3973 12.5843 49.5909C12.7779 49.494 12.8747 49.3973 13.0682 49.2037C13.649 48.8166 14.1329 48.3326 14.7137 47.9454C14.8105 47.8486 14.8105 47.7519 14.8105 47.655C14.8105 47.5583 14.8105 47.4615 14.7137 47.3647C14.6169 47.2679 14.5201 47.2679 14.4234 47.2679C14.3265 47.2679 14.2298 47.2679 14.1329 47.3647C13.4554 47.8486 12.7779 48.4293 12.1004 48.9133C11.9068 49.1069 11.7132 49.2037 11.5196 49.3973C11.4228 49.3973 11.3261 49.494 11.3261 49.494C11.2292 49.7845 11.2292 49.7845 11.1325 49.8812C10.4549 49.978 9.77736 49.978 9.09982 50.0749C9.29341 49.8812 9.58378 49.6876 9.77736 49.494C10.3581 49.0102 10.8421 48.623 11.4228 48.2358C11.6164 48.139 11.6164 47.8486 11.4228 47.655C11.3261 47.5583 11.2292 47.5583 11.1325 47.5583C11.0356 47.5583 10.9388 47.5583 10.8421 47.655C10.2613 48.0422 9.77736 48.5262 9.19661 48.9133C9.00303 49.1069 8.71266 49.3005 8.51907 49.494C8.42229 49.5909 8.32549 49.6876 8.2287 49.7845C8.13191 49.8812 8.13191 49.8812 8.03512 49.978C7.93833 50.0749 7.93833 50.1716 7.93833 50.2684C7.74475 50.2684 7.55117 50.2684 7.35758 50.2684C6.87363 50.2684 6.48647 50.2684 6.00251 50.2684C6.00251 50.2684 6.0993 50.2684 6.0993 50.1716C6.29288 49.978 6.58326 49.7845 6.77683 49.494C7.35758 49.0102 7.93833 48.4293 8.42229 47.9454C8.61586 47.7519 8.61586 47.5583 8.42229 47.3647C8.32549 47.2679 8.2287 47.2679 8.13191 47.2679C8.03513 47.2679 7.93833 47.2679 7.84154 47.3647C7.26079 47.8486 6.68005 48.4293 6.0993 48.9133C5.90572 49.1069 5.61535 49.3973 5.32498 49.5909C5.22818 49.6876 5.22818 49.6876 5.13139 49.7845C4.93781 49.3005 4.84102 48.8166 4.74423 48.3326C4.74423 48.3326 4.74423 48.3326 4.74423 48.2358C4.84102 48.2358 4.93781 48.2358 5.0346 48.139C5.13139 47.9454 5.32498 47.8486 5.51855 47.7519C5.71214 47.5583 6.00251 47.3647 6.1961 47.0743C6.68005 46.6871 7.06721 46.2032 7.55117 45.816C7.74475 45.6224 7.74475 45.332 7.55117 45.2353C7.45438 45.1384 7.35758 45.1384 7.26079 45.1384C7.164 45.1384 7.06721 45.1384 6.97042 45.2353C6.48646 45.6224 6.0993 46.0096 5.61535 46.4936C5.42176 46.6871 5.22818 46.8807 4.93782 47.0743C4.84102 47.1711 4.74423 47.2679 4.64744 47.3647C4.55064 46.4936 4.45386 45.7193 4.45386 44.8481C4.45386 44.8481 4.45386 44.9449 4.55065 44.9449C4.64744 45.0417 4.74423 45.0417 4.84102 45.0417C4.93781 45.0417 5.0346 44.9449 5.0346 44.9449C5.32498 44.6546 5.61535 44.3641 5.90572 44.1706C6.29289 43.7834 6.68005 43.3963 7.16401 43.1058C7.35758 42.9123 7.35758 42.622 7.16401 42.5251C7.06721 42.4284 6.97042 42.4284 6.87363 42.4284C6.77683 42.4284 6.68005 42.4284 6.58326 42.5251C6.1961 42.9123 5.71214 43.2027 5.32498 43.5898C5.13139 43.7834 5.0346 43.8802 4.84102 44.0738C4.74423 44.1706 4.55064 44.3641 4.45386 44.461C4.45386 44.2674 4.45386 44.1706 4.45386 44.0738C4.45386 43.6866 4.45386 43.2027 4.35707 42.8155C4.45386 42.8155 4.45386 42.8155 4.55065 42.7187C4.84102 42.4284 5.13139 42.138 5.42176 41.8476C5.80893 41.4604 6.29289 41.0733 6.68005 40.6861C6.87363 40.4925 6.87363 40.2021 6.68005 40.1054C6.58326 40.0085 6.48646 40.0085 6.38967 40.0085C6.29289 40.0085 6.1961 40.0085 6.0993 40.1054C5.71214 40.4925 5.32498 40.7828 4.93782 41.1701C4.74423 41.3637 4.55064 41.5572 4.45386 41.654L4.35707 41.7508C4.45386 40.9765 4.45386 40.299 4.45386 39.7182H4.55065C4.74423 39.5246 4.93781 39.3311 5.13139 39.1374C5.42176 38.8471 5.80893 38.5567 6.0993 38.2664C6.29288 38.0728 6.29288 37.7824 6.0993 37.6855C6.00251 37.5888 5.90572 37.5888 5.80893 37.5888C5.71214 37.5888 5.61535 37.5888 5.51855 37.6855C5.22818 37.9759 4.84102 38.2664 4.55065 38.5567C4.45386 38.6535 4.45386 38.6535 4.35707 38.7502C4.35707 37.8792 4.26027 37.0081 4.26027 36.1369C4.35707 36.3305 4.64744 36.3305 4.84102 36.1369C4.93781 36.0401 5.0346 35.9433 5.13139 35.9433C5.22818 35.8465 5.42177 35.7498 5.51855 35.6529C5.61535 35.5562 5.71214 35.5562 5.71214 35.4594C5.71214 35.3626 5.71214 35.2658 5.71214 35.169C5.61535 35.0722 5.61535 34.9755 5.51855 34.9755H5.42176C5.32498 34.9755 5.22818 34.9755 5.13139 35.0722C4.93781 35.169 4.74423 35.3626 4.64744 35.4594C4.55064 35.3626 4.45386 35.3626 4.35707 35.4594C4.35707 35.4594 4.35707 35.4594 4.35707 35.5562C4.35707 35.3626 4.35707 35.169 4.35707 34.9755C4.35707 34.2979 4.26027 33.6203 4.35707 32.9428ZM5.32498 44.7513C5.22818 44.7513 5.22818 44.7513 5.32498 44.7513V44.7513ZM13.4554 54.2368L13.3586 54.1401C13.2618 54.0432 13.1651 54.0432 13.0682 53.9465C12.8747 53.8496 12.7779 53.8496 12.5843 53.7529C12.4875 53.7529 12.2939 53.7529 12.1971 53.7529C12.1004 53.7529 12.0035 53.7529 11.9068 53.7529C11.7132 53.7529 11.5196 53.8496 11.3261 53.8496C11.1325 53.9465 11.0356 53.9465 10.8421 54.0432L10.7452 54.1401C10.6485 54.2368 10.6485 54.3336 10.5516 54.3336C10.5516 54.4304 10.4549 54.4304 10.4549 54.5272C10.2613 54.4304 10.0678 54.5272 9.87416 54.6239C9.68057 54.7208 9.58378 54.9144 9.48698 55.0112C9.39019 55.1079 9.29341 55.3015 9.19661 55.3983C9.09982 55.5919 9.00303 55.7855 8.90624 55.9791C8.80945 56.1727 8.71266 56.4631 8.71266 56.6566C8.71266 56.8502 8.71266 57.1405 8.71266 57.3341C8.71266 57.4309 8.71266 57.5277 8.71266 57.5277C8.71266 57.6245 8.80945 57.7213 8.90624 57.9149C9.00303 58.1085 9.09982 58.2052 9.29341 58.3988C9.3902 58.4957 9.48698 58.5924 9.58378 58.5924C9.68057 58.6892 9.87416 58.786 9.97092 58.786C10.3581 58.9795 10.7452 58.9795 11.1325 58.9795C11.326 58.9795 11.5196 58.9795 11.7132 58.8828C11.9068 58.8828 12.1004 58.6892 12.2939 58.6892C12.3907 58.6892 12.3907 58.5924 12.4875 58.5924C12.5843 58.4957 12.6811 58.3988 12.7779 58.3021C12.8747 58.2052 12.9715 58.1085 13.0682 57.9149C13.1651 57.7213 13.2618 57.5277 13.3586 57.4309C13.5522 57.1405 13.649 56.7534 13.7458 56.4631C13.8425 56.2694 13.8425 55.9791 13.9394 55.7855C13.9394 55.5919 14.0361 55.3983 14.0361 55.2048C14.0361 55.1079 14.0361 55.0112 13.9394 54.8176C13.9394 54.7208 13.8425 54.6239 13.8425 54.5272C13.649 54.5272 13.5522 54.4304 13.4554 54.2368ZM11.1325 55.1079C11.0356 55.1079 11.0356 55.1079 11.1325 55.1079V55.1079ZM9.87416 57.3341C9.87416 57.2374 9.87416 57.2374 9.87416 57.3341V57.3341ZM12.5843 55.8822C12.5843 56.0758 12.4875 56.2694 12.3907 56.5598C12.2939 56.8502 12.1004 57.1405 11.9068 57.3341C11.8099 57.4309 11.7132 57.5277 11.6164 57.7213C11.5196 57.8181 11.5196 57.8181 11.4228 57.9149C11.3261 57.9149 11.2292 58.0117 11.2292 58.0117H11.1325C11.0356 58.0117 10.9388 58.0117 10.8421 58.0117C10.7452 58.0117 10.6485 58.0117 10.5516 57.9149C10.4549 57.9149 10.3581 57.8181 10.2613 57.7213C10.1645 57.6245 10.1645 57.6245 10.0678 57.5277L9.97092 57.4309C9.97092 57.3341 9.97092 57.3341 9.87416 57.2374C9.87416 57.1405 9.87416 57.0438 9.87416 56.947C9.87416 56.8502 9.97092 56.6566 9.97092 56.5598C9.97092 56.4631 10.0678 56.3662 10.1645 56.2694C10.2613 56.1726 10.2613 56.0758 10.3581 55.9791C10.4549 55.8822 10.5516 55.7855 10.6485 55.6887L10.7452 55.5919C10.8421 55.5919 10.9388 55.4951 11.0356 55.3983C11.1325 55.3983 11.2292 55.3983 11.2292 55.3015C11.4228 55.2048 11.6164 55.2048 11.8099 55.1079C11.9068 55.1079 12.0035 55.1079 12.1004 55.1079C12.1971 55.1079 12.2939 55.1079 12.3907 55.2048C12.3907 55.2048 12.4875 55.2048 12.4875 55.3015C12.4875 55.3015 12.4875 55.3015 12.5843 55.3983C12.5843 55.3983 12.5843 55.4951 12.6811 55.4951V55.5919V55.6887C12.6811 55.6887 12.5843 55.7855 12.5843 55.8822Z" fill="black"/>
<path d="M31.9437 22.6834C32.234 22.877 32.5244 22.9738 32.8147 23.0706C33.0084 23.1674 33.1051 23.1674 33.2987 23.2642C33.4923 23.361 33.6858 23.4577 33.8794 23.4577C34.073 23.5546 34.3634 23.5546 34.557 23.6513C34.7505 23.7482 35.041 23.7482 35.2345 23.8449C35.4281 23.8449 35.6217 23.9417 35.8153 23.9417C36.0088 23.9417 36.2024 24.0385 36.2993 24.0385C36.4928 24.0385 36.7831 24.0385 36.9767 24.1353C37.2671 24.1353 37.4607 24.1353 37.7511 24.1353C38.1383 24.1353 38.5254 24.1353 38.9126 24.1353C39.1061 24.1353 39.2997 24.1353 39.4933 24.1353C39.7837 24.1353 40.074 24.1353 40.2676 24.0385C40.4612 24.0385 40.7516 23.9417 40.9452 23.9417C41.1387 23.9417 41.2356 23.8449 41.4292 23.8449C41.6227 23.8449 41.8163 23.7482 42.1067 23.7482C42.397 23.7482 42.5906 23.6513 42.881 23.5546C43.6553 23.361 44.4296 23.1674 45.204 22.877C45.9783 22.5867 46.7526 22.2963 47.5269 22.0059C47.7205 21.9091 47.9141 21.8123 48.1077 21.7156C48.3013 21.6187 48.5917 21.522 48.7852 21.3284C48.9788 21.2316 49.1724 21.1348 49.2692 21.038C49.4628 20.9412 49.6564 20.8444 49.8499 20.6508C50.5275 20.1669 51.205 19.683 51.7858 19.0054C52.5601 18.2311 53.1408 17.36 53.6248 16.4888C54.3991 15.037 54.5927 13.3915 54.496 11.7461C54.496 11.0685 54.3023 10.4878 54.1087 9.81025C53.9151 9.2295 53.6248 8.74555 53.3344 8.2616C53.2377 8.06802 53.0441 7.97122 52.9473 7.77765C52.7537 7.58406 52.4633 7.39048 52.2697 7.1969C52.173 7.29369 51.8825 7.1969 51.5922 7.1001C51.3018 7.00331 51.0114 7.00331 50.7211 6.90653C50.6242 6.90653 50.4307 6.90653 50.3339 6.90653C49.9468 6.90653 49.4628 7.00331 49.0756 7.1001C48.9788 7.1001 48.7852 7.1969 48.4949 7.29369C48.2045 7.39048 47.9141 7.58406 47.6238 7.77765C47.4302 7.1001 47.2366 6.42257 46.9462 5.84182C46.6558 5.26107 46.0751 4.68034 45.4943 4.29317C44.9136 4.00279 44.2361 3.71242 43.5585 3.61563C43.3649 3.61563 43.2682 3.61563 43.0746 3.61563C42.9778 3.61563 42.9778 3.61563 42.881 3.61563C42.6874 3.61563 42.5906 3.61563 42.397 3.71242C42.2035 3.71242 41.913 3.80922 41.7195 3.906C41.3323 4.00279 40.9452 4.19638 40.558 4.38996C40.2676 4.58354 39.8805 4.77712 39.5901 4.97071C39.3966 5.0675 39.203 5.26107 39.0093 5.45466C38.8157 5.55145 38.719 5.74503 38.6222 5.93862C38.6222 5.93862 38.6222 5.93862 38.5254 5.93862C38.1383 5.74503 37.7511 5.64824 37.2671 5.55145C37.0736 5.55145 36.88 5.45466 36.6864 5.45466C36.4928 5.45466 36.2993 5.45466 36.0088 5.45466C35.8153 5.45466 35.5249 5.45466 35.3313 5.45466C34.9441 5.55145 34.6538 5.64824 34.2666 5.74503C33.8794 5.93862 33.4923 6.13219 33.2019 6.42257C32.6211 6.90653 32.0404 7.58406 31.7501 8.35838C31.4597 9.13272 31.3629 9.90704 31.3629 10.6814C31.3629 10.8749 31.3629 10.9718 31.4597 11.1653C31.4597 11.3589 31.5565 11.5525 31.6532 11.7461C31.4597 11.8429 31.2661 11.8429 31.0725 11.9396C30.5885 12.1332 30.2014 12.4236 29.9111 12.8108C29.4271 13.1979 29.1367 13.6819 28.8463 14.1658C28.5559 14.553 28.3624 15.1338 28.2656 15.5209C28.1688 15.7145 28.1688 16.0048 28.1688 16.1984C28.1688 16.4888 28.0719 16.7792 28.0719 17.0695C28.0719 17.6503 28.1688 18.2311 28.3624 18.715C28.4592 19.199 28.6528 19.5861 28.9431 20.0701C29.1367 20.4573 29.4271 20.7476 29.6206 21.038C29.9111 21.4251 30.2014 21.7156 30.5885 21.9091C31.1693 22.2963 31.5565 22.4899 31.9437 22.6834ZM30.5885 20.1669C30.5885 20.0701 30.4918 19.9733 30.3949 19.8765C30.5885 19.5861 30.8789 19.3926 31.1692 19.199C31.6532 18.8118 32.1372 18.3278 32.6211 17.9407C32.8147 17.7471 32.8147 17.4567 32.6211 17.36C32.5244 17.2631 32.4275 17.2631 32.3308 17.2631C32.234 17.2631 32.1372 17.2631 32.0404 17.36C31.5565 17.7471 31.1692 18.1343 30.6854 18.5214C30.4918 18.715 30.2982 18.9086 30.1046 19.0054L30.0078 19.1021C30.0078 19.1021 30.0078 19.0054 29.9111 19.0054C29.8142 18.8118 29.8142 18.6183 29.7174 18.5214C29.7174 18.2311 29.6206 17.9407 29.6206 17.7471C29.6206 17.7471 29.7174 17.7471 29.7174 17.6503C29.8142 17.5535 29.9111 17.4567 30.0078 17.36C30.1046 17.2631 30.2982 17.1664 30.3949 16.9728C30.6854 16.6824 31.0725 16.3921 31.3629 16.1017C31.5565 15.9081 31.5565 15.7145 31.3629 15.5209C31.2661 15.4241 31.1693 15.4241 31.0725 15.4241C30.9757 15.4241 30.8789 15.4241 30.7821 15.5209C30.4918 15.8113 30.1046 16.1017 29.8142 16.3921C29.7174 16.4888 29.6206 16.5857 29.6206 16.5857C29.6206 16.4888 29.6206 16.3921 29.6206 16.2952C29.6206 16.1017 29.7174 15.9081 29.7174 15.8113C29.8142 15.6177 29.8142 15.3274 29.9111 15.1338C30.0078 14.9402 30.0078 14.8434 30.1046 14.7466C30.2014 14.553 30.3949 14.2626 30.4918 14.0691C30.5885 13.9722 30.6854 13.8755 30.7821 13.7787C30.8789 13.6819 30.9757 13.5851 31.1692 13.4883C31.2661 13.3915 31.3629 13.2948 31.5565 13.1979C31.6532 13.1011 31.8468 13.0044 32.0404 13.0044C32.1372 13.0044 32.234 12.9075 32.3308 12.9075C32.5244 12.8108 32.718 12.8108 32.9115 12.8108C33.2019 12.8108 33.3955 12.8108 33.6858 12.8108C33.8794 12.9075 34.1698 12.9075 34.3634 13.0044C34.557 13.1011 34.7506 13.1979 34.8474 13.2948C35.1377 13.4883 35.3313 13.7787 35.6217 14.0691C35.7184 14.2626 35.9121 14.3594 36.0088 14.4562C36.0088 14.553 36.1057 14.6498 36.1057 14.6498C36.2024 14.8434 36.4928 14.9402 36.6864 14.8434C36.88 14.7466 36.88 14.553 36.88 14.3594C36.88 14.2626 36.88 14.2626 36.7831 14.1658C36.7831 14.0691 36.7831 13.9722 36.7831 13.9722C36.7831 13.8755 36.7831 13.7787 36.7831 13.7787C36.7831 13.6819 36.6864 13.5851 36.6864 13.4883C36.5896 13.2948 36.5896 13.1979 36.4928 13.1011C36.396 13.0044 36.2993 12.8108 36.2024 12.7139C36.0088 12.4236 35.7184 12.2301 35.3313 12.0365C35.1377 11.9396 35.041 11.8429 34.8474 11.8429C34.557 11.7461 34.2666 11.6493 34.073 11.6493C33.7827 11.6493 33.4923 11.5525 33.2019 11.6493C33.2019 11.5525 33.1051 11.5525 33.1051 11.4557C33.0084 11.2621 32.9115 10.9718 32.9115 10.7782C32.9115 10.4878 32.9115 10.1974 32.9115 9.90704C33.0084 9.51988 33.1051 9.2295 33.2019 8.93913C33.2987 8.64876 33.4923 8.35838 33.6858 8.06802C33.8794 7.87443 34.073 7.68085 34.2666 7.48727C34.557 7.29369 34.8474 7.1001 35.1377 7.00331C35.4281 6.90653 35.6217 6.80973 35.9121 6.80973C36.2993 6.80973 36.5896 6.80973 36.9767 6.80973C37.0736 6.80973 37.1703 6.80973 37.2671 6.80973C37.3639 6.80973 37.5575 6.90653 37.6543 6.90653C37.8479 7.00331 38.0414 7.00331 38.235 7.1001C38.4286 7.1969 38.719 7.29369 38.9126 7.39048C39.1061 7.48727 39.2997 7.58406 39.3966 7.77765C39.6869 7.97122 39.8805 8.16481 40.1709 8.45518C40.4612 8.64876 40.8484 8.64876 41.042 8.45518C41.2356 8.2616 41.3323 7.77765 41.042 7.58406C40.7516 7.29369 40.3644 7.00331 39.9773 6.71294C39.9773 6.71294 39.8805 6.71294 39.8805 6.61615C39.7837 6.32578 39.8805 6.32578 39.8805 6.22899C39.9773 6.13219 40.1709 6.03541 40.2676 5.93862C40.4612 5.84182 40.6549 5.64824 40.8484 5.55145C41.042 5.35787 41.3323 5.35787 41.5259 5.26107C41.7195 5.16429 41.913 5.16429 42.1067 5.0675C42.3003 4.9707 42.4939 4.97071 42.6874 4.97071C42.6874 4.97071 42.6874 4.97071 42.7842 4.97071C42.881 4.97071 42.9778 4.97071 43.0746 4.97071C43.2682 4.97071 43.4618 4.97071 43.6553 4.97071C43.7522 4.97071 43.8489 4.97071 43.8489 4.97071C44.0425 4.97071 44.2361 5.0675 44.4296 5.16429C44.5265 5.26107 44.6232 5.26107 44.72 5.35787C44.8168 5.35787 44.9136 5.45466 45.1072 5.55145C45.3008 5.74503 45.4943 5.84182 45.5912 6.03541C45.6879 6.13219 45.7848 6.32578 45.8815 6.42257C45.9783 6.51936 46.0751 6.71294 46.0751 6.80973C46.1719 7.00331 46.2686 7.29369 46.3655 7.48727C46.4622 7.87443 46.5591 8.26159 46.6558 8.64876C46.6558 8.64876 46.6558 8.64876 46.6558 8.74555C46.6558 8.74555 46.6558 8.74555 46.6558 8.84234C46.4622 9.13272 46.2686 9.3263 46.1719 9.61666C46.0751 9.90704 45.9783 10.1006 45.8815 10.391C45.7848 10.5846 45.8815 10.7782 45.9783 10.8749C46.0751 10.9718 46.1719 11.1653 46.3655 11.1653C46.5591 11.1653 46.7526 11.1653 46.8495 11.0685C47.0431 10.9718 47.043 10.8749 47.1398 10.6814C47.1398 10.5846 47.2366 10.4878 47.2366 10.391C47.4302 10.0038 47.6238 9.71346 47.8174 9.42309C47.9141 9.3263 47.9141 9.2295 48.0109 9.13272C48.2045 8.93913 48.3013 8.84234 48.4949 8.64876C48.5917 8.55197 48.6885 8.45518 48.8821 8.45518C48.9788 8.35838 49.0756 8.35839 49.2692 8.2616C49.1724 8.35839 49.366 8.2616 49.4628 8.2616C49.5595 8.2616 49.7531 8.16481 49.8499 8.16481C49.9468 8.16481 50.1404 8.16481 50.2371 8.16481C50.4307 8.16481 50.5275 8.16481 50.7211 8.16481C50.8178 8.16481 50.9147 8.16481 51.0114 8.2616C51.1082 8.2616 51.205 8.35838 51.3986 8.35838C51.5922 8.45518 51.7858 8.55197 51.8825 8.64876C51.9794 8.74555 52.0761 8.74555 52.173 8.84234C52.2697 8.93913 52.3665 9.03593 52.4633 9.13272C52.5601 9.2295 52.6568 9.3263 52.6568 9.42309C52.7537 9.61667 52.8504 9.81025 53.0441 10.1006C53.1408 10.2942 53.2377 10.5846 53.3344 10.7782C53.4312 11.0685 53.4312 11.3589 53.528 11.5525C53.6248 12.2301 53.6248 13.0044 53.528 13.6819C53.528 13.9722 53.4312 14.2626 53.3344 14.553C53.2377 14.9402 53.1408 15.2305 52.9473 15.6177C52.8504 15.9081 52.7537 16.1017 52.5601 16.2952C52.4633 16.4888 52.3665 16.5857 52.2697 16.7792C52.0761 17.0695 51.9794 17.2631 51.7858 17.4567L51.8825 17.36C51.689 17.5535 51.5922 17.7471 51.3986 17.9407C51.3018 18.0375 51.205 18.1343 51.1082 18.2311C51.0114 18.3278 50.9147 18.4247 50.8178 18.5214C50.7211 18.6183 50.6242 18.715 50.5275 18.8118C50.4307 18.9086 50.3339 19.0054 50.2371 19.1021C50.2371 19.1021 50.1404 19.199 50.0435 19.199C50.3339 18.715 50.6242 18.2311 50.9147 17.7471C51.0114 17.5535 51.0114 17.2631 50.8178 17.1664C50.7211 17.1664 50.6242 17.0695 50.6242 17.0695C50.5275 17.0695 50.3339 17.1664 50.2371 17.2631C49.9468 17.7471 49.6564 18.2311 49.366 18.715C49.1724 19.0054 49.0756 19.199 48.8821 19.4894C48.7852 19.683 48.6885 19.7797 48.5917 19.9733C48.5917 20.0701 48.4949 20.1669 48.5917 20.2637C48.4949 20.3604 48.3981 20.3604 48.3013 20.4573C48.1077 20.6508 47.8174 20.7476 47.5269 20.8444C47.3334 20.9412 47.0431 21.038 46.8495 21.1348C47.2366 20.6508 47.6238 20.1669 48.0109 19.683C48.1077 19.5861 48.1077 19.4894 48.1077 19.3926C48.1077 19.2957 48.0109 19.199 47.9141 19.1021C47.8174 19.1021 47.7205 19.0054 47.7205 19.0054H47.6238C47.5269 19.0054 47.4302 19.1021 47.3334 19.199C46.7526 19.8765 46.2686 20.554 45.6879 21.2316C45.5912 21.3284 45.5912 21.3284 45.4943 21.4251C45.3976 21.522 45.3976 21.6187 45.4943 21.7156C45.0104 21.9091 44.4296 22.1027 43.9457 22.1994C44.1393 21.9091 44.4296 21.6187 44.6232 21.3284C44.72 21.2316 44.72 21.1348 44.72 21.038C44.72 20.9412 44.72 20.8444 44.6232 20.7476C44.5265 20.6508 44.4296 20.6508 44.3329 20.6508C44.2361 20.6508 44.1393 20.6508 44.0425 20.7476C43.7522 21.1348 43.4618 21.4251 43.1713 21.8123C42.9778 22.0059 42.881 22.1027 42.7842 22.2963C42.6874 22.393 42.6875 22.4899 42.5906 22.5867C42.4939 22.5867 42.4939 22.5867 42.397 22.5867C41.913 22.6834 41.5259 22.7803 41.042 22.877C40.7516 22.877 40.558 22.9739 40.2676 22.9739C40.558 22.6834 40.8484 22.4899 41.1387 22.1994C41.3323 22.0059 41.3323 21.7156 41.1387 21.6187C41.042 21.522 40.9452 21.522 40.8484 21.522C40.7516 21.522 40.6549 21.522 40.558 21.6187C40.1709 21.9091 39.8805 22.1994 39.5901 22.4899C39.3966 22.5867 39.2997 22.7803 39.1061 22.877C39.0093 22.9739 39.0094 22.9738 38.9126 23.0706C38.8157 23.0706 38.719 23.0706 38.5254 23.0706C38.3318 23.0706 38.0414 23.0706 37.8479 23.0706C37.6543 23.0706 37.4607 23.0706 37.2671 23.0706C37.0736 23.0706 36.88 23.0706 36.7831 23.0706C37.3639 22.6834 37.8479 22.1994 38.4286 21.8123C38.5254 21.7156 38.5254 21.6187 38.5254 21.522C38.5254 21.4251 38.5254 21.3284 38.4286 21.2316C38.3318 21.1348 38.235 21.1348 38.1383 21.1348C38.0414 21.1348 37.9447 21.1348 37.8479 21.2316C37.4607 21.522 37.0736 21.8123 36.5896 22.1994C36.2993 22.393 36.1057 22.5867 35.8153 22.7803C35.7184 22.7803 35.7184 22.877 35.7184 22.9739C35.6217 22.9739 35.5249 22.9739 35.4281 22.9739C35.1377 22.9739 34.9441 22.877 34.6538 22.7803C34.3634 22.6834 33.9762 22.5867 33.6858 22.4899C33.7827 22.393 33.9762 22.2963 34.073 22.1994C34.6538 21.8123 35.1377 21.4251 35.7184 21.038C35.8153 20.9412 35.8153 20.8444 35.8153 20.7476C35.8153 20.6508 35.8153 20.554 35.7184 20.4573C35.6217 20.3604 35.5249 20.3604 35.4281 20.3604C35.3313 20.3604 35.2345 20.4573 35.1377 20.4573C34.7505 20.7476 34.3634 21.038 33.8794 21.4251C33.6858 21.522 33.5891 21.7156 33.3955 21.8123C33.2987 21.9091 33.2019 22.0059 33.1051 22.0059L33.0084 22.1027C33.0084 22.1027 33.0084 22.1994 32.9115 22.2963C32.8147 22.2963 32.8147 22.1994 32.718 22.1994C32.5244 22.1027 32.3308 22.0059 32.1372 21.9091C31.9437 21.8123 31.7501 21.7156 31.6532 21.522C31.8468 21.3284 32.1372 21.1348 32.3308 20.9412C32.8147 20.554 33.2019 20.1669 33.6858 19.7797C33.8794 19.683 33.8794 19.3926 33.6858 19.199C33.5891 19.1021 33.4923 19.1021 33.3955 19.1021C33.2987 19.1021 33.2019 19.1021 33.1051 19.199C32.6211 19.5861 32.1372 19.9733 31.7501 20.3604C31.5565 20.554 31.2661 20.7476 31.0725 21.038C30.9757 20.554 30.7821 20.3604 30.5885 20.1669C30.6854 20.2637 30.6854 20.2637 30.6854 20.2637C30.5885 20.1669 30.5885 20.1669 30.5885 20.1669ZM32.8147 23.1674C32.718 23.1674 32.718 23.0706 32.718 23.0706C32.8147 23.1674 32.8147 23.1674 32.8147 23.1674ZM11.8111 18.5214C11.8111 18.4247 11.8111 18.4247 11.8111 18.5214V18.5214ZM44.8168 32.2658C44.8168 32.0722 44.72 31.7818 44.72 31.5882C44.72 31.2978 44.6232 31.1042 44.6232 30.8139C44.5265 30.5235 44.5265 30.3299 44.4296 30.0395C44.4296 29.8459 44.4296 29.7492 44.3329 29.5556C44.2361 29.362 44.1393 29.2652 43.9457 29.2652H43.8489C43.6553 29.362 43.4618 29.5556 43.5585 29.7492C43.5585 29.8459 43.5585 29.9428 43.6553 30.0395C43.6553 30.4268 43.6553 30.8139 43.6553 31.2011C43.6553 31.5882 43.6553 31.9754 43.7522 32.3625C43.8489 33.2337 43.8489 34.008 43.9457 34.8791C44.0425 35.7502 44.0425 36.5245 44.1393 37.3957C44.1393 38.2668 44.2361 39.0411 44.1393 39.9123C44.1393 40.2026 44.0425 40.493 43.9457 40.7833C43.8489 40.9769 43.7522 41.0737 43.6553 41.2673C43.5585 41.4609 43.3649 41.5577 43.1713 41.7513C42.9778 41.9449 42.7842 42.0416 42.5906 42.1384C42.397 42.2352 42.2035 42.332 42.0099 42.4287C41.4292 42.6224 40.9452 42.816 40.3644 42.9127C39.7837 43.0096 39.1062 43.2032 38.5254 43.2999C38.0414 43.3967 37.5575 43.3967 37.0736 43.4935C36.4928 43.4935 36.0088 43.5903 35.4281 43.5903C34.9441 43.5903 34.3634 43.5903 33.8794 43.687C33.5891 43.687 33.3955 43.687 33.1051 43.7839C32.8147 43.7839 32.5244 43.8806 32.234 43.8806C32.718 43.2999 33.2019 42.816 33.6858 42.332C33.9762 42.0416 34.2666 41.848 34.4602 41.5577C34.557 41.4609 34.7506 41.2673 34.8474 41.1706C34.9441 41.0737 35.041 40.8801 35.1377 40.7833C35.3313 40.6866 35.3313 40.3962 35.2345 40.2026C35.1377 40.1058 35.041 40.009 34.8474 40.009C34.7506 40.009 34.7505 40.009 34.6538 40.1058C34.557 40.1058 34.557 40.2026 34.4602 40.2026C34.3634 40.2994 34.1698 40.2994 34.073 40.3962C33.8794 40.493 33.7827 40.6866 33.5891 40.7833C33.2987 40.9769 33.0084 41.2673 32.718 41.5577C32.1372 42.1384 31.4597 42.6224 30.8789 43.2031C30.7821 43.2999 30.6854 43.4935 30.4918 43.5903C30.2982 43.8806 30.0078 44.171 30.0078 44.5582C30.0078 44.7518 30.0078 44.8486 30.1046 45.0422C30.1046 45.1389 30.1046 45.1389 30.2014 45.2357C30.2982 45.3325 30.2982 45.4293 30.3949 45.5261C30.5885 45.6229 30.6854 45.7197 30.8789 45.9133C31.0725 46.0101 31.1693 46.1069 31.3629 46.2036C32.234 46.5908 33.0084 46.9779 33.8794 47.3652C33.9762 47.4619 34.1698 47.3652 34.2666 47.2683C34.3634 47.1715 34.4602 47.0748 34.557 46.9779C34.557 46.8812 34.557 46.6876 34.4602 46.5908C34.3634 46.494 34.2666 46.3972 34.1698 46.3972C34.073 46.3005 33.8794 46.3005 33.7827 46.2036H33.8794C33.4923 46.01 33.1051 45.9133 32.8147 45.7197C32.5244 45.5261 32.234 45.4293 31.9437 45.2357C32.8147 45.1389 33.6858 45.1389 34.557 45.0422C35.4281 45.0422 36.2024 44.9453 37.0736 44.8486C37.9447 44.7518 38.8157 44.655 39.6869 44.4614C40.074 44.3646 40.4612 44.2679 40.8484 44.171C41.042 44.0742 41.2356 44.0742 41.5259 43.9775C41.7195 43.8806 41.913 43.7839 42.1067 43.7839C42.5906 43.5903 42.9778 43.3967 43.3649 43.2031C43.8489 43.0096 44.2361 42.6224 44.5265 42.332C44.72 42.1384 44.8168 42.0416 44.9136 41.848C45.0104 41.6544 45.1072 41.4609 45.204 41.2673C45.3008 40.8801 45.3976 40.3962 45.3976 39.9123C45.3976 39.0411 45.3008 38.17 45.3008 37.3957C45.2039 35.5567 45.0104 33.9112 44.8168 32.2658ZM24.5875 8.06802C24.3939 7.77765 24.1036 7.48727 23.8132 7.1969C23.6196 6.90653 23.3292 6.71294 23.0389 6.42257C22.942 6.32578 22.8453 6.22899 22.7485 6.13219C22.6517 6.03541 22.6517 6.03541 22.5549 6.03541C22.4581 6.03541 22.4581 5.93862 22.3613 5.93862C22.3613 5.93862 22.3613 5.93862 22.2646 5.93862C22.1677 5.93862 22.1677 5.84182 22.0709 5.84182C21.9742 5.84182 21.7806 5.93862 21.6837 6.03541C21.587 6.22899 21.587 6.42257 21.7806 6.61615C21.8773 6.90653 22.1677 7.00331 22.3613 7.1969C22.5549 7.39048 22.7485 7.68085 22.942 7.87443C23.0389 8.06801 23.1356 8.2616 23.3292 8.35838C21.7806 8.16481 20.1351 8.06802 18.4897 7.97122C18.1993 7.97122 17.909 7.97122 17.6186 7.97122C17.1346 7.97122 16.6507 7.97122 16.1667 7.97122C15.3924 7.97122 14.5212 8.06802 13.7469 8.06802C13.3598 8.06802 12.9726 8.16481 12.5854 8.16481C12.2951 8.16481 12.0047 8.2616 11.7144 8.2616C11.5208 8.2616 11.3272 8.35838 11.1335 8.35838C11.0368 8.35838 10.94 8.45518 10.8432 8.45518C10.7464 8.45518 10.5528 8.55197 10.4561 8.64876C10.3592 8.64876 10.3592 8.74555 10.2625 8.74555C10.2625 9.03593 10.1656 9.13272 10.1656 9.2295C10.0689 9.42309 9.97211 9.61668 9.97211 9.81025C9.97211 10.1006 9.97211 10.391 9.97211 10.6814C9.97211 11.0685 9.97211 11.5525 9.97211 11.9396C9.97211 12.7139 9.97211 13.4883 10.0689 14.2626C10.0689 15.1338 10.2625 16.0048 10.3592 16.876C10.3592 17.1664 10.4561 17.36 10.5528 17.6503C10.6496 17.9407 10.8432 18.2311 10.9399 18.5214C10.9399 18.6183 11.0368 18.715 11.0368 18.8118C11.1335 19.0054 11.4239 19.1021 11.6175 19.0054C11.8111 18.9086 11.9079 18.6183 11.8111 18.4247C11.8111 18.4247 11.8111 18.3278 11.7144 18.3278C11.7144 18.0375 11.7144 17.6503 11.6175 17.36C11.6175 17.0695 11.5208 16.7792 11.5208 16.4888C11.4239 15.4241 11.3272 14.3594 11.3272 13.2948C11.3272 12.2301 11.2304 11.1653 11.4239 10.1006C11.4239 10.0038 11.4239 10.0038 11.4239 9.90704C11.4239 9.90704 11.4239 9.90704 11.4239 9.81025C11.4239 9.81025 11.4239 9.81025 11.5208 9.71346C11.6175 9.61667 11.7144 9.61667 11.8111 9.51988C12.2951 9.3263 12.8758 9.2295 13.3598 9.13272H13.263C16.7474 8.74555 20.3287 9.03593 23.7164 9.42309C23.8132 9.42309 23.91 9.42309 24.0068 9.3263C24.0068 9.3263 24.0068 9.42309 23.91 9.42309C23.5228 9.81025 23.1356 10.1974 22.6517 10.5846C22.1677 10.8749 21.7806 11.2621 21.2966 11.5525C21.1999 11.6493 21.103 11.7461 21.103 11.8429C21.103 11.9396 21.103 12.0365 21.103 12.2301C21.1999 12.4236 21.4902 12.5204 21.6837 12.4236C22.071 12.1332 22.3613 11.9396 22.7485 11.6493C23.0389 11.4557 23.426 11.1653 23.7164 10.9718C24.0068 10.7782 24.3939 10.4878 24.6843 10.2942C24.8779 10.1006 25.1682 9.90704 25.265 9.61666C25.3619 9.3263 25.265 9.03593 25.0715 8.74555C25.0715 8.55197 24.7811 8.35838 24.5875 8.06802Z" fill="black"/>
</g>
<defs>
<clipPath id="clip0_2_57">
<rect width="56.0464" height="61.946" fill="white" transform="translate(0.00302124 0.517944)"/>
</clipPath>
</defs>
</svg>
