<svg width="20" height="20" viewBox="0 0 20 20" fill="none" xmlns="http://www.w3.org/2000/svg">
<path d="M10 1.66699C14.6083 1.66699 18.3333 5.40033 18.3333 10.0003C18.3333 14.6087 14.6083 18.3337 10 18.3337C5.40001 18.3337 1.66668 14.6087 1.66668 10.0003C1.66668 5.40033 5.40001 1.66699 10 1.66699ZM9.70835 5.77533C9.36668 5.77533 9.08335 6.05033 9.08335 6.40033V10.6087C9.08335 10.8253 9.20001 11.0253 9.39168 11.142L12.6583 13.092C12.7583 13.1503 12.8667 13.1837 12.9833 13.1837C13.1917 13.1837 13.4 13.0753 13.5167 12.8753C13.6917 12.5837 13.6 12.2003 13.3 12.017L10.3333 10.2503V6.40033C10.3333 6.05033 10.05 5.77533 9.70835 5.77533Z" fill="#060B27"/>
</svg>
