<svg width="31" height="29" viewBox="0 0 31 29" fill="none" xmlns="http://www.w3.org/2000/svg">
<path fill-rule="evenodd" clip-rule="evenodd" d="M12.2528 5.80552C12.1616 5.3371 12.0929 4.87399 12.0485 4.41083C11.9817 3.71611 12.023 3.01607 11.9993 2.32134C11.989 2.0266 11.9483 1.25819 11.9646 1.14767C12.1136 0.184517 13.0113 0.0371314 13.2739 0.0108157C13.4009 -0.00497362 14.7053 -0.131232 14.9867 1.12139C15.332 2.65296 15.4426 4.19503 15.3204 5.70556C15.6055 6.98976 16.093 8.26866 16.7367 9.42655C19.298 14.0318 24.1787 14.4791 29.4668 14.437C30.28 14.4265 30.9553 14.9791 30.9979 15.6791C31.0404 16.3844 30.4351 16.9949 29.6254 17.0581C26.6696 17.3054 21.4253 19.3581 19.6122 21.4949C19.2329 21.9423 19.0123 23.0212 18.7205 24.0791C18.3133 25.5475 17.8289 27.0002 17.2861 27.6107C17.2047 27.7054 16.2145 28.6738 15.9191 28.8159C15.2092 29.1528 14.6409 28.958 14.3181 28.779C13.9954 28.6001 13.6301 28.2475 13.4842 27.6633C13.3317 27.0527 13.4605 25.8001 13.4368 25.5317C13.3505 24.558 13.1256 22.6475 12.6667 21.0054C12.4193 20.1212 12.1555 19.3054 11.7191 18.9002C10.1035 17.4002 7.52028 17.6213 5.34492 17.8686C5.09508 17.895 4.84528 17.9265 4.59607 17.9528C3.71048 18.1792 2.77016 18.3475 1.77638 18.4475C0.275671 18.6002 0.0289136 17.4054 0.0155416 17.3265C-0.0124181 17.1528 -0.116366 16.2581 1.01479 15.9002C1.13817 15.8634 2.0487 15.6897 2.39941 15.6212C2.88809 15.5265 3.38224 15.4529 3.87822 15.3844C9.00151 14.0055 11.7842 10.1318 12.2528 5.80552ZM14.0112 10.5897C15.9453 14.0529 18.8804 15.7265 22.3596 16.4844H22.359C20.1866 17.4686 18.2106 18.7002 17.1633 19.937C16.7658 20.4055 16.4011 21.3475 16.0723 22.4054C15.8942 21.4212 15.6535 20.3738 15.3356 19.4791C14.974 18.4581 14.4871 17.6107 13.9437 17.1055C12.8946 16.1318 11.5781 15.5897 10.1624 15.3213C11.857 14.0213 13.142 12.4003 14.0112 10.5897Z" fill="black"/>
</svg>
