<svg width="33" height="32" viewBox="0 0 33 32" fill="none" xmlns="http://www.w3.org/2000/svg">
<path d="M16.46 2.66675C9.10001 2.66675 3.12668 8.64008 3.12668 16.0001C3.12668 23.3601 9.10001 29.3334 16.46 29.3334C23.82 29.3334 29.7933 23.3601 29.7933 16.0001C29.7933 8.64008 23.8333 2.66675 16.46 2.66675ZM20.46 18.9734L16.5933 21.2001C16.1133 21.4801 15.58 21.6134 15.06 21.6134C14.5267 21.6134 14.0067 21.4801 13.5267 21.2001C12.5667 20.6401 11.9933 19.6534 11.9933 18.5334V14.0667C11.9933 12.9601 12.5667 11.9601 13.5267 11.4001C14.4867 10.8401 15.6333 10.8401 16.6067 11.4001L20.4733 13.6267C21.4333 14.1867 22.0067 15.1734 22.0067 16.2934C22.0067 17.4134 21.4333 18.4134 20.46 18.9734Z" fill="white"/>
</svg>
