<svg width="18" height="18" viewBox="0 0 18 18" fill="none" xmlns="http://www.w3.org/2000/svg">
<path d="M9.26299 1.74487C5.37285 1.74487 2.21564 4.90209 2.21564 8.79223C2.21564 12.6824 5.37285 15.8396 9.26299 15.8396C13.1531 15.8396 16.3103 12.6824 16.3103 8.79223C16.3103 4.90209 13.1602 1.74487 9.26299 1.74487ZM11.3772 10.3638L9.33346 11.5407C9.07976 11.6887 8.79787 11.7592 8.52302 11.7592C8.24112 11.7592 7.96628 11.6887 7.71257 11.5407C7.20516 11.2447 6.90213 10.7232 6.90213 10.1312V7.77036C6.90213 7.18543 7.20516 6.65688 7.71257 6.36089C8.21998 6.0649 8.82606 6.0649 9.34051 6.36089L11.3842 7.5378C11.8917 7.83379 12.1947 8.35529 12.1947 8.94727C12.1947 9.53925 11.8917 10.0678 11.3772 10.3638Z" fill="#292D32"/>
</svg>
