<svg width="15" height="15" viewBox="0 0 15 15" fill="none" xmlns="http://www.w3.org/2000/svg">
<path d="M7.45191 2.02357C4.24927 2.02357 1.65002 4.62282 1.65002 7.82546C1.65002 11.0281 4.24927 13.6273 7.45191 13.6273C10.6546 13.6273 13.2538 11.0281 13.2538 7.82546C13.2538 4.62282 10.6604 2.02357 7.45191 2.02357ZM9.19248 9.11928L7.50993 10.0882C7.30106 10.21 7.06899 10.2681 6.84271 10.2681C6.61064 10.2681 6.38436 10.21 6.1755 10.0882C5.75776 9.84452 5.50828 9.41518 5.50828 8.92782V6.98419C5.50828 6.50263 5.75776 6.06749 6.1755 5.82381C6.59323 5.58013 7.09219 5.58013 7.51573 5.82381L9.19828 6.79273C9.61601 7.03641 9.8655 7.46574 9.8655 7.9531C9.8655 8.44046 9.61601 8.8756 9.19248 9.11928Z" fill="#292D32"/>
</svg>
