<svg width="23" height="24" viewBox="0 0 23 24" fill="none" xmlns="http://www.w3.org/2000/svg">
<path d="M11.2795 2.49512C6.09268 2.49512 1.88306 6.70474 1.88306 11.8916C1.88306 17.0784 6.09268 21.2881 11.2795 21.2881C16.4664 21.2881 20.676 17.0784 20.676 11.8916C20.676 6.70474 16.4758 2.49512 11.2795 2.49512ZM14.0985 13.987L11.3735 15.5562C11.0352 15.7535 10.6594 15.8475 10.2929 15.8475C9.91704 15.8475 9.55058 15.7535 9.21231 15.5562C8.53576 15.1616 8.13171 14.4662 8.13171 13.6769V10.5291C8.13171 9.74919 8.53576 9.04446 9.21231 8.64981C9.88885 8.25515 10.6969 8.25515 11.3829 8.64981L14.1079 10.219C14.7844 10.6137 15.1885 11.309 15.1885 12.0983C15.1885 12.8876 14.7844 13.5924 14.0985 13.987Z" fill="white"/>
</svg>
