<svg width="25" height="25" viewBox="0 0 25 25" fill="none" xmlns="http://www.w3.org/2000/svg">
<path d="M12.47 2.5C6.95 2.5 2.47 6.98 2.47 12.5C2.47 18.02 6.95 22.5 12.47 22.5C17.99 22.5 22.47 18.02 22.47 12.5C22.47 6.98 18 2.5 12.47 2.5ZM15.47 14.73L12.57 16.4C12.21 16.61 11.81 16.71 11.42 16.71C11.02 16.71 10.63 16.61 10.27 16.4C9.55 15.98 9.12 15.24 9.12 14.4V11.05C9.12 10.22 9.55 9.47 10.27 9.05C10.99 8.63 11.85 8.63 12.58 9.05L15.48 10.72C16.2 11.14 16.63 11.88 16.63 12.72C16.63 13.56 16.2 14.31 15.47 14.73Z" fill="#292D32"/>
</svg>
